<?xml version="1.0" encoding="UTF-8"?>
<!-- Generator: Adobe Illustrator 25.4.1, SVG Export Plug-In . SVG Version: 6.00 Build 0)  -->
<svg xmlns="http://www.w3.org/2000/svg" xmlns:xlink="http://www.w3.org/1999/xlink" version="1.1" id="Capa_1" x="0px" y="0px" viewBox="0 0 512 512" style="enable-background:new 0 0 512 512;" xml:space="preserve" width="512" height="512">
<g>
	<g>
		<path style="fill:#241726;" d="M383.493,102.105c-1.605,0-5.246-3.848-10.828-11.442c-6.944,6.884-11.132,10.375-12.452,10.375    h-0.001c-0.362,0-0.857-0.234-1.076-0.524c-0.743-0.988-2.002-7.334-2.826-11.851c-3.767,1.467-13.774,5.255-16.497,5.255    c-1.395,0-1.655-0.909-1.701-1.188c-0.252-1.512,2.211-10.409,3.599-15.227c-15.453-3.869-15.703-5.372-15.825-6.103    c-0.108-0.65-0.356-2.138,10.762-10.481c-4.72-2.831-12.589-8.068-12.063-11.228c0.527-3.157,8.875-5.647,13.724-6.833    c-7.769-14.68-6.788-15.416-5.995-16.012c0.401-0.299,0.906-0.34,1.347-0.34c2.557,0,10.585,1.879,13.849,2.669    c0.554-15.855,1.485-16.084,2.387-16.31c0.091-0.023,0.232-0.038,0.325-0.038c1.094,0,6.19,3.011,15.158,8.957    c4.162-13.908,5.453-13.91,6.316-13.91c0.146,0,0.36,0.041,0.496,0.097c0.47,0.187,1.692,0.677,6.677,13.478    c3.397-1.83,11.54-6.076,13.899-6.076c0.323,0,0.598,0.059,0.839,0.18c0.685,0.342,2.246,1.123-0.552,12.918    c2.993-0.412,9.233-1.2,13-1.2c1.518,0,4.059,0,4.059,1.798c0,1.699-3.421,8.586-5.459,12.538    c5.99,1.697,12.661,3.95,13.429,5.737c0.331,0.774,1.091,2.548-11.286,11.613c4.715,3.29,11.088,8.363,10.298,11.257    c-0.779,2.854-9.716,4.917-15.971,6.022c2.405,4.454,5.47,10.863,4.445,12.918c-0.596,1.193-2.311,1.353-3.91,1.353    c-3.695,0-9.593-1.101-11.954-1.573c-1.196,3.61-3.906,11.491-5.164,12.745c-0.273,0.275-0.646,0.428-1.048,0.428H383.493z     M372.803,87.746c0.03,0,0.061,0.002,0.091,0.005c0.335,0.025,0.644,0.198,0.842,0.47c3.462,4.771,7.803,10.107,9.481,11.352    c0.946-1.764,3.015-7.413,4.618-12.333c0.183-0.56,0.754-0.88,1.338-0.77c0.08,0.018,8.126,1.731,12.486,1.731    c1.132,0,1.647-0.117,1.856-0.189c0.1-1.497-2.532-7.325-5.185-12.079c-0.183-0.329-0.195-0.725-0.032-1.064    c0.163-0.338,0.48-0.574,0.851-0.635c7.929-1.301,15.133-3.432,15.732-4.654c0.073-1.209-4.933-5.737-10.726-9.641    c-0.313-0.212-0.503-0.563-0.509-0.938c-0.006-0.378,0.173-0.734,0.479-0.952c5.102-3.675,10.797-8.354,11.688-9.938    c-1.248-0.974-7.624-3.148-13.141-4.663c-0.336-0.092-0.612-0.333-0.752-0.653c-0.14-0.32-0.126-0.684,0.035-0.992    c2.491-4.767,5.087-10.181,5.713-12.148c-0.32-0.043-0.826-0.079-1.615-0.079c-4.815,0-14.258,1.4-14.353,1.413    c-0.376,0.063-0.765-0.079-1.023-0.365c-0.259-0.286-0.358-0.68-0.264-1.053c1.175-4.704,2.169-10.321,1.947-11.928    c-1.808,0.365-8.9,3.907-13.54,6.455c-0.294,0.16-0.641,0.185-0.951,0.072c-0.312-0.115-0.56-0.358-0.68-0.668    c-1.895-4.926-4.275-10.519-5.486-12.67c-1.095,2.201-3.065,8.005-4.558,13.1c-0.104,0.351-0.368,0.632-0.712,0.758    c-0.343,0.128-0.729,0.081-1.033-0.124c-5.778-3.851-12.243-7.944-14.569-9.126c-0.444,2.365-0.874,9.128-1.069,15.227    c-0.01,0.349-0.179,0.673-0.457,0.882c-0.276,0.212-0.634,0.286-0.973,0.2c-3.046-0.763-11.075-2.656-14.094-2.91    c0.754,2.372,3.827,8.683,6.804,14.255c0.17,0.317,0.181,0.693,0.031,1.022c-0.149,0.326-0.442,0.565-0.793,0.644    c-6.813,1.544-13.213,4.076-13.424,5.309c-0.048,1.33,5.767,5.885,12.447,9.74c0.336,0.194,0.552,0.545,0.574,0.932    c0.022,0.387-0.153,0.761-0.465,0.992c-4.581,3.385-9.725,7.589-11.003,9.202c1.91,1.046,8.917,3.117,15.014,4.618    c0.305,0.074,0.566,0.27,0.722,0.542c0.156,0.272,0.196,0.596,0.108,0.898c-1.671,5.746-3.362,12.137-3.774,14.538    c3.055-0.524,11.318-3.551,16.289-5.525c0.323-0.128,0.682-0.104,0.986,0.065c0.303,0.169,0.513,0.464,0.574,0.803    c0.81,4.553,1.834,9.58,2.409,11.545c1.816-1.285,6.964-6.052,11.249-10.337C372.205,87.868,372.499,87.746,372.803,87.746z"/>
		<circle style="fill:#F4C300;" cx="371.113" cy="57.15" r="29.576"/>
		<g>
			<path style="fill:#FFFFFF;" d="M373.377,36.772c0,0,4.292,0.873,4.917,2.972"/>
			<path style="fill:#241726;" d="M378.294,40.897c-0.497,0-0.955-0.324-1.105-0.824c-0.289-0.974-2.584-1.872-4.043-2.172     c-0.623-0.128-1.025-0.738-0.898-1.362c0.127-0.621,0.737-1.022,1.358-0.898c0.83,0.169,5.011,1.146,5.793,3.774     c0.181,0.61-0.167,1.251-0.776,1.434C378.513,40.881,378.402,40.897,378.294,40.897z"/>
		</g>
		<g>
			<path style="fill:#FFFFFF;" d="M376.864,45.869c0,0,4.292,0.873,4.917,2.972"/>
			<path style="fill:#241726;" d="M381.781,49.994c-0.497,0-0.955-0.324-1.105-0.824c-0.278-0.938-2.526-1.863-4.041-2.172     c-0.623-0.128-1.026-0.736-0.899-1.359c0.126-0.626,0.739-1.024,1.358-0.9c0.83,0.169,5.01,1.146,5.792,3.774     c0.181,0.61-0.167,1.251-0.776,1.434C382.001,49.978,381.889,49.994,381.781,49.994z"/>
		</g>
		<g>
			<path style="fill:#FFFFFF;" d="M386.619,45.776c0,0,4.075,1.608,4.324,3.784"/>
			<path style="fill:#241726;" d="M390.942,50.712c-0.578,0-1.077-0.434-1.143-1.022c-0.116-1.008-2.219-2.293-3.604-2.842     c-0.591-0.234-0.881-0.902-0.647-1.494c0.234-0.59,0.895-0.887,1.494-0.648c0.788,0.311,4.735,1.998,5.046,4.724     c0.073,0.632-0.381,1.204-1.014,1.276C391.03,50.709,390.986,50.712,390.942,50.712z"/>
		</g>
		<g>
			<path style="fill:#FFFFFF;" d="M365.699,43.494c0,0,4.292,0.873,4.917,2.972"/>
			<path style="fill:#241726;" d="M370.616,47.617c-0.497,0-0.955-0.324-1.104-0.824c-0.279-0.936-2.527-1.861-4.043-2.17     c-0.623-0.128-1.026-0.736-0.899-1.359c0.126-0.623,0.74-1.022,1.358-0.9c0.83,0.169,5.01,1.146,5.792,3.772     c0.182,0.61-0.165,1.251-0.775,1.434C370.836,47.601,370.724,47.617,370.616,47.617z"/>
		</g>
		<g>
			<path style="fill:#FFFFFF;" d="M360.642,36.226c0,0,4.379-0.115,5.46,1.789"/>
			<path style="fill:#241726;" d="M366.103,39.166c-0.402,0-0.791-0.209-1.003-0.583c-0.483-0.848-2.883-1.265-4.428-1.206     c-0.617-0.016-1.166-0.484-1.183-1.123c-0.016-0.635,0.486-1.164,1.122-1.182c0.852-0.036,5.138-0.014,6.492,2.372     c0.315,0.554,0.12,1.258-0.432,1.571C366.491,39.119,366.295,39.166,366.103,39.166z"/>
		</g>
	</g>
	<path style="fill:#241726;" d="M246.304,36.374c-1.866,0-9.717-4.83-12.325-6.466c-3.92,1.839-10.216,4.611-12.55,4.611   c-0.681,0-1.188-0.214-1.508-0.637c-0.285-0.376-0.366-0.855-0.227-1.348c0.066-0.178,1.865-4.391,4.231-9.495   c-6.058-4.587-6.716-6.315-6.496-7.487c0.063-0.335,0.332-1.15,1.468-1.461c1.919-0.524,5.922-0.635,8.944-0.635l0.757,0.002   c4.809-9.238,6.453-10.024,7.615-10.024c0.611,0,1.157,0.32,1.497,0.88c0.96,1.582,2.761,5.989,4.22,9.821   c10.032,0.986,10.743,2.35,11.088,3.013c0.266,0.509,0.252,1.089-0.036,1.596c-0.222,0.387-0.878,1.539-7.556,5.293   c3.253,10.062,2.503,11.124,2.093,11.703c-0.276,0.392-0.706,0.621-1.177,0.632c-0.008,0-0.028,0-0.036,0H246.304z M236.442,28.729   c4.494,2.777,7.669,4.458,9.129,5.077c-0.093-1.033-0.528-3.398-2.202-8.633C241.189,26.354,238.809,27.574,236.442,28.729z    M225.818,24.437c-1.501,3.248-2.749,6.081-3.42,7.625c1.552-0.374,4.562-1.463,9.278-3.626   C229.567,27.065,227.582,25.711,225.818,24.437z M226.809,22.31c2.148,1.564,4.656,3.263,7.331,4.971   c2.887-1.38,5.855-2.894,8.499-4.335c-0.71-2.118-1.516-4.389-2.359-6.648c-3.261-0.284-6.861-0.464-10.284-0.52   C229.009,17.717,227.94,19.909,226.809,22.31z M242.829,16.546c0.657,1.789,1.286,3.569,1.859,5.262   c3.393-1.924,5.131-3.137,5.872-3.776C249.778,17.694,247.773,17.087,242.829,16.546z M219.877,16.227   c0.372,0.587,1.521,1.969,5.047,4.677c0.873-1.848,1.709-3.567,2.499-5.142C223.959,15.772,221.267,15.941,219.877,16.227z    M231.183,13.497c2.738,0.068,5.552,0.209,8.192,0.414c-1.392-3.603-2.667-6.599-3.398-7.978   C235.463,6.421,234.071,8.066,231.183,13.497z"/>
	<path style="fill:#241726;" d="M491.501,295.697c-0.063,0-0.182-0.009-0.244-0.02c-1.812-0.297-8.685-6.536-10.958-8.638   c-3.574,0.925-9.35,2.293-12.187,2.293c-0.819,0-1.82-0.097-2.297-0.864c-0.273-0.441-0.288-0.981-0.039-1.485   c0.098-0.162,2.643-3.97,5.911-8.55c-5.108-5.626-5.434-7.447-5.002-8.559c0.124-0.317,0.539-1.069,1.713-1.164   c1.65-0.142,5.101,0.284,9.652,1.168c5.837-7.433,7.778-8.475,8.996-8.475c0.754,0,1.369,0.439,1.645,1.175   c0.652,1.731,1.609,6.394,2.334,10.429c9.677,2.82,10.124,4.294,10.342,5.01c0.165,0.547,0.045,1.116-0.331,1.56   c-0.289,0.342-1.148,1.35-8.403,3.81c1.311,10.278,0.423,11.293-0.01,11.788C492.329,295.512,491.93,295.697,491.501,295.697z    M482.939,286.337c3.904,3.558,6.713,5.797,8.034,6.673c0.1-1.031,0.109-3.437-0.569-8.89   C488.042,284.879,485.477,285.639,482.939,286.337z M473.289,280.157c-2.073,2.914-3.823,5.469-4.768,6.86   c1.874-0.09,5.404-0.758,9.786-1.85C476.489,283.431,474.789,281.735,473.289,280.157z M474.656,278.249   c1.823,1.933,3.973,4.069,6.287,6.241c3.093-0.824,6.289-1.764,9.155-2.692c-0.308-2.215-0.681-4.596-1.092-6.97   c-3.152-0.88-6.656-1.724-10.01-2.41C477.667,274.139,476.212,276.095,474.656,278.249z M491.466,275.541   c0.315,1.879,0.604,3.745,0.855,5.516c3.69-1.267,5.623-2.138,6.468-2.626C498.084,277.954,496.225,276.986,491.466,275.541z    M468.968,270.991c0.258,0.646,1.132,2.217,4.096,5.527c1.2-1.654,2.339-3.191,3.406-4.593   C473.104,271.306,470.382,270.91,468.968,270.991z M480.583,270.394c2.679,0.572,5.418,1.231,7.975,1.92   c-0.699-3.776-1.394-6.938-1.858-8.439C486.036,264.286,484.352,265.682,480.583,270.394z"/>
	<path style="fill:#241726;" d="M37.986,323.007c-0.853,0-1.66,0-3.905-8.941c-7.576-1.456-8.218-2.316-8.464-2.647   c-0.214-0.286-0.306-0.815-0.209-1.159c0.138-0.486,0.456-1.611,9.115-5.102c3.108-8.106,4.162-8.104,4.863-8.104   c0.365,0,0.865,0.261,1.084,0.551c0.556,0.747,1.06,2.687,1.824,5.793c0.239,0.974,0.528,2.147,0.694,2.665   c0.455,0.203,1.458,0.563,2.292,0.862c4.449,1.596,5.597,2.138,5.805,3.2c0.078,0.398-0.125,0.981-0.426,1.251   c-0.905,0.81-5.208,2.408-7.465,3.214c-3.666,8.34-4.45,8.381-5.144,8.415C38.031,323.007,38.005,323.007,37.986,323.007z    M28.549,310.427c1.513,0.437,4.274,1.062,6.683,1.512c0.444,0.083,0.799,0.416,0.907,0.855c0.616,2.496,1.421,5.341,2.001,6.963   c0.839-1.51,2.111-4.186,3.142-6.549c0.128-0.293,0.372-0.52,0.674-0.626c2.058-0.725,4.383-1.614,5.83-2.248   c-1.013-0.425-2.391-0.92-3.285-1.24c-2.545-0.914-3.025-1.112-3.352-1.551c-0.285-0.383-0.461-1.022-1.094-3.594   c-0.237-0.968-0.602-2.449-0.927-3.56c-0.755,1.443-1.811,3.891-2.631,6.058c-0.115,0.304-0.351,0.542-0.65,0.664   C33.173,308.178,30.139,309.538,28.549,310.427z"/>
	<g>
		<path style="fill:#241726;" d="M22.383,169.614c-0.324,0-0.644-0.137-0.869-0.41c-0.086-0.104-7.608-11.939-6.57-13.609    c0.611-0.986,0.941-1.524,14.965,5.316c0.572,0.279,0.809,0.968,0.53,1.539c-0.278,0.572-0.965,0.81-1.54,0.531    c-4.1-1.998-8.635-4.087-11.121-5.079c1.525,3.099,4.94,9.07,5.525,9.851c0.376,0.5,0.294,1.222-0.198,1.609    C22.889,169.53,22.635,169.614,22.383,169.614z"/>
		<path style="fill:#E17B8D;" d="M38.846,173.705c0,0,3.466-17.493-6.409-16.634c-13.679,1.19-27.908,31.829-6.082,44.735    c21.826,12.906,35.454-4.279,35.454-4.279l-11.948-6.086c0,0,11.253-5.882,12.156-12.785c0.903-6.903-7.761-2.795-7.761-2.795    s12.372-13.337,5.589-15.522C53.063,158.154,38.846,173.705,38.846,173.705z"/>
		<path style="fill:#241726;" d="M29.75,169.548c-0.291,0-0.576-0.041-0.847-0.128c-0.585-0.187-1.008-0.612-1.188-1.193    c-0.572-1.836,1.799-5.3,3.263-7.199c0.385-0.506,1.107-0.596,1.616-0.212c0.504,0.389,0.598,1.112,0.209,1.616    c-1.399,1.818-2.599,3.875-2.839,4.807c0.953-0.144,2.83-1.416,4.149-2.692c0.459-0.439,1.188-0.43,1.629,0.027    c0.442,0.457,0.431,1.186-0.027,1.629C34.842,167.05,32.063,169.548,29.75,169.548z"/>
		<path style="fill:#241726;" d="M46.552,190.827c-0.431,0-0.845-0.243-1.042-0.657c-0.272-0.576-0.028-1.263,0.547-1.537    c2.689-1.278,7.088-4.159,7.439-6.45c0.03-0.203,0.007-0.281,0.007-0.281c-0.531-0.29-3.422,0.549-5.894,1.789    c-0.447,0.221-0.992,0.133-1.345-0.23c-0.35-0.362-0.423-0.911-0.182-1.353c1.535-2.813,2.715-5.849,2.773-7.028    c-1.662,0.61-6.222,4.222-9.873,7.596c-0.468,0.43-1.196,0.405-1.628-0.063c-0.432-0.468-0.403-1.197,0.064-1.629    c10.339-9.558,12.179-8.412,12.782-8.039c1.427,0.889,1.207,3.376-0.648,7.409c1.944-0.682,4.152-1.123,5.365-0.241    c0.413,0.299,1.072,1.013,0.857,2.417c-0.648,4.242-7.904,7.796-8.729,8.187C46.885,190.791,46.718,190.827,46.552,190.827z"/>
		<path style="fill:#241726;" d="M39.01,200.342c-1.425,0-10.606-0.254-16.459-6.603c-3.758-4.073-5.292-9.738-4.56-16.834    c0.065-0.632,0.622-1.096,1.265-1.026c0.634,0.065,1.094,0.63,1.028,1.265c-0.663,6.407,0.671,11.466,3.96,15.034    c5.525,5.989,14.799,5.872,14.889,5.858c0.009,0,0.018,0,0.026,0c0.626,0,1.138,0.5,1.152,1.128    c0.014,0.635-0.491,1.164-1.126,1.177C39.159,200.34,39.1,200.342,39.01,200.342z"/>
	</g>
	<g>
		<path style="fill:#241726;" d="M504.44,338.387c-0.259,0-0.52-0.088-0.735-0.266c-0.49-0.407-0.557-1.132-0.151-1.623    c0.574-0.767,3.988-6.734,5.513-9.835c-2.486,0.995-7.021,3.083-11.121,5.082c-0.573,0.279-1.261,0.041-1.54-0.531    c-0.279-0.572-0.042-1.26,0.53-1.539c14.022-6.839,14.354-6.299,14.965-5.316c1.043,1.672-6.486,13.508-6.573,13.611    C505.101,338.245,504.772,338.387,504.44,338.387z"/>
		<path style="fill:#E17B8D;" d="M487.998,342.469c0,0-3.466-17.493,6.409-16.634c13.679,1.19,27.908,31.829,6.082,44.735    c-21.826,12.906-35.454-4.279-35.454-4.279l11.948-6.086c0,0-11.253-5.882-12.156-12.785c-0.903-6.903,7.761-2.795,7.761-2.795    s-12.372-13.337-5.589-15.522S487.998,342.469,487.998,342.469z"/>
		<path style="fill:#241726;" d="M497.094,338.313c-2.312,0-5.091-2.498-5.965-3.344c-0.457-0.443-0.469-1.173-0.027-1.629    c0.444-0.457,1.174-0.468,1.629-0.027c1.32,1.274,3.197,2.545,4.148,2.692c-0.246-0.936-1.464-3.022-2.838-4.807    c-0.388-0.504-0.295-1.227,0.209-1.616c0.503-0.385,1.229-0.295,1.616,0.212c1.464,1.899,3.835,5.361,3.264,7.197    c-0.181,0.583-0.603,1.006-1.188,1.195C497.67,338.272,497.385,338.313,497.094,338.313z"/>
		<path style="fill:#241726;" d="M480.292,359.591c-0.165,0-0.333-0.036-0.493-0.11c-0.825-0.392-8.081-3.945-8.729-8.187    c-0.215-1.402,0.444-2.116,0.856-2.417c1.216-0.88,3.423-0.439,5.365,0.241c-1.856-4.033-2.075-6.52-0.648-7.409    c0.601-0.371,2.441-1.517,12.782,8.039c0.467,0.432,0.496,1.161,0.064,1.629c-0.435,0.466-1.164,0.493-1.628,0.063    c-3.651-3.374-8.211-6.986-9.873-7.596c0.056,1.179,1.238,4.215,2.774,7.028c0.241,0.441,0.168,0.988-0.182,1.35    c-0.351,0.367-0.897,0.455-1.345,0.232c-2.422-1.213-5.245-2.039-5.914-1.733c0.01,0.023,0.008,0.099,0.027,0.223    c0.352,2.298,4.75,5.178,7.439,6.452c0.575,0.275,0.82,0.961,0.547,1.535C481.137,359.348,480.724,359.591,480.292,359.591z"/>
		<path style="fill:#241726;" d="M487.835,369.107c-0.091,0-0.15-0.002-0.176-0.002c-0.636-0.014-1.139-0.54-1.125-1.177    c0.012-0.637,0.53-1.022,1.175-1.128c0.115,0.013,9.399,0.108,14.902-5.869c3.282-3.567,4.611-8.622,3.95-15.024    c-0.065-0.635,0.395-1.2,1.028-1.265c0.638-0.074,1.198,0.394,1.265,1.026c0.733,7.098-0.801,12.763-4.56,16.836    C498.44,368.852,489.261,369.107,487.835,369.107z"/>
	</g>
	<g>
		<path style="fill:#5AAE83;" d="M491.664,162.025c0,0-30.832-93.819-37.439-89.414s-33.035,85.45-32.154,88.533    C422.951,164.228,492.544,165.549,491.664,162.025z"/>
		<path style="fill:#241726;" d="M454.979,179.554c-0.014,0-0.026,0-0.038,0c-0.636-0.02-1.135-0.554-1.114-1.191    c0.466-14.444-0.465-80.972-0.474-81.642c-0.009-0.637,0.5-1.159,1.137-1.168c0.005,0,0.01,0,0.016,0    c0.629,0,1.143,0.504,1.152,1.137c0.009,0.671,0.94,67.25,0.471,81.75C456.11,179.063,455.598,179.554,454.979,179.554z"/>
		<path style="fill:#241726;" d="M462.063,180.97c-0.013,0-0.027,0-0.04,0l-13.694-0.47c-0.636-0.022-1.134-0.556-1.112-1.193    c0.021-0.635,0.598-1.076,1.191-1.112l13.694,0.47c0.636,0.023,1.134,0.556,1.112,1.193    C463.192,180.479,462.681,180.97,462.063,180.97z"/>
		<path style="fill:#241726;" d="M454.675,129.581c-0.392,0-0.911-0.272-1.128-0.596c-0.733-1.101-7.401-10.024-10.824-14.588    c-0.383-0.509-0.279-1.231,0.231-1.614c0.509-0.383,1.23-0.277,1.613,0.232c0.362,0.482,7.984,10.645,10.309,13.859    c1.777-1.886,6.218-8.554,9.981-14.714c0.332-0.542,1.042-0.716,1.584-0.383c0.543,0.333,0.715,1.042,0.383,1.584    c-9.884,16.175-11.459,16.206-12.131,16.22C454.686,129.581,454.68,129.581,454.675,129.581z"/>
		<path style="fill:#241726;" d="M454.991,153.108c-0.071,0-0.137-0.005-0.201-0.016c-2.975-0.493-15.697-13.393-19.527-17.334    c-0.443-0.457-0.432-1.186,0.025-1.629c0.455-0.443,1.185-0.434,1.629,0.023c7.664,7.893,16.59,16.285,18.258,16.67    c1.716-0.29,10.367-9.574,17.331-18.015c0.405-0.491,1.13-0.563,1.623-0.155c0.491,0.405,0.56,1.132,0.155,1.623    C467.146,142.927,458.086,153.108,454.991,153.108z"/>
	</g>
	<g>
		<path style="fill:#5AAE83;" d="M69.615,433.412c0,0-30.832-93.819-37.439-89.414c-6.607,4.405-33.035,85.45-32.154,88.533    S70.496,436.936,69.615,433.412z"/>
		<path style="fill:#241726;" d="M32.931,450.94c-0.014,0-0.026,0-0.038,0c-0.636-0.02-1.135-0.554-1.114-1.191    c0.466-14.442-0.465-80.969-0.474-81.64c-0.009-0.637,0.5-1.159,1.137-1.168c0.005,0,0.01,0,0.016,0    c0.629,0,1.143,0.504,1.152,1.137c0.009,0.671,0.94,67.25,0.471,81.748C34.062,450.45,33.55,450.94,32.931,450.94z"/>
		<path style="fill:#241726;" d="M40.014,452.358c-0.014,0-0.027,0-0.041,0l-13.694-0.473c-0.637-0.023-1.134-0.556-1.112-1.193    c0.023-0.635,0.587-1.069,1.191-1.112l13.694,0.473c0.637,0.023,1.134,0.556,1.112,1.193    C41.143,451.867,40.632,452.358,40.014,452.358z"/>
		<path style="fill:#241726;" d="M32.626,400.967c-0.392,0-0.913-0.275-1.128-0.596c-0.916-1.373-10.725-14.455-10.824-14.588    c-0.383-0.509-0.279-1.231,0.231-1.614c0.509-0.383,1.231-0.277,1.613,0.232c0.362,0.482,7.985,10.649,10.309,13.859    c1.777-1.884,6.218-8.554,9.981-14.712c0.331-0.545,1.041-0.716,1.584-0.383c0.544,0.333,0.715,1.042,0.383,1.584    c-9.883,16.172-11.459,16.204-12.131,16.217C32.637,400.967,32.632,400.967,32.626,400.967z"/>
		<path style="fill:#241726;" d="M32.942,424.497c-0.071,0-0.137-0.004-0.201-0.016c-2.976-0.495-15.699-13.393-19.527-17.334    c-0.444-0.457-0.433-1.186,0.023-1.629c0.457-0.446,1.187-0.432,1.629,0.023c7.666,7.89,16.593,16.283,18.262,16.67    c1.716-0.29,10.367-9.576,17.33-18.018c0.405-0.493,1.13-0.565,1.623-0.155c0.491,0.405,0.56,1.132,0.155,1.623    C45.097,414.313,36.038,424.497,32.942,424.497z"/>
	</g>
	<g>
		<path style="fill:#241726;" d="M171.77,69.064h-0.007c-0.637-0.005-1.15-0.522-1.146-1.159l0.115-19.393    c0.005-0.635,0.52-1.146,1.152-1.146h0.007c0.637,0.005,1.15,0.522,1.146,1.159l-0.115,19.393    C172.918,68.553,172.403,69.064,171.77,69.064z"/>
		<path style="fill:#241726;" d="M163.952,64.831c-0.362,0-0.72-0.171-0.945-0.493c-0.365-0.522-0.236-1.24,0.286-1.605    l16.015-11.165c0.515-0.36,1.238-0.239,1.605,0.286c0.365,0.522,0.236,1.24-0.286,1.605l-16.015,11.165    C164.411,64.763,164.181,64.831,163.952,64.831z"/>
		<path style="fill:#241726;" d="M178.013,65.645c-0.306,0-0.61-0.122-0.837-0.36l-12.108-12.794    c-0.437-0.461-0.416-1.193,0.045-1.629c0.464-0.439,1.191-0.414,1.629,0.045l12.108,12.794c0.437,0.461,0.416,1.193-0.045,1.629    C178.583,65.542,178.297,65.645,178.013,65.645z"/>
		<path style="fill:#241726;" d="M161.762,59.162c-0.632,0-1.146-0.509-1.152-1.141c-0.007-0.637,0.504-1.157,1.141-1.164    l18.652-0.178h0.007c0.637,0,1.15,0.509,1.157,1.141c0.007,0.637-0.504,1.157-1.141,1.164l-18.652,0.178H161.762z"/>
	</g>
	<g>
		<path style="fill:#241726;" d="M477.505,433.181h-0.007c-0.637-0.004-1.15-0.522-1.146-1.159l0.115-19.393    c0.004-0.635,0.52-1.146,1.152-1.146h0.007c0.637,0.005,1.15,0.522,1.146,1.159l-0.115,19.393    C478.653,432.67,478.138,433.181,477.505,433.181z"/>
		<path style="fill:#241726;" d="M469.687,428.947c-0.362,0-0.72-0.171-0.945-0.493c-0.365-0.522-0.236-1.24,0.286-1.605    l16.015-11.165c0.515-0.36,1.238-0.239,1.605,0.286c0.365,0.522,0.236,1.24-0.286,1.605l-16.015,11.165    C470.146,428.88,469.917,428.947,469.687,428.947z"/>
		<path style="fill:#241726;" d="M483.748,429.762c-0.306,0-0.61-0.122-0.837-0.36l-12.108-12.794    c-0.437-0.461-0.416-1.193,0.045-1.629c0.464-0.439,1.191-0.414,1.629,0.045l12.108,12.794c0.437,0.461,0.416,1.193-0.045,1.629    C484.318,429.659,484.032,429.762,483.748,429.762z"/>
		<path style="fill:#241726;" d="M467.497,423.278c-0.632,0-1.146-0.509-1.152-1.141c-0.007-0.637,0.504-1.157,1.141-1.164    l18.652-0.178h0.007c0.637,0,1.15,0.509,1.157,1.141c0.007,0.637-0.504,1.157-1.141,1.164l-18.652,0.178H467.497z"/>
	</g>
	<g>
		<path style="fill:#241726;" d="M74.98,493.099h-0.007c-0.637-0.004-1.15-0.522-1.146-1.159l0.115-19.393    c0.005-0.635,0.52-1.146,1.152-1.146h0.007c0.637,0.005,1.15,0.522,1.146,1.159l-0.115,19.393    C76.127,492.588,75.612,493.099,74.98,493.099z"/>
		<path style="fill:#241726;" d="M67.161,488.865c-0.362,0-0.72-0.171-0.945-0.493c-0.365-0.522-0.236-1.24,0.286-1.605    l16.015-11.165c0.515-0.36,1.238-0.239,1.605,0.286c0.365,0.522,0.236,1.24-0.286,1.605l-16.015,11.165    C67.62,488.798,67.391,488.865,67.161,488.865z"/>
		<path style="fill:#241726;" d="M81.223,489.68c-0.306,0-0.61-0.122-0.837-0.36l-12.108-12.794    c-0.437-0.461-0.416-1.193,0.045-1.629c0.464-0.439,1.191-0.414,1.629,0.045l12.108,12.794c0.437,0.461,0.416,1.193-0.045,1.629    C81.792,489.576,81.506,489.68,81.223,489.68z"/>
		<path style="fill:#241726;" d="M64.972,483.196c-0.632,0-1.146-0.509-1.152-1.141c-0.007-0.637,0.504-1.157,1.141-1.164    l18.652-0.178h0.007c0.637,0,1.15,0.509,1.157,1.141c0.007,0.637-0.504,1.157-1.141,1.164l-18.652,0.178H64.972z"/>
	</g>
	<path style="fill:#241726;" d="M301.233,33.337h-0.034c-4.393-0.018-7.951-3.608-7.933-8.003c0.018-4.375,3.592-7.933,7.967-7.933   c2.163,0.009,4.161,0.846,5.66,2.359c1.497,1.51,2.318,3.515,2.309,5.642C309.182,29.776,305.606,33.337,301.233,33.337z    M301.258,19.705c-3.135,0-5.674,2.53-5.687,5.638c-0.013,3.124,2.516,5.676,5.638,5.689l0.025,1.152v-1.152   c3.108,0,5.649-2.53,5.665-5.64c0.007-1.512-0.576-2.937-1.643-4.01C304.19,20.306,302.77,19.712,301.258,19.705z"/>
	<path style="fill:#241726;" d="M105.608,188.053h-0.034c-4.393-0.018-7.951-3.608-7.933-8.003c0.018-4.375,3.592-7.933,7.967-7.933   c2.163,0.009,4.161,0.846,5.66,2.359c1.497,1.51,2.318,3.515,2.309,5.642C113.557,184.492,109.981,188.053,105.608,188.053z    M105.633,174.421c-3.135,0-5.674,2.53-5.687,5.638c-0.014,3.124,2.516,5.676,5.638,5.689l0.025,1.152v-1.152   c3.108,0,5.649-2.53,5.665-5.64c0.007-1.512-0.576-2.937-1.643-4.01C108.565,175.022,107.145,174.428,105.633,174.421z"/>
	<path style="fill:#241726;" d="M372.934,495.324H372.9c-4.393-0.018-7.951-3.608-7.933-8.003c0.018-4.375,3.592-7.933,7.967-7.933   c2.163,0.009,4.161,0.846,5.66,2.359c1.497,1.51,2.318,3.515,2.309,5.642C380.883,491.764,377.307,495.324,372.934,495.324z    M372.959,481.693c-3.135,0-5.674,2.53-5.687,5.638c-0.013,3.124,2.516,5.676,5.638,5.689l0.025,1.152v-1.152   c3.108,0,5.649-2.53,5.665-5.64c0.007-1.512-0.576-2.937-1.643-4.01C375.891,482.294,374.471,481.7,372.959,481.693z"/>
	<g>
		<path style="fill:#52B0A8;" d="M152.665,129.436c0,0-118.088,6.748-119.437,1.35c-1.35-5.398,22.943-68.154,28.341-67.479    c5.398,0.675,35.764,48.585,37.788,44.536c2.024-4.049,18.219-37.788,22.943-37.788    C127.023,70.054,158.064,128.086,152.665,129.436z"/>
		<g>
			<path style="fill:#FFFFFF;" d="M42.675,99.07c0,0-0.599,5.609,14.685-10.354c2.951-3.083,5.177,13.314,9.17,14.265     c7.133,1.698,5.835-18.081,7.185-16.057c1.35,2.024,12.515,14.019,14.171,5.398c0.569-2.964-24.967-38.463-28.341-36.439     S42.675,99.07,42.675,99.07z"/>
			<path style="fill:#241726;" d="M67.371,104.236c-0.359,0-0.731-0.045-1.107-0.135c-2.536-0.603-4.054-4.692-5.662-9.022     c-0.717-1.933-1.773-4.778-2.47-5.491c-9.977,10.391-13.109,11.59-14.604,11.59l0,0c-0.774,0-1.243-0.34-1.501-0.628     c-0.568-0.632-0.514-1.445-0.497-1.6c0.008-0.081,0.026-0.16,0.051-0.239c3.198-9.752,13.9-41.731,17.372-43.815     c0.275-0.164,0.584-0.248,0.923-0.248c0.781,0,2.608,0,10.314,9.328c5.725,6.932,19.413,25.523,18.829,28.564     c-0.672,3.493-2.79,4.015-3.992,4.015c-3.573,0-8.453-4.582-10.888-7.301c-0.038,0.342-0.075,0.698-0.113,1.04     C73.476,95.508,72.557,104.236,67.371,104.236z M58.105,87.179c2.022,0,3.127,2.975,4.656,7.096     c1.074,2.894,2.697,7.265,4.035,7.584c0.201,0.047,0.395,0.072,0.574,0.072c3.111,0,3.956-8.023,4.363-11.878     c0.339-3.22,0.466-4.427,1.802-4.427c0.261,0,0.757,0.086,1.139,0.659c1.101,1.647,7.207,7.965,10.351,7.965     c0.394,0,1.317,0,1.728-2.147c-0.134-1.254-5.135-9.319-12.115-18.688c-8.46-11.354-13.276-15.956-14.633-16.427     c-2.161,2.217-9.718,22.62-16.019,41.781c1.131-0.405,4.35-2.296,12.541-10.85C57.114,87.307,57.709,87.179,58.105,87.179z"/>
		</g>
		<g>
			<path style="fill:#FFFFFF;" d="M107.288,90.414c0,0,13.246-27.511,16.643-23.435c3.396,4.076,18.341,28.87,15.963,31.247     c-2.378,2.378-10.869-6.453-10.869-6.453s-3.736,14.944-7.812,15.284c-4.076,0.34-4.755-15.284-5.434-14.265     C115.099,93.811,101.174,105.698,107.288,90.414z"/>
			<path style="fill:#241726;" d="M121.083,108.212c-3.41,0.002-4.644-5.831-5.704-12.328c-0.052-0.317-0.106-0.65-0.159-0.965     c-2.03,1.767-5.608,4.391-7.983,4.391c-0.909,0-1.665-0.378-2.128-1.06c-0.955-1.411-0.613-3.959,1.107-8.262     c2.8-5.82,12.192-24.573,16.877-24.573c0.675,0,1.27,0.286,1.722,0.826c1.739,2.086,19.475,29.219,15.893,32.801     c-0.486,0.486-1.142,0.743-1.894,0.743c-2.715,0-6.899-3.603-9.187-5.788c-1.355,4.848-4.399,13.883-8.319,14.208     C121.276,108.206,121.114,108.212,121.083,108.212z M115.842,91.592c1.171,0,1.306,0.83,1.811,3.92     c1.125,6.898,2.28,10.397,3.43,10.395v1.152l0.035-1.152c1.947-0.162,5.082-7.584,6.79-14.415     c0.101-0.407,0.415-0.727,0.82-0.835c0.406-0.104,0.837,0.014,1.128,0.315c2.599,2.703,7.098,6.506,8.959,6.506     c0.196,0,0.245-0.05,0.264-0.068c0.412-1.526-9.169-21.459-16.035-29.696c-1.902,0.002-8.665,10.625-14.718,23.198     c-1.947,4.872-1.378,5.937-1.308,6.043c0.012,0,0.026,0,0.038,0c2.289,0,7.206-4.103,7.782-4.832     C115.057,91.849,115.49,91.592,115.842,91.592z"/>
		</g>
	</g>
	<g>
		<path style="fill:#B3739C;" d="M149.378,184.392c0,0,153.112-23.9,161.328,4.481s12.697,168.05,5.975,170.29    s-163.568,12.697-170.29,8.216S120.249,186.632,149.378,184.392z"/>
		<path style="fill:#241726;" d="M143.109,214.973c-0.567,0-1.06-0.419-1.14-0.995c-0.088-0.63,0.352-1.211,0.983-1.299    c1.076-0.151,108.328-14.777,167.205-4.431c0.627,0.11,1.045,0.707,0.936,1.335c-0.111,0.626-0.709,1.058-1.335,0.934    c-58.52-10.271-165.418,4.296-166.491,4.445C143.214,214.968,143.16,214.973,143.109,214.973z"/>
		<path style="fill:#EC9B70;" d="M267.386,197.836c0,0-3.548,31.463,0.934,38.185s77.863,4.015,78.983,14.097    c1.12,10.083,5.228,131.452,5.228,131.452s-177.012,2.241-180.373-5.602c-3.361-7.842-4.855-124.357,6.349-128.838    c11.203-4.481,37.344-6.442,44.066-12.044s-2.241-43.973-2.241-43.973L267.386,197.836z"/>
		<path style="fill:#EC9B70;" d="M439.543,220.616c0,0,8.295,119.542-7.842,134.066c-14.938,13.444-107.552-47.427-107.552-55.27    c0-7.842,9.71-53.029,16.432-54.149c6.722-1.12,63.485,52.656,63.485,52.656s0-90,15.685-86.639S439.543,220.616,439.543,220.616z    "/>
		<path style="fill:#52B0A8;" d="M375.684,271.031c0,0-17.552,36.971-25.394,40.332c-7.842,3.361-20.539-17.178-20.913-25.021    s-19.046-48.174-15.685-46.68S343.568,234.807,375.684,271.031z"/>
		<path style="fill:#DF4C14;" d="M218.838,99.994c0,0-27.635-2.988-33.61,26.888s16.432,57.51,34.357,47.801    S218.838,99.994,218.838,99.994z"/>
		<path style="fill:#52B0A8;" d="M217.904,234.62c0,0,0.886,49.415,44.813,37.811c24.741-6.535,9.149-34.263,13.631-34.263    c4.481,0,51.909-2.614,61.992,11.95c10.083,14.564,23.335,142.133,9.71,142.655c-13.625,0.522-212.863,14.564-218.464,5.602    c-5.602-8.963,0-142.282,20.166-153.485C169.917,233.686,176.452,235.74,217.904,234.62z"/>
		<path style="fill:#EC9B70;" d="M205.543,117.028c0,0,72.82-26.739,84.707-16.25s13.738,94.706,1.192,110.97    c-4.122,5.344-69.376-3.21-78.466-13.874C203.887,187.211,198.481,120.839,205.543,117.028z"/>
		<path style="fill:#241726;" d="M252.437,164.404c-0.064,0-0.128-0.002-0.192-0.011c-0.682-0.088-2.758-0.351-8.101-17.982    c-0.185-0.608,0.16-1.251,0.769-1.436c0.612-0.185,1.254,0.16,1.437,0.767c1.871,6.175,4.39,13.154,5.809,15.61    c0.638-3.011,0.635-10.595,0.387-15.801c-0.03-0.635,0.461-1.175,1.096-1.204c0.616-0.083,1.176,0.459,1.206,1.096    c0.12,2.541,0.637,15.358-1.074,18.162C253.464,164.115,252.974,164.404,252.437,164.404z"/>
		<path style="fill:#241726;" d="M290.901,166.699c-0.064,0-0.128-0.002-0.192-0.011c-0.682-0.088-2.758-0.351-8.101-17.982    c-0.185-0.608,0.16-1.251,0.769-1.436c0.609-0.182,1.252,0.16,1.437,0.767c1.871,6.175,4.39,13.154,5.809,15.61    c0.638-3.011,0.635-10.595,0.387-15.801c-0.03-0.635,0.461-1.175,1.096-1.204c0.628-0.081,1.175,0.459,1.206,1.096    c0.12,2.541,0.637,15.358-1.074,18.162C291.928,166.411,291.437,166.699,290.901,166.699z"/>
		<path style="fill:#241726;" d="M264.96,177.011c-0.564,0-1.055-0.412-1.139-0.986c-0.092-0.63,0.344-1.215,0.974-1.308    c3.766-0.547,14.851-2.122,19.321-2.341c-2.094-4.49-11.258-19.647-17.193-29.183c-0.336-0.542-0.171-1.251,0.369-1.589    c0.539-0.333,1.25-0.169,1.587,0.369c18.954,30.459,18.274,31.422,17.727,32.194c-0.268,0.378-0.827,0.583-1.287,0.488    c-1.286-0.218-12.588,1.236-20.193,2.343C265.07,177.007,265.015,177.011,264.96,177.011z"/>
		<path style="fill:#241726;" d="M273.552,215.454c-0.025,0-0.049,0-0.075-0.002c-29.598-1.899-43.963-10.008-44.56-10.352    c-0.55-0.32-0.739-1.022-0.422-1.573c0.317-0.554,1.023-0.74,1.573-0.425c0.142,0.083,14.559,8.19,43.558,10.051    c0.635,0.041,1.116,0.59,1.076,1.224C274.662,214.986,274.156,215.454,273.552,215.454z"/>
		<path style="fill:#DF4C14;" d="M258.043,84.7c0,0,10.048,7.028,4.115,22.762c-10.688,28.345-57.675,34.311-66.473,28.382    c-8.798-5.929,5.975-13.444,11.203-38.091C209.591,85.008,236.016,68.624,258.043,84.7z"/>
		<path style="fill:#EC9B70;" d="M149.751,244.89c0,0,4.481,69.46,13.444,114.274c1.771,8.857-61.058,36.971-64.419,22.407    C95.415,367.006,85.892,272.898,149.751,244.89z"/>
		<path style="fill:#DF4C14;" d="M223.469,131.512c0,0-9.36,59.636,10.755,65.427c12.496,3.598,24.523-17.002,37.643-16.581    c13.12,0.421,21.958,9.859,24.199,17.477c2.241,7.618,4.047,24.031-18.808,31.201c-22.855,7.17-64.841-17.688-68.13-29.409    c-4.99-17.787-3.993-56.341-13.444-63.784C188.643,130.299,223.469,131.512,223.469,131.512z"/>
		<path style="fill:#241726;" d="M280.082,225.877c-0.131,0-0.263-0.023-0.394-0.07c-9.073-3.302-6.088-16.474-5.956-17.032    c0.145-0.619,0.761-1.017,1.385-0.857c0.619,0.144,1.004,0.765,0.859,1.384c-0.027,0.117-2.651,11.739,4.5,14.34    c0.599,0.218,0.907,0.878,0.689,1.476C280.995,225.586,280.553,225.877,280.082,225.877z"/>
		<path style="fill:#241726;" d="M265.144,227.369c-0.173,0-0.349-0.038-0.514-0.122c-8.154-4.076-5.945-16.404-5.846-16.926    c0.117-0.623,0.716-1.031,1.344-0.92c0.625,0.117,1.038,0.718,0.922,1.344c-0.021,0.11-1.986,11.145,4.611,14.442    c0.569,0.284,0.8,0.977,0.515,1.546C265.975,227.135,265.568,227.369,265.144,227.369z"/>
		<path style="fill:#DF4C14;" d="M257.676,82.815c0,0,9.71-16.432,28.382-11.95c18.672,4.481,11.203,32.863,25.394,47.801    S242.738,123.894,257.676,82.815z"/>
		<path style="fill:#241726;" d="M272.809,202.341c-2.433,0-6.95-4.722-13.45-14.066c-0.363-0.522-0.234-1.24,0.288-1.602    c0.523-0.365,1.241-0.236,1.605,0.288c4.311,6.196,9.938,12.941,11.445,13.103c0.857-0.657,2.341-7.424,3.038-14.727    c0.06-0.632,0.613-1.074,1.256-1.037c0.634,0.061,1.098,0.623,1.037,1.258c-0.546,5.721-1.87,15.49-4.594,16.661    C273.243,202.3,273.035,202.341,272.809,202.341z"/>
		<path style="fill:#241726;" d="M298.862,119.845c-0.111,0-0.226-0.016-0.339-0.052c-4.823-1.483-8.468-6.319-12.326-11.439    c-3.374-4.476-6.862-9.106-11.116-11.232c-8.022-4.006-10-0.351-10.081-0.194c-0.287,0.56-0.974,0.79-1.536,0.522    c-0.565-0.277-0.809-0.945-0.544-1.512c0.084-0.18,0.886-1.782,3.141-2.568c2.606-0.905,5.989-0.34,10.051,1.69    c4.738,2.37,8.392,7.217,11.927,11.908c3.627,4.812,7.053,9.36,11.163,10.625c0.609,0.187,0.95,0.83,0.763,1.44    C299.81,119.528,299.355,119.845,298.862,119.845z"/>
		<path style="fill:#241726;" d="M299.858,107.879c-0.213,0-0.428-0.059-0.62-0.182c-4.349-2.784-5.462-7.377-6.64-12.238    c-1.247-5.149-2.66-10.985-8.151-16.143c-2.283-2.143-4.719-3.027-7.415-2.741c-7.542,0.833-14.372,10.758-14.44,10.859    c-0.357,0.524-1.072,0.664-1.6,0.304c-0.527-0.356-0.664-1.074-0.306-1.598c0.302-0.446,7.489-10.902,16.088-11.854    c3.377-0.378,6.487,0.752,9.252,3.351c5.992,5.629,7.491,11.817,8.814,17.277c1.158,4.782,2.073,8.559,5.642,10.843    c0.536,0.342,0.692,1.055,0.349,1.591C300.609,107.693,300.238,107.879,299.858,107.879z"/>
		<path style="fill:#241726;" d="M228.732,126.16c-0.599,0-1.105-0.464-1.148-1.071c-0.046-0.635,0.432-1.186,1.067-1.231    c17.404-1.242,18.862-21.648,18.874-21.853c0.039-0.637,0.595-1.128,1.221-1.08c0.635,0.038,1.118,0.585,1.079,1.22    c-0.014,0.227-1.616,22.627-21.01,24.013C228.787,126.16,228.759,126.16,228.732,126.16z"/>
		<path style="fill:#241726;" d="M210.786,124.497c-0.431,0-0.845-0.243-1.042-0.657c-0.273-0.576-0.028-1.263,0.547-1.535    c6.056-2.878,6.852-9.164,7.693-15.821c0.907-7.172,1.845-14.59,9.188-18.711c14.314-8.028,24.961,5.145,25.066,5.28    c0.394,0.497,0.308,1.222-0.19,1.616c-0.502,0.396-1.223,0.308-1.618-0.187c-0.383-0.484-9.542-11.766-22.131-4.697    c-6.33,3.549-7.154,10.078-8.029,16.987c-0.883,6.979-1.796,14.196-8.992,17.613C211.121,124.461,210.952,124.497,210.786,124.497    z"/>
		<path style="fill:#241726;" d="M253.327,227.198c-0.153,0-0.308-0.032-0.458-0.095c-8.221-3.576-8.656-15.794-8.67-16.314    c-0.017-0.635,0.484-1.164,1.12-1.184c0.603-0.025,1.166,0.484,1.185,1.118c0.003,0.113,0.411,11.275,7.284,14.264    c0.584,0.254,0.852,0.934,0.598,1.517C254.196,226.939,253.773,227.198,253.327,227.198z"/>
		<path style="fill:#EC9B70;" d="M216.768,167.882c0,0-0.997-22.933-18.726-18.037c-10.012,2.765-10.516,28.937,0.682,30.742    C209.922,182.393,218.122,174.941,216.768,167.882z"/>
		<path style="fill:#241726;" d="M204.185,173.248c-0.313,0-0.595-0.05-0.833-0.153c-0.583-0.254-0.848-0.934-0.593-1.517    c0.253-0.585,0.932-0.851,1.518-0.594c0.475,0.054,2.777-0.869,4.108-2.867c1.169-1.753,1.142-3.738-0.08-5.901    c-1.186-2.097-2.419-3.263-3.565-3.367c-1.106-0.09-2.014,0.916-2.023,0.927c-0.406,0.484-1.129,0.556-1.619,0.155    c-0.488-0.401-0.566-1.119-0.169-1.611c0.065-0.079,1.623-1.96,3.985-1.769c1.974,0.162,3.79,1.686,5.397,4.53    c2.553,4.515,0.609,7.767-0.778,9.301C208.009,172.071,205.719,173.248,204.185,173.248z"/>
		<path style="fill:#B3739C;" d="M315.933,223.23c0,0,23.154,117.972,20.166,132.342s-32.863,22.353-35.851,20.757    c-2.988-1.597,8.963-43.11,6.722-67.06s-17.925-74.373-9.71-81.558S315.933,223.23,315.933,223.23z"/>
		<path style="fill:#52B0A8;" d="M101.577,298.665c0,0,51.535,28.382,56.763,25.394s5.228-82.904-0.747-82.158    S124.73,244.143,101.577,298.665z"/>
		<path style="fill:#B3739C;" d="M171.784,235.927c0,0,19.419,149.004-14.191,164.689c-12.48,5.824-25.021-0.747-28.008-2.241    c-2.988-1.494,19.046-17.925,27.261-84.772c2.747-22.35-16.432-66.473-8.216-73.195    C156.846,233.686,171.784,235.927,171.784,235.927z"/>
		<g>
			<polygon style="fill:#FFFFFF;" points="395.103,196.715 441.41,234.807 432.821,244.516 385.394,206.425    "/>
			<path style="fill:#241726;" d="M432.821,245.668c-0.254,0-0.51-0.083-0.721-0.254l-47.428-38.09     c-0.255-0.205-0.412-0.509-0.429-0.835c-0.018-0.326,0.104-0.646,0.335-0.878l9.71-9.711c0.42-0.419,1.089-0.45,1.547-0.074     l46.307,38.092c0.241,0.198,0.392,0.486,0.416,0.799c0.025,0.311-0.079,0.619-0.286,0.853l-8.589,9.709     C433.457,245.535,433.139,245.668,432.821,245.668z M387.116,206.331l45.57,36.598l7.07-7.992l-44.577-36.668L387.116,206.331z"/>
		</g>
		<path style="fill:#F4C300;" d="M348.782,126.922c-24.345,7.133-38.298,32.65-31.166,56.995    c7.133,24.345,32.65,38.298,56.995,31.166c24.345-7.133,38.298-32.65,31.166-56.995    C398.645,133.743,373.127,119.789,348.782,126.922z M369.414,197.343c-14.548,4.262-29.796-4.076-34.058-18.623    s4.076-29.796,18.623-34.058c14.548-4.262,29.796,4.076,34.058,18.623C392.3,177.833,383.962,193.081,369.414,197.343z"/>
		<path style="fill:#241726;" d="M380.913,162.018c-0.446,0-0.87-0.261-1.058-0.695c-2.05-4.749-5.005-7.908-8.784-9.396    c-5.977-2.352-12.041,0.259-12.101,0.284c-0.584,0.254-1.264-0.009-1.519-0.592s0.01-1.263,0.592-1.519    c0.282-0.126,7.012-3.013,13.871-0.315c4.371,1.717,7.754,5.293,10.056,10.625c0.252,0.585-0.017,1.263-0.601,1.515    C381.221,161.989,381.066,162.018,380.913,162.018z"/>
		<path style="fill:#EC9B70;" d="M412.501,196.977c0,0-23.859,22.167-20.763,24.762c3.095,2.595,14.456,21.448,24.317,23.229    c9.861,1.781,24.786-16.378,23.488-24.352C436.929,204.558,424.328,193.512,412.501,196.977z"/>
		<path style="fill:#241726;" d="M398.092,226.997c-0.092,0-0.187-0.011-0.28-0.034c-0.618-0.155-0.994-0.781-0.838-1.398    c1.187-4.751,11.579-12.481,12.759-13.348c0.514-0.378,1.233-0.266,1.611,0.248c0.376,0.513,0.266,1.236-0.248,1.611    c-3.024,2.217-11.052,8.703-11.888,12.047C399.078,226.649,398.608,226.997,398.092,226.997z"/>
		<path style="fill:#241726;" d="M402.575,234.474c-0.048,0-0.097-0.005-0.146-0.009c-0.631-0.079-1.078-0.664-0.999-1.294    c0.396-3.178,12.508-11.3,17.697-14.642c0.532-0.351,1.248-0.191,1.593,0.344c0.344,0.533,0.19,1.247-0.344,1.591    c-7.705,4.967-16.266,11.349-16.662,13.006C403.641,234.053,403.147,234.474,402.575,234.474z"/>
		<path style="fill:#241726;" d="M412.654,242.308c-0.241,0-0.483-0.074-0.69-0.23c-0.51-0.383-0.613-1.105-0.231-1.614    c3.35-4.467,11.657-13.865,12.009-14.264c0.422-0.477,1.153-0.522,1.626-0.101c0.477,0.423,0.522,1.15,0.1,1.627    c-0.086,0.097-8.597,9.729-11.892,14.12C413.35,242.148,413.004,242.308,412.654,242.308z"/>
		<path style="fill:#241726;" d="M404.812,319.984c-0.58,0-1.079-0.437-1.144-1.024c-0.061-0.556-1.499-13.654-0.748-21.157    c0.064-0.632,0.625-1.103,1.261-1.031c0.634,0.063,1.095,0.628,1.032,1.26c-0.727,7.265,0.731,20.538,0.746,20.671    c0.07,0.632-0.386,1.204-1.018,1.274C404.897,319.982,404.855,319.984,404.812,319.984z"/>
		<path style="fill:#EC9B70;" d="M174.772,354.682c0,0-49.295,35.104-63.485,39.585s-18.485-22.407-12.51-35.104    c5.975-12.697,55.083-31.369,58.817-27.635S174.772,354.682,174.772,354.682z"/>
		<path style="fill:#241726;" d="M152.046,317.104c-0.287,0-0.573-0.106-0.797-0.32c-3.854-3.686-28.529-16.134-41.037-22.201    c-0.573-0.279-0.811-0.968-0.533-1.539c0.277-0.574,0.968-0.815,1.539-0.536c1.49,0.722,36.549,17.757,41.625,22.611    c0.459,0.439,0.476,1.17,0.036,1.629C152.652,316.985,152.349,317.104,152.046,317.104z"/>
		<path style="fill:#241726;" d="M256.317,285.833c-40.041,0-48.795-42.528-48.879-42.962c-0.122-0.626,0.286-1.229,0.91-1.35    c0.62-0.135,1.228,0.286,1.351,0.909c0.02,0.106,2.159,10.735,9.179,21.063c9.334,13.733,22.434,20.518,38.953,20.016    c11.3-0.308,19.214-3.709,23.522-10.105c7.843-11.642,1.265-29.608,1.197-29.788c-0.223-0.596,0.08-1.26,0.675-1.483    c0.595-0.23,1.26,0.079,1.483,0.673c0.293,0.781,7.063,19.244-1.439,31.879c-4.746,7.053-13.285,10.798-25.376,11.129    C257.364,285.826,256.837,285.833,256.317,285.833z"/>
		<g>
			<g>
				<g>
					<path style="fill:#FFFFFF;" d="M173.122,268.417c0,0,45.39,24.428,55.257,23.524s38.483-21.714,47.363-19.905       c8.881,1.81,28.615,24.428,42.43,23.524c13.814-0.905,37.401-21.583,43.321-17.06c5.92,4.524,10.803,89.068,7.842,100.83       c-2.96,11.762-37.988,34.299-53.776,32.49s-46.725-17.642-57.579-17.642c-10.854,0-27.566,17.642-35.409,16.522       c-16.31-2.33-45.504-15.617-50.438-28.283C167.201,369.749,165.228,269.321,173.122,268.417z"/>
					<path style="fill:#241726;" d="M317.448,413.075c-0.702,0-1.374-0.036-2.02-0.11c-8.062-0.925-19.737-5.34-31.028-9.61       c-10.913-4.127-21.221-8.025-26.419-8.025c-5.256,0-12.465,4.728-18.826,8.901c-6.473,4.245-12.592,8.205-16.746,7.609       c-16.682-2.383-46.247-15.911-51.348-29.005c-4.367-11.214-7.203-102.282-0.144-113.987c0.576-0.954,1.274-1.485,2.073-1.578       c0.233-0.022,0.471,0.02,0.677,0.131c0.435,0.234,43.621,23.412,54.139,23.412c0.165,0,0.321-0.007,0.468-0.02       c4.205-0.385,12.62-4.92,20.758-9.304c10.684-5.755,21.74-11.644,26.94-10.584c3.786,0.772,9.047,4.789,15.137,9.441       c8.922,6.815,19.074,14.577,26.988,14.064c6.416-0.421,15.383-5.482,23.296-9.95c7.375-4.163,13.744-7.758,17.865-7.758       c1.182,0,2.168,0.297,2.936,0.882c6.682,5.106,10.931,91.412,8.259,102.025c-3.069,12.196-36.752,33.463-53.002,33.465       C317.45,413.075,317.449,413.075,317.448,413.075z M257.981,393.025c5.62,0,16.118,3.97,27.234,8.174       c11.159,4.22,22.698,8.583,30.477,9.475c0.56,0.065,1.146,0.097,1.757,0.097c0.001,0,0.002,0,0.003,0       c16.356-0.002,48.158-21.353,50.767-31.723c3.336-13.256-2.838-96.127-7.424-99.631c-0.361-0.277-0.863-0.41-1.536-0.41       c-3.515,0-9.935,3.623-16.733,7.461c-8.127,4.587-17.337,9.788-24.278,10.242c-8.768,0.61-19.289-7.469-28.538-14.532       c-5.621-4.294-10.93-8.347-14.197-9.013c-4.56-0.929-15.666,5.118-25.388,10.355c-8.725,4.699-16.967,9.139-21.641,9.569       c-0.212,0.02-0.438,0.029-0.677,0.029c-10.593,0-49.677-20.716-54.746-23.428c-5.324,4.681-5.329,98.24,0.149,112.308       c4.665,11.975,33.307,25.244,49.527,27.56c3.396,0.473,9.103-3.281,15.156-7.253       C244.846,397.742,252.036,393.025,257.981,393.025z"/>
				</g>
				<path style="fill:#241726;" d="M222.572,411.851c-0.637,0-1.152-0.515-1.152-1.152V291.943c0-0.637,0.515-1.152,1.152-1.152      c0.637,0,1.152,0.515,1.152,1.152v118.756C223.725,411.336,223.209,411.851,222.572,411.851z"/>
				<path style="fill:#241726;" d="M315.56,412.972c-0.631,0-1.146-0.509-1.152-1.141l-1.12-115.396      c-0.006-0.637,0.505-1.157,1.141-1.164c0.656-0.016,1.158,0.504,1.164,1.141l1.12,115.396c0.006,0.637-0.505,1.157-1.141,1.164      C315.567,412.972,315.563,412.972,315.56,412.972z"/>
			</g>
			<path style="fill:#241726;" d="M262.905,395.046c-0.028,0-0.057,0-0.087-0.002c-0.635-0.047-1.111-0.601-1.063-1.236     l8.963-120.997c0.046-0.635,0.583-1.13,1.234-1.065c0.635,0.047,1.111,0.601,1.063,1.236l-8.963,120.997     C264.008,394.585,263.503,395.046,262.905,395.046z"/>
			<path style="fill:#EC9B70;" d="M153.387,330.844c0,0,8.881-9.952,27.629-9.952s-14.801,13.571-14.801,13.571     s24.668-9.048,27.629-1.81s-21.686,10.265-21.686,10.265s17.707-2.593,21.654,2.835c3.947,5.429-13.922,4.133-35.491,20.376     C148.954,373.183,141.546,348.035,153.387,330.844z"/>
			<path style="fill:#241726;" d="M164.88,337.552c-0.376,0-0.744-0.182-0.964-0.52c-0.349-0.533-0.201-1.247,0.331-1.596     c0.293-0.191,7.188-4.699,10.63-5.388c0.623-0.126,1.231,0.279,1.356,0.905c0.125,0.623-0.28,1.231-0.904,1.355     c-2.494,0.5-7.933,3.819-9.818,5.055C165.317,337.491,165.097,337.552,164.88,337.552z"/>
			<path style="fill:#241726;" d="M170.536,345.818c-0.32,0-0.639-0.133-0.866-0.394c-0.42-0.477-0.371-1.206,0.107-1.625     c1.881-1.647,10.933-3.41,12.728-3.745c0.634-0.119,1.228,0.297,1.345,0.92c0.118,0.626-0.295,1.227-0.919,1.344     c-4.982,0.934-10.694,2.39-11.634,3.214C171.076,345.724,170.806,345.818,170.536,345.818z"/>
		</g>
		<path style="fill:#241726;" d="M112.22,359.756c-0.305,0-0.609-0.119-0.835-0.358c-0.439-0.461-0.421-1.191,0.041-1.629    c22.871-21.754,43.869-29.853,44.08-29.932c0.594-0.216,1.259,0.074,1.484,0.671c0.226,0.594-0.074,1.26-0.668,1.485    c-0.206,0.077-20.797,8.034-43.307,29.446C112.792,359.65,112.506,359.756,112.22,359.756z"/>
		<path style="fill:#241726;" d="M147.424,268.083c-0.734,0-1.632-0.095-2.076-0.837c-1.32-2.201-1.04-10.661-0.97-12.335    c0.02-0.484,0.34-0.902,0.8-1.051c0.972-0.311,23.863-7.6,29.791-7.6c0.716,0,1.602,0.081,2.112,0.718    c1.743,2.178,2.528,10.307,2.668,11.914c0.047,0.538-0.288,1.038-0.805,1.2C177.897,260.418,153.238,268.083,147.424,268.083z     M147.195,265.772c0.061,0.005,0.137,0.007,0.23,0.007c4.878,0,25.395-6.216,29.942-7.611c-0.361-3.513-1.128-8.208-1.968-9.58    c-0.086-0.011-0.223-0.023-0.429-0.023c-4.995,0-24.217,5.957-28.318,7.247C146.524,259.878,146.687,264.327,147.195,265.772z"/>
		<path style="fill:#241726;" d="M300.967,258.185c-1.655,0-2.576-0.268-3.078-0.893c-1.744-2.181-2.528-10.645-2.668-12.319    c-0.049-0.585,0.35-1.114,0.926-1.227c0.574-0.113,14.129-2.761,20.728-2.761c2.586,0,3.837,0.394,4.32,1.359    c1.268,2.536,2.048,10.04,2.132,10.886c0.057,0.574-0.317,1.1-0.877,1.236C321.82,254.616,306.93,258.185,300.967,258.185z     M299.697,255.809c0.105,0,0.479,0.072,1.27,0.072c4.842,0,16.495-2.62,19.959-3.425c-0.297-2.575-0.953-7.199-1.721-8.93    c-0.192-0.074-0.791-0.236-2.329-0.236c-5.358,0-15.943,1.902-19.263,2.523c0.376,3.792,1.183,8.845,2.051,10.008    C299.664,255.811,299.674,255.809,299.697,255.809z"/>
		<path style="fill:#241726;" d="M193.754,145.551c-0.412,0-0.81-0.221-1.018-0.61c-7.593-14.237,6.909-27.11,7.057-27.238    c0.48-0.421,1.209-0.369,1.625,0.113c0.419,0.479,0.369,1.206-0.11,1.625c-0.545,0.475-13.263,11.804-6.537,24.416    c0.299,0.563,0.087,1.26-0.475,1.56C194.122,145.508,193.937,145.551,193.754,145.551z"/>
		<path style="fill:#241726;" d="M208.251,149.629c-0.241,0-0.483-0.074-0.69-0.23c-9.586-7.19-6.011-20.174-5.855-20.723    c0.176-0.608,0.815-0.97,1.423-0.79c0.611,0.173,0.967,0.81,0.793,1.422c-0.034,0.119-3.286,12.016,5.02,18.245    c0.51,0.383,0.613,1.105,0.231,1.614C208.948,149.469,208.602,149.629,208.251,149.629z"/>
		<g>
			<path style="fill:#241726;" d="M428.455,278.019c-0.253,0-0.509-0.083-0.721-0.254c-0.496-0.401-0.574-1.125-0.176-1.62     c1.646-2.046,1.281-6.875,1-8.563c-0.105-0.628,0.32-1.22,0.947-1.326c0.637-0.11,1.22,0.32,1.326,0.947     c0.122,0.725,1.108,7.172-1.477,10.386C429.125,277.873,428.792,278.019,428.455,278.019z"/>
			<path style="fill:#241726;" d="M433.883,262.625c-0.253,0-0.509-0.083-0.721-0.254c-0.496-0.401-0.574-1.125-0.176-1.62     c1.646-2.046,1.281-6.875,1-8.563c-0.105-0.628,0.32-1.22,0.947-1.326c0.637-0.115,1.221,0.32,1.326,0.947     c0.122,0.725,1.108,7.172-1.477,10.386C434.554,262.479,434.221,262.625,433.883,262.625z"/>
			<path style="fill:#241726;" d="M436.798,280.744c-0.253,0-0.509-0.083-0.721-0.254c-0.496-0.398-0.574-1.125-0.176-1.62     c1.651-2.05,1.281-6.875,0.999-8.563c-0.105-0.628,0.318-1.22,0.946-1.326c0.63-0.11,1.222,0.317,1.327,0.947     c0.122,0.725,1.108,7.172-1.476,10.386C437.469,280.598,437.135,280.744,436.798,280.744z"/>
			<path style="fill:#241726;" d="M435.942,299.779c-0.253,0-0.509-0.083-0.721-0.254c-0.496-0.401-0.574-1.125-0.176-1.62     c1.646-2.046,1.281-6.875,1-8.563c-0.105-0.628,0.32-1.22,0.947-1.326c0.637-0.115,1.221,0.32,1.326,0.947     c0.122,0.725,1.108,7.172-1.477,10.386C436.613,299.633,436.28,299.779,435.942,299.779z"/>
			<path style="fill:#241726;" d="M427.463,297.184c-0.253,0-0.509-0.083-0.721-0.254c-0.496-0.398-0.574-1.125-0.176-1.62     c1.652-2.052,1.282-6.878,1-8.565c-0.105-0.628,0.318-1.22,0.946-1.326c0.626-0.108,1.221,0.317,1.327,0.947     c0.122,0.725,1.108,7.172-1.477,10.388C428.135,297.038,427.801,297.184,427.463,297.184z"/>
			<path style="fill:#241726;" d="M428.02,314.111c-0.253,0-0.507-0.083-0.721-0.254c-0.495-0.398-0.574-1.123-0.176-1.62     c1.645-2.046,1.279-6.878,0.999-8.566c-0.105-0.628,0.32-1.22,0.947-1.326c0.636-0.108,1.22,0.32,1.326,0.947     c0.122,0.725,1.108,7.172-1.476,10.388C428.692,313.964,428.358,314.111,428.02,314.111z"/>
		</g>
		<g>
			<path style="fill:#241726;" d="M118.579,364.295c-0.275,0-0.55-0.097-0.77-0.295c-0.474-0.425-0.513-1.155-0.088-1.627     c0.489-0.547,4.901-5.327,9.021-5.327c0.528-0.013,1.169,0.515,1.167,1.157c-0.002,0.635-0.518,1.148-1.152,1.148     c-0.003,0-0.008,0-0.016,0c-2.624,0-6.162,3.293-7.305,4.562C119.208,364.167,118.894,364.295,118.579,364.295z"/>
			<path style="fill:#241726;" d="M127.922,353.837c-0.275,0-0.55-0.097-0.77-0.295c-0.474-0.425-0.513-1.155-0.088-1.627     c0.489-0.547,4.901-5.327,9.021-5.327c0.006,0,0.012,0,0.019,0c0.636,0.002,1.15,0.52,1.148,1.157     c-0.002,0.635-0.518,1.148-1.152,1.148c-0.003-0.002-0.011,0-0.016,0c-2.624,0-6.162,3.293-7.305,4.562     C128.551,353.709,128.237,353.837,127.922,353.837z"/>
			<path style="fill:#241726;" d="M131.184,362.083c-0.275,0-0.55-0.097-0.77-0.295c-0.474-0.425-0.513-1.155-0.088-1.627     c0.489-0.547,4.901-5.327,9.021-5.327c0.558,0.056,1.169,0.513,1.167,1.157c-0.002,0.635-0.518,1.148-1.152,1.148     c-0.006-0.002-0.01-0.002-0.016,0c-2.624,0-6.162,3.293-7.305,4.562C131.813,361.954,131.499,362.083,131.184,362.083z"/>
			<path style="fill:#241726;" d="M144.065,351.087c-0.275,0-0.549-0.097-0.77-0.295c-0.474-0.425-0.513-1.155-0.088-1.627     c0.489-0.547,4.899-5.327,9.02-5.327c0.006,0,0.012,0,0.019,0c0.636,0.002,1.15,0.52,1.148,1.157     c-0.002,0.635-0.518,1.148-1.152,1.148c-0.003-0.002-0.01-0.002-0.016,0c-2.633,0-6.164,3.293-7.304,4.562     C144.695,350.958,144.38,351.087,144.065,351.087z"/>
		</g>
	</g>
	<path style="fill:#241726;" d="M406.642,422.282c-1.089,0-2.155-0.072-3.166-0.212c-0.631-0.088-1.071-0.668-0.983-1.299   c0.088-0.632,0.68-1.062,1.299-0.983c1.366,0.189,2.829,0.234,4.368,0.142c0.637-0.068,1.182,0.443,1.222,1.078   c0.039,0.635-0.443,1.182-1.078,1.222C407.738,422.266,407.185,422.282,406.642,422.282z M412.753,421.42   c-0.495,0-0.952-0.322-1.103-0.819c-0.185-0.61,0.16-1.251,0.77-1.436c1.362-0.412,2.712-0.983,4.01-1.699   c0.56-0.306,1.26-0.101,1.565,0.455c0.307,0.558,0.104,1.258-0.453,1.566c-1.44,0.792-2.939,1.425-4.456,1.884   C412.976,421.404,412.863,421.42,412.753,421.42z M399.195,420.902c-0.146,0-0.296-0.027-0.439-0.088   c-1.536-0.632-2.961-1.474-4.234-2.505c-0.495-0.398-0.573-1.125-0.173-1.62c0.399-0.495,1.125-0.574,1.62-0.171   c1.102,0.889,2.335,1.618,3.665,2.167c0.589,0.241,0.869,0.916,0.627,1.503C400.077,420.635,399.647,420.902,399.195,420.902z    M420.799,417.047c-0.335,0-0.667-0.146-0.896-0.425c-0.401-0.495-0.326-1.22,0.168-1.62c1.116-0.907,2.198-1.935,3.213-3.056   c0.426-0.47,1.157-0.506,1.628-0.079c0.471,0.428,0.507,1.155,0.08,1.627c-1.094,1.206-2.261,2.316-3.467,3.295   C421.311,416.962,421.054,417.047,420.799,417.047z M392.134,415.193c-0.366,0-0.726-0.173-0.95-0.497   c-0.902-1.308-1.655-2.77-2.236-4.344c-0.219-0.596,0.086-1.26,0.683-1.479c0.596-0.223,1.259,0.086,1.48,0.682   c0.513,1.393,1.176,2.68,1.97,3.83c0.361,0.524,0.23,1.242-0.294,1.602C392.587,415.128,392.36,415.193,392.134,415.193z    M426.995,410.26c-0.225,0-0.453-0.065-0.653-0.205c-0.524-0.36-0.656-1.078-0.295-1.602c0.837-1.213,1.612-2.5,2.303-3.826   c0.294-0.565,0.988-0.779,1.555-0.488c0.564,0.295,0.782,0.99,0.488,1.555c-0.735,1.407-1.559,2.777-2.45,4.069   C427.721,410.086,427.361,410.26,426.995,410.26z M388.913,406.641c-0.565,0-1.058-0.414-1.14-0.99   c-0.171-1.202-0.258-2.449-0.258-3.707c0-0.365,0.007-0.729,0.021-1.096c0.025-0.637,0.61-1.091,1.195-1.107   c0.636,0.025,1.132,0.56,1.107,1.197c-0.012,0.335-0.019,0.673-0.019,1.006c0,1.148,0.079,2.287,0.235,3.383   c0.089,0.63-0.349,1.213-0.979,1.303C389.021,406.636,388.967,406.641,388.913,406.641z M431.247,402.099   c-0.134,0-0.269-0.023-0.402-0.072c-0.596-0.223-0.9-0.884-0.679-1.481c0.197-0.531,0.379-1.062,0.546-1.589   c-0.318-0.126-0.632-0.259-0.943-0.394c-0.582-0.259-0.846-0.938-0.59-1.519c0.258-0.583,0.941-0.844,1.519-0.592   c0.207,0.092,0.415,0.18,0.626,0.266c0.034-0.144,0.066-0.29,0.098-0.434c0.133-0.621,0.743-1.008,1.369-0.884   c0.621,0.135,1.017,0.747,0.883,1.371c-0.052,0.241-0.107,0.482-0.165,0.725c0.448,0.137,0.901,0.261,1.358,0.374   c0.618,0.151,0.995,0.776,0.843,1.393c-0.152,0.621-0.766,0.997-1.394,0.844c-0.479-0.117-0.955-0.248-1.427-0.392   c-0.172,0.545-0.36,1.089-0.563,1.634C432.154,401.814,431.715,402.099,431.247,402.099z M441.685,400.981   c-0.904,0-1.786-0.038-2.645-0.11c-0.634-0.054-1.105-0.61-1.051-1.245c0.054-0.632,0.63-1.083,1.245-1.051   c1.411,0.119,2.889,0.133,4.432,0.036c0.654-0.061,1.184,0.441,1.224,1.076c0.041,0.635-0.441,1.184-1.076,1.224   C443.091,400.958,442.381,400.981,441.685,400.981z M448.293,400.283c-0.53,0-1.007-0.367-1.124-0.907   c-0.136-0.621,0.258-1.236,0.879-1.371c1.453-0.317,2.867-0.756,4.203-1.301c0.587-0.243,1.261,0.041,1.502,0.632   c0.241,0.587-0.043,1.26-0.631,1.501c-1.458,0.594-2.999,1.071-4.581,1.418C448.457,400.274,448.375,400.283,448.293,400.283z    M389.246,397.475c-0.077,0-0.154-0.007-0.232-0.022c-0.623-0.128-1.025-0.736-0.898-1.359c0.316-1.551,0.755-3.097,1.306-4.598   c0.219-0.594,0.883-0.896,1.479-0.684c0.598,0.221,0.904,0.882,0.684,1.481c-0.511,1.391-0.918,2.824-1.212,4.26   C390.262,397.099,389.783,397.475,389.246,397.475z M456.766,396.806c-0.379,0-0.751-0.187-0.97-0.529   c-0.344-0.536-0.189-1.249,0.345-1.593c1.222-0.783,2.39-1.692,3.473-2.698c0.465-0.434,1.194-0.405,1.628,0.059   c0.433,0.468,0.406,1.197-0.06,1.629c-1.182,1.098-2.459,2.091-3.794,2.95C457.195,396.748,456.98,396.806,456.766,396.806z    M426.217,396.41c-0.228,0-0.458-0.068-0.659-0.207c-1.401-0.981-2.629-2.073-3.647-3.243c-0.419-0.479-0.368-1.209,0.113-1.625   c0.477-0.421,1.205-0.369,1.625,0.113c0.896,1.028,1.983,1.994,3.231,2.865c0.521,0.367,0.648,1.085,0.284,1.607   C426.938,396.239,426.58,396.41,426.217,396.41z M433.104,393.111c-0.005,0-0.009,0-0.012,0c-0.637-0.007-1.147-0.529-1.14-1.166   l0.002-0.29c-0.001-1.467-0.189-2.773-0.557-3.878c-0.201-0.603,0.124-1.256,0.728-1.458c0.602-0.203,1.256,0.124,1.457,0.729   c0.448,1.341,0.675,2.89,0.676,4.607l-0.002,0.317C434.25,392.604,433.735,393.111,433.104,393.111z M463.499,390.579   c-0.246,0-0.494-0.079-0.704-0.241c-0.503-0.389-0.595-1.114-0.206-1.616c0.884-1.143,1.709-2.39,2.452-3.707   c0.314-0.551,1.015-0.752,1.57-0.437c0.555,0.313,0.751,1.017,0.438,1.571c-0.798,1.411-1.685,2.75-2.636,3.981   C464.184,390.426,463.843,390.579,463.499,390.579z M420.444,389.42c-0.491,0-0.945-0.315-1.099-0.808   c-0.227-0.725-0.342-1.429-0.341-2.093c0-1.339,0.467-2.509,1.351-3.38c0.456-0.443,1.184-0.439,1.629,0.013   c0.447,0.452,0.442,1.182-0.011,1.629c-0.441,0.434-0.665,1.019-0.665,1.74c-0.001,0.43,0.079,0.9,0.235,1.402   c0.19,0.608-0.147,1.254-0.755,1.445C420.674,389.404,420.558,389.42,420.444,389.42z M392.396,388.848   c-0.185,0-0.372-0.045-0.547-0.14c-0.559-0.302-0.769-1.001-0.466-1.56c0.756-1.4,1.618-2.752,2.562-4.024   c0.38-0.511,1.103-0.617,1.611-0.239c0.511,0.378,0.618,1.101,0.239,1.611c-0.879,1.184-1.681,2.444-2.384,3.745   C393.203,388.63,392.805,388.848,392.396,388.848z M429.85,384.894c-0.219,0-0.442-0.063-0.639-0.194   c-0.702-0.47-1.553-0.756-2.528-0.855c-0.435-0.043-0.847-0.068-1.234-0.07c-0.637-0.004-1.15-0.522-1.147-1.159   c0.003-0.635,0.519-1.146,1.152-1.146c0.002,0,0.005,0,0.006,0c0.457,0.002,0.941,0.032,1.453,0.083   c1.354,0.135,2.559,0.547,3.579,1.229c0.529,0.353,0.672,1.069,0.318,1.598C430.587,384.714,430.223,384.894,429.85,384.894z    M468.036,382.576c-0.143,0-0.288-0.027-0.428-0.083c-0.591-0.236-0.879-0.907-0.643-1.497c0.982-2.455,1.338-4.19,1.341-4.208   c0.125-0.623,0.727-1.038,1.356-0.902c0.623,0.126,1.028,0.731,0.904,1.355c-0.016,0.079-0.394,1.944-1.461,4.611   C468.926,382.301,468.493,382.576,468.036,382.576z"/>
	<path style="fill:#241726;" d="M76.08,272.021c-0.553,0-1.041-0.398-1.135-0.961c-0.106-0.628,0.317-1.222,0.945-1.328   c1.338-0.225,2.705-0.668,4.062-1.319c0.571-0.277,1.261-0.032,1.537,0.542c0.275,0.574,0.032,1.263-0.542,1.537   c-1.551,0.743-3.124,1.251-4.674,1.512C76.207,272.017,76.143,272.021,76.08,272.021z M71.497,272.017   c-0.065,0-0.132-0.005-0.198-0.018c-1.578-0.272-3.151-0.815-4.674-1.609c-0.565-0.295-0.783-0.99-0.489-1.555   c0.295-0.565,0.986-0.781,1.554-0.488c1.313,0.684,2.66,1.15,4.004,1.384c0.627,0.108,1.048,0.704,0.938,1.332   C72.533,271.623,72.047,272.017,71.497,272.017z M84.37,268.189c-0.35,0-0.694-0.158-0.922-0.459   c-0.383-0.509-0.281-1.231,0.227-1.614c1.119-0.844,2.242-1.83,3.339-2.935c0.449-0.452,1.178-0.45,1.629-0.004   c0.451,0.448,0.453,1.177,0.005,1.629c-1.174,1.182-2.38,2.242-3.586,3.151C84.855,268.112,84.611,268.189,84.37,268.189z    M63.366,267.925c-0.266,0-0.531-0.09-0.748-0.277c-1.133-0.965-2.269-2.107-3.371-3.389c-0.415-0.482-0.361-1.211,0.122-1.625   c0.479-0.414,1.21-0.365,1.625,0.122c1.026,1.193,2.077,2.251,3.121,3.142c0.484,0.412,0.541,1.139,0.128,1.623   C64.014,267.788,63.691,267.925,63.366,267.925z M90.888,261.691c-0.25,0-0.503-0.081-0.715-0.25   c-0.498-0.394-0.583-1.118-0.188-1.618c1.631-2.057,2.568-3.635,2.578-3.65c0.324-0.545,1.033-0.725,1.578-0.405   c0.548,0.324,0.729,1.031,0.406,1.578c-0.042,0.07-1.021,1.719-2.755,3.909C91.565,261.541,91.227,261.691,90.888,261.691z    M57.351,260.983c-0.377,0-0.746-0.185-0.967-0.524c-0.878-1.348-1.653-2.755-2.305-4.181c-0.263-0.581-0.009-1.263,0.571-1.528   c0.58-0.263,1.263-0.009,1.527,0.569c0.603,1.326,1.323,2.631,2.138,3.884c0.348,0.533,0.197,1.247-0.336,1.593   C57.785,260.922,57.566,260.983,57.351,260.983z M37.035,259.722c-0.575,0-1.072-0.43-1.143-1.013   c-0.077-0.632,0.374-1.206,1.006-1.283c1.299-0.158,2.75-0.473,4.315-0.936c0.614-0.178,1.251,0.167,1.432,0.779   c0.18,0.61-0.168,1.251-0.778,1.431c-1.688,0.5-3.267,0.839-4.693,1.013C37.127,259.72,37.081,259.722,37.035,259.722z    M32.453,259.535c-0.079,0-0.16-0.009-0.24-0.025c-1.649-0.349-3.204-0.968-4.623-1.836c-0.542-0.333-0.713-1.042-0.38-1.587   c0.332-0.54,1.04-0.713,1.584-0.38c1.195,0.734,2.506,1.254,3.896,1.548c0.623,0.133,1.021,0.745,0.889,1.366   C33.464,259.164,32.985,259.535,32.453,259.535z M45.883,257.19c-0.45,0-0.879-0.266-1.063-0.709   c-0.245-0.587,0.032-1.26,0.619-1.506c1.38-0.576,2.749-1.227,4.07-1.931c0.565-0.302,1.26-0.088,1.56,0.475s0.087,1.26-0.475,1.56   c-1.385,0.738-2.821,1.418-4.266,2.021C46.182,257.161,46.031,257.19,45.883,257.19z M24.717,254.85   c-0.325,0-0.649-0.137-0.877-0.405c-1.023-1.2-1.914-2.584-2.649-4.112c-0.276-0.574-0.034-1.263,0.54-1.539   c0.575-0.277,1.261-0.032,1.537,0.54c0.648,1.35,1.431,2.568,2.325,3.617c0.413,0.484,0.356,1.211-0.129,1.625   C25.248,254.76,24.981,254.85,24.717,254.85z M54.007,252.842c-0.257,0-0.51-0.086-0.716-0.248   c-0.398-0.092-0.735-0.396-0.851-0.817c-0.433-1.575-0.725-3.164-0.868-4.726c-0.057-0.635,0.41-1.195,1.043-1.254   c0.643-0.036,1.195,0.412,1.252,1.042c0.096,1.053,0.267,2.12,0.507,3.187c0.911-0.659,1.751-1.332,2.506-2.014   c0.471-0.428,1.201-0.387,1.627,0.086c0.425,0.475,0.387,1.202-0.086,1.629c-1.108,0.997-2.379,1.978-3.774,2.919   C54.452,252.779,54.229,252.842,54.007,252.842z M20.695,246.649c-0.519,0-0.99-0.353-1.119-0.88   c-0.37-1.526-0.609-3.124-0.708-4.755c-0.038-0.635,0.444-1.182,1.08-1.22c0.636-0.061,1.182,0.446,1.22,1.08   c0.091,1.494,0.308,2.957,0.647,4.35c0.151,0.619-0.23,1.242-0.847,1.393C20.877,246.638,20.785,246.649,20.695,246.649z    M60.726,246.597c-0.224,0-0.451-0.065-0.65-0.203c-0.524-0.358-0.658-1.076-0.299-1.6c0.881-1.287,1.376-2.525,1.471-3.675   c0.052-0.632,0.608-1.103,1.243-1.053c0.635,0.052,1.106,0.608,1.054,1.242c-0.128,1.555-0.756,3.166-1.867,4.787   C61.455,246.422,61.094,246.597,60.726,246.597z M52.769,243.496c-0.046,0-0.093-0.002-0.141-0.009   c-0.631-0.077-1.081-0.65-1.005-1.283c0.218-1.791,0.673-3.446,1.315-4.785c0.276-0.576,0.962-0.817,1.537-0.542   c0.574,0.277,0.816,0.963,0.54,1.537c-0.535,1.116-0.917,2.523-1.104,4.069C53.841,243.068,53.344,243.496,52.769,243.496z    M61.055,238.077c-0.348,0-0.69-0.155-0.917-0.452c-0.828-1.085-1.674-1.659-2.447-1.659c-0.115,0.011-0.198,0.009-0.287,0.025   c-0.638,0.099-1.224-0.304-1.339-0.929c-0.113-0.626,0.304-1.227,0.929-1.339c0.235-0.041,0.467-0.065,0.712-0.061   c1.044,0,2.647,0.446,4.264,2.563c0.386,0.506,0.289,1.229-0.217,1.616C61.544,238,61.298,238.077,61.055,238.077z M20.11,237.492   c-0.037,0-0.075-0.002-0.114-0.005c-0.634-0.063-1.096-0.628-1.034-1.26c0.154-1.573,0.432-3.155,0.824-4.706   c0.156-0.619,0.784-0.997,1.4-0.833c0.618,0.155,0.991,0.783,0.835,1.4c-0.365,1.436-0.622,2.905-0.765,4.364   C21.197,237.046,20.696,237.492,20.11,237.492z M22.358,228.588c-0.149,0-0.298-0.029-0.442-0.088   c-0.589-0.245-0.866-0.92-0.621-1.508c0.609-1.463,1.331-2.896,2.149-4.26c0.325-0.547,1.034-0.727,1.58-0.396   c0.546,0.326,0.724,1.035,0.396,1.58c-0.76,1.269-1.432,2.602-1.998,3.963C23.238,228.321,22.809,228.588,22.358,228.588z    M27.075,220.705c-0.255,0-0.513-0.086-0.727-0.259c-0.493-0.403-0.567-1.128-0.165-1.62c1.001-1.231,2.101-2.399,3.267-3.473   c0.47-0.432,1.198-0.405,1.628,0.065c0.431,0.468,0.402,1.197-0.066,1.627c-1.086,1.001-2.109,2.091-3.042,3.234   C27.742,220.561,27.41,220.705,27.075,220.705z"/>
	<path style="fill:#52B0A8;" d="M145.67,456.713c0,0,102.841-1.535,108.981-2.302c6.14-0.767-24.559-25.327-28.396-23.792   s-10.745,3.837-23.024,9.977c-11.005,5.502-16.117-15.349-28.396-13.047c-12.28,2.302-18.419,13.815-26.094,15.349   s-9.977-14.582-19.954-12.28c-9.977,2.302-23.024,20.722-31.466,24.559C88.877,459.016,145.67,456.713,145.67,456.713z"/>
	<path style="fill:#52B0A8;" d="M326.541,458.281c0,0,102.841-1.535,108.981-2.302c6.14-0.767-24.559-25.327-28.396-23.792   c-3.837,1.535-10.745,3.837-23.024,9.977c-11.005,5.502-16.117-15.349-28.396-13.047c-12.28,2.302-18.419,13.814-26.094,15.349   s-9.977-14.582-19.954-12.28c-9.977,2.302-23.024,20.722-31.466,24.559C269.748,460.584,326.541,458.281,326.541,458.281z"/>
	<path style="fill:#B3739C;" d="M222.421,507.88c0,0,102.841-1.535,108.981-2.302c6.14-0.767-24.559-25.327-28.396-23.792   s-10.745,3.837-23.024,9.977c-11.005,5.502-16.117-15.349-28.396-13.047c-12.28,2.302-18.419,13.814-26.094,15.349   c-7.675,1.535-9.977-14.582-19.954-12.28c-9.977,2.302-23.024,20.722-31.466,24.559C165.628,510.183,222.421,507.88,222.421,507.88   z"/>
</g>















</svg>
