<svg id="svg8" height="512" viewBox="0 0 135.46666 135.46666" width="512" xmlns="http://www.w3.org/2000/svg" xmlns:svg="http://www.w3.org/2000/svg"><clipPath id="clipPath5136"><rect id="rect5138" height="89.013" rx="7.858" width="87.501" x="-68.036" y="22.301"/></clipPath><clipPath id="clipPath3786"><path id="rect3788" d="m84.667 15.119h79.375v72.571h-79.375z" paint-order="fill markers stroke"/></clipPath><g id="layer1"><g id="g4582" transform="matrix(1.02 0 0 1.02 -11.216 .017)"><g id="g24958"><g id="g13954"><g id="g5977"><g id="g3564"><g id="g33726"><g stroke-linecap="round" stroke-linejoin="round"><path id="path33577" d="m29.184895 8.8204701s16.71501 10.6734389 33.832792 10.6734389c13.19953 0 28.07546-7.304328 34.932731-9.355568 5.578452-1.7308949 4.066612 2.326246 3.900602 5.930381-.77166 16.127703-4.389794 57.334465-13.05597 67.667214-10.472053 12.485906-36.853575 21.749644-44.506231 21.951034-7.652653.20138-21.749651-22.957962-22.756579-45.311773-.634498-14.085852-1.015114-36.335777-.372428-47.418004.431461-7.4399511 2.140683-8.0099987 8.025083-4.1367229z" fill="#ffc517" stroke-width="8.525" paint-order="markers stroke fill"/><path id="path33579" d="m57.658181 43.497459c1.708814-1.566413 6.728638-8.562572 15.130306-4.148137 8.401669 4.414435 5.950487 9.722024 2.248058 7.016402-3.702432-2.705623-6.377693-5.734791-12.216139-1.462758-5.838449 4.272036-6.871039.160907-5.162225-1.405507z" fill="#171d8f" stroke-width="8.525" paint-order="markers stroke fill"/><path id="path33583" d="m27.047562 40.073903c1.708814-1.566413 6.728637-8.562572 15.130306-4.148137 8.401669 4.414434 5.950487 9.722024 2.248058 7.016401-3.702432-2.705622-6.377693-5.73479-12.216139-1.462757-5.838449 4.272035-6.871039.160907-5.162225-1.405507z" fill="#171d8f" stroke-width="8.525" paint-order="markers stroke fill"/><path id="path33585" d="m49.524846 48.896217c-4.430485 7.551961-9.867896 8.659581-9.66651 10.77413.201384 2.11455 5.236025 5.236028 7.753348 2.718708 2.51732-2.517321 5.034641-17.822632 1.913162-13.492838z" fill="#171d8f" stroke-width="8.525" paint-order="markers stroke fill"/><path id="path33683" d="m244.45703 217.18359s1.01001 121.72243-37.88086 165.66407c-.68255.77119-1.31149 1.52782-1.9082 2.27734 34.66769-14.71258 71.65094-35.73399 93.21289-60.0918-5.65486-15.50471-16.55274-39.40853-16.55274-47.74609 0-10.6066-36.87109-60.10352-36.87109-60.10352z" fill="#ffac17" stroke-width="30.236" transform="matrix(.259 0 0 .259 10.999 -.017)" paint-order="markers stroke fill"/><path id="path33587" d="m28.98351 65.812612s8.156118 11.277597 25.97875 8.961661c17.82263-2.315936 22.655886-14.197688 22.857273-9.364434.201384 4.833256-12.485913 26.180137-30.308545 26.784292-17.822628.604158-23.763505-31.919625-18.527478-26.381519z" fill="#171d8f" stroke-width="8.525" paint-order="markers stroke fill"/><path id="path33589" d="m77.262654 64.265639c-1.689773.112762-7.647674 8.306184-22.40704 10.224069-12.339628 1.603454-19.935512-3.023132-23.50897-6.197614.153293 2.259771.606403 5.094967 1.8662 6.683408 2.315935 2.920091 14.700684 6.44434 26.179662 4.229099 7.062545-1.362949 11.604433-3.260478 14.948875-5.362368 2.246207-2.826236 3.743466-6.340406 3.679381-7.878504-.03461-.830716-.407401-1.721494-.758108-1.69809z" fill="#fff" stroke-width="8.525" paint-order="markers stroke fill"/><path id="path33594" d="m56.353944 82.031158c-5.395473.03047-9.317841 1.424121-11.558434 3.495613-1.699331 1.571079-3.522921 3.660756-3.609604 5.387147 1.910769.877978 4.218698 2.063366 6.526314 1.985142 7.423834-.251654 13.750289-4.810219 18.83176-9.567234-3.817094-.919152-7.226957-1.317401-10.190036-1.300668z" fill="#ff4b3d" stroke-width="8.525" paint-order="markers stroke fill"/><path id="path33604" d="m71.878656 53.125316c-4.933949 4.732562-.805545 12.18383 6.746418 8.055424 7.551962-4.128404-.100694-13.090068-6.746418-8.055424z" fill="#ffac17" stroke-width="8.525" paint-order="markers stroke fill"/><path id="path33606" d="m19.617429 51.701304c-4.933949 4.732562-.805545 12.183831 6.746418 8.055424 7.551962-4.128404-.100694-13.090067-6.746418-8.055424z" fill="#ffac17" stroke-width="8.525" paint-order="markers stroke fill"/></g><path id="path33616" d="m41.320317 30.975508c-2.855618-1.24439-9.492945-1.391609-13.690868 1.524713-3.119603 2.668799-4.549008-.271855-2.502379-2.416163 4.043122-4.342269 15.650205-6.079769 18.671208-4.412719 3.019369 1.666144 1.107015 7.725492-2.477961 5.304169z" fill="#171d8f" paint-order="markers stroke fill"/><path id="path33649" d="m65.191993 30.044476c2.893801-1.152815 9.532449-1.088579 13.635366 1.959956 3.033026 2.766796 4.555358-.126844 2.578058-2.335244-3.902782-4.468828-15.448643-6.575101-18.521204-5.005107-3.0709 1.56914-1.35249 7.686318 2.30778 5.380395z" fill="#171d8f" paint-order="markers stroke fill"/><path id="path33651" d="m128.59982 54.07412s-12.46909 7.962187-25.23862 7.962187c-9.846614 0-20.943782-5.448893-26.059178-6.979079-4.161421-1.291216-3.033617 1.735335-2.909777 4.423953.575645 12.030966 3.274705 42.770449 9.739511 50.478479 7.811957 9.31426 27.492084 16.22484 33.200824 16.37508 5.70873.15022 16.22484-17.12623 16.97598-33.801753.47333-10.507783.75726-27.105814.27783-35.372949-.32186-5.550065-1.59691-5.97531-5.98657-3.085918z" fill="#7738c7" stroke-linecap="round" stroke-linejoin="round" stroke-width="6.359" paint-order="markers stroke fill"/><path id="path33653" d="m109.35945 79.140929c-.89304 1.480836-3.01217 7.54467-9.954351 6.154763-6.942191-1.389906-6.30571-5.704415-3.086339-4.547827 3.219373 1.156588 5.77179 2.761023 9.05041-1.525701 3.27862-4.286723 4.88332-1.562075 3.99028-.08124z" fill="#171d8f" stroke-linecap="round" stroke-linejoin="round" stroke-width="6.359" paint-order="markers stroke fill"/><path id="path33655" d="m131.98663 75.144892c-.89304 1.480841-3.01216 7.544671-9.95436 6.154769-6.94218-1.389908-6.30571-5.704417-3.08633-4.54783 3.21938 1.156585 5.77179 2.761022 9.05041-1.525699 3.27861-4.286723 4.88332-1.562076 3.99028-.08124z" fill="#171d8f" stroke-linecap="round" stroke-linejoin="round" stroke-width="6.359" paint-order="markers stroke fill"/><path id="path33657" d="m113.42659 83.969881c3.30507 5.633623 7.36128 6.459886 7.21104 8.037301-.15022 1.577415-3.90597 3.905979-5.78384 2.028106-1.87788-1.877875-3.75576-13.295352-1.4272-10.065407z" fill="#171d8f" stroke-linecap="round" stroke-linejoin="round" stroke-width="6.359" paint-order="markers stroke fill"/><path id="path33659" d="m126.56341 110.89185s-3.91108-4.77902-11.74365-3.28133c-7.83258 1.49771-9.65867 6.88828-9.87585 4.7529-.21718-2.13539 4.83695-11.92618 12.71484-12.665718 7.8779-.739523 11.37043 13.508408 8.90466 11.194148z" fill="#171d8f" stroke-linecap="round" stroke-linejoin="round" stroke-width="3.782" paint-order="markers stroke fill"/><path id="path33665" d="m96.751071 87.124711c3.680639 3.530403.600922 9.088911-5.032702 6.009196-5.633623-3.079712.07512-9.764947 5.032702-6.009196z" fill="#fff" stroke-linecap="round" stroke-linejoin="round" stroke-width="6.359" paint-order="markers stroke fill"/><path id="path33667" d="m135.73697 86.062424c3.68064 3.530404.60093 9.088912-5.0327 6.009197-5.63362-3.079713.0752-9.764946 5.0327-6.009197z" fill="#fff" stroke-linecap="round" stroke-linejoin="round" stroke-width="6.359" paint-order="markers stroke fill"/><path id="path33669" d="m118.0403 67.388714c1.93744 1.282938 6.79506 2.247963 10.25586.647207 2.6366-1.558105 3.30718.787004 1.52665 2.098267-3.53117 2.668424-12.28349 2.446566-14.2879.831742-2.00331-1.613953.18399-5.819033 2.50539-3.577216z" fill="#171d8f" paint-order="markers stroke fill"/><path id="path33671" d="m101.68079 71.051336c-1.24072 1.964758-5.275023 4.837391-9.087898 4.797078-3.043685-.339499-2.693333 2.074309-.531619 2.539832 4.314976.985168 12.206117-2.807256 13.371747-5.102159 1.16501-2.293658-2.55469-5.231496-3.75223-2.234751z" fill="#171d8f" paint-order="markers stroke fill"/><path id="path33673" d="m413.86133 383.56396c-.9156-.02-1.84809.0125-2.79688.10157-11.94581 1.12141-22.19741 8.28173-30.19922 16.28174 9.78031-1.61802 26.82333-7.8751 33.55079-6.36719 6.30809 1.41387 11.85444 2.05893 13.35546-4.64258-4.0807-2.81913-8.72555-5.26007-13.91015-5.37354z" fill="#fff" stroke-linecap="round" stroke-linejoin="round" stroke-width="30.236" transform="matrix(.259 0 0 .259 10.999 -.017)" paint-order="markers stroke fill"/><path id="path33678" d="m407.25977 400.60742c-9.26131-.2116-21.53023 7.45675-40.99024 19.40235-2.96485 5.80527-4.45256 10.70663-4.20898 13.10156.837 8.22971 7.87587-12.54621 38.0625-18.31836 8.41722-1.60949 15.65473-1.3339 21.72265-.10547.13578-2.75316-.75295-5.49706-3.01172-8.10156-3.48029-4.01299-7.19063-5.87836-11.57421-5.97852z" fill="#ffc517" stroke-linecap="round" stroke-linejoin="round" stroke-width="30.236" transform="matrix(.259 0 0 .259 10.999 -.017)" paint-order="markers stroke fill"/><path id="path33688" d="m56.592168 126.34609c-.7566 0-2.958091-9.69362-3.493091-10.22861-.535001-.53501-10.228636-2.7365-10.228636-3.49311 0-.75659 9.693635-2.9581 10.228636-3.49309.535-.535 2.736491-10.228634 3.493091-10.228634.756602 0 2.958104 9.693634 3.493104 10.228634.535001.53499 10.228627 2.7365 10.228627 3.49309 0 .75661-9.693626 2.9581-10.228627 3.49311-.535.53499-2.736493 10.22861-3.493104 10.22861z" fill="#7738c7" stroke-linecap="round" stroke-linejoin="round" stroke-width="4.721" paint-order="markers stroke fill"/><path id="path33691" d="m127.20558 49.289718c-.33761 0-1.31995-4.325484-1.55868-4.564212-.23873-.238727-4.56421-1.221076-4.56421-1.558687s4.32548-1.31996 4.56421-1.558687c.23873-.238728 1.22107-4.564212 1.55868-4.564212s1.31996 4.325484 1.55869 4.564212c.23873.238727 4.56421 1.221075 4.56421 1.558687 0 .337611-4.32548 1.31996-4.56421 1.558687-.23873.238728-1.22107 4.564212-1.55869 4.564212z" fill="#ffc517" stroke-linecap="round" stroke-linejoin="round" stroke-width="2.107" paint-order="markers stroke fill"/><path id="path33695" d="m81.427334 110.03643c-.296732 0-1.160139-3.80176-1.369962-4.01158-.209823-.20983-4.011588-1.07323-4.011588-1.36997 0-.29673 3.801765-1.16014 4.011588-1.36996s1.07323-4.011592 1.369962-4.011592c.296733 0 1.160145 3.801772 1.369967 4.011592.209823.20982 4.011585 1.07323 4.011585 1.36996 0 .29674-3.801762 1.16014-4.011585 1.36997-.209822.20982-1.07323 4.01158-1.369967 4.01158z" fill="#ffc517" stroke-linecap="round" stroke-linejoin="round" stroke-width="1.852" paint-order="markers stroke fill"/><path id="path33697" d="m110.52524 45.3538c-1.05295 0-4.11677-13.490587-4.86132-14.235136-.74455-.744584-14.235175-3.808368-14.235175-4.861353 0-1.05295 13.490625-4.11677 14.235175-4.861319.74455-.744548 3.80837-14.235178 4.86132-14.235178 1.05298 0 4.1168 13.49063 4.86135 14.235178.74455.744549 14.23517 3.808369 14.23517 4.861319 0 1.052985-13.49062 4.116769-14.23517 4.861353-.74455.744549-3.80837 14.235136-4.86135 14.235136z" fill="#7738c7" stroke-linecap="round" stroke-linejoin="round" stroke-width="6.57" paint-order="markers stroke fill"/></g></g></g></g></g></g></g></svg>