<?xml version="1.0" encoding="iso-8859-1"?>
<!-- Generator: Adobe Illustrator 26.5.3, SVG Export Plug-In . SVG Version: 6.00 Build 0)  -->
<svg xmlns="http://www.w3.org/2000/svg" xmlns:xlink="http://www.w3.org/1999/xlink" version="1.1" id="Capa_1" x="0px" y="0px" viewBox="0 0 512 512" style="enable-background:new 0 0 512 512;" xml:space="preserve">
<g>
	<path style="fill:#B78E98;" d="M317.439,363.669c-11.945,0-21.299-9.677-21.75-10.15c-2.098-2.208-2.01-5.696,0.198-7.794   c2.207-2.1,5.697-2.01,7.794,0.198c0.069,0.071,8.402,8.595,16.575,6.341c7.661-2.113,14.314-13.68,18.732-32.571   c0.693-2.965,3.657-4.807,6.624-4.112c2.964,0.693,4.806,3.659,4.112,6.624c-5.549,23.724-14.505,37.422-26.619,40.712   C321.172,363.44,319.274,363.669,317.439,363.669z"/>
	<g>
		<path style="fill:#D4AFB7;" d="M454.769,189.013c-9.704-1.919-19.327-1.544-28.317,0.737    c3.837-60.348-34.62-117.02-93.749-135.367c-27.211-8.443-54.985-14.032-83.325-16.768    c-62.827-6.065-120.698,31.491-140.83,89.342c-7.476-5.587-16.285-9.633-26.052-11.565c-34.922-6.906-68.83,15.805-75.736,50.727    c-6.906,34.922,15.805,68.831,50.727,75.737c17.79,3.518,35.308-0.663,49.136-10.215c9.086,22.151,26.58,40.392,49.328,49.976    c53.029,22.343,108.291,33.396,165.785,33.158c25.402-0.105,49.038-10.371,66.311-27.707c9.14,14.227,23.816,24.869,41.714,28.409    c34.922,6.906,68.83-15.806,75.737-50.728C512.403,229.827,489.691,195.919,454.769,189.013z"/>
		<path style="fill:#B78E98;" d="M442.41,322.236c-4.558,0-9.147-0.446-13.72-1.351c-16.651-3.293-31.16-12.247-41.475-25.466    c-18.1,15.984-41.102,24.768-65.457,24.87c-57.965,0.251-114.48-11.063-167.949-33.591c-21.835-9.2-39.256-25.768-49.63-47.035    c-14.506,8.169-31.228,10.87-47.763,7.601c-18.334-3.626-34.16-14.175-44.56-29.703C1.456,202.033-2.275,183.384,1.351,165.05    c3.625-18.335,14.174-34.16,29.703-44.56c15.528-10.4,34.175-14.13,52.512-10.506c7.965,1.575,15.432,4.437,22.278,8.531    c10.789-26.462,29.808-49.304,54.142-64.844c26.511-16.931,58.443-24.583,89.922-21.544c28.58,2.759,56.985,8.475,84.429,16.99    c29.66,9.203,55.726,28.406,73.395,54.072c16.198,23.53,24.775,51.614,24.485,79.794c7.824-1.144,15.739-0.937,23.622,0.621    c18.334,3.626,34.16,14.174,44.56,29.703c10.401,15.529,13.828,34.178,10.202,52.513c-3.625,18.333-13.87,34.159-29.399,44.56    C469.547,318.186,456.129,322.235,442.41,322.236z M388.046,281.555c0.194,0,0.39,0.01,0.584,0.031    c1.661,0.177,3.151,1.097,4.055,2.502c8.749,13.619,22.295,22.845,38.145,25.98c15.444,3.055,31.154-0.09,44.236-8.85    c13.081-8.761,21.967-22.092,25.021-37.538c3.054-15.445-0.088-31.155-8.849-44.236c-8.762-13.081-22.093-21.967-37.539-25.022    c-8.665-1.715-17.376-1.488-25.891,0.672c-1.706,0.433-3.521,0.024-4.877-1.102c-1.357-1.126-2.093-2.833-1.981-4.592    c1.786-28.079-6.135-56.475-22.301-79.957c-16.273-23.637-40.273-41.321-67.58-49.794c-26.726-8.292-54.388-13.859-82.22-16.546    c-29.036-2.804-58.485,4.25-82.929,19.861c-24.264,15.497-42.79,38.866-52.165,65.805c-0.578,1.66-1.913,2.946-3.594,3.46    c-1.678,0.515-3.505,0.196-4.914-0.856c-7.076-5.289-15.09-8.846-23.821-10.572c-15.442-3.055-31.154,0.089-44.236,8.85    s-21.967,22.093-25.021,37.538c-3.054,15.445,0.088,31.156,8.85,44.237c8.762,13.081,22.093,21.968,37.539,25.022    c15.746,3.116,31.703-0.204,44.932-9.343c1.373-0.948,3.102-1.224,4.702-0.749c1.601,0.475,2.9,1.649,3.533,3.193    c8.779,21.402,25.246,38.089,46.368,46.989c51.549,21.719,106.002,32.729,161.862,32.729c0.589,0,1.171-0.001,1.76-0.004    c23.596-0.098,45.767-9.362,62.427-26.086C385.18,282.133,386.589,281.555,388.046,281.555z"/>
		<path style="fill:#F9E9BF;" d="M307.866,261.949c-40.983-0.4-80.485-8.295-118.504-23.683    c-23.331-9.443-39.214-30.554-40.805-54.048c-0.833-12.291-0.194-24.29,1.915-35.999c8.258-45.847,53.254-76.629,103.12-71.461    c20.229,2.096,40.083,6.087,59.562,11.971c46.321,13.993,75.464,58.292,66.74,102.403c-2.364,11.953-6.271,23.6-11.721,34.943    C357.538,248.21,334.125,262.206,307.866,261.949z"/>
		
			<ellipse transform="matrix(0.4005 -0.9163 0.9163 0.4005 33.9766 557.6432)" style="fill:#B78E98;" cx="443.166" cy="252.855" rx="23.439" ry="23.439"/>
		<path style="fill:#B78E98;" d="M89.061,182.827c2.511-12.699-5.747-25.03-18.447-27.541c-12.699-2.512-25.03,5.747-27.541,18.447    c-2.511,12.699,5.748,25.03,18.447,27.541C74.219,203.786,86.55,195.527,89.061,182.827z"/>
		<g>
			<path style="fill:#605C5D;" d="M305.299,194.544c-1.499,7.943-6.403,15.451-13.129,21.362     c-10.373,9.228-25.104,14.673-38.083,12.106c-6.742-1.333-13.122-4.851-18.532-9.672c-4.985-4.454-9.158-10.004-12.082-15.997     c-5.446-11.121-6.593-23.695-0.611-33.411c13.813-22.416,26.602-2.315,42.736,0.876c16.133,3.19,35.611-10.529,39.851,15.457     C305.971,188.383,305.882,191.476,305.299,194.544z"/>
			<path style="fill:#FD80A6;" d="M292.169,215.906c-10.373,9.228-25.104,14.673-38.083,12.106     c-6.742-1.333-13.122-4.851-18.532-9.672c-4.985-4.454-9.158-10.004-12.082-15.997c10.374-9.228,25.104-14.672,38.084-12.105     c6.742,1.333,13.121,4.85,18.532,9.672C285.073,204.363,289.247,209.913,292.169,215.906z"/>
			<path style="fill:#605C5D;" d="M260.657,234.164c-2.606,0-5.17-0.239-7.651-0.73l0,0c-14.666-2.9-28.613-15.017-35.532-30.868     c-5.751-13.177-5.501-26.492,0.686-36.528c12.382-20.084,26.152-12.503,36.21-6.966c4.048,2.229,8.234,4.533,12.287,5.335     c4.053,0.801,8.801,0.263,13.393-0.257c11.404-1.292,27.026-3.062,30.832,20.225c1.902,11.636-2.935,24.043-13.269,34.039     C287.285,228.404,273.453,234.164,260.657,234.164z M237.208,163.958c-3.314,0-6.15,2.17-9.662,7.867     c-4.263,6.916-4.252,16.513,0.033,26.331c5.432,12.445,16.511,22.276,27.567,24.462l0,0c11.057,2.187,25.041-2.688,34.801-12.128     c7.699-7.448,11.363-16.318,10.054-24.336c-2.113-12.928-6.977-12.375-18.709-11.046c-5.176,0.586-11.04,1.25-16.774,0.117     c-5.732-1.133-10.903-3.981-15.466-6.493C243.991,165.945,240.381,163.958,237.208,163.958z"/>
		</g>
		<g>
			<path style="fill:#605C5D;" d="M357.788,180.337c-1.777,0-3.522-0.858-4.585-2.445c-6.672-9.961-20.203-12.637-30.164-5.965     c-2.529,1.694-5.954,1.018-7.648-1.512c-1.695-2.53-1.018-5.955,1.512-7.649c15.012-10.055,35.405-6.021,45.461,8.99     c1.694,2.53,1.018,5.954-1.513,7.649C359.91,180.035,358.844,180.337,357.788,180.337z"/>
			<path style="fill:#605C5D;" d="M216.797,152.454c-1.778,0-3.522-0.857-4.585-2.445c-6.672-9.96-20.202-12.638-30.163-5.965     c-2.529,1.693-5.954,1.018-7.648-1.513c-1.694-2.529-1.018-5.954,1.513-7.649c15.013-10.053,35.406-6.02,45.459,8.99     c1.695,2.53,1.018,5.955-1.512,7.649C218.919,152.152,217.853,152.454,216.797,152.454z"/>
		</g>
	</g>
	<g>
		<rect x="82.428" y="260.06" style="fill:#91A2B5;" width="236.01" height="214.951"/>
		<rect x="136.785" y="260.06" style="fill:#FFFF9D;" width="127.297" height="127.297"/>
		<rect x="136.785" y="347.715" style="fill:#FD80A6;" width="127.297" height="127.297"/>
		<rect x="136.785" y="308.532" style="fill:#FFBF8C;" width="127.297" height="118.008"/>
		<g>
			<path style="fill:#605C5D;" d="M115.34,294.674h-11.853c-3.044,0-5.513-2.469-5.513-5.513c0-3.044,2.469-5.513,5.513-5.513     h11.853c3.044,0,5.513,2.469,5.513,5.513C120.853,292.206,118.385,294.674,115.34,294.674z"/>
			<path style="fill:#605C5D;" d="M115.34,326.025h-11.853c-3.044,0-5.513-2.469-5.513-5.513c0-3.044,2.469-5.513,5.513-5.513     h11.853c3.044,0,5.513,2.469,5.513,5.513C120.853,323.556,118.385,326.025,115.34,326.025z"/>
			<path style="fill:#605C5D;" d="M115.34,357.375h-11.853c-3.044,0-5.513-2.469-5.513-5.513s2.469-5.513,5.513-5.513h11.853     c3.044,0,5.513,2.469,5.513,5.513S118.385,357.375,115.34,357.375z"/>
			<path style="fill:#605C5D;" d="M115.34,388.724h-11.853c-3.044,0-5.513-2.469-5.513-5.513c0-3.044,2.469-5.513,5.513-5.513     h11.853c3.044,0,5.513,2.469,5.513,5.513C120.853,386.255,118.385,388.724,115.34,388.724z"/>
			<path style="fill:#605C5D;" d="M115.34,420.074h-11.853c-3.044,0-5.513-2.469-5.513-5.513c0-3.044,2.469-5.513,5.513-5.513     h11.853c3.044,0,5.513,2.469,5.513,5.513C120.853,417.605,118.385,420.074,115.34,420.074z"/>
			<path style="fill:#605C5D;" d="M115.34,451.424h-11.853c-3.044,0-5.513-2.469-5.513-5.513s2.469-5.513,5.513-5.513h11.853     c3.044,0,5.513,2.469,5.513,5.513S118.385,451.424,115.34,451.424z"/>
		</g>
		<g>
			<path style="fill:#605C5D;" d="M296.824,294.674h-11.853c-3.044,0-5.513-2.469-5.513-5.513c0-3.044,2.469-5.513,5.513-5.513     h11.853c3.045,0,5.513,2.469,5.513,5.513C302.337,292.206,299.868,294.674,296.824,294.674z"/>
			<path style="fill:#605C5D;" d="M296.824,326.025h-11.853c-3.044,0-5.513-2.469-5.513-5.513c0-3.044,2.469-5.513,5.513-5.513     h11.853c3.045,0,5.513,2.469,5.513,5.513C302.337,323.556,299.868,326.025,296.824,326.025z"/>
			<path style="fill:#605C5D;" d="M296.824,357.375h-11.853c-3.044,0-5.513-2.469-5.513-5.513s2.469-5.513,5.513-5.513h11.853     c3.045,0,5.513,2.469,5.513,5.513S299.868,357.375,296.824,357.375z"/>
			<path style="fill:#605C5D;" d="M296.824,388.724h-11.853c-3.044,0-5.513-2.469-5.513-5.513c0-3.044,2.469-5.513,5.513-5.513     h11.853c3.045,0,5.513,2.469,5.513,5.513C302.337,386.255,299.868,388.724,296.824,388.724z"/>
			<path style="fill:#605C5D;" d="M296.824,420.074h-11.853c-3.044,0-5.513-2.469-5.513-5.513c0-3.044,2.469-5.513,5.513-5.513     h11.853c3.045,0,5.513,2.469,5.513,5.513C302.337,417.605,299.868,420.074,296.824,420.074z"/>
			<path style="fill:#605C5D;" d="M296.824,451.424h-11.853c-3.044,0-5.513-2.469-5.513-5.513s2.469-5.513,5.513-5.513h11.853     c3.045,0,5.513,2.469,5.513,5.513S299.868,451.424,296.824,451.424z"/>
		</g>
		<path style="fill:#FFFFFF;" d="M226.85,357.96l-30.114-17.386c-7.372-4.256-16.586,1.064-16.586,9.576v34.772    c0,8.512,9.215,13.832,16.586,9.576l30.114-17.386C234.221,372.856,234.221,362.216,226.85,357.96z"/>
		<path style="fill:#FF9D6F;" d="M191.208,401.52c-2.847,0-5.692-0.749-8.286-2.247c-5.188-2.996-8.286-8.36-8.286-14.351V350.15    c0-5.991,3.097-11.356,8.286-14.351c5.186-2.995,11.382-2.995,16.57-0.001l30.114,17.387c5.187,2.995,8.286,8.36,8.286,14.351    c0,5.991-3.098,11.355-8.286,14.351l-30.114,17.386C196.898,400.771,194.053,401.52,191.208,401.52z M191.235,344.585    c-1.279,0-2.294,0.471-2.8,0.764c-0.834,0.481-2.772,1.912-2.772,4.802v34.771c0,2.89,1.938,4.321,2.772,4.802    c0.832,0.482,3.041,1.444,5.544,0l30.114-17.386c2.502-1.445,2.772-3.84,2.772-4.802c0-0.962-0.27-3.357-2.772-4.801v-0.001    l-30.114-17.387C192.998,344.782,192.062,344.585,191.235,344.585z"/>
		<path style="fill:#678490;" d="M318.438,254.547H82.428c-3.044,0-5.513,2.469-5.513,5.513v214.951    c0,3.044,2.469,5.513,5.513,5.513h236.011c3.044,0,5.513-2.469,5.513-5.513V260.06    C323.952,257.016,321.483,254.547,318.438,254.547z M258.568,421.026h-116.27V314.045h116.27V421.026z M142.298,432.053h116.27    v37.445h-116.27V432.053z M258.568,303.019h-116.27v-37.445h116.27V303.019z M87.941,265.574h43.33v203.924h-43.33V265.574z     M312.925,469.498h-43.33V265.574h43.33V469.498z"/>
	</g>
	<g>
		<path style="fill:#D4AFB7;" d="M187.562,241.628l-3.329-9.377c-4.375-12.323-17.922-18.786-30.245-14.411l-16.027,5.69    c-6.802-2.414-14.538-4.008-22.802-4.491c-28.408-1.662-52.219,10.349-53.183,26.829c-0.964,16.48,21.283,31.187,49.691,32.85    c7.206,0.422,14.114-0.04,20.431-1.228c5.827,3.421,13.067,4.341,19.938,1.901l19.016-6.751c3.989,5.617,9.082,9.497,15.016,7.054    C196.142,275.55,193.572,258.555,187.562,241.628z"/>
		<path style="fill:#B78E98;" d="M192.762,239.788c-0.018-0.051-0.042-0.099-0.062-0.149l-3.277-9.228    c-2.608-7.347-7.922-13.242-14.964-16.599c-7.044-3.358-14.973-3.771-22.32-1.163l-14.214,5.047    c-7.032-2.299-14.569-3.707-22.449-4.165c-31.917-1.853-57.845,12.205-59.002,32.017c-1.157,19.816,22.945,36.805,54.871,38.674    c1.866,0.11,3.721,0.164,5.564,0.164c4.852,0,9.606-0.4,14.222-1.152c0.139,0.069,0.273,0.143,0.413,0.209    c3.981,1.894,8.244,2.849,12.528,2.849c3.296,0,6.604-0.565,9.802-1.701l15.355-5.452c1.983,2.203,4.183,4.042,6.604,5.23    c2.149,1.054,4.379,1.584,6.618,1.584c1.913,0,3.832-0.387,5.712-1.16C203.004,278.688,198.855,256.949,192.762,239.788z     M111.99,273.214c-24.896-1.459-45.277-13.834-44.508-27.024c0.77-13.187,22.459-23.102,47.355-21.652    c2.437,0.142,4.829,0.395,7.179,0.737c-3.184,2.662-5.787,5.999-7.623,9.86c-3.351,7.045-3.76,14.973-1.15,22.322l3.329,9.377    c0.82,2.31,1.908,4.477,3.232,6.466C117.232,273.392,114.624,273.367,111.99,273.214z M183.969,274.594    c-1.164,0.48-2.113,0.445-3.271-0.123c-5.742-2.813-11.695-16.297-14.088-24.971c-0.806-2.936-3.835-4.665-6.776-3.857    c-2.936,0.806-4.663,3.84-3.857,6.776c0.406,1.479,2.703,9.485,6.856,17.29l-12.646,4.489c-4.581,1.625-9.518,1.372-13.903-0.714    c-4.384-2.087-7.694-5.759-9.321-10.34l-3.329-9.378c-1.624-4.575-1.368-9.51,0.718-13.897c2.087-4.388,5.758-7.7,10.337-9.326    l21.141-7.506c4.571-1.622,9.5-1.366,13.886,0.725c4.385,2.09,7.694,5.76,9.318,10.335l3.329,9.377l0.008-0.003    c0,0.001,0.001,0.002,0.001,0.003C188.352,260.32,188.978,272.534,183.969,274.594z"/>
	</g>
	<g>
		<path style="fill:#D4AFB7;" d="M344.357,320.947c-3.106,15.706-11.135,27.349-26.841,24.242    c-15.706-3.106-25.921-18.356-22.814-34.062c3.106-15.706,18.356-25.921,34.062-22.814    C344.47,291.419,347.463,305.241,344.357,320.947z"/>
		<path style="fill:#B78E98;" d="M322.47,351.213c-1.932,0-3.941-0.203-6.023-0.615c-9.04-1.787-16.844-6.99-21.973-14.647    c-5.129-7.657-6.968-16.853-5.181-25.895c3.691-18.662,21.875-30.843,40.541-27.152c16.92,3.346,24.184,17.602,19.931,39.113l0,0    C346.034,340.881,336.235,351.213,322.47,351.213z M323.131,293.274c-10.977,0-20.813,7.755-23.021,18.924    c-1.217,6.152,0.035,12.408,3.525,17.618c3.489,5.211,8.799,8.75,14.951,9.966c5.561,1.101,9.733-0.013,13.121-3.5    c3.283-3.378,5.787-9.051,7.241-16.404l0,0c4.554-23.029-7.344-25.383-11.254-26.156    C326.164,293.419,324.636,293.274,323.131,293.274z M344.357,320.948h0.01H344.357z"/>
	</g>
</g>
<g>
</g>
<g>
</g>
<g>
</g>
<g>
</g>
<g>
</g>
<g>
</g>
<g>
</g>
<g>
</g>
<g>
</g>
<g>
</g>
<g>
</g>
<g>
</g>
<g>
</g>
<g>
</g>
<g>
</g>
</svg>
