<?xml version="1.0" encoding="iso-8859-1"?>
<!-- Generator: Adobe Illustrator 27.9.0, SVG Export Plug-In . SVG Version: 6.00 Build 0)  -->
<svg xmlns="http://www.w3.org/2000/svg" xmlns:xlink="http://www.w3.org/1999/xlink" version="1.1" id="Layer_1" x="0px" y="0px" viewBox="0 0 512 512" style="enable-background:new 0 0 512 512;" xml:space="preserve">
<g>
	
		<ellipse transform="matrix(0.2294 -0.9733 0.9733 0.2294 -271.8255 368.0451)" style="fill:#00AFFF;" cx="96.535" cy="355.7" rx="37.393" ry="34.234"/>
	
		<ellipse transform="matrix(0.2294 -0.9733 0.9733 0.2294 -30.5998 665.9699)" style="fill:#00AFFF;" cx="405.309" cy="352.311" rx="37.393" ry="34.234"/>
	
		<ellipse transform="matrix(0.7071 -0.7071 0.7071 0.7071 -186.7698 284.818)" style="fill:#00EEE4;" cx="250.421" cy="367.86" rx="144.111" ry="144.112"/>
	<path style="fill:#FFA4AD;" d="M124.953,59.145c-12.408,7.784-27.008-8.756-15.846-19.908c26.012-25.989,58.195-39.72,91.31-39.223   c70.527,0.842,146.023,115.613,131.556,266.238c0,0-173.38-7.69-173.38-7.69c8.036-32.679,31.19-129.868,30.561-163.997   c-0.261-14.188-4.774-28.83-15.445-38.236C155.597,40.363,143.403,47.571,124.953,59.145z"/>
	<path style="fill:#004587;" d="M188.649,133.069c16.146,15.88,27.151,34.55,37.225,53.398c9.947,22.149,18.853,44.721,21.869,70.54   c0.277,2.433,3.761,0.702,4.014-2.027c2.643-29.174-3.344-54.23-14.852-75.67c-10.792-19.168-26.093-35.615-45.676-49.143   C189.139,128.734,186.927,131.381,188.649,133.069z"/>
	<path style="fill:#FF854A;" d="M53.042,170.867c-10.043,8.424-24.61-4.901-16.02-16.232c20.018-26.406,46.757-42.417,75.836-45.668   c61.907-7.116,134.927,46.382,138.366,184.203c0,0-147.62-3.316-147.62-3.317c3.547-30.448,13.704-63.338,9.501-94.129   c-1.747-12.8-7.27-25.537-17.63-32.851C77.891,150.461,67.974,158.341,53.042,170.867z"/>
	<path style="fill:#004587;" d="M229.287,253.362c5.633-26.277,17.176-49.327,29.467-71.578   c15.611-24.289,32.278-47.832,55.765-67.713c2.218-1.866-1.63-4.157-4.465-2.618c-30.27,16.514-51.176,38.816-65.128,64.175   c-12.163,23.166-18.873,48.984-20.079,77.099C224.729,255.72,228.691,256.161,229.287,253.362z"/>
	<path style="fill:#00AFFF;" d="M287.605,411.351c-0.053,17.348-15.648,31.366-34.825,31.308   c-19.188-0.058-34.698-14.172-34.645-31.519c0.053-17.346,15.648-31.362,34.836-31.304   C272.148,379.894,287.658,394.005,287.605,411.351z"/>
	<path style="fill:#00AFFF;" d="M238.195,492.986c-32.795-7.729-52.413-39.823-53.233-41.185c-2.382-3.962-1.589-9.005,1.89-12.031   c2.424-2.107,5.679-2.822,8.685-2.114c1.309,0.309,2.571,0.888,3.697,1.74c0.084,0.063,11.866,8.711,31.274,13.288   c0.001,0,0.004,0.001,0.006,0.001c24.801,5.847,50.347,2.732,75.929-9.26c2.063-0.967,4.335-1.158,6.445-0.661   c2.137,0.504,4.107,1.714,5.523,3.537c2.816,3.622,2.674,8.672-0.337,12.089C292.208,487.741,265.334,499.38,238.195,492.986z"/>
	<path style="fill:#004587;" d="M110.676,395.605c-4.688-13.861-4.587-27.513-3.757-40.953c2.307-15.167,5.523-30.215,14.248-45.053   c0.827-1.396-2.351-1.622-3.675-0.243c-14.115,14.761-20.428,30.174-21.339,45.478c-0.46,13.849,3.396,27.733,11.489,41.471   C108.51,397.766,111.178,397.08,110.676,395.605z"/>
	<path style="fill:#004587;" d="M380.075,318.322c7.046,11.24,9.966,23.322,12.218,35.373c1.375,13.893,1.95,27.875-2.213,42.852   c-0.397,1.41,2.36,0.93,3.184-0.572c8.771-16.063,10.754-31.032,8.16-44.746c-2.658-12.332-9-23.772-18.919-34.175   C381.444,315.949,379.323,317.126,380.075,318.322z"/>
	
		<ellipse transform="matrix(0.8488 -0.5286 0.5286 0.8488 -89.8982 45.3872)" style="fill:#004587;" cx="34.417" cy="179.894" rx="31.866" ry="31.866"/>
	<path style="fill:#A989E7;" d="M460.577,173.679c11.405,10.475,29.304-4.479,19.767-18.308   c-22.225-32.227-52.933-52.542-87.079-57.92c-72.685-11.683-161.701,47.582-173.072,210.056c0,0,174.397,3.918,174.397,3.917   c-2.571-36.123-12.813-75.479-6.219-111.596c2.741-15.014,9.935-29.753,22.549-37.835   C432.333,148.277,443.619,158.103,460.577,173.679z"/>
	
		<ellipse transform="matrix(0.9991 -0.0416 0.0416 0.9991 -7.0094 20.0887)" style="fill:#004587;" cx="479.289" cy="178.501" rx="30.16" ry="30.16"/>
	
		<ellipse transform="matrix(0.0848 -0.9964 0.9964 0.0848 41.409 156.8036)" style="fill:#004587;" cx="106.063" cy="55.86" rx="28.019" ry="28.019"/>
	<path style="fill:#FFD548;" d="M98.118,318.468c-3.718-1.097-5.999-5.643-5.104-10.099c4.281-21.475,8.562-42.951,12.843-64.426   c0.731-3.654,3.228-6.277,6.076-6.427c0.561-0.031,1.109,0.038,1.634,0.193c2.139,0.632,3.895,2.715,4.543,5.586   c2.665,11.831,5.519,23.649,8.562,35.446c6.563-9.348,12.954-18.809,19.172-28.375c1.481-2.279,3.742-3.385,5.945-2.912   c2.201,0.475,4.022,2.459,4.789,5.222c3.211,11.596,6.61,23.165,10.197,34.698c6.102-9.827,12.027-19.754,17.776-29.772   c1.372-2.387,3.574-3.663,5.79-3.359c2.218,0.305,4.126,2.145,5.021,4.844c3.747,11.322,7.683,22.603,11.805,33.835   c5.624-10.269,11.068-20.622,16.332-31.053c1.256-2.486,3.391-3.926,5.62-3.792c2.227,0.136,4.221,1.826,5.24,4.45   c4.275,11.009,8.735,21.963,13.381,32.854c5.13-10.671,10.078-21.413,14.843-32.22c1.136-2.575,3.202-4.175,5.434-4.21   c2.231-0.034,4.301,1.5,5.444,4.04c4.79,10.657,9.764,21.245,14.921,31.756c4.622-11.035,9.06-22.128,13.312-33.27   c1.015-2.655,3.003-4.408,5.233-4.613c2.229-0.204,4.37,1.169,5.634,3.615c5.293,10.266,10.767,20.449,16.421,30.54   c4.101-11.361,8.017-22.766,11.745-34.206c0.89-2.727,2.798-4.627,5.019-5.002c2.221-0.374,4.429,0.833,5.808,3.176   c5.781,9.836,11.741,19.575,17.877,29.208c3.57-11.648,6.952-23.326,10.146-35.025c0.776-2.838,2.622-4.841,4.789-5.376   c0.53-0.131,1.082-0.175,1.641-0.119c2.839,0.277,5.215,3.009,5.781,6.694c3.312,21.646,6.625,43.292,9.937,64.937   c0.694,4.493-1.789,8.932-5.552,9.86C297.33,349.566,195.765,347.285,98.118,318.468z"/>
	<path style="fill:#FF6086;" d="M114.95,287.761c-14.985-0.187-15.3,23.1-0.291,23.288   C129.644,311.236,129.96,287.948,114.95,287.761z"/>
	<path style="fill:#FF6086;" d="M168.62,295.17c-14.985-0.187-15.3,23.1-0.291,23.288   C183.314,318.645,183.629,295.357,168.62,295.17z"/>
	<path style="fill:#FF6086;" d="M222.269,300.468c-14.985-0.187-15.3,23.1-0.291,23.288   C236.963,323.943,237.278,300.655,222.269,300.468z"/>
	<path style="fill:#FF6086;" d="M275.871,301.108c-14.984-0.187-15.3,23.1-0.291,23.288   C290.565,324.583,290.88,301.296,275.871,301.108z"/>
	<path style="fill:#FF6086;" d="M329.428,297.267c-14.985-0.187-15.3,23.1-0.291,23.288   C344.122,320.742,344.438,297.455,329.428,297.267z"/>
	<path style="fill:#FF6086;" d="M382.924,287.219c-14.985-0.187-15.3,23.1-0.291,23.288   C397.618,310.694,397.934,287.407,382.924,287.219z"/>
	<path style="fill:#004587;" d="M383.291,326.66c-43.199,4.661-87.021,7.691-129.419,7.512   c-47.977-1.399-95.825-5.621-143.377-12.641c-4.474-0.666-4.727,4.145-0.259,5.245c47.822,11.734,96.955,16.624,145.23,16.797   c43.651-0.161,87.004-4.096,129.495-11.728C389.479,331.027,387.889,326.161,383.291,326.66z"/>
	<g>
		<path style="fill-rule:evenodd;clip-rule:evenodd;fill:#FFFFFF;" d="M416.475,122.542c-14.818-5.685-30.992-8.536-46.708-5    c-7.95,1.962-11.89-10.709-3.047-12.957c18.189-4.226,37.067-1.311,54.298,5.314C429.547,113.356,424.117,125.642,416.475,122.542    z"/>
		<path style="fill-rule:evenodd;clip-rule:evenodd;fill:#FFFFFF;" d="M353.691,116.546c0.328,8.453-11.902,10.309-13.193,1.994    C339.254,109.829,353.389,107.699,353.691,116.546z"/>
		<path style="fill-rule:evenodd;clip-rule:evenodd;fill:#FFFFFF;" d="M445.204,128.976c-4.378,7.172-15.12,0.775-11.568-6.899    C437.384,114.079,449.786,121.48,445.204,128.976z"/>
	</g>
	<g>
		<path style="fill-rule:evenodd;clip-rule:evenodd;fill:#FFFFFF;" d="M256.858,59.469c-10.349-12.033-23.237-22.214-38.749-26.554    c-7.93-2.043-5.389-15.067,3.462-12.852c18.017,4.906,33.255,16.425,45.283,30.43C272.724,57.582,262.116,65.822,256.858,59.469z"/>
		<path style="fill-rule:evenodd;clip-rule:evenodd;fill:#FFFFFF;" d="M204.429,24.415c-3.72,7.598-15.368,3.431-12.56-4.502    C194.904,11.654,208.358,16.482,204.429,24.415z"/>
		<path style="fill-rule:evenodd;clip-rule:evenodd;fill:#FFFFFF;" d="M279.099,78.759c-7.256,4.238-13.679-6.489-6.912-11.56    C279.28,61.935,286.689,74.333,279.099,78.759z"/>
	</g>
	<g>
		<path style="fill-rule:evenodd;clip-rule:evenodd;fill:#FFFFFF;" d="M156.861,133.768c-14.818-5.685-30.992-8.536-46.707-5    c-7.95,1.962-11.89-10.709-3.047-12.957c18.189-4.226,37.067-1.312,54.298,5.314C169.933,124.582,164.503,136.867,156.861,133.768    z"/>
		<path style="fill-rule:evenodd;clip-rule:evenodd;fill:#FFFFFF;" d="M94.078,127.772c0.328,8.453-11.902,10.309-13.193,1.994    C79.64,121.054,93.775,118.924,94.078,127.772z"/>
	</g>
	<path style="fill:#FFFFFF;" d="M365.697,185.542c-0.852-0.861-2.336-12.735-3.93-12.676c-1.593,0.06-3.241,11.765-4.004,12.52   c-1.523,1.517-12.46,2.372-12.405,3.877c0.054,1.501,10.755,2.454,12.232,3.953c0.827,0.835,2.336,12.74,3.933,12.683   c1.586-0.057,3.211-11.729,4.004-12.513c1.47-1.466,12.493-2.374,12.439-3.886C377.912,187.992,367.12,186.992,365.697,185.542z"/>
	<path style="fill:#004587;" d="M227.148,72.318c-0.933-0.943-2.552-13.913-4.29-13.843c-1.738,0.063-3.543,12.846-4.376,13.671   c-1.665,1.652-13.602,2.588-13.544,4.234c0.059,1.636,11.743,2.675,13.361,4.312c0.901,0.916,2.549,13.916,4.29,13.85   c1.734-0.06,3.51-12.807,4.373-13.662c1.606-1.599,13.645-2.593,13.585-4.243C240.486,74.992,228.699,73.899,227.148,72.318z"/>
	<path style="fill:#FFFFFF;" d="M241.684,108.856c-6.845-0.154-7.095,10.483-0.239,10.637   C248.29,119.647,248.54,109.01,241.684,108.856z"/>
	<path style="fill:#FFFFFF;" d="M203.963,100.824c-6.845-0.154-7.095,10.483-0.239,10.637   C210.568,111.615,210.819,100.978,203.963,100.824z"/>
	<path style="fill:#FFFFFF;" d="M156.163,23.297c-6.845-0.154-7.095,10.483-0.239,10.637   C162.769,34.088,163.019,23.451,156.163,23.297z"/>
	<path style="fill:#FFFFFF;" d="M94.404,50.542c-6.844-0.154-7.095,10.483-0.239,10.637   C101.009,61.333,101.259,50.696,94.404,50.542z"/>
	<path style="fill:#FFFFFF;" d="M120.614,155.377c-6.844-0.154-7.095,10.483-0.239,10.637   C127.22,166.168,127.47,155.531,120.614,155.377z"/>
	<path style="fill:#FFFFFF;" d="M140.735,197.586c-6.845-0.154-7.095,10.483-0.239,10.637   C147.34,208.377,147.591,197.74,140.735,197.586z"/>
	<path style="fill:#FFFFFF;" d="M209.102,211.121c-6.845-0.154-7.095,10.483-0.239,10.637   C215.708,221.912,215.958,211.275,209.102,211.121z"/>
	<path style="fill:#FFFFFF;" d="M43.317,186.395c-6.845-0.154-7.095,10.483-0.239,10.637   C49.923,197.186,50.173,186.549,43.317,186.395z"/>
	<path style="fill:#FFFFFF;" d="M19.801,165.618c-6.845-0.154-7.095,10.483-0.239,10.637   C26.407,176.409,26.658,165.772,19.801,165.618z"/>
	<path style="fill:#FFFFFF;" d="M365.46,137.059c-6.845-0.154-7.095,10.483-0.239,10.637   C372.066,147.85,372.316,137.213,365.46,137.059z"/>
	<path style="fill:#FFFFFF;" d="M415.4,139.63c-6.845-0.154-7.095,10.483-0.239,10.637   C422.006,150.421,422.256,139.784,415.4,139.63z"/>
	<path style="fill:#FFFFFF;" d="M481.833,173.183c-6.844-0.154-7.095,10.483-0.239,10.637   C488.439,183.974,488.689,173.337,481.833,173.183z"/>
	<path style="fill:#FFFFFF;" d="M343.791,230.771c-6.845-0.154-7.095,10.483-0.239,10.637   C350.396,241.562,350.647,230.925,343.791,230.771z"/>
	<path style="fill:#FFFFFF;" d="M239.853,158.523c-6.844-0.154-7.095,10.483-0.239,10.637   C246.459,169.314,246.709,158.677,239.853,158.523z"/>
	<path style="fill:#FFFFFF;" d="M281.643,229.627c-6.844-0.154-7.095,10.483-0.239,10.637   C288.249,240.418,288.499,229.781,281.643,229.627z"/>
	<path style="fill:#FFFFFF;" d="M260.773,200.581c-6.844-0.154-7.095,10.483-0.239,10.637   C267.379,211.372,267.629,200.735,260.773,200.581z"/>
	<path style="fill:#FFFFFF;" d="M191.556,160.697c-6.845-0.154-7.095,10.483-0.239,10.637   C198.161,171.488,198.412,160.851,191.556,160.697z"/>
	<path style="fill:#FFFFFF;" d="M133.242,270.673c-6.845-0.154-7.095,10.483-0.239,10.637   C139.848,281.464,140.098,270.827,133.242,270.673z"/>
	<path style="fill:#FFFFFF;" d="M304.157,176.737c-6.845-0.154-7.095,10.483-0.239,10.637   C310.763,187.528,311.013,176.891,304.157,176.737z"/>
	<path style="fill:#FFFFFF;" d="M356.689,298.914c-6.845-0.154-7.095,10.483-0.239,10.637   C363.295,309.705,363.545,299.068,356.689,298.914z"/>
	<path style="fill:#FFFFFF;" d="M249.72,310.286c-6.845-0.154-7.095,10.483-0.239,10.637   C256.326,321.078,256.576,310.44,249.72,310.286z"/>
	<path style="fill:#FFFFFF;" d="M143.521,303.11c-6.845-0.154-7.095,10.483-0.239,10.637   C150.127,313.902,150.377,303.264,143.521,303.11z"/>
	<path style="fill:#FFFFFF;" d="M140.895,406.194c-6.845-0.154-7.095,10.483-0.239,10.637   C147.501,416.985,147.751,406.348,140.895,406.194z"/>
	<path style="fill:#FFFFFF;" d="M128.103,345.815c-6.845-0.154-7.095,10.483-0.239,10.637   C134.709,356.606,134.959,345.969,128.103,345.815z"/>
	<path style="fill:#FFFFFF;" d="M77.176,359.201c-6.845-0.154-7.095,10.483-0.239,10.637   C83.781,369.992,84.031,359.355,77.176,359.201z"/>
	<path style="fill:#FFFFFF;" d="M252.589,361.101c-6.845-0.154-7.095,10.483-0.239,10.637   C259.195,371.892,259.445,361.255,252.589,361.101z"/>
	<path style="fill:#FFFFFF;" d="M163.822,453.985c-6.845-0.154-7.095,10.483-0.239,10.637   C170.428,464.776,170.678,454.139,163.822,453.985z"/>
	<path style="fill:#FFFFFF;" d="M370.904,367.795c-6.845-0.154-7.095,10.483-0.239,10.637   C377.509,378.586,377.759,367.949,370.904,367.795z"/>
	<path style="fill:#FFFFFF;" d="M421.658,341.651c-6.845-0.154-7.095,10.483-0.239,10.637   C428.264,352.442,428.514,341.805,421.658,341.651z"/>
	<path style="fill:#FFFFFF;" d="M344.605,446.549c-6.845-0.154-7.095,10.483-0.239,10.637   C351.21,457.341,351.46,446.704,344.605,446.549z"/>
	<path style="fill:#FFFFFF;" d="M181.306,280.845c-6.845-0.154-7.095,10.483-0.239,10.637   C187.911,291.636,188.161,280.999,181.306,280.845z"/>
	<path style="fill:#FFFFFF;" d="M269.648,275.857c-6.845-0.154-7.095,10.483-0.239,10.637   C276.253,286.648,276.503,276.01,269.648,275.857z"/>
	<path style="fill:#FFFFFF;" d="M162.634,230.834c-6.845-0.154-7.095,10.483-0.239,10.637   C169.239,241.625,169.489,230.988,162.634,230.834z"/>
	<path style="fill:#FFFFFF;" d="M290.416,106.932c-6.845-0.154-7.095,10.483-0.239,10.637   C297.021,117.723,297.272,107.086,290.416,106.932z"/>
	<path style="fill-rule:evenodd;clip-rule:evenodd;fill:#FF6086;" d="M316.518,62.109l5.255-13.686c0.638-1.662,0.418-3.532-0.59-5   l-8.295-12.088c-2.537-3.697,0.267-8.698,4.744-8.463l14.64,0.769c1.778,0.093,3.488-0.694,4.573-2.106l8.933-11.624   c2.732-3.555,8.355-2.434,9.515,1.897l3.793,14.161c0.461,1.72,1.738,3.103,3.416,3.698l13.816,4.904   c4.225,1.5,4.897,7.193,1.137,9.635l-12.296,7.983c-1.493,0.97-2.414,2.612-2.462,4.391l-0.394,14.655   c-0.12,4.482-5.328,6.88-8.812,4.058l-11.392-9.227c-1.383-1.121-3.23-1.489-4.937-0.984l-14.06,4.153   C318.802,70.507,314.911,66.295,316.518,62.109z"/>
	<path style="fill-rule:evenodd;clip-rule:evenodd;fill:#FF6086;" d="M425.01,278.77l5.255-13.686c0.638-1.662,0.418-3.532-0.59-5   l-8.295-12.088c-2.537-3.697,0.267-8.698,4.744-8.463l14.64,0.769c1.778,0.093,3.488-0.694,4.573-2.106l8.933-11.624   c2.732-3.555,8.355-2.434,9.515,1.897l3.793,14.161c0.461,1.72,1.738,3.103,3.416,3.698l13.816,4.904   c4.225,1.5,4.897,7.193,1.137,9.635l-12.296,7.983c-1.493,0.97-2.414,2.612-2.462,4.391l-0.394,14.655   c-0.12,4.482-5.328,6.88-8.812,4.058l-11.392-9.227c-1.383-1.121-3.23-1.488-4.937-0.984l-14.06,4.154   C427.293,287.167,423.402,282.955,425.01,278.77z"/>
	<path style="fill-rule:evenodd;clip-rule:evenodd;fill:#FF6086;" d="M22.531,309.727l-0.727-14.642   c-0.088-1.779-1.046-3.399-2.561-4.335l-12.474-7.702c-3.815-2.355-3.273-8.063,0.917-9.658l13.701-5.217   c1.664-0.634,2.91-2.045,3.331-3.775l3.47-14.243c1.061-4.356,6.657-5.605,9.469-2.112l9.195,11.418   c1.116,1.387,2.844,2.135,4.62,2.001l14.619-1.101c4.471-0.337,7.387,4.599,4.935,8.353l-8.018,12.273   c-0.974,1.491-1.152,3.365-0.476,5.012l5.565,13.563c1.702,4.148-2.091,8.447-6.419,7.275l-14.15-3.833   c-1.718-0.466-3.556-0.055-4.914,1.096l-11.179,9.484C28.015,316.484,22.754,314.205,22.531,309.727z"/>
	<path style="fill:#004587;" d="M308.722,455.808c-17.492,8.982-36.166,11.49-54.446,11.849   c-20.768-1.064-41.51-4.814-61.115-16.035c-1.836-1.065-2.184,2.361-0.36,3.964c19.553,17.11,41.593,24.263,62.836,23.727   c19.202-0.846,37.958-7.825,54.64-20.472C312.048,457.488,310.574,454.848,308.722,455.808z"/>
	<g>
		<path style="fill-rule:evenodd;clip-rule:evenodd;fill:#FFFFFF;" d="M167.227,383.411c-0.78,8.649-13.778,12.753-8.914,18.962    c0.276,0.351-0.337,0.958-0.047,1.297c5.018,5.873,12.147,9.819,20.318,10.514c16.974,1.446,32.024-11.67,33.614-29.297    c1.588-17.627-10.885-33.086-27.86-34.532c-10.851-0.926-20.912,4.099-27.176,12.444c-0.149,0.198,0.285,0.766,0.142,0.967    C154.013,368.367,167.776,377.318,167.227,383.411z"/>
		<path style="fill-rule:evenodd;clip-rule:evenodd;fill:#004587;" d="M186.216,385.084c-1.049,11.661-12.028,20.247-24.522,19.179    c-1.146-0.096-2.267-0.274-3.357-0.521c-5.446-6.331-8.438-14.915-7.611-24.096c0.574-6.371,2.913-12.148,6.463-16.864    c2.619-0.702,5.423-0.976,8.31-0.736C177.992,363.114,187.266,373.427,186.216,385.084z"/>
	</g>
	<g>
		<path style="fill-rule:evenodd;clip-rule:evenodd;fill:#FFFFFF;" d="M302.316,363.703c6.265-8.355,16.331-13.386,27.186-12.46    c16.974,1.443,29.449,16.906,27.859,34.532c-1.588,17.626-16.637,30.743-33.612,29.297c-8.199-0.701-15.347-4.67-20.371-10.573    l7.548-21.325L302.316,363.703z"/>
		<path style="fill-rule:evenodd;clip-rule:evenodd;fill:#004587;" d="M331.381,385.972c-1.052,11.657-12.03,20.244-24.523,19.186    c-1.147-0.103-2.268-0.278-3.358-0.527c-5.449-6.332-8.439-14.918-7.611-24.094c0.574-6.371,2.915-12.151,6.464-16.866    c2.62-0.705,5.423-0.979,8.31-0.734C323.156,364.001,332.428,374.314,331.381,385.972z"/>
	</g>
</g>
<g>
</g>
<g>
</g>
<g>
</g>
<g>
</g>
<g>
</g>
<g>
</g>
<g>
</g>
<g>
</g>
<g>
</g>
<g>
</g>
<g>
</g>
<g>
</g>
<g>
</g>
<g>
</g>
<g>
</g>
</svg>
