<svg id="Law_Firm" height="512" viewBox="0 0 1200 1200" width="512" xmlns="http://www.w3.org/2000/svg"><g><path d="m814.726 109.92c-66.093 3.939-126.91 41.58-164.566 100.254-20.064-6.434-40.289-9.867-59.668-10.056-12.565-.105-24.392 1.478-34.166 4.792-29.129-15.873-68.373-32.698-103.317-21.277-18.855-38.387-71.195-58.645-112.521-44.369-29.017 7.738-58.14 44.209-77.752 74.015-19.811 30.107-42.329 72.002-37.841 101.498 4.021 30.618 25.479 46.622 45.106 55.765-11.896 26.964-9.431 59.668 7.239 92.778-16.76 27.912-22.563 55-25.781 88.572-42.968 9.98-81.247 31.381-109.832 61.821-170.359 195.904 26.325 481.652 266.271 476.42 287.811.768 384.277-372.326 125.264-513.227 8.187-52.91-8.212-96.803-49.958-116.914-7.607-22.192-15.127-45.664-27.475-70.752 9.31 4.225 18.439 8.25 29.255 12.156 5.977 29.887 46.64 47.654 69.76 52.985 3.337.987 6.606 1.95 9.705 2.952-1.349 69.602 23.368 136.107 67.98 181.043 33.691 34.429 78.688 58.199 126.991 67.151 29.761 10.675 59.771 16.087 89.247 16.087 153.154 2.541 269.707-153.098 272.866-302.055 14.627-187.076-136.549-314.291-306.807-309.639zm-310.734 615.545c20.874 26.961 25.167 67.77 10.741 105.553-40.244 102.314-159.448 112.244-236.597 64.229-26.393-28.887-38.32-73.439-30.442-114.536 20.991-96.896 108.149-96.987 195.813-74.244 20.512 4.199 43.03 8.76 60.485 18.998zm411.143-227.366c-16.287 28.707-53.329 76.869-118.433 76.869-73.385-25.088-60.84-104.923-38.483-202.167 10.301-55.404 48.069-114.378 109.483-114.416 22.084 7.369 40.327 27.344 53.324 47.649 31.135 52.091 28.712 131.07-5.891 192.065z" fill="#fff"/><g><path d="m901.848 156.29c-26.984-10.717-56.183-15.889-85.177-13.793-66.516 3.967-123.839 49.279-151.88 108.451-23.188-10.886-48.863-17.944-74.568-18.194-11.203-.092-25.482 1.356-34.29 8.93-37.193-19.595-85.993-50.08-119.591-8.041-3.107-.052-7.213-4.037-10.667-5.296 13.452-41.816-40.091-71.152-75.843-57.764-30.773 5.973-97.909 109.204-92.629 139.563 2.865 23.48 26.741 31.863 46.375 38.2 2.181 6.53 4.596 12.977 7.254 19.322-28.347 29.02-13.11 71.663 7.445 100.556-11.244 5.091-18.082 19.602-22.316 30.527-8.551 22.073-12.273 46.625-12.621 70.217-.05 3.304-.065 6.854.029 10.533-44.62 4.939-86.832 23.414-117.881 56.475-61.588 66.004-69.028 169.532-32.271 249.688 49.801 101.955 161.299 172.582 275.065 171.836 155.573 4.313 274.778-142.557 236.875-293.747-17.913-75.608-78.245-134.04-145.901-168.07-.004-18.539 4.435-36.688 2.663-55.352-2.156-31.137-18.117-45.027-45.025-56.834-16.948-45.858-39.999-141.084-101.579-136.659-.562-4.106-5.702-9.417-2.536-12.581 15.79-21.18 30.935-42.857 46.23-64.397 5.734 2.988 11.576 5.761 17.515 8.312-7.771 38.674 21.364 68.237 54.631 82.177 14.652 6.938 29.957 12.42 45.403 17.306-1.693 9.544-1.417 17.875 5.873 25.557 19.817 18.987 50.172 18.405 72.944 32.039 1.091.998 3.027 2.669 2.815 3.604-6.163 63.518 11.891 130.69 57.564 176.696 30.009 30.664 70.001 51.084 112.188 58.348 174.377 64.527 314.61-88.735 321.012-256.377 10.25-117.003-66.67-241.779-187.106-261.232zm-428.321 523.22c18.325 4.223 35.837 10.876 51.901 20.674 33.91 38.668 37.643 95.727 19.795 142.475-41.83 116.38-192.124 143.393-288.295 77.666-67.653-69.701-59.11-203.962 34.899-246.117 57.987-26.687 122.528-6.776 181.7 5.302zm-103.158-273.502c16.883 20.724 25.653 46.174 37.69 69.562-13.074-1.656-26.177-3.047-39.273-4.482-9.64-16.91-20.562-34.208-24.679-53.369 10.033 4.353 22.509-1.572 26.262-11.711zm-38.328-113.211c-3.701-4.135-9.622-7.126-15.405-6.883 10.719-18.828 22.068-37.155 34.377-55.032 2.116 6.971 7.245 12.84 13.008 17.414-10.238 15.136-20.251 30.469-31.98 44.501zm194.68 41.623c-7.913-1.941-15.795-4.017-23.485-6.719-17.052-7.702-42.911-16.343-45.664-37.362 3.944-.081 7.805-1.025 11.417-3.521 9.943-6.498 11.868-22.401 3.157-30.496 1.853-2.156 4.756-2.058 7.387-2.006 22.567 3.231 41.771 17.533 60.878 28.997-4.423 17.093-9.191 34.043-13.69 51.107zm253.342 272.34c-101.265-51.548-72.231-160.476-51.598-250.139 16.082-71.328 70.934-136.669 149.538-130.46 29.408 12.817 54.449 35.625 71.037 63.133 73.1 122.3-11.466 333.312-168.977 317.466z" fill="#68182b"/><path d="m368.235 515.287c14.131-8.219 43.184 2.179 39.327 21.248-.866 2.77-2.494 3.982-5.419 4.908-23.287 3.408-12.388 26.73-22.788 41.006-4.439 5.982-6.168-2.318-6.121-6.295-.146-11.799 6.908-26.572-3.665-35.743-9.568-5.134-11.563-19.515-1.334-25.124z" fill="#afafaf"/><path d="m607.963 778.34c-1.713-77.875-52.07-151.094-125.84-177.539-9.397-3.614-18.976-4.758-21.873-15.739-7.088-22.16 13.874-76.713-6.188-90.418-42.129-8.879-86.585-12.039-128.954-16.814-20.271 9.793-25.799 47.686-28.652 68.135-2.233 22.574-5.941 52.273 9.557 70.997 2.134 1.953 4.657 2.583 7.619 2.844 24.171 2.141 48.25 5.813 72.119 10.133 56.473 9.615 119.786 20.887 155.009 70.996 52.88 72.705 21.52 179.697-48.337 229.58-42.632 31.533-96.672 41.193-148.529 33.967-33.719-4.75-66.866-16.375-94.709-35.563-8.118-5.938-9.343-8.574-19.03-1.932-13.168 8.848-19.824 25.854-16.508 41.332 166.713 118.109 398.956 26.668 394.316-189.979zm-207.968-224.206c-1.138.473-1.767.85-2.183 1.898-1.574 6.006-1.201 12.678-2.989 18.758-1.864 15.199-19.347 31.551-30.346 13.641-4.232-8.256-2.406-17.252-1.261-25.984.503-3.264.78-9.019.319-12.041-2.463-2.428-5.577-4.16-7.864-6.775-21.329-32.145 19.478-53.738 46.59-36.771 21.437 10.612 25.076 42.512-2.266 47.274zm-150.188 416.509c-7.354.973-14.628-5.072-16.737-11.816-3.938-12.58 11.733-24.555 22.853-17.494 13.47 7.241 8.316 27.433-6.116 29.31z" fill="#d5d5d5"/><path d="m257.05 955.533c-.821 4.297-5.25 8.934-9.779 8.171-4.329-.968-8.352-5.12-7.828-9.841.742-4.58 5.386-8.246 10.009-7.697 2.867.289 8.388 4.471 7.598 9.367z" fill="#afafaf"/><path d="m946.785 554.726c-2.953-4.151-4.885-8.908-6.112-13.873-19.177 26.852-44.48 49.24-74.734 62.971-69.578 34.113-165.061 10.205-197.075-63.936-33.815-78.552 4.961-172.024 20.668-250.966-9.341-32.223-84.883-49.693-114.176-43.489-17.414 1.72-17.045 16.532-20.616 30.334-5.817 21.439-12.015 42.77-17.593 64.273-1.772 9.528-5.332 19.262-7.077 29.071-9.658 27.053 5.572 32.39 27.717 39.999 16.521 6.667 38.117 7.827 49.828 22.561 4.383 9.361.07 20.251 1.015 30.263-4.678 159.084 162.738 253.647 299.2 176.694 29.873-16.977 54.715-40.977 74.18-68.934-13.487 1.036-27.28-3.585-35.225-14.968zm-304.359-198.845c-11.594 6.089-24.933.564-36.505-2.075-4.846 2.963-6.528 9.529-11.92 12.179-9.332 5.244-20.935.344-26.552-7.952-12.923-19.667-6.96-56.354 18.158-63.007 11.708-1.875 23.548 4.913 26.925 16.541.605 2.08.81 5.393 1.754 6.989 4.063 3.517 10.996 4.234 16.164 5.763 15.374 2.426 29.333 21.198 11.976 31.562z" fill="#d5d5d5"/><path d="m576.046 317.602c5.365-13.431 21.87-16.669 25.936-.713 1.041 4.673 2.479 8.898 6.515 11.774 7.859 5.612 18.331 5.042 26.521 9.845 3.449 2.125 5.945 5.687 1.315 7.587-13.298 5.507-31.021-12.222-41.634 2.356-3.211 5.015-7.342 11.093-13.957 6.777-11.096-8.409-9.851-26.403-4.696-37.626z" fill="#afafaf"/><path d="m632.134 880.941c-41.526 153.896-217.394 203.223-351.185 135.222 36.017 11.985 74.674 16.858 112.105 14.677 96.398-3.584 184.037-70.23 213.309-162.129 19.795-58.161 18.3-124.758-9.666-180.005 41.504 53.662 53.816 127.214 35.437 192.235z" fill="#afafaf"/><path d="m472.746 543.134c.958-10.021 2.921-24.883.63-37.465 11.819 9.313 16.701 24.256 17.4 40.074.668 15.141-2.341 30.01-2.943 45.027-4.491-1.877-10.15-3.854-14.623-5.283-.976-.561-1.086-1.324-1.687-2.858-2.694-12.975.205-26.469 1.223-39.495z" fill="#afafaf"/><path d="m386.971 367.576c30.771 29.444 42.77 73.713 56.801 112.806-7.601-1.09-14.769-1.949-22.185-3.014-7.171-15.314-14.353-30.63-22.102-45.663-7.567-14.68-15.421-30.81-29.001-40.845-3.475-11.143-7.326-21.61-11.059-32.561 9.903.251 19.444 3.132 27.546 9.277z" fill="#afafaf"/><path d="m346.603 323.318c-2.631-6.791-5.177-13.623-8.062-20.31 12.941-15.079 23.786-31.733 34.904-48.166 5.05 3.308 10.205 6.458 15.439 9.465-14.006 19.724-27.914 39.545-42.281 59.011z" fill="#afafaf"/><path d="m518.95 366.346c-22.298-7.054-44.969-15.217-64.344-28.554-18.569-11.855-30.935-32.835-27.132-55.218 6.172 2.303 12.36 4.365 18.738 6.116-1.005 15.791 11.43 28.153 24.203 35.61 16.289 10.467 34.629 16.988 53.433 21.261-1.737 6.904-3.358 13.836-4.898 20.785z" fill="#afafaf"/><path d="m914.778 665.58c-28.528 9.936-58.974 13.502-88.862 10.529 17.523-1.633 34.863-5.244 51.501-11.086 42.217-14.824 78.721-42.393 106.009-77.697 16.18-23.515 10.996-18.394 33.472-3.577.803.654 1.861 1.457 2.739 2.213-26.324 36.075-62.43 64.847-104.859 79.618z" fill="#afafaf"/><path d="m1020.116 236.794c81.267 93.371 70.997 239.288 6.564 339.053-3.504-.209-8.463-6.287-12.598-8.23-3.92-2.66-7.942-5.295-12.12-7.6 23.013-38.58 37.107-82.697 43.284-126.928 14.196-91.615-16.648-192.402-93.138-248.509 25.805 12.534 48.994 30.422 68.008 52.214z" fill="#afafaf"/><path d="m700.604 285.74c8.66 4.358 17.722 8.361 25.317 14.459 4.338 3.679 4.336 4.481 2.86 9.591-9.698 33.957-17.339 68.467-23.892 103.157-5.662 30.157-11.464 60.368-7.853 91.152 3.839 35.547 19.826 70.348 47.551 93.457-45.799-17.72-75.68-64.686-77.775-113.344-1.828-55.508 14.652-110.012 26.827-163.714 2.73-11.309 8.943-22.887 6.965-34.758z" fill="#afafaf"/><path d="m714.408 279.757c24.949-42.821 73.452-68.946 123.028-64.24 2.627.25 5.23.607 7.821 1.014-15.707 2.422-30.962 7.556-44.944 15.363-26.032 14.533-46.462 37.521-60.704 63.484-.302.548-.576 1.113-.873 1.664-6.174-8.313-15.738-12.574-24.328-17.285z" fill="#afafaf"/><path d="m486.385 224.096c22.25 4.048 43.174 16.341 63.015 27.101-2.265 6.751-3.96 13.706-5.894 20.575-12.156-7.998-24.71-15.599-38.029-21.49-11.423-5.055-31.43-13.532-41.726-1.849-.81 1.854-1.937.203-3.225-.384-4.707-2.797-9.451-5.534-14.209-8.244 10.875-11.446 23.608-18.702 40.068-15.709z" fill="#afafaf"/><path d="m448.989 254.624c5.476 3.899 13.097 5.903 16.616 11.898 1.767 4.126-.002 9.174-3.921 11.319-7.619 3.324-16.042-1.648-23.456-3.62-23.735-7.877-45.796-20.024-66.297-34.238-6.769-4.443-15.064-15.604-7.61-22.864 4.979-3.919 11.046-2.033 16.105.461 23.206 11.681 46.084 24.022 68.563 37.044z" fill="#afafaf"/><path d="m299.435 334.991c-11.97-3.879-25.167-9.271-29.606-20.949-11.061-24.411 51.162-113.271 72.715-127.447 26.731-18.736 80.423-.818 72.924 36.235-13.006-6.341-25.39-14.877-39.315-18.911-21.814-5.381-36.271 23.575-45.405 36.833-11.632 18.363-24.135 36.552-32.315 56.779-6.378 11.616-2.564 25.463 1.002 37.46z" fill="#afafaf"/><path d="m307.323 319.889c-2.917-8.765.351-25.668 12.687-21.909 6.397 2.583 8.534 10.616 10.803 16.373 7.733 19.665 15.027 39.502 21.846 59.504 2.622 10.014 16.051 31.232-1.417 33.805-17.033-.707-40.565-71.466-43.919-87.773z" fill="#afafaf"/><path d="m307.265 417.577c-2.863-13.708.558-27.37 8.768-38.285 3.276 6.824 6.84 13.51 10.789 19.981 1.335 2.62 3.674 5.131 4.729 7.816-.072 13.417 4.257 25.459 9.84 37.469 9.24 23.42 24.578 27.847-9.822 22.179-11.341-14.337-19.732-31.478-24.304-49.16z" fill="#afafaf"/><path d="m326.23 652.033c-9.813 1.641-19.507 4.041-28.931 7.543-75.787 26.131-111.223 115.08-91.276 189.629 3.216 13.023 7.99 25.57 13.989 37.496-10.25-12.42-18.817-26.273-25.169-41.392-39.169-88.854 9.939-200.837 112.125-209.458 5.575 6.719 11.912 12.337 19.262 16.182z" fill="#afafaf"/><path d="m321.434 634.811c29.993-1.08 59.403 5.975 88.671 11.518 28.808 5.877 57.444 11.645 82.884 26.729-23.064-7.509-47.434-11.579-71.146-15.987-20.225-3.752-40.557-6.951-60.986-9.369-14.04-.802-29.232-1.878-39.423-12.891z" fill="#afafaf"/><path d="m222.828 607.959c19.17-9.301 40.103-14.737 61.258-17.021 1.441 13.211 5.013 26.529 14.495 34.75-127.906 16.904-165.142 173.902-88.966 266.678 24.668 32.055 25.731 10.076 1.055 38.104-5.867 8.23-9.026 18.039-9.255 28-4.504-3.9-8.889-7.969-13.094-12.26-93.482-91.163-91.347-277.04 34.507-338.251z" fill="#d5d5d5"/><path d="m987.126 234.975c-49.853-65.672-142.212-102.02-220.837-68.976-41.097 17.198-71.532 51.092-91.309 90.264 9.986 6.101 18.043 14.176 29.079 18.374 74.912-123.888 243.397-72.677 275.461 57.262 15.651 57.608 6.264 122.186-19.203 175.638-2.489 7.545-9.847 14.039-9.807 21.973.58 8.365 3.014 17.281 9.534 22.968 8.273 7.024 20.176 6.647 30.231 4.565 3.746-6.1 7.283-12.334 10.547-18.717 47.751-93.663 53.245-217.471-13.696-303.351zm-6.156 308.323c-16.033 2.455-25.329-20.016-10.799-28.687 21.902-12.072 34.981 22.25 10.799 28.687z" fill="#d5d5d5"/><path d="m987.284 526.408c.532 4.581-3.504 9.117-7.79 10.133-4.559.4-9.058-3.53-9.822-8.09-.537-4.971 4.133-9.412 8.925-9.58 2.951-.235 8.094 3.25 8.687 7.537z" fill="#afafaf"/><path d="m685.29 263.38c5.892 4.317 11.725 8.576 18.77 11.257 74.912-123.888 243.397-72.677 275.461 57.262 15.651 57.608 6.264 122.186-19.203 175.638-2.489 7.545-9.847 14.039-9.807 21.973.243 3.485.835 7.057 1.883 10.461 1.641-7.289 4.479-13.957 8.255-21.438 10.971-21.732 18.837-45.25 24.625-68.844 13.013-53.056 11.349-107.5-11.648-157.533-20.27-44.097-58.024-75.364-103.722-90.516-50.343-16.694-108.869.29-146.408 36.273-9.796 9.391-23.405 24.408-38.206 25.467z" fill="#bebebe"/><path d="m499.036 977.182c-44.875 29.589-98.431 41.035-151.556 34.484-27.265-3.364-54.265-10.682-79.727-20.926-16.282-6.551-49.3-23.402-52.36-44.551-2.583 7.029-3.331 14.742-1.748 22.129 166.426 117.904 398.14 26.975 394.322-188.867-1.621 22.264-4.747 44.406-10.781 66.396-15.236 55.542-50.375 99.835-98.15 131.335z" fill="#bebebe"/><path d="m188.32 946.209c4.205 4.291 8.59 8.359 13.094 12.26.168-7.306 1.927-14.521 5.158-21.102-44.27-33.149-68.85-85.672-78.024-139.752-2.699-15.902-3.886-31.969-3.458-47.873-9.883 70.049 12.632 147.125 63.23 196.467z" fill="#bebebe"/><path d="m179.55 702.007c-15.43 31.845-16.696 64.647-8.345 95.741-7.457-79.271 37.575-160.192 127.375-172.061-3.791-3.287-6.606-7.412-8.75-11.996-46.787 12.585-89.026 44.45-110.28 88.316z" fill="#bebebe"/><path d="m585.607 295.025c11.708-1.875 23.548 4.913 26.925 16.541.605 2.08.81 5.393 1.754 6.989 4.063 3.517 10.996 4.234 16.164 5.763 12.153 1.918 23.358 14.045 18.97 24.164 5.756-7.697 4.036-20.204-7.313-24.447-5.437-2.033-11.114-3.337-16.436-5.689-7.566-3.348-10.37-12.575-14.697-19.01-6.633-9.872-18.607-10.461-28.974-7.375-10.292 3.063-16.489 12.97-19.426 22.615-1.399 4.594-2.143 10.996-1.685 17.202.635-16.328 8.835-32.546 24.718-36.753z" fill="#bebebe"/><path d="m399.995 554.134c-1.138.473-1.767.85-2.183 1.898-1.574 6.006-1.201 12.678-2.989 18.758-1.059 8.645-7.175 17.639-14.272 20.514 3.872.459 7.83-.307 10.987-2.811 12.048-9.549 6.296-27.406 18.662-36.479 8.111-5.95 14.032-12.534 15.226-22.927 1.21-10.547-7.679-23.01-15.957-28.64-17.614-11.979-46.68-10.661-57.031 10.272-.729 1.475-1.183 2.949-1.516 4.42 5.833-16.892 32.044-24.357 51.339-12.281 21.437 10.614 25.076 42.514-2.266 47.276z" fill="#bebebe"/><path d="m557.786 409.111c16.521 6.667 38.117 7.827 49.828 22.561 4.383 9.361.07 20.251 1.015 30.263-4.678 159.084 162.738 253.647 299.2 176.694 29.873-16.977 54.715-40.977 74.18-68.934-4.516.346-9.052-.002-13.405-.967-11.722 22.869-33.417 39.459-54.757 52.899-22.189 13.971-46.284 24.441-72.157 29.16-62.648 11.423-135.947-12.646-176.619-62.19-22.289-27.15-31.834-61.303-35.938-95.566-2.021-16.885-2.712-33.923-3.86-50.882-.654-9.646-1.184-19.912-7.616-27.755-11.959-14.585-32.098-17.81-49.105-23.314-13.734-4.445-25.311-10.984-31.171-24.893-1.808-4.291-2.766-8.885-3.283-13.582-1.493 5.464-3.042 10.971-4.027 16.508-9.66 27.053 5.57 32.389 27.715 39.998z" fill="#bebebe"/><path d="m295.424 556.585c-1.878 20.652-2.577 44.467 10.589 60.375 2.134 1.953 4.657 2.583 7.619 2.844 24.171 2.141 48.25 5.813 72.119 10.133 56.473 9.615 119.786 20.887 155.009 70.996 52.88 72.705 21.52 179.697-48.337 229.58-14.178 10.486-29.633 18.502-45.832 24.332 6.487-1.15 12.903-2.779 19.195-5.098 20.647-7.606 37.955-22.34 53.307-37.682 20.141-20.129 35.414-43.568 44.416-70.646 16.096-48.426 9.247-111.563-22.456-152.457-29.731-38.355-81.716-51.9-126.568-62.752-22.961-5.557-46.521-8.646-69.324-14.719-12.352-3.291-24.452-8.359-33.622-17.487-9.365-9.319-13.493-24.183-16.115-37.419z" fill="#bebebe"/><path d="m987.126 234.975c-49.853-65.672-142.212-102.02-220.837-68.976-17.771 7.437-33.539 18.005-47.32 30.762 28-17.542 60.842-28.428 91.819-32.252 62.061-7.661 123.38 23.207 164.031 68.697 21.675 24.254 38.992 54.908 47.273 86.425 10.332 39.327 11.055 81.487 10.457 122.474 12.181-72.287.25-148.535-45.423-207.13z" fill="#efefef"/><path d="m612.218 263.443c12.379 2.048 24.477 6.04 35.996 10.949 6.42 2.734 12.683 5.552 18.141 9.991 9.648 7.852 7.285 22.61 5.678 33.287-4.561 30.292-9.213 61.846-10.769 93.374 7.546-41.886 20.627-83.723 28.268-122.121-9.341-32.223-84.883-49.693-114.176-43.489-16.265 1.607-17.018 14.636-19.957 27.595 15.542-11.596 36.653-12.924 56.819-9.586z" fill="#efefef"/><path d="m222.828 607.959c-37.825 18.396-64.395 48.094-80.631 83.057 11.399-16.223 25.096-30.914 39.752-43.254 29.771-25.063 65.69-40.297 103.522-47.825-.596-2.966-1.057-5.98-1.385-8.999-21.156 2.284-42.088 7.72-61.258 17.021z" fill="#efefef"/><path d="m446.952 563.91c-.888 11.777-1.421 22.927 6.27 32.637 9.95 12.571 28.911 17.149 43.125 22.73 48.313 18.966 79.875 62.349 99.19 108.868 5.006 12.057 8.789 24.552 11.671 37.259-6.654-72.933-55.417-139.628-125.085-164.603-9.397-3.614-18.976-4.758-21.873-15.739-7.088-22.16 13.874-76.713-6.188-90.418-4.198-.887-8.437-1.674-12.678-2.453 13.533 17.476 7.047 52.103 5.568 71.719z" fill="#efefef"/><g fill="#999"><path d="m979.494 536.541c4.286-1.016 8.322-5.552 7.79-10.133-.146-1.057-.574-2.064-1.172-2.979.773 3.717-.452 7.355-3.893 9.284-4.082 2.292-8.752-.148-11.066-3.661-.784-1.189-1.083-2.531-1.063-3.891-.364 1.042-.542 2.146-.418 3.289.765 4.56 5.264 8.491 9.822 8.091z"/><path d="m738.737 297.042c.297-.551.571-1.115.873-1.664 14.242-25.963 34.672-48.951 60.704-63.484 2.118-1.183 4.32-2.183 6.494-3.245-5.005 1.162-9.995 2.597-14.955 4.385-24.07 8.678-53.147 28.936-66.03 53.017 4.857 2.919 9.43 6.301 12.914 10.991z"/><path d="m744.588 597.556c-27.725-23.109-43.712-57.91-47.551-93.457-3.611-30.784 2.19-60.995 7.853-91.152 6.553-34.69 14.193-69.2 23.892-103.157 1.476-5.109 1.478-5.912-2.86-9.591-3.593-2.885-7.526-5.279-11.576-7.485 5.318 9.709 4.084 22.156 2.051 33.401-3.179 17.621-7.252 35.122-10.973 52.632-6.924 32.577-13.672 65.074-14.949 98.453-1.212 31.697 4.884 73.814 24.603 103.283 8.863 7.058 18.725 12.899 29.51 17.073z"/><path d="m472.746 543.134c-1.019 13.025-3.917 26.52-1.223 39.495.601 1.534.71 2.298 1.687 2.858 1.938.62 4.108 1.354 6.301 2.125-5.338-14.289-3.513-30.332-3.209-47.006.112-6.221.041-14.082-1.873-20.963-.045 8.571-1.066 17.037-1.683 23.491z"/><path d="m404.374 254.248c-17.081-7.228-35.358-16.177-42.552-33.116-2.136 6.87 4.495 15.167 10.108 18.851 20.501 14.214 42.563 26.361 66.297 34.238 7.414 1.972 15.837 6.944 23.456 3.62 2.466-1.349 4.076-3.85 4.495-6.543-11.875 5.917-24.353-.094-36.05-5.801-8.435-4.121-17.113-7.593-25.754-11.249z"/><path d="m399.485 431.706c7.749 15.032 14.931 30.348 22.102 45.663 3.942.564 7.821 1.078 11.725 1.593-5.711-17.36-20.497-41.094-22.896-45.713-9.098-17.526-20.85-44.413-42.088-48.881.715 2.167 1.466 4.281 2.157 6.494 13.579 10.034 21.433 26.164 29 40.844z"/><path d="m307.323 319.889c3.353 16.308 26.885 87.066 43.918 87.772 2.948-.435 4.956-1.435 6.346-2.786-16.892-5.04-23.626-25.201-29.705-41.355-4.949-13.152-9.761-26.348-13.343-39.95-1.837-6.978-4.003-15.192-4.282-23.114-4.094 4.675-4.825 13.75-2.934 19.433z"/><path d="m209.034 871.654c3.418 5.201 7.029 10.262 10.978 15.047-6-11.926-10.773-24.473-13.989-37.496-19.947-74.549 15.489-163.498 91.276-189.629 9.424-3.502 19.118-5.902 28.931-7.543-3.135-1.641-6.049-3.662-8.835-5.893-23.908 5.064-46.145 16.969-65.404 31.771-21.216 16.308-34.479 35.977-43.688 60.85-15.484 41.833-17.481 91.589.731 132.893z"/><path d="m396.148 536.554c-2.487 3.088-6.886 3.967-9.58 6.807-4.985 5.253-5.071 11.77-5.201 18.727-.139 7.545-.452 13.949-1.927 20.223 10.236-14.288-.51-37.469 22.703-40.867 2.925-.926 4.554-2.139 5.419-4.908 3.856-19.069-25.196-29.467-39.327-21.248-4.173 2.289-6.282 6.041-6.701 10.027 5.905-4.356 14.236-5.611 21.497-5.391 6.185.189 21.619 6.068 13.117 16.63z"/><path d="m257.05 955.533c.232-1.439-.119-2.799-.749-4.033.092.795.11 1.631-.022 2.602-.567 4.113-3.96 6.771-7.992 6.787-3.712.014-6.512-2.93-7.785-6.137-.391-.984-.493-1.92-.465-2.836-.268.625-.483 1.271-.594 1.947-.524 4.721 3.499 8.873 7.828 9.841 4.529.763 8.958-3.874 9.779-8.171z"/><path d="m632.134 880.941c5.087-17.993 7.735-36.645 8.151-55.344-4.225 28.588-13.724 56.533-26.602 80.92-28.07 53.154-77.833 90.237-133.946 109.648-30.373 10.508-63.815 16.671-96.268 15.004-34.414.9-69.567-4.04-102.521-15.007 133.792 68.002 309.66 18.676 351.186-135.221z"/><path d="m456.594 245.769c1.306.765 2.628 1.506 3.931 2.28 1.288.587 2.415 2.238 3.225.384 10.296-11.684 30.303-3.206 41.726 1.849 13.319 5.892 25.873 13.492 38.029 21.49.76-2.698 1.482-5.41 2.217-8.117-10.517-6.582-21.866-12.02-33.123-17.088-19.619-8.833-38.949-13.83-56.005-.798z"/><path d="m311.733 255.658c-10.76 18.661-29.954 50.851-23.503 75.094 3.661 1.644 7.481 3.031 11.205 4.239-3.566-11.997-7.38-25.844-1.003-37.46 8.181-20.227 20.683-38.416 32.315-56.779 8.667-12.579 22.136-39.23 42.12-37.341-8.343-2.772-19.796 1.122-26.099 5.345-16.096 10.782-25.676 30.673-35.035 46.902z"/><path d="m427.474 282.574c-3.803 22.383 8.563 43.363 27.132 55.218 19.375 13.337 42.046 21.5 64.344 28.554.706-3.182 1.5-6.341 2.242-9.514-17.589-3.746-34.583-8.153-51.004-17.729-20.505-11.958-37.278-30.008-35.158-53.874-2.525-.851-5.046-1.719-7.556-2.655z"/><path d="m914.778 665.58c30.566-10.641 57.822-28.573 80.532-51.242-18.17 14.331-38.824 26.047-58.671 35.826-24.083 11.865-57.815 26.066-87.095 22.428-7.81 1.574-15.696 2.777-23.629 3.518 29.889 2.972 60.334-.594 88.863-10.53z"/><path d="m1040.755 264.635c20.058 40.986 28.24 86.359 27.332 133.53-.677 35.092-7.486 69.188-18.309 102.467-8.084 24.854-17.209 48.797-35.859 66.877.054.035.11.072.164.107 4.135 1.943 9.094 8.021 12.598 8.23 58.334-90.323 72.267-218.472 14.074-311.211z"/><path d="m576.046 317.602c-.535 1.167-1.019 2.422-1.459 3.717 12.199-8.244 21.227 10.261 33.525 14.909 9.805 3.706 20.438 4.735 29.885 8.806 2.066-1.974-.094-4.747-2.979-6.525-8.189-4.803-18.661-4.232-26.521-9.845-4.036-2.876-5.474-7.102-6.515-11.774-4.066-15.957-20.571-12.719-25.936.712z"/><path d="m383.486 271.916c1.796-2.537 3.598-5.075 5.398-7.609-5.234-3.007-10.389-6.157-15.439-9.465-2.973 4.394-5.932 8.799-8.912 13.19 6.594-.222 12.951.936 18.953 3.884z"/><path d="m344.096 462.205c1.417 2.246 3.011 4.613 4.837 6.752 9.732.039-.616-6.844-7.542-24.397-5.583-12.01-9.912-24.052-9.84-37.469-1.055-2.685-3.393-5.197-4.729-7.816-.284-.466-.533-.951-.814-1.419-5.381 11.412-1.673 25.92 2.991 37.353 3.894 9.546 9.617 18.306 15.097 26.996z"/><path d="m492.989 673.058c-10.378-6.155-21.306-10.708-32.545-14.403-11.938-2.512-23.948-4.711-35.974-6.695-29.271-4.836-60.986-10.408-91.195-9.078 8.518 3.572 18.289 4.29 27.582 4.82 20.43 2.418 40.762 5.617 60.986 9.369 23.712 4.408 48.082 8.478 71.146 15.987z"/></g><path d="m1025.091 260.677c-8.678-16.116-19.803-31.261-31.396-45.385-3.101-3.777-6.225-7.556-9.412-11.27-10.151-7.405-20.894-13.962-32.173-19.442 76.489 56.106 107.334 156.894 93.138 248.509-4.537 32.5-13.395 64.917-26.881 95.143 6.544-10.979 12.453-22.367 17.379-34.434 15.396-37.715 21.076-79.072 18.725-119.575-2.232-38.41-11.058-79.513-29.38-113.546z" fill="#cecece"/><path d="m983.425 587.327c-17.827 23.066-39.608 42.794-64.323 57.859 10.117-4.373 19.952-9.564 29.629-15.471 22.942-14.008 35.774-39.031 57.898-53.319-10.987-8.361-10.15-8.039-23.204 10.931z" fill="#cecece"/><path d="m359.425 358.3c.999 2.928 2.003 5.784 3.006 8.665 23.76 3.822 37.497 24.397 50.519 43.309 5.363 7.792 10.056 15.772 14.367 23.913-9.57-24.71-21.394-48.474-40.345-66.61-8.103-6.146-17.644-9.027-27.547-9.277z" fill="#cecece"/><path d="m365.719 216.236c7.866 2.993 15.138 7.34 22.725 11.133 10.564 5.285 21.261 10.303 31.967 15.295 14.133 6.591 28.392 12.943 42.138 20.265-3.906-3.422-9.356-5.314-13.56-8.307-22.479-13.022-45.357-25.363-68.563-37.044-4.597-2.265-10.019-3.979-14.707-1.342z" fill="#cecece"/><path d="m330.813 314.353c-2.269-5.757-4.405-13.789-10.803-16.373-.672-.205-1.304-.322-1.923-.409 3.076 4.407 5.107 9.625 7.279 14.52 4.27 9.62 9.055 19.019 13.323 28.65 6.714 15.154 11.5 31.426 18.844 46.327-1.77-4.92-3.967-9.739-4.875-13.211-6.817-20.003-14.112-39.84-21.845-59.504z" fill="#cecece"/><path d="m451.512 234.869c15.329-3.926 31.137-4.72 47.026-1.887 13.386 2.386 26.026 7.563 38.953 11.733-16.269-8.813-33.255-17.373-51.107-20.62-13.918-2.529-25.153 2.312-34.872 10.774z" fill="#cecece"/><path d="m685.156 538.458c-9.948-28.449-12.689-58.353-10.791-88.285 1.891-29.794 7.893-58.847 15.174-87.706 3.076-12.192 5.928-24.427 7.463-36.918.706-5.729.673-11.448.326-17.162-1.32 4.07-2.721 8.109-3.688 12.111-12.175 53.703-28.655 108.206-26.827 163.714 1.064 24.676 9.299 48.898 23.105 69.112-1.524-5.002-3.058-9.989-4.762-14.866z" fill="#cecece"/><path d="m190.173 728.969c6.197-15.95 14.81-30.609 26.813-43.424 22.324-23.834 59.987-46.303 94.925-44.297-1.707-1.709-3.364-3.494-4.942-5.396-58.657 4.949-99.776 43.976-116.796 93.117z" fill="#cecece"/><path d="m307.265 417.577c1.49 5.768 3.429 11.464 5.702 17.036-4.088-16.979-4.614-35.749 5.829-49.882-.924-1.813-1.882-3.607-2.763-5.439-8.21 10.915-11.63 24.578-8.768 38.285z" fill="#cecece"/><path d="m606.363 868.711c-9.616 30.191-25.563 57.629-46.02 81.027 20.231-18.598 36.212-41.127 48.093-66.338 15.849-33.639 20.121-71.115 19.213-107.924-.345-13.997-1.921-28.139-4.821-41.986-6.78-15.914-15.478-31.012-26.13-44.784 27.964 55.247 29.459 121.844 9.665 180.005z" fill="#cecece"/><path d="m343.127 195.648c21.05-10.899 45.851-6.973 67.318 2.5-13.578-19.192-48.112-25.424-67.9-11.554-6.188 4.07-15.729 14.309-25.923 27.396 8.126-6.957 16.759-13.296 26.505-18.342z" fill="#cecece"/></g></g></svg>