<svg id="Layer_1" enable-background="new 0 0 55 55" viewBox="0 0 55 55" xmlns="http://www.w3.org/2000/svg"><g id="_x38_3"><g><path d="m34.01159 51.08659c-.55597.2077-1.17043-.04149-1.40447-.56758l-6.26191-14.74419 1.98973-.76142c.8721 2.05406 6.63135 15.62642 6.26191 14.75804.2194.51224-.04393 1.10753-.58526 1.31515z" fill="#d0dcee"/></g><g><path d="m34.00884 51.09097c-.55609.20223-1.16272-.05054-1.40537-.57633-.05046-.11887-6.30474-14.85042-6.25865-14.74171l1.99182-.75832.89989 2.15363.29319.68753.31343.7179c-.40333.605-.20434 1.19402.04048 1.91098 1.10205 3.07369 2.26483 6.23841 4.469 8.69535l.24265.58645c.22248.51566-.04041 1.11217-.58644 1.32452z" fill="#a5c0dd"/></g><g><path d="m29.23652 37.16824c-.83212.38838-1.06715.98857-1.73905 1.32452l-1.15266-2.71983 1.99182-.75832z"/></g><g><path d="m25.31388 35.79089c-8.10839 20.63186-5.31179 13.5159-5.91678 15.05531-.2184.55844-.82464.78407-1.31333.57955-.52533-.21199-.77416-.81985-.56676-1.34289l5.93062-15.06945z" fill="#d0dcee"/></g><g><path d="m25.31348 35.79317c-.04071.10327-.88223 2.23785-.8291 2.10308l-.26289.66729c-.96657.40076-1.50014 1.42418-1.93115 2.3761-.92013 1.97158-1.83007 3.94321-2.74008 5.92498-.72862 1.56603-1.72915 2.91425-.55609 4.47912-.84755.52146-1.84423-.35237-1.47621-1.26386.04028-.10244 5.96573-15.16956 5.92504-15.06527z" fill="#a5c0dd"/></g><g><path d="m25.31348 35.79317-.55609 1.42561c-1.39884.24693-1.96465.76844-2.47718.76844l1.16278-2.97261z"/></g><g><path d="m49.99468 33.71468-1.40532.27103c-.05241.01011-.10672.00126-.15321-.02496l-8.91634-5.02958.91418-.00009z" fill="#19345d"/></g><g><path d="m35.116 23.079h7.068v5.854h-7.068z" fill="#d0dcee"/></g><g><path d="m42.18364 24.91919v4.01406h-7.06751v-5.85425h1.6076c-.0303 1.22344.15169 2.457.53591 3.6096.1112.33368.25277.68753.55609.87964.57094.38626 1.49983.0378 1.78965-1.09193.20094-.89346.02243-2.72427.17187-3.39731h1.54694c.0502.10043.38753.58849.85945 1.84019z" fill="#a5c0dd"/></g><g><path d="m19.121 9.345h12.366v10.627h-12.366z" fill="#f58210"/></g><g><path d="m19.758 9.359h12.366v10.627h-12.366z" fill="#ff9f1c"/></g><g><path d="m32.12328 9.35856v7.42137c-2.78733.19023-6.21832-1.95316-6.49118-5.22732-.07078-.72802-.02024-1.46609.04042-2.19405z"/></g><g><circle cx="15.489" cy="10.736" fill="#19345d" r="7.236"/></g><g><circle cx="16.661" cy="10.736" r="7.236"/></g><g><path d="m24.68167 10.73363c0 3.85817-3.12868 7.23938-7.23944 7.23938-3.99376 0-7.23938-3.2355-7.23938-7.23938 0-2.31544 1.08187-4.3578 2.77038-5.68232.27301-.21235.56621-.41458.86952-.58645 4.69013-2.72456 10.83892.62493 10.83892 6.26877z" fill="#28b6f4"/></g><g><path d="m23.98401 13.80732c-1.14254 2.45694-3.63996 4.16569-6.54179 4.16569-3.99376 0-7.23938-3.2355-7.23938-7.23938 0-2.31544 1.08187-4.3578 2.77038-5.68232-2.58628 5.73428 2.47505 11.76818 8.19993 10.19175 1.02121-.28308 1.94134-.80887 2.81086-1.43574z" fill="#095da4"/></g><g><path d="m35.73782 32.71948-1.37507 1.17284c-.13145.08091-.28313.13145-.44488.13145h-17.57275c-.44488 0-.80886-.36398-.80886-.80886v-12.71954c0-.27301.14157-.52579.36398-.67741l1.67838-.83922.09103 1.08187h16.49088v12.25441z" fill="#e2212e"/></g><g><path d="m29.83309 34.02376h-7.83595c1.35878-1.45831 3.83746-.76332 5.49021-.78862.57633-.02024 1.18296-.10114 1.69862.16175.27296.14157.48531.36398.64712.62687z"/></g><g><path d="m19.78796 32.76526c-.47518.06067-.95043.18199-1.39531.32356-.50907.13393-.78862.38932-.78862.93018h-1.26386c-.44488 0-.80886-.36398-.80886-.80886v-1.06163c.43884.59578 1.17671.41759 1.5267-.17187.20223-.33368.25277-.72802.28313-1.11224.0303-.38422.04042-.7785.18199-1.14254.07078.40446.13145.84934.26289 1.23356.32503.95007.86945 1.49894 2.00194 1.80984z"/></g><g><ellipse cx="16.447" cy="26.418" rx=".515" ry="2.025"/></g><g><path d="m35.35861 32.85904h-17.50043c-.30939 0-.5602-.25081-.5602-.5602v-12.84522c0-.30939.25081-.5602.5602-.5602h17.50043c.30939 0 .5602.25081.5602.5602v12.84522c0 .30939-.25081.5602-.5602.5602z" fill="#f72f43"/></g><g><path d="m8.59 25.369h4.469v1.931h-4.469z" fill="#d0dcee"/></g><g><path d="m13.05907 25.36883v1.93116h-4.469v-1.93116h1.00097c.20223.28313.19211.70778.35386 1.02121.21235.4044.72802.59651 1.15266.47518.43476-.12133.75832-.53585.80886-.98073.02024-.17187.01012-.3438 0-.51567h1.15265z" fill="#a5c0dd"/></g><g><path d="m14.87902 28.34144h-2.10309c-.22241 0-.4044-.18199-.4044-.40446v-3.02315c0-.22241.18199-.4044.4044-.4044h2.10309c.43476 0 .8291.14151 1.15266.39428 1.4379 1.06282.70203 3.43773-1.15266 3.43773z" fill="#ffca28"/></g><g><path d="m9.29785 26.30914c0 1.66832-2.49743 3.81183-3.81183 3.04339-.39434-.23253.07078-1.37507.07078-3.05351 0-1.66826-.4247-2.80068 0-3.00291.66496-.33261 2.57527.72349 3.34671 1.88061.24265.36398.39434.7482.39434 1.13242z" fill="#095da4"/></g><g><path d="m5.9309 28.97843c-.12133.23253-.26289.36398-.40446.36398-.455 0-.8291-1.36495-.8291-3.03327 0-1.67838.3741-3.03327.8291-3.03327.86418 0 1.16346 4.21378.40446 5.70256z" fill="#19345d"/></g><g><path d="m5.9309 28.97843c-.5761-1.13003-.58241-4.19618 0-5.33859.58255 1.14269.57592 4.20891 0 5.33859z"/></g><g><path d="m50.30267 18.63024v14.64057c0 .35392-.3741.57633-.68753.41458l-9.18066-4.74202.01006-5.84413 3.97358-2.11314 5.1869-2.77044c.31343-.17187.69765.06066.69765.41458z" fill="#28b6f4"/></g><g><path d="m28.38761 36.535h-5.38525c-.37229 0-.67409-.3018-.67409-.67409v-1.69403c0-.48923.3966-.88583.88583-.88583h4.96177c.48923 0 .88583.3966.88583.88583v1.69403c0 .37229-.3018.67409-.67409.67409z" fill="#19345d"/></g><g><path d="m29.39827 34.18551v1.67844c0 .3741-.30331.67741-.68753.67741h-5.36889c-.3741 0-.67741-.30331-.67741-.67741v-1.67844c0-.49543.39434-.89982.88976-.89982h4.94425c.49542 0 .89982.40439.89982.89982z" fill="#28b6f4"/></g><g><circle cx="17.441" cy="10.736" fill="#19345d" r="3.697"/></g><g><circle cx="31.153" cy="11.082" fill="#19345d" r="5.286"/></g><g><circle cx="32.091" cy="11.082" r="5.286"/></g><g><path d="m36.88554 14.141c-.96055 1.34477-2.52773 2.22441-4.30725 2.22441-4.73566 0-7.05495-5.76463-3.71069-9.03915.96049-.95043 2.26483-1.52676 3.71069-1.52676 4.34791 0 6.76277 4.91988 4.30725 8.3415z" fill="#28b6f4"/></g><g><circle cx="32.579" cy="11.082" fill="#19345d" r="2.7"/></g><g><path d="m19.66273 17.37318c-.8771.35873-1.95553-.02765-2.39628-.95043l-2.10302-4.3275c-.58645-1.22338-.01012-2.67935 1.25374-3.16466 1.32265-.48734 2.68177.25973 3.04339 1.50652l1.06163 3.62978.29319 1.00097c.27302.95043-.2224 1.95146-1.15265 2.30532z" fill="#729bbf"/></g><g><path d="m19.89917 17.17427c-.8771.35873-1.95553-.02765-2.39628-.95043l-2.10302-4.3275c-.58645-1.22338-.01012-2.67935 1.25374-3.16466 1.32266-.48734 2.68178.25973 3.04339 1.50651l1.06163 3.62978.29319 1.00097c.27302.95044-.22241 1.95147-1.15265 2.30533z" fill="#d0dcee"/></g><g><path d="m19.89917 17.17427c-.8771.35873-1.95553-.02765-2.39628-.95043l-2.10302-4.3275c-.67741-1.41313.20685-3.1256 1.83007-3.2961-.48537.79874-.4247 1.91091.04042 2.74002.53591.95043 1.47621 1.59754 2.45694 2.05254.3438.16175.69765.30332 1.03133.47518l.29319 1.00097c.27302.95043-.22241 1.95146-1.15265 2.30532z" fill="#a5c0dd"/></g><g><path d="m21.6484 15.9407c0 1.17956-.96578 2.18399-2.19405 2.18399-1.2032 0-2.18399-.98079-2.18399-2.18399 0-.83916.4853-1.5773 1.18296-1.94128.29325-.15163.63699-.24265 1.00103-.24265 1.21326.00001 2.19405.98073 2.19405 2.18393z" fill="#f72f43"/></g><g><circle cx="17.466" cy="10.885" r="1.357"/></g><g><path d="m18.82741 10.75387v.0303c-.02018.73808-.62687 1.33465-1.36495 1.33465-1.36091 0-1.86888-1.8149-.70778-2.5176.84315-.54804 2.07273.06344 2.07273 1.15265z" fill="#ffca28"/></g><g><circle cx="32.579" cy="11.082" fill="#095da4" r="1.62"/></g><g><path d="m21.60791 16.34517c-.19211 1.01109-1.08181 1.77953-2.15356 1.77953-1.2032 0-2.18399-.98079-2.18399-2.18399 0-.83916.4853-1.5773 1.18296-1.94128-.23581 1.4153.95179 2.57701 2.29519 2.43676.15859-.01831.7499-.14594.8594-.09102z" fill="#e2212e"/></g><g><path d="m18.82741 10.78417c-.02018.73808-.62687 1.33465-1.36495 1.33465-1.36091 0-1.86888-1.8149-.70778-2.5176.02597 1.11532 1.20726 1.69438 2.07273 1.18295z" fill="#ff9f1c"/></g><g><path d="m50.30267 29.58037v3.69044c0 .35392-.3741.57633-.68753.41458l-9.18066-4.74202.01006-5.84413 3.97358-2.11314c-.83539 4.20389 1.93321 7.91483 5.88455 8.59427z" fill="#095da4"/></g><g><path d="m40.43456 28.99301c-.02783 0-.0498-.02246-.0498-.0498.01645-3.00848-.01922-6.34058.05957-5.89355.1004 0 .02737-.22108.04004 5.89355-.00001.02783-.02247.0498-.04981.0498z"/></g><g><path d="m36.88554 14.141c-.96055 1.34477-2.52773 2.22441-4.30725 2.22441-4.73566 0-7.05495-5.76463-3.71069-9.03915-.74826 1.63796-.67747 3.66014.28307 5.19702 1.23356 1.9817 3.84213 2.99279 6.08678 2.36592.58639-.16175 1.13242-.42465 1.64809-.7482z" fill="#095da4"/></g><g><path d="m32.12328 17.14391v1.21332h-.13145c-1.38519-.01012-2.77038-.21229-4.15557-.1112-.93496.06164-2.60234.38623-3.42761-.23253-.6131-.43796-.51882-1.28823.455-1.70874 2.35225-1.01203 4.81961 1.26737 7.25963.83915z" fill="#ffca28"/></g><g><path d="m18.95067 32.90463c-.0661 0-.06584-.09961 0-.09961 9.91504-.01542 6.10111-.00949 16.01611-.0249.0661 0 .06584.09961 0 .09961z"/></g><g><path d="m17.26708 31.64682c-.10002 0-.02834.7089-.01904-12.18701 0-.0673.10077-.06518.09961 0l-.03076 12.13721c-.00001.02783-.02247.0498-.04981.0498z"/></g><g><path d="m34.10504 20.81417v10.12103c0 .35165-.29858.56621-.56621.56621h-13.86207c-.31344 0-.56621-.25277-.56621-.56621v-10.12103c0-.27163.22476-.56621.56621-.56621h13.86207c.31343 0 .56621.26289.56621.56621z"/></g><g><path d="m33.90281 21.0164c-.03118 10.60245.07302 10.15791-.0809 10.4041-.24715.15458.48917.04938-14.14515.08091-.31344 0-.56621-.25277-.56621-.56621.03112-10.60245-.07306-10.15794.0809-10.4041.24718-.15453-.48917-.04931 14.14514-.08091.31345 0 .56622.25277.56622.56621z" fill="#ffca28"/></g><g><g><circle cx="31.301" cy="26.137" r="1.836"/></g><g><path d="m33.22406 26.05121c0 .44958-.16426.87319-.44092 1.19307-1.11284 1.28403-3.23336.50725-3.23336-1.19307 0-.657.34584-1.23628.86454-1.55615 1.21353-.77206 2.80974.11013 2.80974 1.55615z" fill="#095da4"/></g><g><path d="m33.22406 26.05121c0 .44958-.16426.87319-.44092 1.19307-.73483.06918-1.46972-.31988-1.90199-.91641-.3804-.52736-.5187-1.19307-.46683-1.83281 1.21353-.77206 2.80974.11013 2.80974 1.55615z" fill="#28b6f4"/></g><g><path d="m32.2817 25.1089c0 .01731-.0086.02591-.01725.03456l-1.22763 2.12678c-.06918.12105-.21613.15561-.32853.08643-.05187-.02591-.09514-.07778-.10374-.12965-.02596-.06052-.01731-.1297.01726-.19023l1.22763-2.13538c.14874-.24167.52933-.08373.43226.20749z"/></g><g><path d="m32.26444 25.14346-1.22763 2.12678c-.06918.12105-.21613.15561-.32853.08643-.05187-.02591-.09514-.07778-.10374-.12965 0-.01731.0086-.02596.01726-.03461l1.22763-2.13538c.06918-.11239.21614-.14696.32853-.08648.06546.03276.13251.12689.08648.17291z" fill="#f72f43"/></g></g><g><path d="m33.90281 29.67133c-.02589 1.42264.06026 1.52337-.0809 1.74917-.24715.15458.48917.04938-14.14515.08091-.31344 0-.56621-.25277-.56621-.56621.03112-10.60245-.07306-10.15794.0809-10.4041.24309-.15198.24473-.05188 3.80171-.08091-1.56507 2.98553-.8789 6.36857 1.39525 8.12914 3.20038 2.47305 7.93011.80389 9.5144 1.092z" fill="#ff9f1c"/></g><g><circle cx="27.419" cy="26.471" r=".774"/></g><g><circle cx="24.917" cy="26.471" r=".774"/></g><g><circle cx="21.435" cy="26.247" r="1.281"/></g><g><path d="m28.29127 26.37517c0 .4247-.3438.76844-.76844.76844-.71653 0-1.02958-.85088-.54603-1.33465.48685-.45205 1.31447-.14582 1.31447.56621z" fill="#f72f43"/></g><g><path d="m25.79384 26.37517c0 .4247-.35386.76844-.7785.76844-.4247 0-.76844-.34374-.76844-.76844 0-.28307.15163-.52573.36398-.66729.5346-.3119 1.18296.07128 1.18296.66729z" fill="#f72f43"/></g><g><path d="m22.78081 26.44595c-.13145.56621-.63699.98079-1.24362.98079-.70778 0-1.28411-.57633-1.28411-1.28411 0-.70692.56595-1.27398 1.28411-1.27398.87341 0 1.46214.84832 1.24362 1.5773z" fill="#095da4"/></g><g><path d="m28.29127 26.37517c0 .4247-.3438.76844-.76844.76844-.71653 0-1.02958-.85088-.54603-1.33465.06681.53408.4985.7685.80892.68753.18199-.05054.32355-.18199.4853-.27295.02025.05054.02025.10108.02025.15163z" fill="#e2212e"/></g><g><path d="m25.79384 26.35499c0 .47053-.37281.78862-.7785.78862-.4247 0-.76844-.34374-.76844-.76844 0-.28307.15163-.52573.36398-.66729 0 .64372.66147.99441 1.18296.64711z" fill="#e2212e"/></g><g><path d="m22.78081 26.44595c-1.11485.5248-2.2159-.4754-1.96152-1.36495 1.01016-.65658 2.27848.30757 1.96152 1.36495z" fill="#28b6f4"/></g><g><path d="m14.87902 28.34144h-2.10309c-.22241 0-.4044-.18199-.4044-.40446v-3.02315c0-.22241.18199-.4044.4044-.4044h.10115c-.02024.47518-.04042.96049.06066 1.43573.28865 1.44359 1.52808 1.88655 2.24459 1.34477.77772-.60491.41737-1.79699.84934-2.38622 1.43791 1.06282.70204 3.43773-1.15265 3.43773z" fill="#ff9f1c"/></g><g><path d="m8.90351 25.17672c0 .63393-.26214 1.37289-.46512 1.98176-.12199.36597-.2687.75244-.62687.89982-.14157.06066-.33368.0506-.41452-.07072-.1559-.20792.07597-1.14448-.3741-3.07376-.14157-.58645-.3438-1.19308-.76844-1.61772.83916.20224 2.04235.97061 2.64905 1.88062z" fill="#28b6f4"/></g><g><path d="m29.39827 35.72239v.14157c0 .3741-.30331.67741-.68753.67741h-5.36889c-.3741 0-.67741-.30331-.67741-.67741v-1.67844c0-.49543.39434-.89982.88976-.89982h1.06163c-.3741.26289-.55609.75832-.4853 1.21332.11472.83562.97877 1.5946 2.37604 1.56718.99613-.00002 2.00145-.34381 2.8917-.34381z" fill="#095da4"/></g><g><path d="m27.42109 23.913c.59647.14742.81214-.23866.54201-.67678-.37102-.60175-1.12953-.76926-1.39801-.60326-.30674.18966-.22877.5099-.03267.75196.22872.28232.5406.44206.88867.52808z" fill="#ff9f1c"/></g><g><path d="m29.06007 22.64463c.15888-.20796-.16558-.72828-.69852-.7863-.31738-.03456-.48233.22898-.24849.51762.1466.18096.7699.5005.94701.26868z" fill="#ff9f1c"/></g><g><path d="m48.13136 24.53939c.10636.023.22583.00557.30769-.06613.13068-.11445.12571-.32024.07594-.48667-.23801-.79586-1.27849-1.26444-1.2784-.44459.00002.1852.12875.32447.23706.46186.16776.21283.37745.47493.65771.53553z" fill="#095da4"/></g><g><path d="m48.29089 22.42242c.0547.01183.11614.00286.15825-.03401.17482-.15311-.09179-.65784-.43088-.69979-.12734-.01575-.18755.10678-.18754.22085.00001.09525.06622.16687.12192.23753.08627.10946.19411.24426.33825.27542z" fill="#095da4"/></g><g><path d="m22.94334 9.28666c.37877-.44717-.94838-2.15595-1.36875-1.53927-.42154.61921.96177 2.01975 1.36875 1.53927z" fill="#095da4"/></g><g><path d="m21.76677 6.99816c.05865-.06924.04374-.17331.01656-.25988-.08009-.25515-.24007-.48459-.45181-.64794-.19303-.14892-.33489-.11612-.39581-.02675-.25684.37728.58483 1.22527.83106.93457z" fill="#095da4"/></g><g><path d="m33.89696 48.00034-4.7749-10.78125c-.06672-.15218.16223-.25158.22852-.10156l4.7749 10.78125c.0673.1535-.16233.25126-.22852.10156z"/></g><g><path d="m41.45848 22.42368 8.0874-4.31836c.14997-.07557.26157.14322.11816.2207l-8.0874 4.31836c-.14905.07644-.26206-.14295-.11816-.2207z"/></g></g></svg>