<svg id="Layer_1" enable-background="new 0 0 55 55" viewBox="0 0 55 55" xmlns="http://www.w3.org/2000/svg"><g id="_x38_1"><g><g><path d="m47.35444 40.04203c-.792.64102-1.71174 1.18699-2.12326 1.93535-.67693 1.18961.04831 2.73415 1.39043 2.97818l-1.14615.62004.78914 1.23073c-2.59137-.50761-3.97545-3.42839-2.67753-5.74028.6204-1.12593 1.68172-1.77037 2.59301-2.48962 2.24534-1.80387 3.58881-4.70687 3.50429-7.58171-.0941-2.6542-1.38906-5.48715-3.96469-7.34684l1.08984-1.53138c.23053.23054 1.27117.76793 2.71515 2.75271 3.50969 5.06364 2.27238 11.61246-2.17023 15.17282z" fill="#e2212e"/></g></g><g><path d="m48.69791 27.15217c-.59188-1.20252-1.44685-2.29237-2.48968-3.13787.02821-.21612.07518-.43219.12214-.64825.14873-.66921.32061-.95985.51671-1.22139.93009.66706 1.75685 1.48442 2.44272 2.4051-.24138.77781-.70551 1.60927-.59189 2.60241z"/></g><g><g><path d="m12.05769 44.98372c-.68587.47915-1.48442.87378-2.37694 1.15562l.90193-1.33412-1.46561-.45094c1.53138-.4979 2.69634-1.34347 3.26942-2.38629.61069-1.1274.44159-2.59301-.38517-3.28822-.85719-.72779-2.59852-.76254-4.00225-1.48441-2.0857-1.08044-3.26942-3.65464-2.88425-6.257.34819-2.28612 1.71155-4.20221 3.38215-5.78731l1.27775 1.38108c-1.3579 1.27676-2.51635 2.83693-2.79973 4.67866-.23487 1.54078.34761 3.5231 1.88839 4.32164 1.225.62501 2.97499.56677 4.34986 1.70988 2.03876 1.71152 2.10234 5.5217-1.15555 7.74141z" fill="#e2212e"/></g></g><g><path d="m9.77473 26.53213c-.6295.59188-1.35287 1.37162-1.9166 2.31112-.17161-.70576.0442-1.40329-.37576-2.63997.30064-.35701.64825-.70462 1.01461-1.05223z"/></g><g><path d="m47.88927 33.68063c-.64191 1.65039-1.68322 3.29024-2.7015 4.73977-4.46478 6.42435-8.62888 6.63594-13.11727.10727-1.88395-2.71895-3.67993-5.13905-4.13517-8.45553-.0975-.76068-.03899-1.48242-.02923-2.2431.00976-.75097-.12679-1.50195-.07804-2.26262.12084-2.23551-.40596-5.02489-.5949-5.63706-.1853-.58514-.50716-1.18979-.49739-1.81398.00976-.35108.14631-.71192.42912-.90699.88645-.62376 4.11107.36333 5.84183.53638 1.60491.16174 3.60746.16389 5.00311.09756 2.77954-.11703 5.44199-1.00455 8.09469-1.76523.4584-.12679.96556-.25358 1.37516-.01953.74121.39983.47787 1.45314.46811 2.1456-.03822 3.78041-.18988 6.41156.44864 9.04066.52662 2.18466.31209 4.34972-.50716 6.4368z" fill="#ffca28"/></g><g><path d="m47.44062 34.71441c-.63389 1.29712-1.42385 2.52591-2.25286 3.706-4.46478 6.42435-8.62888 6.63594-13.11727.10727-1.97358-2.8483-3.60879-5.03724-4.13517-8.45553-.0975-.76068-.03899-1.48242-.02923-2.2431.00976-.75097-.12679-1.50195-.07804-2.26262.12084-2.23551-.40596-5.02489-.5949-5.63706-.1853-.58514-.50716-1.18979-.49739-1.81398.00976-.35108.14631-.71192.42912-.90699.01952-.00976.03899-.02923.05851-.02923.9111-.56078 4.10524.39782 5.78331.56561 1.25813.12679 2.52596.15608 3.78403.12679-1.8335 1.40438-3.18913 3.45247-3.64748 5.73456-.80949 4.04737 1.24837 8.47506 4.80805 10.5719 2.83807 1.6579 6.45626 1.79445 9.48932.53638z" fill="#ff9f1c"/></g><g><path d="m29.00815 25.53713c-.1853 1.36539-.75097 2.66251-.84847 4.03761-.02929.39989-.02929.83871-.0878 1.24837-.27217-1.1341-.17918-1.94946-.16578-2.99407.00976-.75097-.12679-1.50195-.07804-2.26262.12084-2.23551-.40596-5.02489-.5949-5.63706-.1853-.58514-.50716-1.18979-.49739-1.81398.00976-.35108.14631-.71192.42912-.90699.01952-.00976.03899-.02923.05851-.02923.31209.84847.60466 1.69695.88752 2.55519.61437 1.87249 1.16057 3.84255.89723 5.80278z"/></g><g><path d="m27.80859 30.07214c-.63395 2.29185-1.0533 4.73977-3.25741 6.10517-.64365.39983-1.33611.82895-2.08708.91675-2.40286.26695-5.03457-1.1438-7.0024-2.56495-2.60372-1.91956-5.17144-3.58902-6.70006-6.60256-.35108-.6924-.53638-1.38486-.7802-2.10654-.23405-.71198-.61442-1.37516-.82901-2.10661-.30233-1.04354-.70216-2.0578-1.22878-3.00377-.39989-.72174-.70222-1.4629-1.19962-2.11637-.37061-.48763-.8777-.95574-1.07277-1.55064-.09756-.33162-.09756-.72169.10726-.99479.64068-.87674 3.96465-1.01892 5.68581-1.43361 1.66792-.40157 3.19796-.9524 4.74954-1.57022 2.58442-1.03378 4.80805-2.75019 7.05115-4.34964 1.71509-1.20062 1.95747-.04395 2.44793 1.38486 1.19876 3.52127 1.93392 6.0736 3.42319 8.37755 2.40962 3.71002 1.80185 7.453.69245 11.61537z" fill="#d0dcee"/></g><g><path d="m28.04265 29.17491c-.07804.30233-.15608.60466-.23405.89723-.63395 2.29185-1.0533 4.73977-3.25741 6.10517-.64365.39983-1.33611.82895-2.08708.91675-2.40286.26695-5.03457-1.1438-7.0024-2.56495-2.60372-1.91956-5.17144-3.58902-6.70006-6.60256-.35108-.6924-.53638-1.38486-.7802-2.10654-.23405-.71198-.61442-1.37516-.82901-2.10661-.30233-1.04354-.70216-2.0578-1.22878-3.00377-.39989-.72174-.70222-1.4629-1.19962-2.11637-.37061-.48763-.8777-.95574-1.07277-1.55064-.09756-.33162-.09756-.72169.10726-.99479.64068-.87674 3.96465-1.01892 5.68581-1.43361.52662-.12679 1.04354-.26334 1.55064-.42912-1.33937 2.18302-1.33603 4.964-.6924 7.44128 1.11176 4.21309 4.27167 7.95814 8.43601 9.22597 3.14038.94602 6.74887.29255 9.30406-1.67744z" fill="#a5c0dd"/></g><g><path d="m24.74625 18.25193c-1.00455.11703-2.04809.45835-2.85752 1.07277-.52927.39415-1.00008.91714-1.74576 1.74576-.07798.08774-.14626.1853-.22429.27304-.05851.07804-.11703.21459-.19506.28287-.07804.07798-.15602.0975-.24382-.07804-.17554-.37061-.24382-.90699-.25358-1.30688 0-2.84568 3.24907-4.50165 5.70534-2.41864.05851.05851.11703.11703.12679.17554.04415.08886-.02698.2332-.3121.25358z"/></g><g><path d="m16.71978 22.83569c-.0097.12679-.1853.17554-.32179.1853-1.00455.11703-2.04809.46811-2.86728 1.08253-.61384.45372-1.50933 1.45501-1.96029 2.0188-.05851.07804-.12679.21453-.20483.28281-.07798.07804-.15602.07804-.23405-.08774-.29773-.61202-.41409-1.84546.10726-2.86728.49739-.9558 1.48242-1.63844 2.55519-1.77499 1.02408-.11703 2.01881.27304 2.7893.91675.05851.05851.11703.11703.12679.1853.0097.01947.0097.03899.0097.05852z"/></g><g><path d="m24.74625 18.25193c-1.00455.11703-2.04809.45835-2.85752 1.07277-.52927.39415-1.00008.91714-1.74576 1.74576-.07798.08774-.14626.1853-.22429.27304-.05851.07804-.11703.21459-.19506.28287-.11703-.33162-.15602-.74121-.15602-1.0533-.04867-2.67417 3.03361-4.44216 5.49075-2.57471.04415.08885-.02698.23319-.3121.25357z" fill="#19345d"/></g><g><path d="m16.71978 22.83569c-.0097.12679-.1853.17554-.32179.1853-1.00455.11703-2.04809.46811-2.86728 1.08253-.61384.45372-1.50933 1.45501-1.96029 2.0188-.05851.07804-.12679.21453-.20483.28281-.97948-3.02758 2.44475-5.83179 5.34449-3.62796.0097.01947.0097.03899.0097.05852z" fill="#19345d"/></g><g><path d="m25.70199 26.04429c-.04897 1.73676-.46091 3.5205-1.3751 5.07139-.93561 1.60801-2.02272 2.23309-4.17416 2.06756-1.08253-.0878-2.13583-.45835-3.10134-.9655-1.86396-1.00152-2.43695-1.79112-2.89651-2.21387-.03905-.02923-.06828-.05851-.0878-.0975-.0975-.09756-.19506-.19506-.30233-.29257-.33162-.30233-.28281-.60472.20483-.52668 1.26867.18144 3.53886-.05321 5.95885-1.14104 1.64158-.7409 3.18877-1.77472 4.56423-2.91603.26746-.21604.78219-.83463 1.06301-.63395.31879.28333.15956 1.2909.14632 1.64819z"/></g><g><path d="m25.70199 26.04429c-.04897 1.73676-.46091 3.5205-1.3751 5.07139-.93561 1.60801-2.02272 2.23309-4.17416 2.06756-1.08253-.0878-2.13583-.45835-3.10134-.9655-1.86396-1.00152-2.43695-1.79112-2.89651-2.21387-.03905-.02923-.06828-.05851-.0878-.0975-.22429-.26334-.13655-.48763.29257-.42912 1.08487.18697 3.49142-.02198 5.95885-1.13134 1.7186-.76876 3.1812-1.7843 4.574-2.91603.25358-.20477.46817-.5071.78026-.64365.01946-.00976.03899-.01952.04875-.01952.07798.40958-.00976 1.01424-.01952 1.27758z" fill="#19345d"/></g><g><path d="m46.88477 26.14185c-.24939.33201-.88346-.42223-2.66251-.35114-.89723.04875-1.85297.32185-2.67221-.05851-.55591-.26328-.94598-.77044-1.20932-1.30682-.46301-.99221-.59889-1.9911.23405-1.29712 1.38634 1.13673 4.0842.24166 5.7248 1.88226.13655.13654.78996.87775.58519 1.13133z"/></g><g><path d="m35.60095 24.42537c-.9908 2.01811-2.46138 1.4425-3.8816 1.36534-1.79176-.07159-2.40884.68878-2.66245.35114-.20483-.25358.44864-.99479.5949-1.13134.98376-1.01342 2.66628-1.10166 3.95957-1.24831.62418-.07804 1.26789-.23411 1.76522-.63395.11703-.0975.22435-.20483.38037-.22429.47355-.06463.0344 1.11337-.15601 1.52141z"/></g><g><path d="m46.88477 26.14185c-.24886.3313-.88744-.42207-2.66251-.35114-.89723.04875-1.85297.32185-2.67221-.05851-.55591-.26328-.94598-.77044-1.20932-1.30682-.06828-.14631-.29257-.67294-.36084-1.07283.02923-.10727.08774-.16578.21453-.14625.14631.01946.26334.12679.38037.22429 1.37744 1.10202 4.07854.27471 5.7248 1.87249.09755.10732.45839.51692.58518.83877z" fill="#19345d"/></g><g><path d="m35.95203 23.35255c-.05851.39989-.28281.92651-.35108 1.07283-.9908 2.01811-2.46138 1.4425-3.8816 1.36534-1.79176-.07159-2.40884.68878-2.66245.35114.12679-.32185.48763-.73145.5949-.83877 1.00752-1.00734 2.67071-1.08886 3.95957-1.24831 1.6412-.17952 1.77701-.80249 2.1456-.84847.11702-.01954.1853.03897.19506.14624z" fill="#19345d"/></g><g><path d="m44.2028 36.54791c0 .01947-.00977.02923-.01953.04875-.01952.07804-.05851.15602-.11703.22429-.29256.38037-.99479.01952-1.36539-.06828-2.20933-.50366-2.63177-.81747-3.74498-.74115-1.5507.10727-2.87704 1.15081-4.39845 1.49213-.39488.08774-.72886.05781-.88752-.31209-.23405-.58514.4584-1.42385.74121-1.84327.86139-1.32648 2.73051-2.9181 4.535-2.97454 1.56701-.03475 3.18005.98777 4.20339 2.17488.39982.44858 1.25806 1.2873 1.0533 1.99928z"/></g><g><path d="m44.18327 36.59666c-.01952.07804-.05851.15602-.11703.22429-.29256.38037-.99479.01952-1.36539-.06828-2.20933-.50366-2.63177-.81747-3.74498-.74115-1.5507.10727-2.87704 1.15081-4.39845 1.49213-.39488.08774-.72886.05781-.88752-.31209.13655-.47787.54615-.97527.74121-1.2776.87014-1.32262 2.73491-2.90859 4.535-2.96478 1.56269-.03476 3.14953.96365 4.20339 2.16506.30232.35114.86799.91675 1.03377 1.48242z" fill="#19345d"/></g><g><path d="m19.26732 16.33318c.13324-.27484-.07808-.51523-.33468-.64416-.51749-.26002-1.26195-.26477-1.93812-.01234-1.67813.62658 1.70997 1.81745 2.2728.6565z" fill="#a5c0dd"/></g><g><path d="m20.49895 14.54072c.07051-.14545-.04132-.27267-.17711-.3409-.53012-.26636-1.69679.04563-1.10384.42001.22147.13984 1.07167.35258 1.28095-.07911z" fill="#a5c0dd"/></g><g><path d="m43.01199 31.20392c.99133.40942.81094-.93503-.01606-1.61724-.22347-.18435-1.04408-.69484-1.15021-.12405-.02877.15474.03817.30985.10805.45088.28515.57541.39333 1.01581 1.05822 1.29041z" fill="#ff9f1c"/></g><g><path d="m45.29336 30.67375c.58548.24181.47894-.55223-.00948-.95515-.13198-.10888-.61663-.41038-.67932-.07327-.01699.09139.02254.183.06382.26629.16841.33985.2323.59995.62498.76213z" fill="#ff9f1c"/></g><g><path d="m12.03888 44.65492c0 .10333.0094.21606.01881.3288-.68587.47915-1.48442.87378-2.37694 1.15562l.90193-1.33412-1.46561-.45094c1.53138-.4979 2.69634-1.34347 3.26942-2.38629.61069-1.1274.44159-2.59301-.38517-3.28822-.85719-.72779-2.59852-.76254-4.00225-1.48441-2.94777-1.52701-4.37218-6.08181-.99586-10.4096.02597 1.14136-.58725 2.1708-.88313 3.25067-.63885 2.35814.44153 5.07328 2.52724 6.35098.97705.60129 2.11386.89253 3.10972 1.4468 1.00526.56373 1.91654 1.52197 1.89779 2.66818-.0282 1.50315-1.61595 2.64936-1.61595 4.15253z" fill="#f72f43"/></g><g><path d="m47.35444 40.04203c-.792.64102-1.71174 1.18699-2.12326 1.93535-.67693 1.18961.04831 2.73415 1.39043 2.97818l-1.14615.62004.78914 1.23073c-.91128-.1785-1.73804-.69521-2.31112-1.40924-.41413-1.24209-.21621-2.88973.68581-4.15254.77039-1.07104 1.93535-1.77565 2.88425-2.67753 1.68167-1.58775 2.70574-3.86136 2.78086-6.17247.08458-2.52724-.89248-5.05447-.77974-7.52534 3.5097 5.06364 2.27239 11.61246-2.17022 15.17282z" fill="#f72f43"/></g><g><path d="m6.03172 21.14629c-.39957-.76407-.8101-1.5582-1.29199-2.24902-.40701-.58229-.98737-.99582-1.21777-1.74609-.1582-.5127-.10059-1.20313.38379-1.59082.63246-.50492 1.69178-.36846 2.41211-.55225 1.13033-.28768 2.35707-.36641 3.48438-.54053.16701-.02431.2002.22138.03906.24707-1.12468.17336-2.35397.25343-3.46094.53564-.71807.18224-1.77096.06655-2.31836.50537-.39063.3125-.43066.9043-.30176 1.32227.21245.69046.7728 1.08466 1.18457 1.67676.4953.71014.90637 1.50783 1.30762 2.27539.03223.06152.00879.13672-.05273.16895-.06075.03196-.13725.00802-.16798-.05274z"/></g><g><path d="m20.22118 37.15654c-.16356-.03911-.09669-.28378.05859-.24316 2.99617.72004 5.99716-1.26688 6.49902-4.30811.02644-.16704.27366-.11978.24609.04102-.52355 3.17652-3.66204 5.26617-6.8037 4.51025z"/></g><g><path d="m47.86375 21.32207c.01431-1.39573.19321-2.90565.05859-4.28809-.04492-.45215-.29004-.83203-.62402-.96826-.50592-.20636-.57499-.06687-6.58301 1.66211-.15325.04909-.23263-.1925-.07031-.24023 5.73121-1.64348 6.10825-1.91487 6.74707-1.65332.41992.1709.72559.63232.77832 1.17529.13775 1.41236-.04226 2.92655-.05664 4.31543-.0024.16821-.25233.16143-.25-.00293z"/></g></g></svg>