<svg height="512" viewBox="0 0 500 500" width="512" xmlns="http://www.w3.org/2000/svg"><g id="圖層_2" data-name="圖層 2"><ellipse cx="255.85" cy="468.2" fill="#78a321" rx="167.84" ry="26.8"/><path d="m272.7 130.3 5.47 54.73h-57.26l3.13-53.54z" fill="#ffdac5"/><path d="m214.72 130.22 30.44-76.61 35.59 75.74s-40.49 5.65-66.03.87z" fill="#c14b89"/><path d="m240.08 187.15s-2.76-47.86 9.46-47.86c0 0 12.9-1.7 10.56 47.86z" fill="#c14b89"/><path d="m251.61 139.85a3.72 3.72 0 0 0 -2.07-.56c-12.22 0-9.46 47.86-9.46 47.86h4c-.35-11.66-.43-42.76 7.53-47.3z" fill="#8d3565"/><path d="m206.92 174.87h16.84v9.84h7.48v-9.84h15.64v9.84h6.81v-9.84h14.17v9.84h7.16v-9.84h16.46v20.32h-83.09z" fill="#f8c6b3"/><path d="m219.39 195.19v95.14h67.24l-5.13-95.14z" fill="#ffdac5"/><path d="m241.59 232.17s-2.75-25.17 9.47-25.17c0 0 12.9-.89 10.56 25.14z" fill="#c14b89"/><path d="m253.13 207.33a6.83 6.83 0 0 0 -2.07-.3c-12.22 0-9.47 25.14-9.47 25.14h4c-.34-6.12-.42-22.46 7.54-24.84z" fill="#8d3565"/><path d="m343.78 295.57-6.48 64.37-162.84 4.2-6.86-68.57z" fill="#f8c6b3"/><path d="m167.6 295.57 34.4-44.52h110.18l31.6 44.52z" fill="#c14b89"/><g fill="#ff8ebb"><path d="m265.87 131 .62-.06.61-.12-20.38-73.89-1.56-3.32-1.57 3.94-17.43 74.06.58.1h.66l17.1-72.61-.38 73h1.25l.39-74z"/><path d="m212.02 251.05h-.66l-30.7 44.27.48.25h.65l30.71-44.27z"/><path d="m228.18 251.05h-.6l-19.09 44.36.52.16h.61l19.09-44.35z"/><path d="m245.6 251.05h-.57l-5.22 44.48.57.04h.56l5.22-44.47z"/><path d="m264.17 251.05h-.57l-.56.05 5.22 44.47h.56l.57-.04z"/><path d="m282.21 251.05h-.6l-.53.17 19.67 44.35h.6l.53-.17z"/><path d="m329.72 295.57h.67l.48-.25-31.76-44.27h-.66l-.48.26z"/></g><path d="m194.45 352.69s-4-37.17 13.76-37.17c0 0 18.74-1.32 15.34 37.17z" fill="#c14b89"/><path d="m211.22 316a9.61 9.61 0 0 0 -3-.44c-17.77 0-13.76 37.17-13.76 37.17h5.78c-.47-9.09-.59-33.24 10.98-36.73z" fill="#8d3565"/><path d="m241.13 352.69s-4-37.17 13.75-37.17c0 0 18.74-1.32 15.35 37.17z" fill="#c14b89"/><path d="m257.9 316a9.66 9.66 0 0 0 -3-.44c-17.76 0-13.75 37.17-13.75 37.17h5.78c-.49-9.09-.61-33.24 10.97-36.73z" fill="#8d3565"/><path d="m286.9 352.69s-4-37.17 13.76-37.17c0 0 18.74-1.32 15.35 37.17z" fill="#c14b89"/><path d="m303.67 316a9.58 9.58 0 0 0 -3-.44c-17.77 0-13.76 37.17-13.76 37.17h5.78c-.47-9.09-.59-33.24 10.98-36.73z" fill="#8d3565"/><path d="m246.74 10.5a24.64 24.64 0 0 0 -23.23-2.45 27.9 27.9 0 0 0 -8.06 5.26c-5 4.55-21.78 16-44.43-8.31 0 0-3.24 12.24 11 20.24a21.27 21.27 0 0 1 -11.32-1s10.57 30.49 42.06 14.5c0 0 17.24-11.5 32.73 6z" fill="#c14b89"/><path d="m248.72 61.07h-5.53s0-11.85 2.77-12.38c.04 0 3.21-.42 2.76 12.38z" fill="#d5cbc8"/><rect fill="#d5cbc8" height="45.93" rx="1.27" width="2.54" x="244.71" y="5"/><path d="m129.94 100.25a17.38 17.38 0 0 0 -16.44-1 19.54 19.54 0 0 0 -5.52 3.94c-3.39 3.36-14.87 11.91-31.53-4.54 0 0-1.93 8.72 8.34 13.93a15 15 0 0 1 -8-.37s8.34 21.16 30 9c0 0 11.81-8.61 23.24 3.26z" fill="#c14b89"/><path d="m115.37 258.42.34-55.98 40.76-1.71 8.49 55.61z" fill="#ffdac5"/><path d="m113.23 266.32 9 135.12 56.06-2.35-11.72-135z" fill="#ffdac5"/><path d="m104.91 267.46 69.48-2.91.64-21.21-13.26.55.64 10.57-6.73.28-.84-10.56-12.68.53 1.24 10.55-6.34.26-.64-10.56-12.87.53.84 10.56-5.94.25-1.04-10.55-13.39.56z" fill="#f8c6b3"/><path d="m108.34 202.75 55.95-2.35-30.73-64.83-5.53.24z" fill="#c14b89"/><path d="m128 135.81 5.53-.24s-.53-12.57-3.26-12.24c0 0-3.11.82-2.27 12.48z" fill="#d5cbc8"/><rect fill="#d5cbc8" height="27.39" rx="1.27" transform="matrix(.999 -.042 .042 .999 -4.53 5.51)" width="2.54" x="128.27" y="97.37"/><path d="m113.66 461.08-8.9-95.63 8.62-.35 1.46 9.94 2.97.04-.47-11.21 11-.23.44 10.64 7.15-.3-.49-11.7 10.11-.58 1.33 10.95 5.6.29-.44-10.47 9.93-.59.43 10.29 3.49-.15-.42-10.11 10.92-.38 6.1 96.67z" fill="#f8c6b3"/><path d="m129.16 135.76-13.97 66.57.52.11.55-.03 13.09-62.41 2.59 61.76 1.06-.05-2.77-66z" fill="#ff8ebb"/><path d="m151.01 200.96.55-.02.51-.16-20.48-65.12-.55.02-.5.16z" fill="#ff8ebb"/><path d="m121.37 277.6s9.21-2 16.14-.68l.27 6.49s-13.33 2.7-16.14.68z" fill="#f8c6b3"/><path d="m129.55 293.14s9.2-2 16.14-.68l.31 6.54s-13.33 2.7-16.14.67z" fill="#f8c6b3"/><path d="m113.58 404.54s9.6-2.06 16.83-.7l.29 6.77s-13.91 2.81-16.84.7z" fill="#ffdac5"/><path d="m118.68 423s9.6-2.06 16.83-.7l.29 6.77s-13.91 2.82-16.84.7z" fill="#ffdac5"/><path d="m381.89 101.89s-9.27-7.91-21-.25c0 0-14.05 15.12-32.11-6.49 0 0-2.75 8.5 7 14.67a15 15 0 0 1 -7.93-1.14s6.28 21.86 29 11.8c0 0 12.57-7.44 22.82 5.46z" fill="#c14b89"/><path d="m393.96 259.43.33-55.98-40.74-2.19-9.15 55.5z" fill="#ffdac5"/><path d="m396 267.37-10.61 134.99-56.03-3.01 13.33-134.85z" fill="#ffdac5"/><path d="m404.31 268.6-69.44-3.74-.39-21.22 13.26.72-.77 10.55 6.73.37.97-10.55 12.66.68-1.36 10.53 6.33.34.77-10.56 12.87.69-.97 10.55 5.94.32 1.16-10.53 13.38.72z" fill="#f8c6b3"/><path d="m401.65 203.85-55.92-3.01 31.52-64.46 5.52.3z" fill="#c14b89"/><path d="m382.77 136.68-5.53-.3s.64-11.82 3.43-12.2c0 0 3.23-.26 2.1 12.5z" fill="#d5cbc8"/><rect fill="#d5cbc8" height="27.39" rx="1.27" transform="matrix(.999 .054 -.054 .999 6.58 -20.35)" width="2.54" x="380.23" y="98.32"/><path d="m393.24 462.1 10.05-95.51-8.61-.46-1.59 9.92-2.97.02.6-11.21-10.99-.36-.57 10.63-7.14-.39.63-11.69-10.1-.7-1.46 10.93-5.61.22.57-10.45-9.93-.71-.55 10.28-3.49-.19.55-10.11-10.92-.51-7.26 96.59z" fill="#f8c6b3"/><path d="m393.74 203.43.55.02.52-.1-13.17-66.73-1.07-.06-3.56 65.96 1.06.06 3.33-61.72z" fill="#ff8ebb"/><path d="m379.75 136.52-.54-.03-21.26 64.87.51.17.55.02 21.25-64.87z" fill="#ff8ebb"/><path d="m353.4 310.48s9.35-1.09 16.13.87l-.35 6.49s-13.53 1.41-16.13-.87z" fill="#f8c6b3"/><path d="m364.36 297.26s9.34-1.1 16.12.86l-.35 6.49s-13.52 1.39-16.13-.87z" fill="#f8c6b3"/><path d="m372.64 408.58s9.48-1.11 16.36.88l-.35 6.58s-13.73 1.44-16.37-.88z" fill="#ffdac5"/><path d="m378.61 386.54s9.49-1.11 16.37.88l-.36 6.58s-13.72 1.44-16.36-.88z" fill="#ffdac5"/><path d="m172.65 470.2-5.05-128h18.84l1.47 12 8.28-.29v-11.76h16.55l2 12 8.28-.86v-11.1h15.56v11.39l8.93-.29v-11.1h20.49v10.24l7.95.29v-10.57h16.88v10.53h8.61v-10.53h17.87v12.25h9.27v-12.25h18.87l-5 123.9s-30.12 10-89.37 10.86c.04 0-61.26-1.13-80.43-6.71z" fill="#fce4d6"/><path d="m214.1 475.29s-16.5-103.9 43.43-106.72c0 0 58.05-12.92 46 105-.02.03-56.88 9.1-89.43 1.72z" fill="#c14b89"/><path d="m257.53 368.57c-59.93 2.82-43.43 106.72-43.43 106.72 12.43 2.82 28.42 3.24 43.43 2.68z" fill="#ec7aa9"/><path d="m257.53 369.49v-.92c-59.93 2.82-43.43 106.72-43.43 106.72.72.17 1.47.32 2.22.47-2.46-21.29-8.94-96.3 41.21-106.27z" fill="#b6548d"/><rect fill="#fce4d6" height="12.35" rx="2.4" width="5.16" x="263.86" y="423.72"/><rect fill="#fce4d6" height="12.35" rx="2.4" width="5.16" x="247.68" y="423.72"/><path d="m314.42 375.6s14.08-2.09 24.51 0v8.51s-20.39 2.81-24.51 0z" fill="#f8c6b3"/><path d="m172.57 400.71s14.08-2.09 24.51 0v8.51s-20.38 2.81-24.51 0z" fill="#f8c6b3"/><path d="m179.12 413.52s14.08-2.09 24.52 0v8.48s-20.39 2.81-24.52 0z" fill="#f8c6b3"/></g></svg>