<svg id="Fighting" height="512" viewBox="0 0 512 512" width="512" xmlns="http://www.w3.org/2000/svg"><path d="m316.18 36h-147.71a16.11 16.11 0 0 0 -15.14 10.86 63 63 0 0 1 -59.33 41.92h-.19a16.1 16.1 0 0 0 -16.25 17.31l11.15 140.12c4.78 60 41.8 112.59 97.05 141.86l51.24 27.14a16 16 0 0 0 15.2-.1l49.1-26.84c53.89-29.46 89.8-81.31 94.5-140.23l11.32-141.95a16.1 16.1 0 0 0 -16.25-17.31h-.19a63 63 0 0 1 -59.35-41.92 16.11 16.11 0 0 0 -15.15-10.86z" fill="#6d5fde"/><path d="m194.34 372c-50.48-26.72-83.14-74.24-87.34-127.09l-11-137.66a81.46 81.46 0 0 0 74.11-52.76h144.42a81.46 81.46 0 0 0 74.11 52.76l-11.13 139.49c-4.13 51.8-35.91 98.75-85 125.6l-48 26.25z" fill="#d7981a"/><path d="m268.83 173.14 58.68 9.78-43.46 40.63 8.83 58.83-52.07-28.77-53.22 26.58 11.28-58.42-41.73-42.4 59.04-7.33 27.44-52.78z" fill="#917eec"/><path d="m186 392.62-50.4-48.62 242.34-270.56 78.08-13q-4.29 41.42-8.32 80.29z" fill="#86ebf9"/><g fill="#cc3745"><rect height="20.78" rx="7.67" transform="matrix(.72 .694 -.694 .72 300.93 -8.11)" width="126.47" x="97.27" y="358.22"/><path d="m146.89 401.3-18-17.33c-7.62-7.35-11-16.59-7.88-21.35l14.99-22.62 54 52-22.46 16c-4.44 3.26-13.37.32-20.65-6.7z"/><circle cx="117.65" cy="326.43" r="17.32"/><circle cx="202.41" cy="408.2" r="17.32"/><path d="m97.8 453.93-20.31-19.59 59.55-73.94 32.51 31.37z"/><circle cx="82.01" cy="449.97" r="26.03"/></g><path d="m447.75 70.89-7.43 65.34-246.79 240.17 1-39.63z" fill="#40c2d6"/><path d="m113.23 341.2c-7.57-2.89-11.77-10.74-10.12-17.92 2-8.5 11.65-14 19.4-11 5.34 2 9 7.8 9.1 14.43z" fill="#e73f46"/><path d="m120.04 360.19h76.96v12.83h-76.96z" fill="#e73f46" transform="matrix(.72 .694 -.694 .72 298.98 -7.29)"/><path d="m189.62 402.14a15.2 15.2 0 0 1 14.22-8.88c7.22.4 13.5 6.66 14 14.77z" fill="#e73f46"/><path d="m130.72 355.56s-12.26 11.09-2.89 21.7l-39.34 51.19s-10-3.29-21.16 7.36-3.91 37.82 20 36.43c0 0-19.17-17.87 8.68-32.74l44.55-50.24s-5.41-11.81 2.22-23z" fill="#e73f46"/><path d="m447.67 67.88-68.17 12.09-121.47 139.35 134.17-129.52z" fill="#fff"/><path d="m170.12 54.49s-17.28 50.12-74.12 52.76l9 112.07 6.73-100.06s57.5-7.51 58.39-64.77z" fill="#fff"/><path d="m243.61 119.26-27.43 52.74-59 7.33 41.73 42.4-22.51-37.54 49.73-1.2q8.75-31.87 17.48-63.73z" fill="#fff"/><path d="m177.6 60.46s-2.19 53-57.72 62.61c0 0-8 102.46-2.7 134.22s25.63 63.83 25.63 63.83l34.79-43.46 12-51.12-42-50.74 66.51-11.39 29.46-57.52v-46.43z" fill="#efbd42"/><path d="m250.1 60.46v48.83l21 57.72 15 2 56.9-67.51s-28.76-16.58-35.35-41z" fill="#efbd42"/><path d="m373.34 219.32-161.79 157.08 30.78 16.22s72.13-28.5 100.65-71.5 30.36-101.8 30.36-101.8z" fill="#efbd42"/></svg>