<svg id="Layer_1" viewBox="0 0 64 64" xmlns="http://www.w3.org/2000/svg" data-name="Layer 1"><ellipse cx="38.064" cy="28.968" rx="2.548" ry="5.258"/><path d="m16.099 41.188c-2.678 2.764-5.447 5.62-6.817 9.108-.558 1.422-.653 2.592-.282 3.477.204.486.667.918 1.18 1.098.248.089.612.152.945-.029.475-.258.815-.896 1.177-1.573.533-.999 1.196-2.243 2.627-2.539.186-.038.368-.057.547-.057 1.567 0 2.85 1.396 3.205 2.874.236.98.164 1.93.094 2.848-.026.351-.054.701-.06 1.051-.01.546.053 1.871.853 2.372.765.479 1.95-.04 2.608-.796.583-.669.969-1.524 1.377-2.43.182-.404.365-.809.566-1.201.986-1.929 2.316-3.09 3.848-3.357 1.421-.247 2.96.368 3.816 1.537.243.331.431.704.558 1.107.224.711.732 1.299 1.36 1.57.368.16.942.283 1.596-.029.999-.479 1.742-1.248 2.094-2.165.106-.279.189-.575.274-.87.264-.924.562-1.97 1.467-2.697 1.462-1.177 3.536-.679 4.744.386.907.799 1.442 1.854 1.807 2.685.11.251.345.372.528.4.13.02.312.013.451-.145.357-.412.533-1.026.718-1.678l.093-.322c.273-.929.723-2.077 1.776-2.719 1.084-.662 2.279-.499 3.333-.355.792.108 1.542.21 2.02-.078.419-.252.67-.888.613-1.546-.067-.76-.463-1.523-.881-2.234-.528-.9-1.13-1.794-1.711-2.659-.413-.614-.826-1.229-1.221-1.854-1.069-1.689-1.634-3.649-1.634-5.668v-16.945c0-7.585-6.17-13.755-13.755-13.755s-13.755 6.17-13.755 13.755v10.038c.02.173.522 6.446-5.244 12.449l-.914.945zm23.317-24.058 6.924-5.308c.248-.188.569-.252.87-.171s.547.299.665.588c.052.127 1.254 3.138.196 5.619-.503 1.181-1.41 2.038-2.695 2.548-.667.265-1.303.377-1.896.377-2.079 0-3.64-1.369-4.277-2.29-.304-.438-.209-1.038.214-1.363zm3.197 11.838c0 4.069-1.998 7.258-4.548 7.258s-4.548-3.188-4.548-7.258 1.998-7.258 4.548-7.258 4.548 3.188 4.548 7.258zm-14.756-16.729c.118-.289.363-.507.665-.588s.623-.018.87.171l6.924 5.308c.423.325.518.925.214 1.363-.638.921-2.199 2.29-4.277 2.29-.593 0-1.229-.112-1.897-.377-1.285-.51-2.191-1.367-2.695-2.548-1.058-2.481.145-5.492.196-5.619zm-4.274 16.664c.036-.551.522-.979 1.062-.932.551.035.969.51.935 1.06 0 0-.021.348-.101.939-.068.502-.497.866-.99.866-.044 0-.089-.003-.135-.009-.547-.074-.932-.577-.858-1.125.066-.489.086-.782.087-.8zm-3.661 9.964c1.203-1.536 2.153-3.456 2.824-5.707.159-.529.713-.83 1.245-.672.529.157.83.715.672 1.244-.744 2.491-1.809 4.634-3.166 6.367-.197.252-.491.384-.788.384-.216 0-.433-.069-.616-.213-.435-.34-.511-.969-.171-1.403z"/><path d="m31.093 18.547c1.407.559 2.488.021 3.13-.501l-4.877-3.738c-.155.819-.224 1.884.157 2.772.291.678.812 1.158 1.59 1.467z"/><path d="m44.638 18.547c.779-.309 1.3-.789 1.591-1.467.381-.889.312-1.953.157-2.772l-4.877 3.738c.645.525 1.723 1.06 3.129.501z"/></svg>