<?xml version="1.0" encoding="UTF-8"?>
<!-- Generator: Adobe Illustrator 26.0.3, SVG Export Plug-In . SVG Version: 6.00 Build 0)  -->
<svg xmlns="http://www.w3.org/2000/svg" xmlns:xlink="http://www.w3.org/1999/xlink" version="1.1" id="Capa_1" x="0px" y="0px" viewBox="0 0 512 512" style="enable-background:new 0 0 512 512;" xml:space="preserve" width="512" height="512">
<g>
	<path style="fill-rule:evenodd;clip-rule:evenodd;fill:#FD6085;" d="M406.948,384.084c-1.342,12.965-11.836,24.8-23.452,26.179   c-105.996,12.487-213.094,12.487-319.093,0c-11.616-1.379-22.113-13.215-23.453-26.179c-6.494-64.17-12.774-127.634-18.864-190.237   l206.9-24.873l196.813,25.001C419.715,256.537,413.439,319.957,406.948,384.084z"/>
	<g>
		<path style="fill-rule:evenodd;clip-rule:evenodd;fill:#FFA4AC;" d="M377.99,332.809c-29.794,1.875-59.619,3.161-89.448,3.857    c-0.552-19.569-1.101-39.139-1.651-58.704c28.908-0.681,57.801-1.927,86.67-3.742C375.04,293.754,376.514,313.284,377.99,332.809z    "/>
		<path style="fill-rule:evenodd;clip-rule:evenodd;fill:#FFA4AC;" d="M182.162,336.665c-34.077-0.696-68.141-1.977-102.175-3.857    c1.688-19.525,3.376-39.054,5.064-58.589c32.972,1.815,65.977,3.066,98.994,3.747C183.421,297.531,182.79,317.096,182.162,336.665    z"/>
		<path style="fill-rule:evenodd;clip-rule:evenodd;fill:#FFFFFF;" d="M274.733,307.585c0.511,20.523-16.09,37.522-37.086,37.537    c-20.995,0.025-37.631-16.937-37.171-37.467c0.464-20.551,17.061-36.907,37.087-36.932    C257.581,270.708,274.224,287.027,274.733,307.585z"/>
		<path style="fill-rule:evenodd;clip-rule:evenodd;fill:#074785;" d="M222.127,285.237c-0.111,15.097-0.225,30.192-0.333,45.299    c13.772-7.471,27.372-15.062,40.81-22.778C248.942,300.374,235.453,292.871,222.127,285.237z"/>
	</g>
	<path style="fill-rule:evenodd;clip-rule:evenodd;fill:#FFA4AC;" d="M405.528,381.856c-117.513,9.248-235.563,9.248-353.08,0   c2.31-2.17,4.619-4.347,6.927-6.517c112.904,8.888,226.328,8.888,339.23,0C400.909,377.509,403.219,379.686,405.528,381.856z"/>
	<path style="fill-rule:evenodd;clip-rule:evenodd;fill:#FFA4AC;" d="M405.528,359.439c-117.513,9.255-235.563,9.255-353.08,0   c2.31-2.17,4.619-4.343,6.927-6.522c112.904,8.887,226.328,8.887,339.23,0C400.909,355.096,403.219,357.269,405.528,359.439z"/>
	<path style="fill:#074785;" d="M408.899,364.762c1.117-11.057,2.221-22.09,3.325-33.1c-13.708-1.499-27.278-3.501-40.586-6.009   c-8.73-1.647-17.328-3.564-25.857-5.506c-7.702-1.809-19.441-7.271-27.845-6.35c-0.195,0.03-0.195,0.025-0.195,0.025   c-0.19,0.073-1.335-0.731-2.542-1.775c0,0,0,0-1.384-0.636c-5.778-2.613-5.775-2.583-5.775-2.593   c-0.934,3.391-2.216,9.098-2.855,12.687c0,0,0-0.005-0.478,3.269c-4.365,30.006-7.978,61.114-10.162,93.022   c29.709-1.534,59.376-4.047,88.951-7.534c0.074-0.005,0.148-0.023,0.216-0.033c10.105-3.364,19.209-13.838,21.372-25.191   C406.363,378.267,407.63,371.515,408.899,364.762z"/>
	<path style="fill-rule:evenodd;clip-rule:evenodd;fill:#7BEFE5;" d="M426.17,190.15c1.091-11.235,2.181-22.458,3.262-33.638   c1.245-12.567-8.665-22.736-22.117-22.768c-85.908,0-171.81,0-257.718,0L19.742,147.056c-1.129,2.878-1.607,6.074-1.274,9.456   c1.015,10.504,2.037,21.034,3.061,31.586c28.543,3.684,84.082,8.184,191.495,10.802C339.596,202.003,399.124,195.551,426.17,190.15   z"/>
	<path style="fill-rule:evenodd;clip-rule:evenodd;fill:#29AEFD;" d="M425.798,193.974c0.24-2.47,0.481-4.943,0.72-7.403   c-134.315,10.647-269.754,10.875-405.082,0.551c0.216,2.235,0.439,4.488,0.653,6.725   C156.47,203.908,291.414,203.956,425.798,193.974z"/>
	<path style="fill-rule:evenodd;clip-rule:evenodd;fill:#7BEFE5;" d="M419.899,42.17c-3.829-8.43-12.35-15.78-20.786-15.345   c-120.765,6.53-245.307,38.734-371.124,69.621c-8.806,2.19-15.247,10.84-14.287,19.289c1.559,13.63,3.155,27.383,4.783,41.259   c0,0,390.74-53.853,408.033-77.209C433.425,70.455,428.107,60.251,419.899,42.17z"/>
	<polygon style="fill-rule:evenodd;clip-rule:evenodd;fill:#29AEFD;" points="146.5,194.325 177.006,194.325 148.452,133.744    117.944,133.744  "/>
	<polygon style="fill-rule:evenodd;clip-rule:evenodd;fill:#29AEFD;" points="223.322,194.798 253.828,194.798 225.049,133.744    194.545,133.744  "/>
	<polygon style="fill-rule:evenodd;clip-rule:evenodd;fill:#29AEFD;" points="300.03,194.798 330.541,194.798 301.761,133.744    271.252,133.744  "/>
	<polygon style="fill-rule:evenodd;clip-rule:evenodd;fill:#29AEFD;" points="347.965,133.744 376.745,194.798 407.248,194.798    378.468,133.744  "/>
	<path style="fill-rule:evenodd;clip-rule:evenodd;fill:#29AEFD;" d="M367.883,29.073c-0.272,0.025-0.538,0.045-0.813,0.067   l-36.497,77.658c11.95-2.36,23.21-4.688,33.53-6.965l35.011-73.007c-2.17,0.123-4.346,0.265-6.517,0.398L367.883,29.073z"/>
	<path style="fill-rule:evenodd;clip-rule:evenodd;fill:#29AEFD;" d="M255.572,120.516c11.387-1.962,22.633-3.937,33.598-5.919   l39.446-81.284c-11.323,1.434-22.666,3.036-34.04,4.8L255.572,120.516z"/>
	<path style="fill-rule:evenodd;clip-rule:evenodd;fill:#29AEFD;" d="M184.106,132.307c10.891-1.734,21.936-3.514,33-5.339   l38.461-82.255c-11.333,2.07-22.687,4.26-34.067,6.562L184.106,132.307z"/>
	<polygon style="fill-rule:evenodd;clip-rule:evenodd;fill:#29AEFD;" points="179.544,60.181 157.103,65.239 147.479,67.466    117.944,133.744 130.202,135.295 138.299,133.801 146.665,138.296  "/>
	<path style="fill-rule:evenodd;clip-rule:evenodd;fill:#074785;" d="M45.273,177.058l-3.676-55.948c0,0,64.724-8.938,55.504,57.88   L45.273,177.058z"/>
	<path style="fill-rule:evenodd;clip-rule:evenodd;fill:#7BEFE5;" d="M57.593,132.26c-0.096,2.593-2.27,4.613-4.863,4.515   c-2.59-0.1-4.611-2.278-4.515-4.865c0.1-2.593,2.275-4.605,4.868-4.515C55.668,127.497,57.695,129.672,57.593,132.26z"/>
	<path style="fill-rule:evenodd;clip-rule:evenodd;fill:#7BEFE5;" d="M91.518,169.151c-0.096,2.588-2.278,4.608-4.863,4.51   c-2.588-0.095-4.609-2.273-4.515-4.861c0.094-2.588,2.273-4.61,4.865-4.515C89.594,164.378,91.615,166.558,91.518,169.151z"/>
	<path style="fill-rule:evenodd;clip-rule:evenodd;fill:#FFFFFF;" d="M30.412,117.693c1.424-5.969,12.116-7.256,17.083-8.237   c12.296-2.43,24.474-5.511,36.832-7.611c5.644-0.956,3.973-9.671-1.658-8.715c-13.209,2.237-26.303,5.354-39.401,8.137   c-7.655,1.627-19.109,4.61-21.216,13.453C20.731,120.246,29.085,123.252,30.412,117.693z"/>
	<path style="fill-rule:evenodd;clip-rule:evenodd;fill:#FFFFFF;" d="M102.34,97.688c0.666-0.185,1.334-0.358,2.014-0.495   c0.104-0.005,0.205-0.02,0.309-0.02c2.42,0.038,4.426-2.095,4.406-4.467c-0.017-2.463-2.059-4.367-4.469-4.415   c-1.574-0.025-3.176,0.433-4.673,0.866c-2.331,0.651-3.719,3.146-3.061,5.476C97.528,96.96,100.017,98.349,102.34,97.688z"/>
	<path style="fill-rule:evenodd;clip-rule:evenodd;fill:#FFFFFF;" d="M49.267,254.503c-0.481-6.242-10.163-5.541-9.68,0.704   c0.912,11.943,2.645,23.814,3.559,35.753c0.481,6.242,10.163,5.546,9.682-0.698C51.913,278.319,50.183,266.446,49.267,254.503z"/>
	<path style="fill-rule:evenodd;clip-rule:evenodd;fill:#FFFFFF;" d="M51.379,303.125c-2.554-0.168-5.105,1.877-5.171,4.52   c-0.045,1.85,0.25,3.677,0.616,5.486c0.532,2.593,3.142,4.312,5.733,3.782c2.591-0.538,4.309-3.141,3.781-5.729   c-0.175-0.849-0.323-1.699-0.431-2.563c-0.002-0.103-0.01-0.213-0.01-0.32C55.966,305.658,54.105,303.313,51.379,303.125z"/>
	<path style="fill-rule:evenodd;clip-rule:evenodd;fill:#FFFFFF;" d="M41.155,227.84c-2.553-0.168-5.105,1.872-5.171,4.525   c-0.046,1.842,0.249,3.677,0.613,5.476c0.531,2.593,3.139,4.317,5.731,3.789c2.592-0.536,4.312-3.139,3.781-5.731   c-0.173-0.849-0.323-1.702-0.424-2.558c-0.008-0.105-0.015-0.223-0.01-0.335C45.737,230.368,43.876,228.025,41.155,227.84z"/>
	<g>
		<g>
			<path style="fill:#074785;" d="M216.189,242.582c-0.025,9.2,3.714,18.546,14.204,18.594c10.85,0.04,12.629-10.267,12.524-18.879     c-0.047-3.854-6.027-3.789-5.987,0.065c0.061,4.751,0.552,11.918-5.603,12.757c-7.583,1.039-9.172-6.69-9.152-12.599     C222.186,238.66,216.201,238.737,216.189,242.582L216.189,242.582z"/>
		</g>
		<path style="fill:#FFFFFF;" d="M223.97,193.817c-2.635,26.017-25.872,44.976-51.891,42.343    c-26.024-2.633-44.973-25.869-42.339-51.886c2.631-26.022,25.864-44.981,51.885-42.343    C207.649,144.569,226.607,167.795,223.97,193.817z"/>
		<path style="fill:#074785;" d="M215.425,192.953c-1.95,19.239-19.126,33.255-38.368,31.303    c-19.239-1.947-33.254-19.127-31.304-38.361c1.945-19.249,19.127-33.257,38.368-31.31    C203.358,156.537,217.379,173.714,215.425,192.953z"/>
		<path style="fill:#FFA4AC;" d="M174.263,249.815c-0.594,5.837-7.821,9.901-16.142,9.055c-8.318-0.848-14.585-6.262-13.995-12.111    c0.587-5.847,7.816-9.904,16.137-9.055C168.584,238.545,174.856,243.968,174.263,249.815z"/>
		<path style="fill:#FFA4AC;" d="M313.93,245.097c0.653,5.994-5.765,11.598-14.332,12.529c-8.565,0.923-16.034-3.179-16.683-9.178    c-0.646-5.984,5.769-11.598,14.336-12.519C305.819,235.001,313.285,239.103,313.93,245.097z"/>
		<path style="fill:#FFFFFF;" d="M210.001,177.408c-3.518-5.847-7.974-10.757-14.238-13.665c-2.815-1.312-4.528,3.188-1.738,4.48    c5.033,2.343,8.777,6.487,11.602,11.185C207.2,182.026,211.6,180.069,210.001,177.408z"/>
		<path style="fill:#FFFFFF;" d="M188.403,160.096c-0.732-0.228-1.452-0.478-2.184-0.706c-1.25-0.385-2.616,0.093-3.114,1.379    c-0.448,1.154,0.124,2.718,1.37,3.111c0.735,0.223,1.459,0.473,2.186,0.696c1.253,0.398,2.618-0.08,3.111-1.367    C190.226,162.046,189.657,160.484,188.403,160.096z"/>
		<g>
			<path style="fill:#FFFFFF;" d="M212.665,186.053c-0.442-1.236-2.076-1.692-3.185-1.184c-1.266,0.578-1.622,1.942-1.193,3.176     c0.003-0.03,0.005-0.05,0.005-0.085c-0.06,1.311,0.789,2.495,2.146,2.638c1.25,0.122,2.575-0.849,2.636-2.155     C213.115,187.577,212.955,186.866,212.665,186.053z"/>
			<path style="fill:#FFFFFF;" d="M208.272,188.035c0.003,0.035,0.01,0.077,0.013,0.118c0.005-0.035,0.005-0.073,0.005-0.108     C208.056,187.389,208.238,187.867,208.272,188.035z"/>
			<path style="fill:#FFFFFF;" d="M208.285,188.153C208.272,188.503,208.298,188.33,208.285,188.153L208.285,188.153z"/>
			<path style="fill:#FFFFFF;" d="M208.29,188.055c0-0.01,0-0.01-0.003-0.01h0.003C208.29,188.045,208.29,188.045,208.29,188.055z"/>
		</g>
		<path style="fill:#FFFFFF;" d="M326.976,194.605c-2.635,26.017-25.867,44.976-51.886,42.343    c-26.021-2.64-44.978-25.874-42.342-51.886c2.633-26.027,25.867-44.986,51.885-42.343    C310.656,145.352,329.616,168.588,326.976,194.605z"/>
		<path style="fill:#074785;" d="M311.584,193.934c-1.947,19.234-19.13,33.255-38.372,31.303    c-19.239-1.957-33.254-19.127-31.304-38.366c1.947-19.239,19.13-33.262,38.367-31.305    C299.517,157.508,313.529,174.69,311.584,193.934z"/>
		<path style="fill:#FFFFFF;" d="M306.152,178.392c-3.511-5.849-7.967-10.76-14.231-13.668c-2.819-1.311-4.53,3.184-1.739,4.48    c5.033,2.343,8.776,6.487,11.601,11.185C303.352,183.007,307.752,181.05,306.152,178.392z"/>
		<path style="fill:#FFFFFF;" d="M284.556,161.08c-0.727-0.23-1.452-0.478-2.185-0.708c-1.245-0.385-2.61,0.088-3.111,1.369    c-0.448,1.159,0.122,2.728,1.375,3.116c0.727,0.223,1.452,0.478,2.184,0.701c1.249,0.393,2.613-0.085,3.112-1.367    C286.373,163.032,285.814,161.465,284.556,161.08z"/>
		<g>
			<path style="fill:#FFFFFF;" d="M308.823,187.034c-0.44-1.236-2.077-1.692-3.188-1.189c-1.265,0.583-1.622,1.947-1.189,3.176     c0-0.025,0.005-0.045,0-0.08c-0.056,1.311,0.79,2.5,2.15,2.633c1.249,0.128,2.578-0.843,2.639-2.155     C309.27,188.561,309.11,187.842,308.823,187.034z"/>
			<path style="fill:#FFFFFF;" d="M304.427,189.016c0.007,0.037,0.007,0.078,0.013,0.113c0-0.03,0-0.065,0.006-0.103     C304.217,188.37,304.39,188.849,304.427,189.016z"/>
			<path style="fill:#FFFFFF;" d="M304.44,189.129C304.43,189.479,304.451,189.311,304.44,189.129L304.44,189.129z"/>
			<path style="fill:#FFFFFF;" d="M304.451,189.031c-0.005-0.005-0.005-0.005-0.005-0.01v0.005     C304.446,189.026,304.446,189.026,304.451,189.031z"/>
		</g>
	</g>
	<path style="fill-rule:evenodd;clip-rule:evenodd;fill:#F9D555;" d="M310.572,322.429c0.005-0.949-0.533-2.002-1.065-2.806   c-12.022-18.248-6.721-42.57,11.671-53.005c1.666-0.941,1.666-2.195,1.801-3.732c1.52-17.229,12.444-30.124,27.521-32.406   c5.333-0.798,10.453,0.055,15.304,2.505c1.059,0.541,1.856,0.778,2.935-0.375c6.32-6.665,13.817-9.636,22.289-9.543   c1.099,0.02,2.383-0.428,3.313-1.124c13.368-10.086,30.441-7.556,40.381,6.112c0.907,1.239,1.533,2.062,3.323,1.489   c13.79-4.403,27.035,1.622,34.301,15.538c0.902,1.734,1.93,2.495,3.686,2.898c13.941,3.136,23.195,15.37,24.184,31.518   c0.089,1.449,0.719,3.208,1.632,4.145c14.349,14.712,13.366,39.667-2.151,53.796c-0.858,0.778-1.667,2.05-1.921,3.234"/>
	<g>
		<path style="fill:#F1854F;" d="M498.538,358.097c2.316-9.095,3.872-16.586,3.872-16.591c1.249-5.882,1.561-10.88,0.796-11.122    c0,0,0,0-0.648,0.152c-20.299,4.61-46.577,1.845-68.306,0.223c-20.553-1.484-41.135-4.087-61.376-7.779    c-9.043-1.647-18.004-3.559-26.907-5.511c-8.053-1.805-20.836-7.266-29.069-6.347c-0.187,0.033-0.187,0.028-0.187,0.028    c-0.178,0.07-1.477-0.733-2.889-1.775c0,0,0,0-1.5-0.636c-6.285-2.613-6.277-2.583-6.277-2.593    c-0.277,3.391-0.464,9.095-0.419,12.685c0.002,0,0,0,0.15,3.258c2.065,44.162,6.193,90.68,14.409,138.662    c0.18,1.066,0.506,1.754,1.589,2.38c1.762,1.006,3.389,2.283,5.171,3.216c36.411,19.707,86.769,24.558,126.532,11.706    c1.642-0.513,2.522-1.281,3.209-2.598c3.505-6.748,6.49-13.585,9.289-20.431C479.431,422.204,490.471,389.91,498.538,358.097z"/>
	</g>
	<path style="fill-rule:evenodd;clip-rule:evenodd;fill:#074785;" d="M511.516,326.691c0.023,5.028-4.38,9.223-9.765,9.313   c-67.584,1.094-131.36-5.897-199.353-21.104c-5.407-1.211-8.856-6.24-7.601-11.165l0,0c1.249-4.923,6.587-7.896,11.83-6.718   c66.221,14.939,129.053,21.782,195.279,20.761C507.164,317.701,511.492,321.663,511.516,326.691L511.516,326.691z"/>
	<g>
		<path style="fill:#F1854F;" d="M397.636,270.128c-0.299-1.87-1.202-3.63-2.578-4.948l-0.007-0.005l-0.084-0.075l-0.949-0.763    c-4.044-2.657-9.367-2.863-13.899-1.424c-0.179-0.643-0.499-1.23-0.815-1.82c-2.871-4.387-8.695-6.031-13.692-5.261l-0.015,0.005    c-7.091,1.158-9.291,5.898-10.174,12.429c-5.563-0.731-9.38,4.984-8.503,10.041c0.273,2.756,2.053,6.027,5.168,6.017    c0.257-0.01,0.505-0.053,0.764-0.073c-0.254-0.035-0.513-0.055-0.757-0.11c-0.457-0.133-0.92-0.279-1.304-0.571    c-3.927-2.85-1.907-12.073,3.293-12.096c1.273-0.029,2.865,0.659,4.112,0.956c1.041-2.953,1.514-6.265,2.871-9.08    c0.15-0.223,0.274-0.463,0.422-0.676c1.12-1.63,3.101-2.326,4.998-2.651c2.767-0.365,5.766,0.287,7.957,2.05    c0.194,0.178,0.359,0.361,0.547,0.528l0.443,0.566l0.33,0.616c0.065,0.213,0.162,0.415,0.223,0.641    c0.026,0.233,0.095,0.451,0.122,0.686c-0.021,0.414,0.221,4.315,0.239,4.821c1.748-1.159,4.186-3.232,6.271-3.722    c3.356-0.974,7.392-1.041,10.405,0.956l0.702,0.583c0.152,0.183,0.313,0.355,0.488,0.541l0.485,0.686    c0.406,0.665,0.784,1.652,0.959,2.41c0.086,0.435,0.168,1.316,0.165,1.759c-0.025,0.806-0.237,1.88-0.527,2.633l-0.409,0.819    c-0.662,1.109-1.71,1.994-2.872,2.558l1.018-0.275c1.003-0.381,1.911-0.974,2.649-1.759l0.663-0.839    C397.529,274.52,397.93,272.209,397.636,270.128z"/>
		<path style="fill:#F1854F;" d="M476.446,296.18c-0.376-7.239-7.821-12.73-14.376-14.379c3.397-7.021-2.22-14.911-8.57-17.913    l-0.01-0.01c-8.668-4.201-14.636-0.399-21.123,5.386c-9.878-9.654-26.025,8.229-16.514,13.828    c-5.354-4.531,1.568-11.816,6.449-13.315c4.634-1.468,7.021,0.756,9.523,4.315c1.93-1.298,4.196-2.914,6.046-4.325    c3.429-2.816,7.924-4.672,12.218-2.725c4.262,1.626,8.066,5.517,8.498,10.194l-0.033,1.016c-0.231,2.439-2.851,4.822-4.185,6.743    c0.917,0.084,4.324,0.251,5.163,0.31c3.636,0.378,7.106,2.083,9.94,4.362c2.033,1.72,3.837,4.105,4.174,6.813    c0.304,3.513-1.731,7.015-4.56,9c-2.146,1.53-4.952,2.09-7.532,1.549C468.496,309.9,476.603,303.429,476.446,296.18z     M451.5,267.648C451.5,267.652,451.5,267.652,451.5,267.648L451.5,267.648z"/>
	</g>
	<path style="fill:#074785;" d="M423.508,435.129c-0.811-0.798-2.443-11.836-3.927-11.743c-1.485,0.09-2.779,11.042-3.472,11.758   c-1.388,1.444-11.569,2.473-11.483,3.875c0.079,1.399,10.074,2.065,11.49,3.434c0.787,0.756,2.44,11.831,3.927,11.743   c1.483-0.085,2.751-11.007,3.473-11.748c1.348-1.404,11.601-2.478,11.522-3.889C434.951,437.149,424.868,436.446,423.508,435.129z"/>
	<path style="fill:#074785;" d="M340.882,364.697c-0.818-0.788-2.45-11.826-3.929-11.736c-1.488,0.088-2.779,11.042-3.47,11.756   c-1.397,1.449-11.572,2.475-11.493,3.879c0.084,1.399,10.079,2.06,11.498,3.426c0.785,0.763,2.44,11.836,3.924,11.746   c1.483-0.087,2.756-11.002,3.473-11.751c1.345-1.399,11.603-2.475,11.522-3.884C352.323,366.724,342.237,366.019,340.882,364.697z"/>
	<path style="fill:#FFFFFF;" d="M359.029,429.307c-0.811-0.786-2.447-11.826-3.928-11.743c-1.482,0.095-2.776,11.047-3.47,11.763   c-1.39,1.449-11.574,2.473-11.493,3.874c0.089,1.399,10.085,2.065,11.495,3.434c0.786,0.756,2.445,11.836,3.931,11.743   c1.482-0.085,2.751-11.002,3.475-11.753c1.341-1.394,11.599-2.473,11.518-3.879C370.473,431.337,360.392,430.631,359.029,429.307z"/>
	<path style="fill:#FFFFFF;" d="M392.598,355.982c-0.816-0.788-2.448-11.826-3.931-11.741c-1.484,0.088-2.778,11.04-3.47,11.766   c-1.393,1.444-11.572,2.465-11.49,3.869c0.086,1.404,10.083,2.065,11.496,3.431c0.788,0.763,2.447,11.831,3.931,11.751   c1.482-0.088,2.748-11.007,3.475-11.756c1.343-1.402,11.597-2.48,11.516-3.889C404.042,358.01,393.958,357.304,392.598,355.982z"/>
	<path style="fill:#FFFFFF;" d="M466.146,361.443c-0.816-0.793-2.451-11.838-3.933-11.746c-1.479,0.093-2.77,11.037-3.468,11.761   c-1.393,1.444-11.569,2.47-11.49,3.879c0.086,1.392,10.085,2.06,11.496,3.427c0.788,0.763,2.445,11.831,3.928,11.746   c1.486-0.093,2.753-11.005,3.478-11.751c1.341-1.399,11.597-2.475,11.516-3.889C477.59,363.466,467.503,362.76,466.146,361.443z"/>
	<path style="fill:#FFFFFF;" d="M385.764,458.202c-4.629,0-4.629,7.173,0,7.173C390.394,465.375,390.394,458.202,385.764,458.202z"/>
	<path style="fill:#FFFFFF;" d="M438.258,398.603c-4.63,0-4.63,7.176,0,7.176C442.887,405.778,442.887,398.603,438.258,398.603z"/>
	<path style="fill:#FFFFFF;" d="M426.518,352.468c-4.627,0-4.627,7.176,0,7.176C431.148,359.644,431.148,352.468,426.518,352.468z"/>
	<path style="fill:#FFFFFF;" d="M392.386,401.959c-4.627,0-4.627,7.176,0,7.176S397.013,401.959,392.386,401.959z"/>
	<path style="fill:#FFFFFF;" d="M330.541,408.924c-4.629,0-4.629,7.186,0,7.186C335.168,416.11,335.168,408.924,330.541,408.924z"/>
	<g>
		<path style="fill-rule:evenodd;clip-rule:evenodd;fill:#074785;" d="M173.56,335.284c-1.287,0.213-2.425,0.385-3.551,0.606    c-24.698,4.793-49.385,9.593-74.08,14.379c-26.319,5.103-52.631,10.209-78.962,15.237c-1.752,0.34-2.454,0.946-2.299,3.426    c0.687,10.727-4.311,19.742-12.415,22.873c-0.572,0.22-1.106,0.556-2.253,1.141l13.504,70.147    c11.135,0.285,19.582,5.324,22.335,19.56c53.015-10.289,105.833-20.551,158.747-30.815c-0.591-6.377,0.185-11.933,2.694-16.814    c2.509-4.876,5.644-8.898,9.805-9.981l-11.022-70.402C184.922,354.893,177.479,348.411,173.56,335.284z"/>
		<path style="fill-rule:evenodd;clip-rule:evenodd;fill:#A089E4;" d="M166.922,346.764c-1.153,0.203-2.164,0.35-3.176,0.548    c-22.042,4.267-44.081,8.547-66.125,12.812c-23.497,4.548-46.984,9.093-70.488,13.58c-1.564,0.3-2.195,0.821-2.085,2.873    c0.473,8.94-4.083,16.513-11.338,19.214c-0.512,0.192-0.995,0.478-2.019,0.976l11.17,58.333c9.906,0.112,17.368,4.22,19.643,16.05    c47.327-9.168,94.482-18.303,141.71-27.461c-0.447-5.303,0.308-9.949,2.602-14.048c2.293-4.087,5.135-7.474,8.859-8.425    l-8.959-58.566C176.796,362.987,170.247,357.664,166.922,346.764z"/>
	</g>
	<path style="fill:#A089E4;" d="M400.128,319.238c-27.644-3.001-55.551-5.832-82.074-14.629c-3.01-1.001-4.291,3.737-1.304,4.728   c26.924,8.935,55.315,11.756,83.378,14.797C403.267,324.474,403.234,319.568,400.128,319.238z"/>
	<path style="fill:#A089E4;" d="M411.892,320.545c-3.156,0-3.156,4.901,0,4.901C415.061,325.445,415.061,320.545,411.892,320.545z"/>
	<path style="fill:#A089E4;" d="M306.613,301.248c-3.162,0-3.162,4.908,0,4.908C309.773,306.156,309.773,301.248,306.613,301.248z"/>
	<path style="fill:#FFFFFF;" d="M454.912,429.833c-3.023,9.894-7.034,19.497-12.373,28.375c-3.593,5.964,5.716,11.368,9.293,5.436   c5.794-9.631,10.184-20.21,13.459-30.955C467.32,426.034,456.931,423.213,454.912,429.833z"/>
	<path style="fill:#FFFFFF;" d="M464.409,409.135c-6.945,0-6.945,10.762,0,10.762C471.349,419.897,471.349,409.135,464.409,409.135z   "/>
	<path style="fill:#FFFFFF;" d="M265.275,402.194c-12.037,0.233-24.08,0.238-36.119,0.238c-6.943,0-6.943,10.765,0,10.765   c12.04,0,24.082-0.005,36.119-0.24C272.208,412.819,272.223,402.057,265.275,402.194z"/>
	<path style="fill:#FFFFFF;" d="M281.782,400.515c-6.938,0-6.938,10.765,0,10.765C288.722,411.279,288.722,400.515,281.782,400.515z   "/>
	<path style="fill:#7BEFE5;" d="M85.033,366.089c-12.323,2.355-24.802,4.032-36.849,7.624c-3.916,1.164-2.245,7.296,1.69,6.119   c12.045-3.584,24.524-5.266,36.849-7.621C90.742,371.442,89.034,365.323,85.033,366.089z"/>
	<path style="fill:#7BEFE5;" d="M95.617,364.284c-4.096,0-4.096,6.347,0,6.347C99.716,370.631,99.716,364.284,95.617,364.284z"/>
	<path style="fill:#7BEFE5;" d="M38.865,375.709c-4.096,0-4.096,6.36,0,6.36C42.962,382.069,42.962,375.709,38.865,375.709z"/>
	<path style="fill:#7BEFE5;" d="M153.682,441.078c-5.779,0.728-11.473,1.795-17.129,3.189c-3.366,0.829-1.94,6.019,1.432,5.191   c5.178-1.276,10.407-2.328,15.698-2.996C157.076,446.026,157.113,440.645,153.682,441.078z"/>
	<path style="fill:#7BEFE5;" d="M162.964,438.791c-3.47,0-3.47,5.378,0,5.378C166.43,444.169,166.43,438.791,162.964,438.791z"/>
	<path style="fill:#FFFFFF;" d="M421.019,62.03c-2.305-4.007-8.511-0.403-6.197,3.624c4.535,7.871-8.55,11.223-14.125,11.105   c-4.629-0.098-4.619,7.083,0,7.173C412.168,84.173,428.763,75.478,421.019,62.03z"/>
	<path style="fill:#FFFFFF;" d="M465.665,245.007c-5.324-6.002-12.126-10.572-20.478-9.656c-4.548,0.493-4.595,7.676,0,7.173   c6.605-0.716,11.224,2.843,15.403,7.561C463.664,253.552,468.724,248.463,465.665,245.007z"/>
	<path style="fill:#FFFFFF;" d="M471.019,252.21c-4.624,0-4.624,7.181,0,7.181C475.65,259.391,475.65,252.21,471.019,252.21z"/>
	<path style="fill:#FFFFFF;" d="M348.079,236.91c-8.834,2.898-14.523,10.374-15.195,19.607c-0.338,4.62,6.841,4.585,7.174,0   c0.432-5.929,4.286-10.83,9.925-12.687C354.364,242.402,352.485,235.464,348.079,236.91z"/>
	<path style="fill:#FFFFFF;" d="M361.588,235.351c-4.627,0-4.627,7.173,0,7.173C366.221,242.524,366.221,235.351,361.588,235.351z"/>
	<path style="fill-rule:evenodd;clip-rule:evenodd;fill:#7BEFE5;" d="M58.521,391.302c0.368-1.469,1.444-1.702,2.384-0.518   l10.085,12.675c0.946,1.181,2.951,2.065,4.464,1.965l16.151-1.134c1.515-0.103,2.067,0.843,1.235,2.11l-8.93,13.503   c-0.835,1.266-1.055,3.449-0.488,4.851l6.068,15.019c0.567,1.409-0.165,2.227-1.624,1.82l-15.614-4.315   c-1.457-0.408-3.598,0.055-4.764,1.036l-12.402,10.402c-1.159,0.976-2.166,0.541-2.234-0.976l-0.715-16.183   c-0.069-1.514-1.173-3.406-2.457-4.21l-13.732-8.587c-1.286-0.803-1.177-1.892,0.244-2.43l15.163-5.674   c1.421-0.528,2.878-2.165,3.246-3.642L58.521,391.302z"/>
	<path style="fill-rule:evenodd;clip-rule:evenodd;fill:#7BEFE5;" d="M130.86,373.865c0.369-1.472,1.439-1.705,2.382-0.521   l10.085,12.672c0.942,1.184,2.953,2.067,4.466,1.967l16.156-1.134c1.507-0.103,2.061,0.843,1.228,2.11l-8.928,13.503   c-0.84,1.266-1.055,3.449-0.489,4.851l6.069,15.019c0.565,1.409-0.169,2.223-1.628,1.825l-15.606-4.325   c-1.459-0.403-3.607,0.055-4.764,1.036l-12.408,10.409c-1.159,0.981-2.166,0.533-2.23-0.984l-0.718-16.183   c-0.066-1.509-1.173-3.406-2.459-4.21l-13.731-8.587c-1.286-0.798-1.171-1.89,0.244-2.42l15.165-5.684   c1.418-0.528,2.883-2.165,3.246-3.634L130.86,373.865z"/>
</g>















</svg>
