<svg id="svg8" height="512" viewBox="0 0 135.46666 135.46666" width="512" xmlns="http://www.w3.org/2000/svg" xmlns:svg="http://www.w3.org/2000/svg"><clipPath id="clipPath5136"><rect id="rect5138" height="89.013" rx="7.858" width="87.501" x="-68.036" y="22.301"/></clipPath><clipPath id="clipPath3786"><path id="rect3788" d="m84.667 15.119h79.375v72.571h-79.375z" paint-order="fill markers stroke"/></clipPath><g id="layer1"><g id="g4582" transform="matrix(1.02 0 0 1.02 -11.216 .017)"><g id="g24958"><g id="g13954"><g id="g5977"><g id="g3564"><g id="g37266"><path id="path37118" d="m23.574647 55.783579c0 1.348458 3.467461 27.739695 8.476017 48.544471 5.008555 20.80476 7.320197 21.38267 10.980296 21.96058 3.660095.57791 34.096705-4.04537 57.98366-9.82447 23.88696-5.7791 32.17034-7.51284 32.17034-16.952036 0-9.439201-9.82447-59.524758-12.32875-62.606946-2.50429-3.082188-97.281563 18.878401-97.281563 18.878401z" fill="#fde580" paint-order="markers stroke fill"/><path id="path37167" d="m119.35085 36.609364c-12.47601-.126983-95.776034 19.174058-95.776034 19.174058 0 .659808.834178 7.332823 2.268859 16.395887 11.074607-4.168942 35.040314-12.805798 51.249241-15.85363 18.055618-3.395075 30.150064-10.514254 47.194484-7.774021-1.4649-6.268319-2.73312-10.7869-3.43141-11.646333-.15652-.192637-.67341-.287495-1.50514-.295961z" paint-order="markers stroke fill"/><path id="path37122" d="m52.855434 58.095221c1.73373 0 70.505056-14.255119 70.697696-16.952033.19262-2.696915.38526-9.631839-2.69692-11.172932-3.0822-1.541095-88.612909 18.878402-88.612909 20.80477 0 1.926366 18.685765 7.705468 20.612133 7.320195z" fill="#599efc" paint-order="markers stroke fill"/><path id="path37124" d="m39.877767 48.156421c1.711325-.277821 75.383883-28.335713 75.141863-31.028645-.24202-2.692931-1.16316-9.5691077-4.45246-10.5963829-3.28932-1.027275-84.442637 32.8341649-84.133946 34.7356399.308689 1.901472 11.604806 7.578372 13.444543 6.889388z" fill="#599efc" paint-order="markers stroke fill"/><path id="path37120" d="m17.486053 41.417279s5.607002 22.553365 6.955459 24.768686c1.348458 2.215324 19.648949-4.045372 26.680192-5.87542 7.031241-1.830051 7.223876-3.852737 6.260692-4.815918-.963184-.963185-18.032072-21.301228-20.247395-21.493865-2.215321-.192635-20.70845 2.504279-19.648948 7.416517z" fill="#fd6b6a" paint-order="markers stroke fill"/><path id="path37126" d="m118.32717 30.037076c-2.3815.287849-6.28553.990077-11.12161 1.962113 1.10213 2.344401-2.62195 9.920897-5.85841 15.741658 3.95439-.938434 7.64335-1.848546 10.84401-2.687435 3.38325-5.344715 6.77084-11.924246 6.21186-14.738743-.018-.0907-.0445-.183541-.0759-.277593zm-22.244801 4.309796c-3.53562.774149-7.287014 1.61944-11.115819 2.497807.36341.290784.655235.564672.840154.812761 1.408232 1.88931-1.870273 8.909702-5.037753 14.738746 3.537012-.769899 7.140772-1.569537 10.735511-2.382452 3.17871-5.157687 6.162709-11.151839 5.635605-13.805886-.111518-.561497-.485294-1.189307-1.057698-1.860976zm-23.158699 5.317978c-3.690736.88047-7.316053 1.760484-10.835065 2.630021.08688.09163.165477.181478.229658.267582 1.408167 1.889221-1.87041 8.908953-5.037753 14.737692 2.639843-.515761 6.302493-1.259829 10.595924-2.155426 3.230359-5.207167 6.310015-11.338961 5.775192-14.031857-.08832-.444716-.342732-.931331-.727956-1.448012z" paint-order="markers stroke fill"/><path id="path37133" d="m96.641488 11.013421c-4.198496 1.585701-9.06334 3.489075-14.263905 5.572956 6.585007 1.516882 16.877349 4.128422 18.914867 6.101473.26342.255092.43254.653986.52575 1.164426 4.35688-1.876824 7.95775-3.512273 10.28337-4.719162-1.46729-2.669809-9.06372-5.843557-15.460082-8.119693zm-21.784195 8.615121c-4.664233 1.904015-9.420296 3.879356-14.059848 5.830661 6.368791 1.431389 18.250529 4.321782 20.451769 6.453376.09056.08769.169804.192918.239161.312841 3.541514-1.415667 7.049203-2.828635 10.365406-4.190837-2.048693-2.85041-10.56591-6.19883-16.996488-8.406041zm-21.415062 8.949552c-4.895093 2.09345-9.480731 4.089961-13.428145 5.856182 6.588911 1.519966 16.807095 4.118897 18.836221 6.083821.124579.120641.2267.275515.311557.456377 3.293957-1.266353 6.824234-2.635494 10.469207-4.060937-1.595041-2.767163-9.68746-6.059133-16.18884-8.335443z" paint-order="markers stroke fill"/><path id="path37141" d="m27.407047 55.914871c-.953503.204324-2.996724 4.018336 1.770792 4.767517 4.767518.749181 3.473477-7.968563-1.770792-4.767517z" fill="#fff" paint-order="markers stroke fill"/><path id="path37143" d="m43.95714 51.01114c-.953503.204324-2.996724 4.018336 1.770792 4.767517 4.767518.749181 3.473477-7.968563-1.770792-4.767517z" fill="#fff" paint-order="markers stroke fill"/><path id="path37145" d="m24.342216 41.952859c-.953504.204324-2.996725 4.018336 1.770792 4.767517s3.473476-7.968563-1.770792-4.767517z" fill="#fff" paint-order="markers stroke fill"/><path id="path37206" d="m37.15271 75.322798c16.958342-3.428734 18.441037-5.0041 19.367722-2.131375.926686 2.872725 4.170084 10.934887 1.482698 12.695588-2.687389 1.760701-18.163034 5.838117-18.719043 3.15073-.556012-2.687389-5.652781-12.232246-2.131377-13.714943z" fill="#fff" paint-order="markers stroke fill"/><g fill="#599efc"><path id="path37208" d="m68.752677 68.557996c10.749549-2.965393 45.500243-11.676234 47.724283-10.656881 2.22405 1.019353 1.85337 1.575365-4.54076 4.262752-6.39412 2.687389-41.237484 10.100871-45.500235 10.100871-4.262752 0-3.428737-2.316715 2.316712-3.706742z" paint-order="markers stroke fill"/><path id="path37210" d="m71.254727 79.400213c10.749549-2.965393 45.500243-11.676234 47.724283-10.656881 2.22405 1.019353 1.85337 1.575365-4.54076 4.262752-6.39412 2.687389-41.237484 10.100871-45.500235 10.100871-4.262752 0-3.428737-2.316715 2.316712-3.706742z" paint-order="markers stroke fill"/><path id="path37212" d="m46.237775 109.67909c9.347134-1.88986 10.164369-2.75817 10.675141-1.17478.510773 1.5834 2.298476 6.02711.817237 6.99758-1.481241.97047-10.011139 3.21787-10.317601 1.73663-.306464-1.48124-3.115712-6.7422-1.174777-7.55943z" paint-order="markers stroke fill"/><path id="path37214" d="m42.345697 96.705497c9.347134-1.88986 10.164369-2.75817 10.675141-1.17478.510773 1.5834 2.298476 6.027113.817237 6.997583-1.481241.97047-10.011139 3.21787-10.317601 1.73663-.306464-1.48124-3.115712-6.742203-1.174777-7.559433z" paint-order="markers stroke fill"/></g><path id="path37216" d="m59.487019 92.702343c6.571929-1.812946 27.817388-7.138474 29.177095-6.515274 1.359713.623199 1.133091.963127-2.776074 2.60611-3.909161 1.642982-25.211275 6.175347-27.817384 6.175347-2.60611 0-2.09622-1.416365 1.416363-2.266183z" paint-order="markers stroke fill"/><path id="path37218" d="m60.969715 98.447791c6.571929-1.812946 14.658458-4.358418 16.018165-3.735218 1.359713.623199 1.133091.963127-2.776074 2.60611-3.909161 1.642982-12.052345 3.395287-14.658454 3.395287-2.60611 0-2.09622-1.416365 1.416363-2.266179z" paint-order="markers stroke fill"/><path id="path37220" d="m63.749771 105.30526c6.571929-1.81294 27.817388-7.138472 29.177095-6.515272 1.359713.623199 1.133091.963127-2.776074 2.606112-3.909161 1.64298-25.211275 6.17535-27.817384 6.17535-2.60611 0-2.09622-1.41637 1.416363-2.26619z" paint-order="markers stroke fill"/><path id="path37222" d="m65.232467 111.05071c6.571929-1.81295 14.658458-4.35842 16.018165-3.73522 1.359713.6232 1.133091.96313-2.776074 2.60611-3.909161 1.64298-12.052345 3.39529-14.658454 3.39529-2.60611 0-2.09622-1.41637 1.416363-2.26618z" paint-order="markers stroke fill"/><path id="path37224" d="m392.52734 298.57227a94.214295 94.214295 0 0 0 -93.95507 94.21289 94.214295 94.214295 0 0 0 12.125 46.23632c-6.52139 8.09415-16.03065 15.43715-29.36915 16.30469-31.06218 2.02034-2.5259 10.60666 17.92969 12.62695 11.78191 1.16364 22.70243-2.44463 29.86524-5.71679a94.214295 94.214295 0 0 0 63.66211 24.76367 94.214295 94.214295 0 0 0 94.21484-94.21484 94.214295 94.214295 0 0 0 -94.21484-94.21289 94.214295 94.214295 0 0 0 -.25782 0z" fill="#fd6b6a" transform="matrix(.259 0 0 .259 10.999 -.017)" paint-order="markers stroke fill"/><path id="path37232" d="m107.63114 109.74346c-1.31221-.7038-1.55718-7.13047-1.55717-8.6195 0-1.558802.23227-8.214954 1.55717-9.036234 1.26561-.784509 6.95375 2.216681 8.24329 2.961198 1.34996.779401 6.99822 4.308629 7.04701 5.866676.0466 1.4883-5.39657 4.91378-6.68611 5.6583-1.34996.77939-7.23049 3.90632-8.60419 3.16956z" fill="#fff" paint-order="markers stroke fill"/><path id="path37238" d="m298.60352 395.2207a94.214296 94.214296 0 0 0 12.09375 43.80078c-6.52139 8.09415-16.03064 15.43715-29.36915 16.30469-31.06218 2.02034-2.5259 10.60666 17.92969 12.62695 11.78191 1.16365 22.70243-2.44463 29.86524-5.71679a94.214296 94.214296 0 0 0 63.66211 24.76367 94.214296 94.214296 0 0 0 90.63672-68.5c-28.5682 29.57368-64.16373 52.78393-99.56446 40.10938-30.7418-11.00653-60.4134-36.41169-85.2539-63.38868z" transform="matrix(.259 0 0 .259 10.999 -.017)" paint-order="markers stroke fill"/></g></g></g></g></g></g></g></svg>