<svg id="Capa_1" enable-background="new 0 0 511.993 511.993" height="512" viewBox="0 0 511.993 511.993" width="512" xmlns="http://www.w3.org/2000/svg"><g><g clip-rule="evenodd" fill-rule="evenodd"><g><path d="m261.195 24.96c-37.635 5.907-60.829 13.566-78.443 25.604-6.565 4.483-23.413 20.783-36.979 35.545-23.497 25.939-38.766 58.268-43.872 92.893-2.734 18.381-2.844 61.705-.108 82.93l1.968 15.098-3.162 4.047c-9.189 11.602-13.456 24.179-15.426 44.966-2.954 31.618 6.127 70.128 23.403 99.668 8.658 13.225 18.314 25.77 28.882 37.525 4.923 5.251 21.663 16.63 29.32 20.021 12.036 5.361 29.322 5.909 39.606 1.422 10.065-4.375 24.177-16.956 34.243-30.524 2.844-3.829 9.401-19.365 11.708-27.898.932-6.411 1.333-12.888 1.2-19.365 0-43.652-14.988-91.681-37.743-120.673-7.331-9.401-24.507-23.085-36.651-29.204-6.783-3.5-7.549-3.6-18.819-3.5l-11.816.22-.766-4.049c-1.64-7.767-.874-59.954 1.094-73.41 6.127-41.028 18.819-65.533 48.249-92.885 15.316-14.332 21.661-19.037 32.493-24.069 17.402-7.987 21.881-9.081 32.605-7.877 12.254 1.422 36.541 8.971 48.249 14.988 11.16 5.801 34.353 24.615 41.682 34.025 12.94 16.139 23.006 34.384 29.758 53.938 3.831 11.816 5.801 22.537 8.971 49.779.986 8.423 2.516 19.911 3.503 25.492 1.312 8.095 1.53 15.644 1.092 37.743-.546 28.446-1.422 35.885-6.891 61.487-3.939 18.161-3.939 27.68-.11 36.103 3.721 7.877 5.251 9.737 11.602 13.894 11.816 7.441 25.272.986 30.742-14.988 5.143-14.878 8.751-52.623 8.751-90.259 0-29.54-2.952-48.139-16.518-103.935-6.455-26.804-18.491-53.061-37.417-81.507-16.302-24.505-37.963-42.776-63.345-53.279-19.92-8.106-31.297-10.732-46.177-10.626-6.673.108-13.346.436-14.878.656zm-64.221 47.59c-29.966 27.242-43.87 47.591-51.639 75.819-4.267 15.534-6.345 29.428-7.877 53.061-1.094 17.833-.438 37.963 1.86 50.873.546 3.172.328 3.39-6.345 5.579-3.831 1.2-7.659 2.626-8.643 3.062-1.532.658-1.86-.436-2.4-6.673-2.188-22.427-.22-56.562 4.813-82.93 3.5-18.817 14.442-42.448 27.132-58.968 13.238-17.066 34.025-37.417 44.418-43.434 3.064-1.75 5.581-3.172 5.801-3.172.101 0-3.072 3.063-7.12 6.783zm-18.053 200.759c4.815 2.298 18.273 16.848 25.712 27.898 14.44 21.335 30.204 69.036 30.304 91.463 0 10.94-3.719 33.041-6.673 39.057-2.298 4.199-5.011 8.157-8.097 11.816-7.329 8.861-9.299 9.189-21.115 3.5-10.94-5.141-21.553-16.082-30.524-31.288-7.877-13.348-9.955-18.381-15.644-37.635-4.366-14.625-7.477-29.595-9.299-44.748-1.75-18.271-.11-39.494 3.721-48.137 2.734-6.347 8.423-12.472 12.582-13.676 4.265-1.425 14.33-.439 19.033 1.75z"/><path d="m174.218 313.788c-1.571.5-3.024 1.317-4.267 2.4-4.269 3.831-5.471 7.987-5.909 21.445-.438 12.472-.328 13.674 2.954 23.521 5.579 16.402 9.299 23.203 17.402 31.508 7.769 8.095 13.566 10.94 19.803 9.517 3.611-.764 8.201-5.361 9.847-9.627 2.186-5.689 1.422-21.553-1.532-33.149-4.377-17.068-15.426-36.433-24.725-43.324-4.087-2.406-8.92-3.222-13.573-2.291zm10.83 13.238c4.705 4.377 12.474 16.738 15.318 24.507 4.923 13.018 6.127 32.493 2.4 37.635-1.312 1.64-1.64 1.64-4.815 0-4.485-2.298-11.816-11.602-15.202-19.147-6.237-13.894-8.097-21.553-8.201-33.369-.172-4.245.085-8.496.766-12.69 1.201-1.859 6.015-.326 9.734 3.064z"/><path d="m365.567 219.371c-17.402 5.471-34.245 20.897-47.373 43.206-4.049 6.893-13.348 31.508-16.402 43.434-3.939 15.426-5.801 36.979-5.361 61.157l.436 21.881 4.377 11.602c4.815 12.582 11.05 22.755 21.881 35.447 6.565 7.549 7.877 8.533 21.335 15.316 13.894 7.001 14.44 7.111 22.865 7.111 22.203 0 45.622-9.627 64.111-26.476 6.893-6.345 17.176-19.583 18.489-23.849.54-1.702 1.237-3.351 2.08-4.925 3.391-5.469 8.315-19.473 10.065-28.444 2.4-11.926 2.624-39.057.656-53.608-2.626-18.161-6.347-32.383-11.488-43.206l-4.923-10.401-.11 29.32c-.22 48.685-5.471 74.504-17.614 85.446-8.643 7.767-17.614 9.955-28.992 7.111-6.237-1.642-13.786-8.201-16.958-14.88-1.696-4.101-3.015-8.349-3.939-12.69-1.64-7.549-1.532-8.097 2.844-32.167 7.877-43.104 9.737-65.861 7.001-88.945-.876-7.549-1.86-15.646-2.4-18.053l-.764-4.377-7.659-.218c-4.087-.123-8.173.282-12.157 1.208zm-7.987 29.204c-4.813 8.971-11.926 28.004-15.972 43.106-3.969 15.032-5.992 30.511-6.019 46.058 0 36.541 7.331 59.188 24.617 76.475 4.214 4.364 8.954 8.185 14.112 11.378 4.705 2.298 6.347 2.516 13.896 1.97 2.869-.33 5.761-.403 8.643-.22-2.32 1.884-4.77 3.603-7.331 5.143l-7.439 4.705h-12.582c-11.488 0-13.13-.22-18.819-3.064-3.763-1.906-7.259-4.297-10.401-7.111-9.299-9.081-18.051-29.204-21.115-48.685-2.516-15.754-.108-55.796 4.815-78.991 2.296-11.16 9.737-31.404 14.002-38.405 7.221-12.034 20.239-23.959 23.083-21.223.564.448-.974 4.497-3.491 8.873z"/><path d="m57.81 251.646c-5.141 7.113-7.985 16.958-12.362 41.684-4.377 25.054-2.736 41.464 4.377 42.45 5.033.766 5.689-1.2 5.469-14.442-.328-13.456 3.282-42.668 6.893-55.906 1.2-4.157 2.516-9.189 3.064-11.16 1.64-6.237-3.61-8.095-7.441-2.626z"/><path d="m75.317 273.747c-3.282 5.471-8.643 22.755-9.401 30.524-.876 8.201.546 13.456 3.601 12.91 1.422-.22 2.516-3.174 4.705-12.036 1.745-6.893 3.863-13.686 6.345-20.349 4.157-10.401 4.157-13.786-.11-14.222-2.406-.328-3.5.328-5.14 3.173z"/><path d="m500.254 358.317c-1.422 2.078-1.532 3.5-.546 7.549.91 5.871 1.494 11.787 1.75 17.722.438 7.001 1.094 12.91 1.64 13.13 1.75 1.094 4.487-.986 6.675-5.253 5.141-10.173.656-35.775-6.347-35.775-.883 0-2.306 1.204-3.172 2.627z"/><path d="m481.208 370.898c-1.312 2.4-1.312 28.004 0 31.508 1.314 3.4 4.923 3.172 7.221-.438 1.64-2.4 1.97-5.361 1.97-16.192 0-14.44-.876-16.956-5.581-16.956-1.487.002-2.862.793-3.61 2.078z"/></g><path d="m265.621 114.826c-8.623 2.73-17.491 4.611-26.48 5.617-11.074 1.444-13.002 2.086-13.482 4.495-.24 1.364 1.364 7.141 4.333 15.888 3.613 10.431 11.154 37.713 11.154 40.282 0 .24-.722 0-1.524-.482-7.221-3.771-16.448 4.575-16.448 14.844 0 16.202 18.535 24.635 25.276 11.476 3.128-6.019 3.048-13.562-.4-26.32-5.537-20.863-8.265-30.17-10.752-36.349-1.022-2.291-1.88-4.651-2.568-7.063 0-.4 2.328-.722 5.055-.722 9.309 0 28.246-3.288 32.659-5.617 1.6-.882 2.568.964 7.303 13.642 2.8 7.301 10.351 31.856 10.351 33.541 0 .322-1.524.482-3.37.322-4.655-.322-7.141 1.122-9.227 5.457-3.13 6.177-1.686 16.528 2.728 20.059 4.815 3.773 13.48 3.693 17.652-.16 2.648-2.486 3.773-8.987 2.648-15.246-1.444-7.703-10.602-37.473-15.166-49.189-5.215-13.32-11.956-25.604-14.122-25.838-1.936.14-3.835.601-5.62 1.363z"/><path d="m26.568 361.055c-2.934 3.875-19.139 16.78-23.227 18.527-2.546.836-3.933 3.578-3.097 6.124.05.151.106.299.171.445 3.11 4.452 6.573 8.646 10.355 12.542 14.232 15.472 25.914 28.43 26.22 28.956.148.346-.872 1.028-2.258 1.62-4.853 2.072-7.085 7.779-5.985 15.34 1.618 11.274 19.653 16.846 24.363 7.539 2.044-4.233 1.496-9.161-2-17.17-2.8-6.347-3.791-7.723-11.588-16.766-4.705-5.449-10.94-12.374-13.936-15.356s-5.761-5.815-6.137-6.311c-.4-.564.764-2.046 3.601-4.401 5.161-4.419 12.664-13.522 14.38-17.37.902-2.106.964-3.116.154-4.245-1.311-2.04-2.449-4.186-3.4-6.417-2.902-6.217-4.682-6.934-7.616-3.057z"/></g></g></svg>