<svg id="svg8" height="512" viewBox="0 0 135.46666 135.46666" width="512" xmlns="http://www.w3.org/2000/svg" xmlns:svg="http://www.w3.org/2000/svg"><clipPath id="clipPath5136"><rect id="rect5138" height="89.013" rx="7.858" width="87.501" x="-68.036" y="22.301"/></clipPath><clipPath id="clipPath3786"><path id="rect3788" d="m84.667 15.119h79.375v72.571h-79.375z" paint-order="fill markers stroke"/></clipPath><g id="layer1"><g id="g4582" transform="matrix(1.02 0 0 1.02 -11.216 .017)"><g id="g8407"><g id="g25515"><path id="path8194" d="m93.982904 90.877529s14.224506 7.19517 17.758986 12.370651c3.53447 5.17547 9.59356 17.54612 6.81648 19.94451-2.77708 2.3984-15.77889 2.90332-22.974061 2.90332-7.195174 0-43.110801.62497-45.443203 0s-2.119015-17.11406 14.164798-22.41577c16.283815-5.301703 29.677-12.802711 29.677-12.802711z" fill="#fd6b6a" stroke-linecap="round" stroke-linejoin="round" stroke-width="1.431"/><path id="path8192" d="m88.702855 86.333211s5.932863-1.767238 6.81648 3.282007c.883617 5.049244 3.155775 4.544319.757386 6.942711-2.398391 2.398386-27.644614 14.390341-32.441396 15.526421-4.796783 1.13609-.883619-7.70009.252462-10.47718 1.13608-2.777081 5.049244-6.059091 5.049244-6.059091z" fill="#fff" stroke-linecap="round" stroke-linejoin="round" stroke-width="1.431"/><path id="path7078" d="m38.892484 25.930475a21.40643 21.40643 0 0 0 -21.406429 21.406429 21.40643 21.40643 0 0 0 10.675848 18.52234c.202947 3.496035 1.517105 10.34821 8.557504 12.679152 9.600459 3.178531-2.529851-4.086682-.518944-9.859931.01198-.03441.0213-.06742.03243-.101355a21.40643 21.40643 0 0 0 2.659591.166223 21.40643 21.40643 0 0 0 21.406429-21.406429 21.40643 21.40643 0 0 0 -21.406429-21.406429z" fill="#599efc" stroke-linecap="round" stroke-linejoin="round" stroke-width="1.051"/><path id="path26249" d="m34.080288 40.195571s-2.860438 4.667021-5.921595 1.053844c-3.061165-3.613178 9.133308-14.352344 14.803986-5.6205 5.670674 8.731847-3.964463 10.803869-4.867757 15.721806-.903292 4.917934 1.906958 6.17251-1.756402 6.122327-3.663362-.05019-2.687617-7.616507 1.678303-11.681332 4.365922-4.064825 1.834504-11.367192-3.936535-5.596145z" fill="#fff"/><path id="path26251" d="m39.343604 61.172567a2.6985301 1.6677834 0 0 1 -2.698518 1.667782 2.6985301 1.6677834 0 0 1 -2.69853-1.667782 2.6985301 1.6677834 0 0 1 2.69853-1.667785 2.6985301 1.6677834 0 0 1 2.698518 1.667785z" fill="#fff"/><path id="path25366" d="m20.015905 57.431475a21.406431 21.406431 0 0 0 8.145998 8.427769c.202947 3.496035 1.517105 10.34821 8.557504 12.679152 9.600459 3.178531-2.529851-4.086682-.518944-9.859931.01198-.03441.0213-.06742.03243-.101355a21.406431 21.406431 0 0 0 2.659587.166223 21.406431 21.406431 0 0 0 11.782659-3.534798c-1.217953.0534-2.601506.284578-4.173849.73382-11.728185 3.350911-21.267138-3.405838-26.485389-8.51088z" stroke-linecap="round" stroke-linejoin="round" stroke-width="1.051"/><path id="path8151" d="m55.779838 37.335653c-.652207 1.87709-6.00774 13.927039-7.168105 24.816624-1.160364 10.889583 1.338883 16.423633 2.49925 20.886577 1.160365 4.462944 5.140868 7.849915 11.603654 7.765521 6.462783-.08439 6.462783-.08439 6.462783-.08439s-1.681393 7.289603-2.123202 8.362562c-.441809 1.072973-.252463 6.311563 12.307534-.378696 12.559996-6.690242 9.341103-12.370643 9.341103-12.370643s18.339355-11.134084 14.516575-33.451247c-3.822784-22.31716-31.258704-33.238546-47.439592-15.546308z" fill="#ffb899" stroke-linecap="round" stroke-linejoin="round" stroke-width="1.431"/><path id="path1936-7" d="m107.28303 68.564269c-.15525 4.732209-4.19181 8.445064-9.016214 8.292902-4.8244-.152178-8.609584-4.11173-8.454434-8.843941.155197-4.7322 4.191813-8.445056 9.016217-8.292894 4.824361.152178 8.609541 4.111727 8.454431 8.843933z" fill="#ffb899" paint-order="fill markers stroke"/><path id="path1938-70" d="m98.673369 64.463527c-2.154207-.06827-3.956785 1.589703-4.025722 3.702778-.05328 1.637147.961868 3.125951 2.524575 3.703251-.241096-.4885-.366368-1.024173-.366485-1.56691.323099.421027.823094.675901 1.360025.69323.980156.03106 1.800329-.723304 1.831735-1.684738.03169-.961432-.737429-1.765928-1.717594-1.796697-.04145-.0011-.0828-.0011-.124561.0009.685574-.548587 1.550237-.835591 2.434528-.80809.59342.0186 1.17336.178461 1.68999.465407-.48705-1.567207-1.93716-2.656456-3.606599-2.709169z" paint-order="fill markers stroke"/><g stroke-width="1.431"><path id="path8153" d="m50.707289 54.333621s-3.534472 6.122208-6.879596 8.015675c-3.345125 1.893467 2.335275 6.374671 5.491053 3.029546 3.155778-3.345124 4.41809-15.084618 1.388543-11.045221z" stroke-linecap="round" stroke-linejoin="round"/><path id="path8155" d="m72.355728 72.069091a7.3528643 4.5443201 0 0 1 -7.352864 4.54432 7.3528643 4.5443201 0 0 1 -7.352864-4.54432 7.3528643 4.5443201 0 0 1 7.352864-4.54432 7.3528643 4.5443201 0 0 1 7.352864 4.54432z" fill="#fff" stroke-linecap="round" stroke-linejoin="round"/><path id="path8184" d="m52.547168 38.651755s-.714072 5.980341 6.426638 7.229967c7.140711 1.249625 9.372184-1.963695 9.372184-1.963695s-.981848 2.499248 1.338882 3.034802c2.320729.535553 4.730722-1.160365 4.730722-1.160365s-.803331 6.33738 5.623307 6.605157c6.426638.267776 6.783676-1.249625 6.783676-1.249625s-3.481095 5.087755 0 8.747369 4.373684 2.856284 4.373684 2.856284-2.588506 4.462945-1.338884 7.854782c1.249625 3.391838 3.927392-6.605156 8.74737-6.694414 4.819983-.08927 7.765513 4.105907 11.871423-.267777 4.10591-4.373686.35704-9.015148.35704-9.015148s7.49774-4.64146 6.51591-11.15736c-.98186-6.515898-9.19367-12.496241-9.19367-12.496241s4.81997-2.588508 2.76702-5.355535c-2.05296-2.767024-3.12406-3.034801-3.12406-3.034801s2.40999-10.532548-8.658103-13.1210551c-11.068105-2.5885074-14.01365-.3570354-14.01365-.3570354s-.267776-3.2133196-4.462945-2.5885077c-4.195167.6248123-12.228465 6.9621932-12.228465 6.9621932s1.695918-4.2844268-4.909239-3.21332c-6.605156 1.071106-10.889582 13.567349-10.889582 13.567349s-2.499249-5.355533-5.177015 1.160365c-2.677767 6.5159-1.160366 13.121057 5.087757 13.656611z" stroke-linecap="round" stroke-linejoin="round"/><path id="path8190" d="m69.17742 90.71999s6.144937-1.231003 11.194181-2.745778c5.049245-1.514773 2.272159 1.767236-2.272161 3.913164-4.544319 2.14593-8.92202-1.167386-8.92202-1.167386z" stroke-linecap="round" stroke-linejoin="round"/></g><path id="path7094" d="m116.74232 6.4698666c-4.87924-.018964-9.69784.1840689-14.4406.6655619-2.738704.2780386-4.674707 2.2316769-4.969012 4.9686885-.77543 7.211397-1.147562 14.355721 0 21.246622.4522 2.715393 2.236499 4.635583 4.969012 4.96902 3.99933.488017 8.01139.78177 12.03709.874275-.0973 2.804025-.86894 9.079058-5.74026 11.119744-6.33967 2.655811 1.11388 3.169577 6.51118-.171606 4.03619-2.498597 6.77765-8.300776 7.90425-11.06939 2.83702-.145394 5.68067-.39254 8.53203-.753023 2.73106-.345277 4.4023-2.275199 4.96903-4.96902 1.3858-6.587228.84754-13.861768 0-21.246622-.31388-2.7348375-2.2253-4.7454148-4.96903-4.9686885-4.9847-.4056348-9.92444-.6465962-14.80369-.6655619z" fill="#fde580"/><path id="path7096" d="m104.44362 13.21796s-1.28507-.08567-1.6706 2.05611c-.38551 2.141783-.51402 3.812373.68538 4.369235 1.1994.556864 24.45915.942385 25.57287-.08567 1.11374-1.028057 1.07089-5.782813-1.24223-5.697141-2.31313.08567-23.34542-.642535-23.34542-.642535z" fill="#599efc"/><path id="path7098" d="m104.85767 23.623163s-1.09042.54521-1.151 2.544309c-.0606 1.999097 1.69621 1.514468 5.51267 1.635626 3.81646.121156 21.26314.969259 22.29297-.363473 1.02985-1.332732 1.09043-2.968359-3.02893-2.968359-4.11935 0-21.74777-1.635626-23.62571-.848103z" fill="#fff"/><path id="path7100" d="m104.85767 31.074349c1.93852-.121157 16.84089-.48463 17.26494.726946.42406 1.211573.48463 2.544308-2.48372 2.180835-2.96836-.363474-13.20617-.363474-14.5389-.54521-1.33274-.181737-1.45389-2.241413-.24232-2.362571z" fill="#fff"/><path id="path25371" d="m89.419563 113.8813c-.976849.0575-5.850491 6.2232-7.140544 4.71813-1.651271-1.92649-.917373.18357 0 3.85306.371626 1.48651-.614167 2.77238-1.744847 3.78819 1.329835-.0142 2.630606-.0283 3.872314-.0421.0859-.17124.172129-.34205.257952-.53516 1.834743-4.12818 4.494639-10.09153 4.494639-10.09153.501689-1.24418.534003-1.70671.260486-1.69062z" stroke-linecap="round" stroke-linejoin="round" stroke-width="1.431"/></g></g></g></g></svg>