<svg id="Слой_1" enable-background="new 0 0 230.4 230.4" height="512" viewBox="0 0 230.4 230.4" width="512" xmlns="http://www.w3.org/2000/svg"><g><g><path d="m187.7 108.4c-1-17.9-8.4-35.5-21.6-48.3-25-24.4-69.9-28.1-98.1-7.2-.3.2-.6.4-.9.7-16.5 14.1-25 35.3-25 56.4 6.9-2.4 29-4 72.9-4.6 50.7-.7 67.3.9 72.7 3z" fill="#85a7e2"/></g><g><path d="m217.6 129.4c-3.7-4.5-18.3-11-29.8-19.6h-72.9l-.1 3.3-.1-3.3h-72.9c-11.5 8.6-25.6 15.1-29.3 19.6-4 5-3.1 12.5 2.1 16.3 17.2 12.8 43.6 15.9 64.2 18.5 25.2 3.2 50.8 2.9 76-.7 19.9-2.8 44.1-5.4 60.8-17.8 5.1-3.8 6.1-11.2 2-16.3z" fill="#ef8d18"/></g><g><path d="m185 104.9c-5.3-2.5-21.5-4.2-70.7-3.4-40.6.6-75.7-.1-71.9 8.9.4 1 1.2 1.7 2.1 2.1 10 4.7 39.6 6.6 72.8 6.6 33.4 0 59.7-1.9 67.9-6.7 1.8-1 2.7-2.2 2.6-3.5-.1-1.4-.1-2.8-2.8-4z" fill="#617db7"/></g><g><path d="m39.1 138.7c6 .3 12-2.9 7.5-8.5-3.2-3.9-14.8-7.1-16.4.1-1.2 5.5 3.8 8.2 8.9 8.4z" fill="#ffb973"/></g><g><path d="m73.8 146.8c6.5-.2 12.7-4.1 7.4-9.7-3.7-4-16.5-6.5-17.6 1.4-.9 6.1 4.7 8.5 10.2 8.3z" fill="#ffb973"/></g><g><path d="m192.2 138.4c-6 .3-12-2.9-7.5-8.5 3.2-3.9 14.8-7.1 16.4.1 1.2 5.6-3.9 8.2-8.9 8.4z" fill="#ffb973"/></g><g><path d="m155.6 147.6c-6.5-.2-12.7-4.1-7.4-9.7 3.7-4 16.5-6.5 17.6 1.4.9 6-4.8 8.4-10.2 8.3z" fill="#ffb973"/></g><g><path d="m116.6 150.6c6.8-1.1 12.9-6.4 6.8-12.3-4.3-4.1-17.9-5.3-18.3 4-.4 7.2 5.8 9.2 11.5 8.3z" fill="#ffb973"/></g><g><path d="m215.8 141c-16.6 12.3-40.9 14.9-60.8 17.8-25.2 3.6-50.7 3.9-76 .7-20.6-2.6-47-5.7-64.2-18.5-2.2-1.6-3.6-3.9-4.3-6.4-1.1 4.3.5 9.1 4.3 11.9 17.2 12.8 43.6 15.9 64.2 18.5 25.2 3.2 50.8 2.9 76-.7 19.9-2.8 44.1-5.4 60.8-17.8 3.8-2.8 5.3-7.6 4.3-11.9-.7 2.4-2.1 4.7-4.3 6.4z" fill="#ffb973"/></g><g><g><path d="m144 61.4c-.2 0-.4 0-.6.1-1.4-1.7-3.8-3.8-7.9-4.4-4.2-.7-7 1-8.7 2.5-3-1.2-6.5-1.9-10.2-2.2-6-.4-11 .9-15 3-.8-1.2-3.9-5.6-10.4-4.6-4.1.6-6.6 2.7-7.9 4.4-.2 0-.4-.1-.6-.1-1.7 0-3 1.3-3 3s1.3 3 3 3 3-1.3 3-3c0-.4-.1-.8-.2-1.2 1.4-1.9 3.8-3.4 6.3-3.8 3.6-.5 6.7 1.9 7.5 3.5-3.2 2.1-5.6 4.7-6.9 7-6.1 10.1-.5 25.8 11.3 36.3 0 0-1.1.8-2.7 2.5v-.1c-2.7 2.4-6.9 4.9-12.5 4.5 0 0-2.9-2-6-1.8-2.8.2-3.3 3-2.7 5.2.3 1 .9 2.5 1.8 3.1 1.3.9 2.8-.6 3.7 0 0 0 12.4.7 24 .6 12.3.2 26.6-.6 26.6-.6.9-.5 2.4.9 3.7 0 .9-.6 1.5-2.1 1.8-3.1.6-2.3.1-5-2.7-5.2-3.1-.2-6 1.8-6 1.8-6.8.5-11.6-3.3-14.1-6-.1-.2-.2-.3-.2-.3s17-9.6 18.9-25.6c1.2-9.9-2.3-15.8-8.1-19.1 1.4-1 3.3-1.7 5.4-1.4 2.5.4 4.9 1.9 6.3 3.8-.1.4-.2.7-.2 1.2 0 1.7 1.3 3 3 3s3-1.3 3-3c.3-1.6-1-3-2.7-3z" fill="#bbc68f"/></g><g><path d="m111.3 90.3c1-1 4.2-5.5.8-13.6-3.1-7.7-10.7-3.4-10.7-3.4s-6.3 4.1-2.5 10.7 11.5 7.1 12.4 6.3z" fill="#3d3673"/></g><g><path d="m118.8 98.4c0-.1-.1-.2-.2-.2-.8.2-1.7.3-2.6.3-.1 0-.1 0-.2 0-1.6 0-3.8-.3-5.5-1.8-.4-.3-.7-.7-.9-1 .1-.1.2-.1.3-.2.2-.1.4-.2.5-.3.1 0 .1-.1.1-.2s-.1-.2-.2-.2c-1.1.2-1.9.9-2.3 1.8v.3c.1.1.2.1.3.1s.3-.1.3-.2c.1-.2.3-.4.4-.6 1.4 1.9 3.8 2.9 6.6 2.9 1.1 0 2.2-.2 3.3-.5 0 0 .1-.1.1-.2z" fill="#3d3673"/></g><g><path d="m114.2 89.7c-.1 1-.5 2.1.2 3 .5.4 1.5.4 2 0 .8-.9.4-2.1.1-3.1 0 0-.2-1.1-.9-1.4-1-.4-1.3 1.4-1.3 1.4z" fill="#fff"/></g><g><path d="m99.4 69.6c-.5.5-1 1.2-.1 1.3 1 .1 1.7-.6 2.5-1s1.7-.2 2.5-.7c1.3-.8-1.1-.9-1.6-.9-1 0-2 .3-2.8.9-.2.1-.3.2-.5.4z" fill="#3d3673"/></g><g><path d="m119.9 90.3c-1-1-4.2-5.5-.8-13.6 3.1-7.7 10.7-3.4 10.7-3.4s6.3 4.1 2.5 10.7-11.5 7.2-12.4 6.3z" fill="#3d3673"/></g><g><path d="m131.8 70.5c.5.5 1 1.2.1 1.3-1 .1-1.7-.6-2.5-1s-1.7-.2-2.5-.7c-1.3-.8 1.1-.9 1.6-.9 1 0 2 .3 2.8.9.2 0 .3.2.5.4z" fill="#3d3673"/></g></g><g><path d="m80.7 173.8c-2.2 5-5.3 9.4-8.8 13.5-1.2 1.3-2.5 2.8-3.9 3.9 1-3.5 2.6-6.8 4.3-10 1.7-3.1 3.4-6.2 5.5-9.1 1.1-1.7 3.6-.2 2.9 1.7z" fill="#ffb973"/></g><g><path d="m111.5 175.2c.5 4.1-.2 8.1-1.2 12-.4 1.3-.8 2.8-1.6 3.9-.5-1.4-.6-2.8-.8-4.1-.4-4-.5-8 .1-11.9.2-1 1.1-1.6 2.1-1.4.8.1 1.3.8 1.4 1.5z" fill="#ffb973"/></g><g><path d="m143.1 172.5c3.9 3.7 7 8.2 9.7 12.9.8 1.6 1.8 3.3 2.3 5-3-2.1-5.5-4.8-7.9-7.4s-4.7-5.3-6.7-8.2c-1.2-1.7 1-3.7 2.6-2.3z" fill="#ffb973"/></g></g></svg>