<svg id="Detective" height="512" viewBox="0 0 1200 1200" width="512" xmlns="http://www.w3.org/2000/svg"><g><path d="m188.675 1088.657c55.768 42.155 113.467 41.823 158.223-9.222 34.122-31.91 68.143-63.421 102.236-95.303 25.904-24.157 51.807-48.314 77.725-72.456 2.477 1.699 4.914 3.354 7.328 4.972 16.855 11.443 32.945 24.958 57.703 27.641 40.937 2.743 87.421-22.188 109.91-56.367 26.021-25.579 27.967-67.175 2.525-92.967 108.07-91.538 232.273-195.127 326.414-311.419 67.666-93.827 91.428-255.077 43.246-367.184-3.92-8.75-15.846-35.374-41.715-35.374-27.883-1.889-41.834 37.052-54.205 56.644-13.799 21.814-31.164 39.984-51.617 53.656-43.92 32.151-99.744 28.07-143.99 64.634-17.088 14.906-28.734 31.333-44.648 46.536-23.563 26.828-63.787 57.494-65.729 98.457-.148.639.322 1.746-.207 2.076-23.754 6.427-41.314 23.399-55.383 39.524-10.625 9.615-16.771 23.018-18.052 37.319-24.396 6.517-37.396 23.087-52.793 37.732-11.857 9.714-18.684 24.187-19.326 40.028-10.693 1.79-18.11 7.794-22.685 11.499-8.932 7.426-18.055 14.907-27.097 22.308-18.272-16.717-24.142-35.005-52.127-43.755-48.738-10.724-95.455 25.721-120.359 62.042-27.641 41.162-17.026 71.503 10.766 102.099-35.505 66.241 20.607 20.748-67.863 97.079-7.889 6.82-15.951 13.793-23.779 20.807-22.74-5.471-48.526 2.726-63.963 19.75-11.217 10.611-22.016 22.819-34.871 39.412-8.031 10.211-16.455 19.325-21.287 34.729-15.765 67.057 49.548 137.776 85.62 165.103z" fill="#fff"/><g><path d="m204.439 1067.844c27.641 20.936 66.857 36.444 98.805 15.179 14.213-10.376 26.148-23.606 39.334-35.255 58.015-54.021 115.947-108.132 173.961-162.157 2.68-2.496 5.362-4.994 8.045-7.49 7.949 5.74 15.979 11.373 24.129 16.833 13.816 9.251 28.537 21.72 45.645 23.343 31.337 1.935 70.984-20.044 86.974-46.884 21.002-19.411 20.287-48.387-3.49-64.874-12.309-9.898-24.539-19.896-36.766-29.9 11.148 1.288 22.041 4.816 33.377 2.912 19.732-4.098 32.721-21.711 48.016-33.515 62.852-54.056 125.131-108.862 184.545-166.704 35.605-35.705 72.732-70.572 102.695-111.277 48.5-69.927 67.441-157.787 62.523-242.017-2.166-33.726-8.188-68.007-22.072-99.012-4.369-9.752-14.084-28.475-26.25-15.526-9.863 12.419-15.324 27.879-24.363 40.961-15.229 23.926-34.969 44.698-58.564 60.508-16.045 10.751-33.484 19.305-51.652 25.817-30.773 10.394-64.537 15.644-90.154 37.182-10.277 8.565-18.742 19.795-27.961 29.484-17.223 18.1-35.268 35.576-51.32 54.746-9.412 11.238-21.514 25.473-21.703 41.024-.076 6.288 2.393 11.921 6.549 16.548 3.625 4.039 6.602 8.201 8.35 12.874-11.109-3.758-22.719-5.617-34.396-2.46-17.938 4.853-31.934 19.201-43.689 32.823-13.211 10.832-13.334 31.216-4.775 45.367-32.896-9.577-46.349 11.003-67.423 30.895-8.615 6.622-12.121 18.607-9.602 30.541 1.248 8.871 7.482 15.882 10.188 24.072-10.242-3.558-20.846-9.009-31.908-8.657-5.049.463-9.314 4.537-13.124 7.515-14.387 12.239-29.617 23.865-43.504 36.52-11.322-11.567-22.494-23.287-33.402-35.25-7.08-7.763-12.916-16.35-23.543-19.084-17.185-4.419-37.064 2.781-51.299 12.255-15.383 10.357-30.725 22.248-40.465 38.424-7.816 11.889-15.521 28.236-10.813 42.711 2.877 8.842 10.268 16.485 15.777 23.78 5.77 7.636 11.693 15.153 17.719 22.587-15.25 13.274-26.15 32.651-19.347 53.107-27.276 33.053-68.466 63.738-100.878 94.318-15.511-10.765-38.551-6.342-50.697 7.562-12.08 11.322-22.799 24.074-32.928 37.146-6.217 8.025-13.938 16.276-16.914 26.225-9.851 48.878 39.77 109.002 76.37 136.803z" fill="#68182b"/><g fill="#d5d5d5"><path d="m1035.079 133.074c-.133-3.979-.457-7.941-.873-11.895.15.229.307.456.453.688 8.109 14.09 13.133 29.817 17.154 45.497 18.012 75.401 10.809 156.546-16.779 228.754-15.652 41.585-41.42 78.221-72.27 109.908-72.66 78.199-152.785 149.316-233.508 219.006-9.617 8.304-19.256 16.583-28.906 24.848-6.924 5.93-13.832 13.46-22.502 16.858-11.377 4.459-23.623 0-35.146-1.444-24.939-3.683-47.867 9.962-65.035 26.845.426-.337-1.428.652-1.357.713-2.889 1.072-5.406.844-8.432.126-14.018-3.553-25.816-13.049-36.875-21.949 43.738-39.599 87.64-79.019 130.89-119.152 50.34-46.894 100.746-94.124 145.771-146.244 26.59-29.378-8.238-56.097 13.648-80.407 45.248-53.624 108.445-88.09 156.029-139.206 36.619-41.11 59.592-97.54 57.738-152.946z"/><path d="m680.89 439.527c11.328-3.314 22.91-.51 33.59 3.783-1.807 13.359-13.533 27.869-27.676 28.135-8.916.166-15.4-7.918-23.164-11.268-3.105-1.341-6.393-2.323-9.723-2.812 7.766-7.816 16.567-14.793 26.973-17.838z"/><path d="m599.332 519.51c11.068-6.753 26.273-3.765 37.511 1.095 4.496 6.475-.221 19.163-6.951 23.521-16.143 10.026-31.365-7.857-46.773-10.531 5.006-5.21 10.076-10.341 16.213-14.085z"/><path d="m529.482 596.661c3.926-3.506 7.127-1.362 12.955.005 6.35 1.859 12.559 4.191 18.707 6.644-6.174 11.407-18.891 18.785-31.861 17.261-7.209-.844-13.116-5.444-19.684-7.733 6.498-5.687 13.03-11.313 19.883-16.177z"/></g><path d="m487.928 630.591c8.005-7.173 14.796-10.23 24.204-3.629 23.793 13.197 56.668-.627 62.417-27.543 3.713-17.126-16.793-30.31-9.422-47.653 3.109-7.041 10.793-8.237 17.611-6.546 10.34 2.563 18.376 10.274 28.927 12.489 26.141 6.631 45.277-20.25 35.977-43.971-3.205-8.522-9.996-14.871-11.613-24.102-1.123-6.426-.096-14.404 5.463-18.627 16.521-10.252 28.936 12.934 45.313 11.949 21.842-.63 39.424-22.404 39.404-43.49.201-30.608-31.883-27.188-6.482-60.457 21.318-29.149 49.199-52.911 73.135-79.818 20.934-26.552 53.627-37.123 85.301-44.627 58.648-16.667 110.477-55.483 139.309-109.648 3.502-6.194 6.736-12.55 10.326-18.697 4.014 51.871-15.738 105.659-47.736 145.882-48.775 58.229-120.332 93.309-167.561 153.076-14.184 18.976 3.191 41.357-2.145 61.928-3.221 11.551-13.594 20.726-21.418 29.398-36.854 40.861-76.795 78.953-116.947 116.531-48.176 45.088-97.306 89.137-146.218 133.42-25.327-23.703-51.592-51.113-63.709-84.289-2.125-6.649-4.597-14.158-.604-20.105 7.973-11.047 16.137-22.471 26.468-31.471z" fill="#efefea"/><path d="m352.923 620.796c5.467-23.464 35.188-38.885 58.035-37.447 10.607 1.015 15.607 9.406 22.354 16.803 11.035 12.099 22.334 23.955 33.793 35.652-5.684 7-11.377 14.148-16.262 21.648-9.17 20.332 6.252 42.357 16.521 59.375 15.396 24.987 86.729 108.678 118.256 83.61 11.93-9.858 23.55-19.777 38.179-23.083 11.779 9.699 23.605 19.344 35.48 28.93 22.422 15.16 37.521 32.274 14.521 56.373-15.361 15.307-40.406 22.427-60.246 11.662-23.015-12.597-44.744-28.702-65.724-44.377-70.153-52.662-133.393-115.061-185.356-185.803-5.131-7.043-10.844-14.081-9.551-23.343z" fill="#db9f6e"/><path d="m338.028 680.253c-4.995-6.699-12.337-13.755-12.521-22.605.205-13.459 8.104-25.139 15.855-35.725-1.176 14.801 9.973 26.813 18.369 37.741 66.631 87.894 149.77 163.431 243.332 221.795 13.908 8.547 29.246 11.095 44.344 8.001-1.131.748-2.268 1.486-3.391 2.188-31.369 19.078-52.308 21.664-82.064-1.725-85.6-56.44-162.488-127.484-223.924-209.67z" fill="#a2603f"/><path d="m224.148 879.489c37.115-33.339 75.053-65.816 110.64-100.811 7.825 15.953 17.96 30.42 27.517 45.257-35.893 42.374-80.957 76.032-121.317 113.94-1.749-2.047-3.571-4.032-5.257-6.133-10.277-13.279-30.786-38.355-11.583-52.253z" fill="#ff8e5b"/><path d="m366.222 829.928c7.684 13.53 20.037 27.692 21.379 43.486-30.945 38.894-67.119 73.83-105.551 105.353-12.729-11.269-25.186-22.985-36.566-35.647 40.1-37.722 84.884-71.211 120.738-113.192z" fill="#db9f6e"/><path d="m188.136 873.532c7.832-7.675 21.293-10.48 31.236-5.55-7.887 6.831-14.93 14.349-14.646 25.669 3.546 35.564 43.353 68.896 68.185 92.387-5.014 3.991-10.773 8.603-15.693 12.07-.084.011-.75-.059-1.222-.18-8.458-2.593-15.224-9.188-21.497-15.132-15.99-15.497-29.295-33.964-40.011-53.437-8.655-15.735-22.372-40.129-6.352-55.827z" fill="#a2603f"/><path d="m141.501 928.913c7.793-12.73 17.986-24.572 27.906-35.754.031 1.306.02 2.607.178 3.93 6.492 34.913 44.935 90.935 75.809 108.802 12.873 7.954 20.074 1.451 29.865-7.099 28.041-21.758 54.762-45.241 79.455-70.748 14.488-15.405 29.256-30.869 42.129-47.608 8.064-15.06-6.656-33.089-13.953-45.601-11.457-18.497-24.242-36.224-34.633-55.366-14.08-22.082-12.678-40.44 7.873-57.917 46.78 55.965 100.346 106.321 159.064 149.595-68.118 63.386-136.059 126.962-204.225 190.303-24.625 26.408-55.676 24.914-85.052 6.984-32.29-18.907-58.987-49.95-75.81-83.149-8.016-16.663-17.762-38.467-8.606-56.372z" fill="#ffb578"/><path d="m962.765 506.027c30.85-31.688 56.617-68.323 72.27-109.908 13.209-34.568 21.684-71.192 25.016-108.246-4.195 20.497-9.951 40.583-17.377 60.478-11.721 31.404-26.285 62.396-44.311 90.69-17.113 26.869-38.008 51.589-59.438 75.09-45.9 50.339-98 94.655-149.059 139.574-27.275 23.998-54.635 47.854-83.129 70.403-13.701 10.844-25.803 21.355-44.232 21.435-16.049.069-31.029-1.497-46.795 2.584-16.375 4.238-29.439 16.429-43.273 25.468-7.807 5.103-16.174 8.106-24.838 9.914 6.301 4.146 12.986 7.621 20.279 9.47 3.025.718 5.543.946 8.432-.126-.07-.061 1.783-1.05 1.357-.713 17.168-16.883 40.095-30.527 65.035-26.845 11.523 1.444 23.77 5.903 35.146 1.444 8.67-3.398 15.578-10.929 22.502-16.858 9.65-8.265 19.289-16.544 28.906-24.848 80.724-69.69 160.849-140.807 233.509-219.006z" fill="#bebebe"/><path d="m686.804 471.445c14.143-.266 25.869-14.775 27.676-28.135-1.83-.736-3.691-1.401-5.568-2.026-3.01 10.38-8.85 19.591-20.244 22.725-7.484 2.06-14.834-1.16-22.078-2.323 6.526 3.796 12.45 9.905 20.214 9.759z" fill="#bebebe"/><path d="m529.283 620.571c12.971 1.524 25.688-5.854 31.861-17.261-2.324-.929-4.672-1.808-7.02-2.683-8.098 9.28-18.035 15.857-30.369 18.569 1.778.647 3.606 1.15 5.528 1.375z" fill="#bebebe"/><path d="m593.066 537.029c12.064 5.67 24.162 14.963 36.826 7.098 6.73-4.358 11.447-17.047 6.951-23.521-1.08-.465-2.225-.895-3.369-1.32-1.281 7.65-5.102 14.66-12.262 18.867-8.607 5.057-18.43.691-28.146-1.124z" fill="#bebebe"/><path d="m680.89 439.527c-10.406 3.045-19.207 10.022-26.973 17.839 2.127.313 4.217.886 6.273 1.565 5.852-4.866 12.01-9.26 18.961-12.895 7.281-3.805 14.707-5.664 22.309-6.813-6.779-1.445-13.719-1.699-20.57.304z" fill="#efefef"/><path d="m583.119 533.595c1.549.271 3.094.723 4.641 1.256 11.488-10.266 24.283-16.677 39.107-17.626-9.297-2.354-19.502-2.617-27.535 2.285-6.137 3.744-11.207 8.875-16.213 14.085z" fill="#efefef"/><path d="m1036.073 187.121c2.025-14.025 1.527-28.513-.977-42.819-1.35 51.724-23.609 103.382-57.754 141.717-47.584 51.116-110.781 85.582-156.029 139.206-21.887 24.311 12.941 51.029-13.648 80.407-45.025 52.12-95.432 99.35-145.771 146.244-43.25 40.134-87.152 79.554-130.89 119.152 2.24 1.802 4.52 3.62 6.83 5.417 75.38-66.691 149.822-134.371 222.14-204.394 21.904-21.209 45.75-42.738 64.23-67.091 7.115-9.375 10.865-20.031 11.73-31.695 1.209-16.275-5.646-29.395 2.855-45.088 7.389-13.634 22.713-24.564 34.453-34.214 11.598-9.536 23.012-19.165 34.203-29.174 19.898-17.798 39.76-35.635 58.365-54.795 33.144-34.131 63.295-74.626 70.263-122.873z" fill="#efefef"/><path d="m514.241 614.805c9.584-8.376 19.569-15.009 31.473-17.062-1.096-.349-2.172-.754-3.277-1.077-5.828-1.367-9.029-3.511-12.955-.005-6.854 4.864-13.385 10.49-19.883 16.176 1.576.549 3.113 1.238 4.642 1.968z" fill="#efefef"/><path d="m502.497 743.384c7.553 8.084 15.457 15.757 23.274 23.072 48.912-44.283 98.042-88.332 146.218-133.42 40.152-37.578 80.094-75.669 116.947-116.531 7.824-8.673 18.197-17.848 21.418-29.398 5.336-20.57-12.039-42.952 2.145-61.928 47.229-59.768 118.785-94.847 167.561-153.076 19.656-24.713 34.662-54.55 42.404-85.912-16.389 36.264-46.668 67.646-74.566 93.947-25.883 24.402-53.738 46.689-81.736 68.595-20.141 15.757-42.709 30.503-58.746 50.757-11.264 14.225-15.713 31.556-17.85 49.262-1.766 14.65-.926 29.287-5.311 43.545-5.012 16.303-16.357 30.02-27.988 42.075-23.455 24.308-48.365 47.351-72.732 70.729-28.854 27.681-57.723 55.396-87.46 82.128-21.498 19.325-42.797 41.841-70.02 52.942-7.399 3.017-15.449 3.611-23.558 3.213z" fill="#d3d3c9"/><path d="m487.928 630.591c-10.331 9-18.495 20.425-26.47 31.471-3.66 5.453-1.886 12.21.07 18.421 5.242-7.794 10.915-15.246 17.746-21.808 14.721-14.137 31.475-13.553 50.469-13.33 22.1.259 50.975-12.066 57.912-34.727 1.59-5.191 1.184-11.13 1.529-16.475.844-12.97 7.643-20.27 20.107-21.675 11.406-1.286 21.043-2.089 31.559-7.259 7.918-3.89 17.168-11.371 20.051-20.069 5.125-15.462-6.939-40.669 12.908-47.665 9.908-3.492 19.938-3.874 29.654-8.533 11.443-5.487 20.699-15.239 27.697-25.614 14.057-20.836-4.299-43.339-3.34-65.185.682-15.503 13.52-30.81 23.146-41.897 9.873-11.371 21.16-21.494 32.023-31.895 9.83-9.413 18.689-19.762 28.93-28.743 11.83-10.375 25.516-18.327 39.701-24.992 26.32-12.368 53.869-19.631 78.77-35.212 7.428-4.646 14.367-9.957 20.754-15.808-22.02 15.655-46.813 27.53-72.984 34.969-31.674 7.504-64.367 18.075-85.301 44.627-23.936 26.907-51.816 50.669-73.135 79.818-25.4 33.27 6.684 29.849 6.482 60.457.02 21.086-17.563 42.86-39.404 43.49-16.377.984-28.791-22.201-45.313-11.949-5.559 4.223-6.586 12.201-5.463 18.627 1.617 9.23 8.408 15.579 11.613 24.102 9.301 23.721-9.836 50.602-35.977 43.971-10.551-2.215-18.587-9.926-28.927-12.489-6.818-1.691-14.502-.495-17.611 6.546-7.371 17.344 13.135 30.527 9.422 47.653-5.748 26.917-38.623 40.741-62.417 27.543-9.405-6.601-16.196-3.543-24.201 3.63z" fill="#f7f7f5"/><path d="m292.646 952.986c-8.807 5.917-18.291 8.557-28.149 9.643 5.743 5.507 11.612 10.879 17.554 16.139 38.432-31.522 74.605-66.459 105.551-105.353-.791-9.3-5.418-18.025-10.643-26.396.324 9.444-1.198 18.387-7.361 27.993-9.771 15.23-23.096 29.179-35.486 42.296-12.531 13.257-26.314 25.501-41.466 35.678z" fill="#c98450"/><path d="m547.832 829.942c20.98 15.675 42.709 31.78 65.724 44.377 19.396 10.523 43.746 3.931 59.178-10.67-6.754 3.162-13.969 5.403-21.906 6.184-23.883 2.346-46.145-12.327-65.359-24.535-40.994-26.049-77.804-55.313-112.207-89.647-27.312-27.258-54.722-55.604-78.804-85.815-16.976-21.295-33.881-50.248-23.852-73.852-8.664 6.385-15.365 14.866-17.684 24.813-1.293 9.263 4.42 16.301 9.553 23.344 51.964 70.741 115.204 133.139 185.357 185.801z" fill="#c98450"/><path d="m253.304 951.479c31.271-32.897 66.822-62.182 100.324-92.545 6.525-5.917 13.131-11.745 19.719-17.59-2.512-3.865-4.998-7.67-7.125-11.416-35.854 41.98-80.638 75.47-120.738 113.191 2.55 2.838 5.17 5.613 7.82 8.36z" fill="#f9c6a0"/><path d="m427.005 604.938c6.648 6.928 12.408 14.188 15.395 23.432 2.816 8.718 1.972 18.672 1.68 27.691-.41 12.608.164 24.455 5.398 36.105 6.24 13.887 15.046 26.538 24.83 38.137 4.516 5.352 9.441 10.33 14.699 14.929-9.862-11.468-17.647-21.917-21.643-28.405-10.27-17.018-25.691-39.043-16.521-59.375 4.885-7.5 10.578-14.648 16.262-21.648-11.459-11.697-22.758-23.553-33.793-35.652-6.746-7.396-11.746-15.788-22.354-16.803-3.159-.197-6.451-.045-9.791.378 9.582 5.626 18.039 13.09 25.838 21.211z" fill="#f9c6a0"/><path d="m659.281 806.284c-11.875-9.586-23.701-19.23-35.48-28.93-14.629 3.306-26.25 13.225-38.179 23.083-1.654 1.315-3.441 2.269-5.305 3.009 1.076-.081 2.162-.2 3.26-.385 17.193-2.895 30.761-8.3 48.337-2.467 17.094 5.674 32.512 19.527 42.113 34.492 3.818 5.947 5.4 13.144 5.498 20.515 14.064-20.452-.08-35.684-20.244-49.317z" fill="#f9c6a0"/><path d="m338.028 680.253c61.437 82.187 138.324 153.23 223.925 209.67 20.564 16.166 36.922 19.91 55.419 14.389-29.673-5.844-55.089-24.265-80.781-41.553-40.172-27.026-77.343-58.467-111.786-92.447-22.998-22.688-44.603-46.787-64.885-71.926-5.807-7.197-11.455-14.521-17.088-21.856-7.68-9.997-12.393-20.235-15.004-31.142-1.359 3.928-2.258 7.996-2.322 12.26.185 8.85 7.526 15.905 12.522 22.605z" fill="#81391c"/><path d="m272.911 986.038c-24.832-23.49-64.639-56.822-68.185-92.387-.077-3.016.397-5.746 1.239-8.279-8.709 16.313 5.416 42.789 13.31 56.034 8.05 13.507 18.331 24.865 29.163 36.147 5.178 5.392 10.527 10.548 16.451 14.823 2.728-2.12 5.472-4.308 8.022-6.338z" fill="#81391c"/><path d="m205.71 945.354c-7.234-12.391-13.475-25.538-16.359-39.657-3.473-17.007 7.943-34.634 25.178-33.21 1.541-1.548 3.164-3.05 4.844-4.505-9.943-4.931-23.404-2.125-31.236 5.55-16.02 15.698-2.303 40.092 6.353 55.828 7.394 13.438 16.052 26.367 25.942 38.199-5.21-7.138-10.202-14.463-14.722-22.205z" fill="#f5995a"/><path d="m442.876 763.244c37.717 37.692 80.479 73.224 128.549 97.514-80.692-55.114-152.678-123.243-211.694-201.094-8.396-10.929-19.545-22.94-18.369-37.741-1.725 2.354-3.445 4.773-5.098 7.245 4.971 18.491 19.504 35.497 30.86 49.821 23.434 29.557 49.082 57.602 75.752 84.255z" fill="#f5995a"/><path d="m235.73 931.743c1.686 2.101 3.508 4.086 5.257 6.133 40.36-37.908 85.425-71.566 121.317-113.94-9.557-14.837-19.691-29.304-27.517-45.257-1.903 1.871-3.874 3.666-5.79 5.523 1.675 9.723 5.932 18.945 9.092 28.664 6.275 19.322-15.773 37.015-27.686 48.798-14.334 14.175-29.121 27.413-44.83 40.064-8.42 6.779-16.742 13.762-25.761 19.729-2.849 1.887-5.781 3.193-8.765 4.198 1.667 2.207 3.273 4.267 4.683 6.088z" fill="#ff564d"/><path d="m311.675 814.253c-18.148 15.151-53.785 45.39-63.547 54.121-6.795 6.078-14.51 13.548-17.598 22.348-1.303 3.712 1.543 10.109 5.918 10.399 6.898.461 12.37-4.526 17.234-8.837 12.145-10.76 54.555-48.022 62.539-57.827 4.475-5.491 7.545-11.351 7.379-17.364-.325-11.672-5.174-8.48-11.925-2.84z" fill="#fbc471"/><path d="m150.109 985.284c16.822 33.199 43.52 64.242 75.81 83.149 29.376 17.93 60.427 19.424 85.052-6.984 68.166-63.341 136.106-126.917 204.225-190.303-52.611-38.773-101.043-83.271-144.209-132.354 6.465 15.438 17.076 29.674 26.541 42.711 16.045 22.107 35.479 41.567 53.24 62.253 10.991 12.797 21.706 25.972 16.301 43.804-4.104 13.541-17.252 23.451-27.068 32.849-23.143 22.153-47.992 42.452-71.633 64.062-21.155 19.339-40.412 40.834-63.408 58.079-13.289 9.966-28.25 18.295-45.189 18.776-16.838.479-33.605-8.619-47.652-16.937-32.802-19.42-57.119-50.202-72.252-84.915 2.392 9.111 6.494 18.023 10.242 25.81z" fill="#ff9750"/><path d="m188.036 958.116c12.15 20.95 28.598 41.519 49.002 54.907 8.443 5.539 16.236 8.849 26.125 5.561 6.834-2.272 13.172-8.526 18.558-13.136 16.867-14.43 32.894-29.881 49.019-45.124 13.654-12.907 27.825-25.462 40.957-38.897 11.781-12.053 31.834-29.327 27.619-48.256-.055-.241-.165-.439-.223-.676-.201 2.706-.871 5.368-2.25 7.94-12.873 16.739-27.641 32.203-42.129 47.608-24.693 25.507-51.414 48.99-79.455 70.748-9.791 8.55-16.992 15.053-29.865 7.099-29.355-16.99-65.496-68.44-74.566-103.472-.744 6.42-.48 12.871 1.322 19.859 3.263 12.652 9.371 24.605 15.886 35.839z" fill="#ffc9a1"/></g></g></svg>