<?xml version="1.0" encoding="UTF-8"?>
<!-- Generator: Adobe Illustrator 25.4.1, SVG Export Plug-In . SVG Version: 6.00 Build 0)  -->
<svg xmlns="http://www.w3.org/2000/svg" xmlns:xlink="http://www.w3.org/1999/xlink" version="1.1" id="Capa_1" x="0px" y="0px" viewBox="0 0 512 512" style="enable-background:new 0 0 512 512;" xml:space="preserve" width="512" height="512">
<g>
	<path style="fill:#FFFFFF;" d="M18.286,512c-8.705,0-15.764-7.058-15.764-15.764v-248.67c0-10.962,0.742-22.075,2.206-33.051   V71.946c0-12.146,9.883-22.028,22.029-22.028h74.238C144.197,17.24,195.626,0,250.09,0h11.823   c54.405,0,105.809,17.241,149.02,49.918h73.681c12.146,0,22.026,9.882,22.026,22.028v138.44c0.393,2.541,0.767,5.086,1.073,7.657   c0.906,7.426,1.462,14.994,1.655,22.446c0.082,2.231,0.11,4.654,0.11,7.078v248.67c0,8.705-7.058,15.764-15.764,15.764H18.286z"/>
	<g>
		<g>
			<path style="fill:#00DFFF;" d="M493.715,247.567v248.67h-43.117l-188.272-40.26l-183.639,40.26H18.286v-248.67     c0-128.026,103.777-231.803,231.803-231.803h11.823c118.673,0,216.486,89.143,230.148,204.138     c0.841,6.91,1.366,13.898,1.55,20.992C493.689,243.1,493.715,245.333,493.715,247.567z"/>
		</g>
		<g>
			<g>
				<path style="fill:#4E1649;" d="M484.614,367.502H26.758c-3.46,0-6.264-2.805-6.264-6.264V71.945      c0-3.459,2.805-6.264,6.264-6.264h457.856c3.459,0,6.264,2.805,6.264,6.264v289.292      C490.878,364.697,488.073,367.502,484.614,367.502z"/>
				<g>
					<rect x="43.272" y="80.629" style="fill:#FFB4B2;" width="428.243" height="269.645"/>
					<rect x="53.137" y="90.311" style="fill:#FFEBE9;" width="418.379" height="259.964"/>
				</g>
			</g>
			<g>
				
					<rect x="253.702" y="81.621" transform="matrix(1 -0.0088 0.0088 1 -1.8981 2.2627)" style="fill:#FFB4B2;" width="2.353" height="268.232"/>
				
					<rect x="49.535" y="213.98" transform="matrix(1 -0.0021 0.0021 1 -0.4538 0.5498)" style="fill:#FFB4B2;" width="421.127" height="2.35"/>
			</g>
			<path style="opacity:0.37;fill:#FFB4B2;" d="M255.116,83.904v131.548l215.83-131.548     C470.946,83.904,256.824,83.904,255.116,83.904z"/>
			<g>
				<path style="fill:#FFB4B2;" d="M254.737,307.174c-49.475,0-89.729-40.252-89.729-89.729s40.254-89.727,89.729-89.727      s89.729,40.251,89.729,89.727S304.212,307.174,254.737,307.174z M254.737,130.068c-48.18,0-87.376,39.198-87.376,87.377      c0,48.181,39.196,87.379,87.376,87.379s87.376-39.198,87.376-87.379C342.113,169.265,302.916,130.068,254.737,130.068z"/>
				<path style="fill:#FFB4B2;" d="M254.737,290.753c-40.422,0-73.311-32.886-73.311-73.308s32.888-73.308,73.311-73.308      s73.308,32.886,73.308,73.308S295.159,290.753,254.737,290.753z M254.737,146.487c-39.127,0-70.958,31.832-70.958,70.958      s31.831,70.958,70.958,70.958c39.124,0,70.956-31.832,70.956-70.958S293.861,146.487,254.737,146.487z"/>
			</g>
			<g>
				<path style="fill:#4E1649;" d="M263.372,267.787c-1.227,0-2.215-0.425-2.969-1.274c-0.757-0.849-1.134-1.838-1.134-2.97v-83.046      l1.841,1.132l-37.21,49.233l-0.424-1.556h53.759c1.134,0,2.098,0.378,2.901,1.132c0.801,0.755,1.204,1.697,1.204,2.828      c0,1.132-0.403,2.076-1.204,2.83c-0.803,0.757-1.768,1.132-2.901,1.132h-59.559c-1.134,0-2.121-0.447-2.972-1.344      c-0.847-0.896-1.274-1.911-1.274-3.042c0-1.037,0.33-1.981,0.991-2.83l45.554-59.56c0.47-0.659,1.061-1.107,1.771-1.344      c0.707-0.235,1.294-0.353,1.768-0.353c1.224,0,2.238,0.424,3.042,1.272c0.8,0.849,1.201,1.839,1.201,2.972v90.543      c0,1.132-0.424,2.121-1.271,2.97C265.637,267.362,264.597,267.787,263.372,267.787z"/>
			</g>
		</g>
		<g>
			<path style="fill:#FF8A96;" d="M442.545,385.763c0,0,21.696-1.683,26.288,16.226c4.592,17.909-20.964,24.986-20.964,24.986     s18.999-3.613,25.17,14.73c6.171,18.343-19.468,23.868-19.468,23.868l-15.923,2.929c0,0-14.84-83.236-14.757-81.684     C422.974,388.37,442.545,385.763,442.545,385.763z"/>
			<path style="fill:#FF8A96;" d="M424.173,343.061c0,0,42.121-14.517,51.577-4.439c9.455,10.079-36.851,50.449-36.851,50.449     L424.173,343.061z"/>
			<g>
				<path style="fill:#006AE1;" d="M453.728,495.764l-5.78,0.473H346.089l-14.395-21.086l-17.552-145.325l-3.205-26.64      c-0.263-2.154,1.261-4.072,3.415-4.335l5.281-0.63l99.836-12.112c2.075-0.263,3.967,1.182,4.308,3.232l8.486,51.205      l7.566,45.557l0.289,1.865l12.9,77.714l4.23,25.563C457.643,493.504,455.988,495.58,453.728,495.764z"/>
				<g>
					<g>
						<path style="fill:#4E1649;" d="M356.378,355.633c0.214,3.999-2.853,7.415-6.853,7.63c-3.999,0.214-7.415-2.853-7.63-6.853        c-0.214-3.999,2.853-7.415,6.853-7.63C352.747,348.566,356.163,351.633,356.378,355.633z"/>
						<path style="fill:#4E1649;" d="M423.367,347.37c0.214,3.999-2.853,7.415-6.853,7.63s-7.415-2.853-7.63-6.853        c-0.214-3.999,2.853-7.415,6.853-7.63C419.737,340.303,423.153,343.371,423.367,347.37z"/>
						<path style="fill:#4E1649;" d="M389.369,351.788c0.214,3.999-2.853,7.415-6.853,7.63c-3.999,0.214-7.415-2.853-7.63-6.853        c-0.214-3.999,2.853-7.415,6.853-7.63C385.739,344.721,389.155,347.788,389.369,351.788z"/>
					</g>
					<g>
						<path style="fill:#4E1649;" d="M359.89,382.417c0.214,3.999-2.853,7.415-6.853,7.63c-3.999,0.214-7.415-2.853-7.63-6.853        c-0.214-3.999,2.853-7.415,6.853-7.63C356.259,375.35,359.675,378.418,359.89,382.417z"/>
						<path style="fill:#4E1649;" d="M426.879,374.155c0.215,3.999-2.853,7.415-6.853,7.63s-7.415-2.853-7.63-6.853        c-0.214-3.999,2.854-7.415,6.853-7.63C423.249,367.088,426.665,370.155,426.879,374.155z"/>
						<path style="fill:#4E1649;" d="M392.881,378.572c0.214,3.999-2.853,7.415-6.853,7.63c-3.999,0.214-7.415-2.853-7.63-6.853        c-0.215-3.999,2.853-7.415,6.853-7.63C389.251,371.505,392.667,374.573,392.881,378.572z"/>
					</g>
					<g>
						<path style="fill:#4E1649;" d="M364.953,409.119c0.215,3.999-2.853,7.415-6.852,7.63c-3.999,0.215-7.415-2.853-7.63-6.853        c-0.215-3.999,2.853-7.415,6.853-7.63C361.323,402.052,364.739,405.12,364.953,409.119z"/>
						<path style="fill:#4E1649;" d="M431.943,400.856c0.214,3.999-2.853,7.415-6.853,7.63c-3.999,0.215-7.415-2.853-7.63-6.853        c-0.214-3.999,2.853-7.415,6.853-7.629C428.312,393.789,431.729,396.857,431.943,400.856z"/>
						<path style="fill:#4E1649;" d="M397.945,405.274c0.215,3.999-2.853,7.415-6.853,7.63c-3.999,0.215-7.415-2.853-7.629-6.853        c-0.215-3.999,2.853-7.415,6.853-7.63C394.314,398.207,397.73,401.275,397.945,405.274z"/>
					</g>
					<g>
						<path style="fill:#4E1649;" d="M367.597,439.062c0.215,3.999-2.853,7.415-6.853,7.63c-3.999,0.214-7.415-2.853-7.629-6.853        c-0.215-3.999,2.853-7.415,6.853-7.63C363.967,431.995,367.383,435.063,367.597,439.062z"/>
						<path style="fill:#4E1649;" d="M434.587,430.8c0.214,3.999-2.853,7.415-6.853,7.63c-3.999,0.215-7.415-2.853-7.63-6.853        c-0.214-3.999,2.853-7.415,6.853-7.63C430.957,423.733,434.373,426.801,434.587,430.8z"/>
						<path style="fill:#4E1649;" d="M400.589,435.218c0.215,3.999-2.853,7.415-6.853,7.63c-3.999,0.214-7.415-2.853-7.629-6.853        c-0.215-3.999,2.853-7.415,6.853-7.63C396.958,428.15,400.374,431.218,400.589,435.218z"/>
					</g>
					<g>
						<path style="fill:#4E1649;" d="M372.8,468.35c0.215,3.999-2.853,7.415-6.853,7.629c-3.999,0.215-7.415-2.853-7.629-6.852        c-0.215-3.999,2.853-7.415,6.852-7.63C369.169,461.283,372.585,464.351,372.8,468.35z"/>
						<path style="fill:#4E1649;" d="M439.789,460.088c0.214,3.999-2.853,7.415-6.853,7.63c-3.999,0.214-7.415-2.854-7.63-6.853        c-0.214-3.999,2.853-7.415,6.853-7.63C436.159,453.02,439.575,456.088,439.789,460.088z"/>
						<path style="fill:#4E1649;" d="M405.791,464.505c0.215,3.999-2.853,7.415-6.853,7.629c-3.999,0.215-7.415-2.853-7.63-6.853        c-0.214-3.999,2.854-7.415,6.853-7.629C402.161,457.438,405.577,460.506,405.791,464.505z"/>
					</g>
				</g>
				<g>
					<path style="fill:#00DFFF;" d="M414.451,306.87c0.214,3.999-2.853,7.415-6.853,7.63c-3.999,0.214-7.415-2.853-7.63-6.853       s2.853-7.415,6.853-7.63C410.821,299.803,414.236,302.871,414.451,306.87z"/>
					<path style="fill:#FFC66E;" d="M348.985,314.532c0.215,3.999-2.853,7.415-6.853,7.63c-3.999,0.214-7.415-2.854-7.63-6.853       c-0.214-3.999,2.854-7.415,6.853-7.63C345.355,307.465,348.771,310.533,348.985,314.532z"/>
				</g>
				<path style="fill:#4E1649;" d="M338.999,492.909l-5.588-3.541l-19.269-159.542l-3.205-26.64      c-0.263-2.154,1.261-4.072,3.415-4.335l5.281-0.63l3.704,29.767l14.608,117.386l5.359,43.245L338.999,492.909z"/>
			</g>
			<g>
				<path style="fill:#FF8A96;" d="M414.32,352.526c-0.184,0.63-0.368,1.314-0.63,2.049c-2.286,6.647-8.512,16.893-31.606,16.289      c-24.959-0.683-42.246-5.071-43.113-5.281c0.315,0.473,4.02,6.148,6.594,15.737c0.473,1.813,0.919,3.757,1.261,5.832      c1.498,8.302,1.813,18.68-0.946,30.608c-2.89,12.506-5.675,21.412-7.934,27.612c-3.468,9.406-5.806,12.532-5.806,12.532      l11.166,30.713l2.785,7.619H213.295l-12.783-37.522c29.582-47.884,70.998-113.954,76.902-118.222      c4.414-3.153,20.44-7.251,36.729-10.667c3.074-0.657,6.174-1.261,9.195-1.839c14.897-2.89,28.164-4.913,30.608-4.729      c1.734,0.131,8.486,2.417,16.893,5.727c0.473,0.21,0.972,0.368,1.471,0.578c12.453,4.939,27.98,11.875,36.23,17.077      c0.131,0.079,0.263,0.184,0.394,0.262c0.394,0.237,0.736,0.473,1.077,0.683C412.98,349.636,414.608,351.343,414.32,352.526z"/>
				<g>
					<path style="fill:#4E1649;" d="M410.008,347.597c-3.356,1.362-6.975,2.132-10.624,2.328       c-8.046,0.431-16.268-1.894-22.532-6.918c-1.355-1.08-2.36-2.092-3.135-3.117c-2.27-3.106-2.846-6.85-2.891-10.911       c0.472,0.205,0.971,0.38,1.472,0.584c0.076,3.569,0.654,6.824,2.582,9.458c0.685,0.943,1.597,1.845,2.892,2.871       c8.431,6.752,20.625,8.432,30.772,4.747C409.053,346.985,409.56,347.304,410.008,347.597z"/>
				</g>
			</g>
		</g>
		<g>
			<path style="fill:#FFFFFF;" d="M35.694,396.237c-0.264-1.693-11.276-16.741,1.953-24.58c13.23-7.84,19.927-1.946,19.927-1.946     s-17.974-22.634,0.46-34.174c18.434-11.54,32.407,7.671,32.407,7.671s-1.031-17.758,10.996-18.474     c12.027-0.716,15.74,12,15.74,12s-0.091-26.574,18.407-26.564c18.498,0.01,20.369,26.885,20.369,26.885     s5.968-13.645,18.17-13.233c12.202,0.412,15.365,20.728,15.365,20.728s3.761-9.256,13.581-5.582     c9.82,3.673,6.299,25.607,6.299,25.607L35.694,396.237z"/>
			<g>
				<g>
					<polygon style="fill:#FFEBE9;" points="206.53,496.237 78.687,496.237 41.485,406.831 41.38,406.595 41.065,405.833        39.777,402.733 55.2,399.554 77.925,394.903 93.899,391.619 116.309,387.021 128.5,384.526 150.543,380.007 159.554,378.141        181.781,373.596 189.82,371.915 210.812,367.632 199.635,379.651 211.232,389.281      "/>
					<polygon style="fill:#FF6666;" points="107.508,496.237 93.636,496.237 57.433,405.176 56.671,403.284 56.434,402.68        55.2,399.554 77.925,394.903 78.845,398.03 78.95,398.45 78.976,398.45 80.237,402.811      "/>
					<polygon style="fill:#FF6666;" points="135.988,496.237 123.193,496.237 119.199,481.944 113.078,460.138 96.553,401.104        94.845,395.035 94.766,394.746 93.899,391.619 116.309,387.021 116.888,390.174 116.888,390.253 118.438,398.87        125.505,438.017 126.293,442.509 134.648,488.775 135.462,493.268      "/>
					<polygon style="fill:#FF6666;" points="162.786,496.237 150.753,496.237 150.306,493.951 149.518,490.036 138.825,436.283        138.037,432.342 131.101,397.557 129.13,387.652 129.104,387.6 128.5,384.526 150.543,380.007 150.858,382.897        150.884,383.159 152.172,395.376 156.244,434.023 156.717,438.647 161.551,484.493 162.05,489.117      "/>
					<polygon style="fill:#FF6666;" points="186.904,496.237 175.423,496.237 172.77,476.559 171.508,467.074 169.485,452.125        168.224,442.667 161.735,394.404 159.974,381.268 159.922,380.952 159.554,378.141 181.781,373.596 181.886,376.171        181.912,376.749 182.569,392.223      "/>
					<polygon style="fill:#FF6666;" points="213.334,496.237 206.53,496.237 192.421,391.225 190.241,375.015 190.162,374.384        189.82,371.915 210.812,367.632 200.511,378.559 211.232,389.281      "/>
				</g>
				<polygon style="fill:#FFEBE9;" points="30.591,408.013 26.016,391 216.741,351.289 219.493,368.971     "/>
				<polygon style="fill:#4E1649;" points="210.84,369.901 190.15,374.374 181.889,376.174 159.928,380.942 150.825,382.905       129.11,387.602 116.87,390.246 94.847,395.023 78.973,398.458 56.667,403.279 41.384,406.59 39.303,407.042 41.485,406.831       57.413,405.186 80.261,402.817 96.566,401.114 118.437,398.865 131.111,397.566 152.157,395.382 161.735,394.404       182.557,392.222 192.421,391.232 211.222,389.269     "/>
			</g>
			<g>
				<path style="fill:#FFFFFF;" d="M175.407,458.297c2.669,17.142-9.064,33.201-26.206,35.87      c-17.142,2.669-33.201-9.064-35.87-26.206c-2.669-17.142,9.064-33.201,26.206-35.87      C156.678,429.422,172.738,441.155,175.407,458.297z"/>
				<path style="fill:#FFC66E;" d="M144.351,491.338c-13.654,0.001-25.689-9.966-27.856-23.871      c-2.39-15.368,8.167-29.817,23.535-32.21c7.445-1.154,14.897,0.651,20.977,5.096c6.085,4.444,10.073,10.992,11.232,18.437      s-0.65,14.894-5.095,20.979c-4.444,6.084-10.993,10.073-18.438,11.232C147.245,491.228,145.788,491.338,144.351,491.338z       M144.426,436.503c-1.377,0-2.764,0.107-4.152,0.323c-14.502,2.257-24.468,15.893-22.21,30.398      c2.256,14.505,15.894,24.47,30.399,22.209c7.025-1.093,13.207-4.858,17.401-10.6c4.194-5.741,5.901-12.773,4.807-19.799l0,0      c-1.092-7.025-4.856-13.204-10.599-17.4C155.464,438.268,150.027,436.503,144.426,436.503z"/>
			</g>
		</g>
		<g>
			<g>
				<path style="fill:#FFC66E;" d="M271.993,40.128l-8.116,3.373l-3.373,8.116c-0.441,1.061-1.944,1.061-2.385,0l-3.373-8.116      l-8.116-3.373c-1.061-0.441-1.061-1.944,0-2.385l8.116-3.373l3.373-8.116c0.441-1.061,1.944-1.061,2.385,0l3.373,8.116      l8.116,3.373C273.054,38.185,273.054,39.688,271.993,40.128z"/>
				<path style="fill:#FFC66E;" d="M452.953,175.69l-8.116,3.373l-3.373,8.116c-0.441,1.061-1.944,1.061-2.385,0l-3.373-8.116      l-8.116-3.373c-1.061-0.441-1.061-1.944,0-2.385l8.116-3.373l3.373-8.116c0.441-1.061,1.944-1.061,2.385,0l3.373,8.116      l8.116,3.373C454.014,173.745,454.014,175.248,452.953,175.69z"/>
				<path style="fill:#FFC66E;" d="M486.383,438.625l-8.116,3.373l-3.373,8.116c-0.441,1.061-1.944,1.061-2.385,0l-3.373-8.116      l-8.116-3.373c-1.061-0.441-1.061-1.944,0-2.385l8.116-3.373l3.373-8.116c0.441-1.061,1.944-1.061,2.385,0l3.373,8.116      l8.116,3.373C487.444,436.681,487.444,438.185,486.383,438.625z"/>
				<path style="fill:#FFC66E;" d="M56.984,466.054l-8.116,3.373l-3.373,8.116c-0.441,1.061-1.944,1.061-2.385,0l-3.373-8.116      l-8.116-3.373c-1.061-0.441-1.061-1.944,0-2.385l8.116-3.373l3.373-8.116c0.441-1.061,1.944-1.061,2.385,0l3.373,8.116      l8.116,3.373C58.045,464.11,58.045,465.613,56.984,466.054z"/>
				<path style="fill:#FFC66E;" d="M56.821,272.326l-8.116,3.373l-3.373,8.116c-0.441,1.061-1.944,1.061-2.385,0l-3.373-8.116      l-8.116-3.373c-1.061-0.441-1.061-1.944,0-2.385l8.116-3.373l3.373-8.116c0.441-1.061,1.944-1.061,2.385,0l3.373,8.116      l8.116,3.373C57.882,270.382,57.882,271.885,56.821,272.326z"/>
			</g>
			<path style="fill:#FFFFFF;" d="M196.633,64.259h-12.937l7.587-7.394c0.561-0.547,0.573-1.445,0.026-2.005     c-0.548-0.561-1.444-0.574-2.005-0.026l-7.59,7.397V49.34c0-0.783-0.635-1.418-1.418-1.418c-0.783,0-1.418,0.635-1.418,1.418     v13.363l-7.63-7.483c-0.56-0.548-1.456-0.54-2.005,0.019c-0.549,0.559-0.54,1.457,0.019,2.005l7.153,7.015h-12.456     c-0.783,0-1.418,0.635-1.418,1.418c0,0.783,0.635,1.418,1.418,1.418h12.764l-7.457,7.266c-0.561,0.547-0.573,1.445-0.026,2.005     c0.278,0.285,0.647,0.429,1.016,0.429c0.357,0,0.714-0.134,0.99-0.402l7.633-7.439v13.06c0,0.783,0.635,1.418,1.418,1.418     c0.783,0,1.418-0.635,1.418-1.418V69.457l7.459,7.316c0.276,0.271,0.634,0.406,0.993,0.406c0.368,0,0.735-0.142,1.012-0.425     c0.548-0.56,0.54-1.457-0.019-2.005l-7.803-7.653h13.277c0.783,0,1.418-0.635,1.418-1.418     C198.051,64.894,197.416,64.259,196.633,64.259z"/>
			<path style="fill:#FFFFFF;" d="M401.352,248.434h-12.937l7.587-7.394c0.561-0.547,0.573-1.444,0.026-2.005     c-0.548-0.561-1.444-0.573-2.005-0.026l-7.59,7.397v-12.891c0-0.783-0.635-1.418-1.418-1.418s-1.418,0.635-1.418,1.418v13.363     l-7.63-7.483c-0.56-0.549-1.456-0.54-2.005,0.019c-0.548,0.559-0.54,1.457,0.019,2.005l7.152,7.015h-12.456     c-0.783,0-1.418,0.635-1.418,1.418s0.635,1.418,1.418,1.418h12.764l-7.456,7.266c-0.561,0.547-0.573,1.445-0.026,2.005     c0.278,0.285,0.647,0.429,1.016,0.429c0.357,0,0.714-0.134,0.99-0.402l7.634-7.439v13.06c0,0.783,0.635,1.418,1.418,1.418     s1.418-0.635,1.418-1.418v-12.558l7.46,7.316c0.276,0.271,0.634,0.406,0.993,0.406c0.368,0,0.735-0.142,1.012-0.425     c0.549-0.56,0.54-1.457-0.019-2.005l-7.803-7.653h13.277c0.783,0,1.418-0.635,1.418-1.418S402.135,248.434,401.352,248.434z"/>
			<path style="fill:#FFFFFF;" d="M215.973,419.626h-12.937l7.587-7.394c0.561-0.547,0.573-1.444,0.026-2.005     c-0.548-0.561-1.444-0.573-2.005-0.026l-7.59,7.397v-12.891c0-0.783-0.635-1.418-1.418-1.418s-1.418,0.635-1.418,1.418v13.363     l-7.63-7.483c-0.56-0.549-1.456-0.54-2.005,0.019c-0.548,0.559-0.54,1.457,0.019,2.005l7.153,7.015h-12.456     c-0.783,0-1.418,0.635-1.418,1.418s0.635,1.418,1.418,1.418h12.764l-7.456,7.266c-0.561,0.547-0.573,1.445-0.026,2.005     c0.279,0.285,0.647,0.429,1.016,0.429c0.357,0,0.714-0.134,0.99-0.403l7.634-7.439v13.06c0,0.783,0.635,1.418,1.418,1.418     s1.418-0.635,1.418-1.418v-12.558l7.459,7.316c0.276,0.271,0.634,0.406,0.993,0.406c0.368,0,0.735-0.142,1.012-0.425     c0.549-0.56,0.54-1.457-0.019-2.005l-7.803-7.653h13.277c0.783,0,1.418-0.635,1.418-1.418S216.756,419.626,215.973,419.626z"/>
		</g>
	</g>
</g>















</svg>
