<svg id="icons" height="512" viewBox="0 0 340 340" width="512" xmlns="http://www.w3.org/2000/svg" xmlns:xlink="http://www.w3.org/1999/xlink"><linearGradient id="linear-gradient" gradientTransform="matrix(.737 .676 -.676 .737 155.617 -158.63)" gradientUnits="userSpaceOnUse" x1="307.446" x2="255.324" y1="88.54" y2="152.823"><stop offset=".004" stop-color="#c1b291"/><stop offset="1" stop-color="#756749"/></linearGradient><linearGradient id="linear-gradient-2" gradientUnits="userSpaceOnUse" x1="322.49" x2="256.01" y1="72.755" y2="150.254"><stop offset="0" stop-color="#776754"/><stop offset="1" stop-color="#4c4130"/></linearGradient><linearGradient id="linear-gradient-3" gradientTransform="matrix(.737 .676 -.676 .737 142.46 -192.421)" x1="326.999" x2="260.519" xlink:href="#linear-gradient-2" y1="76.624" y2="154.122"/><linearGradient id="linear-gradient-4" gradientUnits="userSpaceOnUse" x1="291.936" x2="184.134" y1="242.466" y2="321.749"><stop offset="0" stop-color="#e8ddc8"/><stop offset="1" stop-color="#c1b191"/></linearGradient><linearGradient id="linear-gradient-5" x1="47.671" x2="47.671" xlink:href="#linear-gradient-2" y1="323.935" y2="243.932"/><linearGradient id="linear-gradient-6" x1="164.693" x2="164.693" xlink:href="#linear-gradient-2" y1="316.408" y2="246.766"/><linearGradient id="linear-gradient-7" x1="252.313" x2="203.318" xlink:href="#linear-gradient" y1="149.874" y2="199.563"/><linearGradient id="linear-gradient-8" x1="152.988" x2="236.532" xlink:href="#linear-gradient-2" y1="61.94" y2="191.687"/><linearGradient id="linear-gradient-9" x1="103.781" x2="187.325" xlink:href="#linear-gradient-2" y1="93.624" y2="223.371"/><linearGradient id="linear-gradient-10" x1="284.208" x2="133.206" xlink:href="#linear-gradient" y1="190.072" y2="234.931"/><linearGradient id="linear-gradient-11" x1="311.535" x2="311.535" xlink:href="#linear-gradient" y1="203.331" y2="258.631"/><linearGradient id="linear-gradient-12" x1="10.957" x2="139.353" xlink:href="#linear-gradient-2" y1="232.335" y2="232.335"/><linearGradient id="linear-gradient-13" x1="93.477" x2="96.587" xlink:href="#linear-gradient-4" y1="132.733" y2="191.513"/><linearGradient id="linear-gradient-14" gradientUnits="userSpaceOnUse" x1="173.505" x2="133.178" y1="209.382" y2="248.439"><stop offset="0" stop-color="#a06c55"/><stop offset="1" stop-color="#7a452d"/></linearGradient><linearGradient id="linear-gradient-15" x1="122.513" x2="18.881" xlink:href="#linear-gradient" y1="180.9" y2="263.274"/><linearGradient id="linear-gradient-16" x1="134.487" x2="134.487" xlink:href="#linear-gradient" y1="133.883" y2="184.829"/><linearGradient id="linear-gradient-17" x1="239.1" x2="180.701" xlink:href="#linear-gradient-4" y1="190.363" y2="270.8"/><linearGradient id="linear-gradient-18" x1="159.328" x2="159.328" xlink:href="#linear-gradient" y1="133.883" y2="184.829"/><linearGradient id="linear-gradient-19" x1="262.405" x2="194.506" xlink:href="#linear-gradient-2" y1="263.47" y2="305.949"/><linearGradient id="linear-gradient-20" x1="274.276" x2="206.376" xlink:href="#linear-gradient-2" y1="282.445" y2="324.924"/><linearGradient id="linear-gradient-21" x1="269.535" x2="204.706" xlink:href="#linear-gradient" y1="236.491" y2="287.578"/><linearGradient id="linear-gradient-22" x1="245.689" x2="196.694" xlink:href="#linear-gradient" y1="143.342" y2="193.032"/><linearGradient id="linear-gradient-23" x1="231.417" x2="164.506" xlink:href="#linear-gradient-4" y1="203.642" y2="259.776"/><linearGradient id="linear-gradient-24" gradientUnits="userSpaceOnUse" x1="299.28" x2="189.459" y1="226.347" y2="308.253"><stop offset="0" stop-color="#b7836c"/><stop offset="1" stop-color="#915c44"/></linearGradient><linearGradient id="linear-gradient-25" x1="261.582" x2="231.831" xlink:href="#linear-gradient-2" y1="223.892" y2="278.251"/><linearGradient id="linear-gradient-26" x1="171.284" x2="254.829" xlink:href="#linear-gradient-2" y1="50.159" y2="179.906"/><linearGradient id="linear-gradient-27" x1="21.355" x2="165.366" xlink:href="#linear-gradient-2" y1="210.617" y2="210.617"/><path d="m157.2 55.308a3.5 3.5 0 0 0 -3.5 3.5v75.481h7v-75.481a3.5 3.5 0 0 0 -3.5-3.5z" fill="#34363a"/><path d="m89.49 24.194a3.5 3.5 0 0 0 -3.5 3.5v106.595h7v-106.595a3.5 3.5 0 0 0 -3.5-3.5z" fill="#34363a"/><path d="m231.543 112.754h99.944v15.536h-99.944z" fill="url(#linear-gradient)" transform="matrix(.737 -.676 .676 .737 -7.378 222.094)"/><path d="m249.952 160.036 73.63-67.582-1.789-1.95-5.065-1.54-53.29 48.686a5.859 5.859 0 0 1 -6.3 1.04l-4.67-2.047-13.021 11.947z" fill="url(#linear-gradient-2)"/><rect fill="url(#linear-gradient-3)" height="15.536" rx="6.535" transform="matrix(.737 -.676 .676 .737 25.164 238.092)" width="13.069" x="311.795" y="78.963"/><path d="m201.407 315.806h82.611a45.025 45.025 0 0 0 45.025-45.025v-9l-168.643-.962c.585 18.693 7.575 45.636 41.007 54.987z" fill="url(#linear-gradient-4)"/><path d="m223.117 245.193-61.187-3.542a82.434 82.434 0 0 0 -1.55 18.43l43.067 19.019s12.502-19.814 19.67-33.907z" fill="#34363a"/><path d="m309.644 261.777h19.399v-10.451l-29.975-1.736z" fill="#34363a"/><path d="m186.269 250.8s-3.676 19.129 5.556 35.021a30.465 30.465 0 0 0 26.356 15.1h61.45a38.8 38.8 0 0 0 18.054-4.306c7.5-3.939 15.6-11.327 16.421-24.972v-26.943h-123.22z" fill="#34363a"/><path d="m84.384 315.806h81.407l-6.463-44.156h-114.835s-.602 35.332 39.891 44.156z" fill="#34363a"/><path d="m44.493 240.397h89.995v38.439h-89.995z" fill="#af9f80"/><path d="m44.493 240.397h89.995v19.22h-89.995z" fill="#34363a"/><path d="m10.957 259.617v2.418q0 3.066.3 6.115a14.411 14.411 0 0 1 1.112 7q.21.953.454 1.9a73.468 73.468 0 0 0 4.726 13.178c2.284 2.395 3.986 4.72 3.784 6.82a45.091 45.091 0 0 0 19.177 17.021 19.911 19.911 0 0 0 8.26 1.737h35.614a54 54 0 0 1 -22.537-18.573c-3.025-1.484-3.988-4.05-4.21-7a59.24 59.24 0 0 1 -5.137-14.933l-.03-.152c-1.094-1.981-1.194-4.409-.931-7q-.156-2.247-.153-4.5v-4.031c-12.967-5.355-26.245-2.765-40.429 0z" fill="url(#linear-gradient-5)"/><path d="m10.957 246.918v12.699h40.424v-14.916z" fill="#34363a"/><path d="m127.98 259.617v2.418q0 3.066.3 6.115c1.322 2.672 1.875 5.071 1.111 7q.212.953.454 1.9a73.556 73.556 0 0 0 4.727 13.178c2.244 2.312 3.54 4.587 3.784 6.82a45.085 45.085 0 0 0 19.177 17.021 19.911 19.911 0 0 0 8.26 1.737h35.616a54.01 54.01 0 0 1 -22.538-18.573c-2.663-2.1-4.213-4.4-4.21-7a59.28 59.28 0 0 1 -5.141-14.928l-.031-.152a13.063 13.063 0 0 1 -.93-7q-.157-2.247-.154-4.5c-9.135-10.553-25.85-12.327-40.425-4.036z" fill="url(#linear-gradient-6)"/><path d="m127.98 259.617h22.452a42.171 42.171 0 0 1 17.035 3.594l.936.414v-18.925l-40.423 2.217z" fill="#34363a"/><path d="m189.95 142.816 12.299 53.296h73.794l-33.797-53.296z" fill="url(#linear-gradient-7)"/><path d="m202.249 196.112h73.794l-30.683-48.385-25.834-.561a46.967 46.967 0 0 0 -4.494 18.3 6.692 6.692 0 0 1 -6.694 6.288h-11.711z" fill="url(#linear-gradient-8)"/><path d="m127.139 142.816h62.811l27.121 51.719h-102.808z" fill="url(#linear-gradient-9)"/><path d="m146.908 192.068h45.592c20.555 5.172 39.555 5.623 56.552 0h40.248a9.226 9.226 0 0 1 7.489 3.838l17.318 24.077-162.447 4.788z" fill="url(#linear-gradient-10)"/><path d="m298.19 217.752-4.163 33.574h35.016v-27.311a6.263 6.263 0 0 0 -6.263-6.263z" fill="url(#linear-gradient-11)"/><path d="m139.353 246.918h-54.188c-5.95-2.98-13.441-2.932-22.4 0h-51.808l24.06-29.166h104.02z" fill="url(#linear-gradient-12)"/><path d="m122.067 164.83v-18.31a16.33 16.33 0 0 0 -16.33-16.329h-17.017a19.578 19.578 0 0 0 -19.377 16.7 167.139 167.139 0 0 0 -1.67 25.149l1.472 8.381 51.587-1.394z" fill="url(#linear-gradient-13)"/><path d="m139.353 246.918h21.221l24.212-29.166h-45.749a35.575 35.575 0 0 0 .316 29.166z" fill="url(#linear-gradient-14)"/><path d="m103.9 176.167h-28.715s-5.659 0-7.5-4.126a234.507 234.507 0 0 0 2.593 33.046l51.794-5.289v-34.968s-3.23 11.337-18.172 11.337z" fill="#99896e"/><path d="m54.761 217.752c-4.318 13.379.334 24.01 8.006 29.166h22.4a12.959 12.959 0 0 0 4.887-6.286 13.179 13.179 0 0 1 7.133-7.721c7.5-3.2 9.128-9.863 9.089-15.159z" fill="#af9f80"/><path d="m120.612 195.943s-24.453-8.705-53.541 0c0 0-22.974-13.686-37.852-1.935-4.689 3.7-6.969 7.712-7.644 11.569 3.363 18.258 23.334 14.268 44.29 8.959l53.363 1.376c26.627 3.707 45.3 1.681 44.732-14.209a20.083 20.083 0 0 0 -3.687-5.76c-9.173-10.187-32.647-6.483-39.661 0z" fill="url(#linear-gradient-15)"/><rect fill="url(#linear-gradient-16)" height="42.314" rx="7.674" width="24.841" x="122.067" y="130.191"/><path d="m263.049 219.862s4.381-17.748-14-27.794h-56.549c.9 7.383 5.475 22.093 26.881 30.707l41.615-1.227a16.013 16.013 0 0 0 2.053-1.686z" fill="url(#linear-gradient-17)"/><rect fill="url(#linear-gradient-18)" height="42.314" rx="7.674" width="24.841" x="146.908" y="130.191"/><path d="m240.651 279.959a2.285 2.285 0 0 1 2.262 2.675 14.426 14.426 0 0 1 -28.35 0 2.285 2.285 0 0 1 2.262-2.675z" fill="url(#linear-gradient-19)"/><path d="m282.828 279.97a2.284 2.284 0 0 1 2.262 2.674 14.415 14.415 0 0 1 -28.328 0 2.283 2.283 0 0 1 2.262-2.674z" fill="url(#linear-gradient-20)"/><path d="m228.9 217.752h42.928l26.366 38.48v5.168a10.249 10.249 0 0 1 -10.249 10.249h-70.313a39.039 39.039 0 0 1 -18.027-4.412l-10.489-5.461c3.813-17.376 18.968-31.508 39.784-44.024z" fill="url(#linear-gradient-21)"/><path d="m251.52 142.073 2.528 3.05 4.375 7.105-18.976 23.939c-7.134-2.8-13.458-5.846-16.08-10.006-3.3-5.567-5.062-13.124-3.282-23.345l20.709-4.457a10.944 10.944 0 0 1 10.726 3.714z" fill="url(#linear-gradient-22)"/><path d="m160.574 246.918 28.542 14.859a28.208 28.208 0 0 0 17.107-15.494 20.354 20.354 0 0 1 10.74-9.991c10.933-4.575 12.305-13.13 11.933-18.54h-44.11a73.791 73.791 0 0 0 -24.212 29.166z" fill="url(#linear-gradient-23)"/><path d="m275.979 236.23a13.03 13.03 0 0 1 4.02 6.63c1.172 4.667 5.117 11.926 18.191 13.372v-38.48h-26.366c-2.024 4.431-3.464 11.777 4.155 18.478z" fill="url(#linear-gradient-24)"/><ellipse cx="247.717" cy="249.225" fill="url(#linear-gradient-25)" rx="13.164" ry="11.312"/><circle cx="82.966" cy="148.947" fill="#af9f80" r="3.275"/><circle cx="82.966" cy="161.666" fill="#af9f80" r="3.275"/><path d="m258.723 163.166a10.943 10.943 0 0 0 -.616-13.146l-4.059-4.9c1.544 4.105.121 7.64-4.222 12.074-3.694 3.772-7.017 7.189-9.215 9.453-2.09 2.154-5.666 3.973-8.653 3.661a14.734 14.734 0 0 1 -8.579-4.157c7.525 12.675 23.049 15.045 23.049 15.045z" fill="url(#linear-gradient-26)"/><path d="m163.954 201.705c-1.572 3.776-6.4 10.376-20.968 10.376-9.845 0-15.444-2.035-18.618-4.212a12.485 12.485 0 0 0 -10.465-1.687l-2.754-9.4a22.2 22.2 0 0 0 -5.33 12.268c-9.009 2.652-21.267 4.031-33.953-1.275a12.878 12.878 0 0 0 -10.7.31l-.23.112-2.4-12.35s-5.357 6.836-5.631 15.517c-9.067 2.736-21.159 3.506-31.327-5.785a14.86 14.86 0 0 0 -.158 3.958c.826 8.825 9.421 15.325 19.163 15.074 6.222-.16 15.386-1.507 26.488-6.441 0 0 20 14.633 53.541 1.112 0 0 14.261 7.781 29.406 5.778 8.327-1.1 14.846-7.255 15.31-14.891a18.957 18.957 0 0 0 -1.374-8.464z" fill="url(#linear-gradient-27)"/><g fill="#34363a"><path d="m67.573 184.33a7.821 7.821 0 0 1 7.354 9.907 50.744 50.744 0 0 0 -.664 22.8 7.218 7.218 0 0 1 -6.891 8.8 7.067 7.067 0 0 1 -6.595-4.686c-2.408-6.5-5.443-18.932-.234-32.011a7.59 7.59 0 0 1 7.03-4.81z"/><path d="m120.368 184.33a7.821 7.821 0 0 1 7.354 9.907 50.728 50.728 0 0 0 -.665 22.8 7.218 7.218 0 0 1 -6.891 8.8 7.066 7.066 0 0 1 -6.594-4.686c-2.409-6.5-5.444-18.932-.234-32.011a7.59 7.59 0 0 1 7.03-4.81z"/><path d="m12.368 275.149h40.1a54.771 54.771 0 0 1 -.917-7h-40.29a59.36 59.36 0 0 0 1.107 7z"/><path d="m129.39 275.149h40.1a54.771 54.771 0 0 1 -.917-7h-40.289a59.357 59.357 0 0 0 1.106 7z"/><path d="m21.453 297.228h40.4a55.5 55.5 0 0 1 -4.213-7h-40.092a60.231 60.231 0 0 0 3.905 7z"/><path d="m138.476 297.228h40.4a55.5 55.5 0 0 1 -4.213-7h-40.092a60.231 60.231 0 0 0 3.905 7z"/></g></svg>