<svg id="Western" height="512" viewBox="0 0 1200 1200" width="512" xmlns="http://www.w3.org/2000/svg"><g><path d="m928.646 264.992c-32.871-1.688-65.359 2.391-97.635 11.97-4.958-10.429-9.847-19.676-14.887-28.189-12.437-21.711-41.566-72.553-96.926-72.553-17.646.56-40.078 5.954-55.373 5.196-43.346.002-51.033-18.639-53.928-25.657-32.551-60.698-108.936-77.244-158.773-30.152-42.999 40.258-53.943 104.795-67.858 160.08-95.033-39.466-234.261-47.062-286.05 60.788-72.311 145.16 42.25 293.617 177.372 333.412 7.693 118.228 75.733 239.224 182.945 288.066-16.99 26.04-35.342 62.419-28.598 90.552 4.351 19.379 22.146 35.497 42.553 35.295 30.128-.575 41.432-27.052 48.559-41.292 5.999-12.115 13.691-24.634 23.431-38.117 8.426 1.898 16.71 2.344 24.722 1.367 4.252 9.141 12.246 26.426 17.603 39.253 5.413 13.805 13.596 34.667 35.922 43.909 17.649 6.652 37.766.654 49.566-14.521 26.49-33.26-.148-77.365-14.991-108.952 85.485-34.438 155.241-119.393 190.163-233.827 10.154-32.774 17.641-68.485 22.328-106.434 1.771-.027 3.542-.057 5.318-.083 116.112 2.3 224.7-23.024 248.288-161.454 21.293-112.549-83.872-207.878-193.751-208.657zm-288.061 597.268c-8.961 5.864-18.164 10.616-27.512 14.211-26.968-27.487-77.649-29.666-106.425-3.653-74.093-30.225-115.747-105.088-126.808-174.583 94.23 4.093 205.139-11.989 298.319-34.917 25.929-5.878 52.575-11.92 79.05-16.984-11.839 73.43-41.921 164.68-116.624 215.926z" fill="#fff"/><g><path d="m927.629 291.084c-37.649-2.04-75.555 4.704-110.747 18.266-6.878-16.305-14.391-32.352-23.41-47.598-19.26-33.617-43.93-66.331-87.412-58.155-42.889 7.084-100.695 9.649-120.298-37.883-26.939-43.568-77.273-56.621-117.167-20.706-43.645 40.861-50.123 120.445-68.164 176.046-90.279-40.399-224.794-69.364-280.102 37.557-46.678 88.87-2.73 198.669 76.479 252.745 31.009 22.977 66.055 38.929 102.98 48.744 2.683 125.979 73.758 255.961 198.708 295.908-16.743 20.622-69.171 94.386-31.813 110.991 16.422 4.592 24.373-14.775 29.967-26.075 8.224-16.61 18.395-32.153 29.469-47.004 6.805-9.118 8.422-9.154 16.979-6.586 16.393 4.927 24.604 2.237 30.068.611 5.568-1.657 8.289-2.206 13.901 7.513 3.746 6.49 8.783 17.558 16.817 35.936 8.174 14.705 10.808 36.357 27.828 43.402 17.411 4.713 27.941-15.574 24.387-30.517-7.792-29.766-22.434-57.296-38.205-83.823 106.088-25.836 173.377-127.426 203.63-226.564 12.517-40.395 19.909-82.22 23.759-124.297 57.865-1.851 120.595 2.03 174.128-24.027 44.627-20.941 68.967-69.708 77.264-116.366 17.421-100.78-74.561-175.892-169.046-178.118zm-142.036 341.45c-12.363 95.389-48.713 195.474-130.471 251.414-15.799 10.375-33.023 18.281-51.373 22.752-18.361-32.977-68.592-35.763-89.354-3.44-95.368-29.165-154.825-124.891-162.799-221.219-.848-10.173-.913-12.249 11.122-11.169 45.564 4.079 91.494 1.257 136.943-3.27 92.162-6.097 180.415-34.571 270.982-50.261 11.981-2.075 16.901.152 14.95 15.193z" fill="#68182b"/><path d="m622.517 212.729c12.301 4.563 32.12 9.434 61.195 5.386 5.712-.659 11.644-1.687 17.646-2.555 19.003-2.748 20.054 4.201 20.905 14.165 1.091 12.654-.573 25.52-4.564 37.645-13.209 41.11-46.615 54.728-74.881 16.91-13.51-16.798-22.554-35.113-29.419-55.418-1.504-4.073-2.786-7.465-3.829-10.27-6.544-17.617-3.646-12.018 12.947-5.863z" fill="#a2603f"/><path d="m436.945 230.015c9.937-45.133 42.306-105.971 97.338-92.575 46.309 15.884 57.873 69.166 73.492 109.734 23.252 62.839 86.84 109.933 120.364 25.21 4.94-14.025 7.003-29.365 5.642-44.308-.998-10.901-1.635-15.554 10.574-8.066 6.439 3.951 11.908 9.636 16.669 15.469 19.498 23.188 33.543 50.372 45.259 78.173-34.994 15.131-67.242 37.071-93.818 64.433-12.489 12.885-23.604 26.946-34.198 41.405-9.271 12.662-13.375 14.936-32.063 14.924-86.168-.045-173.039-8.295-256.929-27.741 15.858-58.898 31.225-117.919 47.67-176.658z" fill="#aa8053"/><path d="m226.949 414.121c1.403 11.547 3.622 23.152 5.644 34.587 1.203 6.809.749 9.73-4.682 14.263-5.07 4.237-20.278 12.908-21.805 14.05-8.473 6.359-11.67 13.633-.315 19.939 28.047 15.572 55.176 26.271 58.416 27.629 8.188 3.427 8.194 7.78 5.723 17.8-1.027 4.169-2.438 8.331-2.93 12.379-1.305 7.385-.848 16.123 8.065 17.872 16.719 2.346 34.072.654 50.921.115 10.099-.592 21.284-2.64 31.36-.976 7.854 1.495 5.262 12.749 7.159 18.675.773 4.308 2.051 8.942 5.275 12.099 4.567 4.476 10.76 3.342 16.57 3.117 19.24-.749 38.488-.05 57.732-.063-100.004 24.983-225.015-6.05-278.523-99.863-30.346-60.678-9.784-159.522 63.003-177.267 55.425-10.099 110.76 13.202 160.101 36.235-3.598 13.348-7.193 26.696-10.792 40.042-2.062-.128-4.081-.043-6.071.247-24.137-21.324-35.238-53.201-53.761-5.687-1.318 2.635-2.946 6.217-5.062 9.313-2.116 3.095-4.72 5.703-7.987 6.393-3.227-.047-6.231-1.128-9.123-2.651-4.819-2.539-9.33-6.306-14.05-8.552-9.075-4.563-26.284-17.511-40.062-21.063-11.46-2.955-17.445.059-17.043 12.84.197 6.191 2.126 12.856 2.237 18.527z" fill="#a2603f"/><path d="m388.902 598.674c-15.716.506-16.75-.641-18.208-11.363-.741-5.453-.598-11.236-2.979-16.136-3.377-6.953-11.816-6.746-18.515-6.62-21.162.702-42.304 3.029-63.513 1.891-3.347-.13-10.927 1.206-12.244-3.148-1.786-13.974 13.496-34.785-3.901-43.636-19.411-8.271-38.63-16.754-57.018-27.166-8.189-4.531-8.381-5.504-.812-11.261 6.699-5.095 15.567-8.922 21.614-14.272 8.304-7.349 7.533-10.888 5.925-19.777-2.804-15.542-5.599-31.13-6.953-46.866-.094-1.102-.441-3.041-.629-5.03-.682-7.165 2.871-7.252 7.904-5.811 20.321 6.539 37.067 20.888 56.012 30.298 16.375 8.255 25.214-10.105 30.998-22.323 1.632-3.445 3.438-8.41 5.907-12.127 3.31-4.987 5.663-4.203 9.265-.652 7.607 7.518 15.003 15.273 22.632 22.771-10.506 5.88-15.212 18.43-20.195 28.72-5.259 10.967-10.22 22.073-14.933 33.287-4.302 10.231-10.49 21.518-8.352 32.972 8.333 32.583 63.987 49.466 92.989 58.72 35.193 9.786 72.418 14.661 109.163 14.016-11.176 6.042-22.691 11.464-34.477 16.202-12.676 5.103-21.98 7.112-40.202 7.276-19.819.177-39.659-.57-59.478.035z" fill="#db9f6e"/><path d="m383.373 538.558c-18.478-8.713-45.027-17.848-51.369-39.311-.371-3.185.34-6.375 1.39-9.47 53.154 34.614 117.145 48.571 179.601 53.941 18.664 1.484 37.389 1.956 56.104 1.621-3.333 2.545-6.71 5.032-10.132 7.461-9.742 6.91-17.025 10.286-30.389 10.688-49.367 1.485-99.401-6.504-145.205-24.93z" fill="#ff801d"/><path d="m559.279 538.576c-63.643.249-129.133-9.083-187.15-35.338-4.661-2.323-9.687-4.666-14.647-7.16-18.749-9.424-21.646-13.118-14.962-28.576 3.215-7.455 6.543-14.83 9.943-22.233 6.031-13.111 10.745-9.217 24.594-5.401 28.002 7.717 56.808 12.946 85.354 17.657 53.597 8.693 107.659 15.241 161.908 17.939 18.531.922 9.12 6.602 1.814 15.408-10.497 12.657-21.904 24.573-34.139 35.578-9.248 8.319-17.247 12.061-32.715 12.126z" fill="#ffb578"/><path d="m624.512 468.382c-88.768-4.851-177.988-16.049-263.507-40.523 7.499-15.365 18.103-12.774 31.997-8.538 42.729 9.543 86.154 15.986 129.711 20.314 45.45 4.518 91.154 6.595 136.829 6.215-3.026 4.329-6.066 8.65-9.136 12.948-6.598 9.231-9.954 10.454-25.894 9.584z" fill="#ff801d"/><path d="m494.865 942.566c-83.411-30.096-143.864-104.309-168.847-188.549-7.41-24.988-11.846-50.678-13.787-76.618-.998-13.391-3.245-14.735 9.665-12.188 5.777 1.138 11.587 2.132 17.427 2.986 4.237 86.04 42.64 171.123 115.903 219.71 25.065 15.707 38.42 20.555 45.229 22.705 8.396 2.648 6.831 1.195 4.983 10.945-.599 3.148-1.224 7.467-1.552 13.463-.428 7.859.078 10.831-9.021 7.546z" fill="#db9f6e"/><path d="m571.329 908.499c-5.896 4.906-11.544 10.11-16.919 15.585-7.666 7.811-8.535 8.446-10.919-1.801-1.124-4.816-2.069-9.667-2.874-14.494-1.619-9.647-1.918-12.465 5.838-14.745 9.864-2.898 20.993-1.505 30.291 3.335 7.36 3.822.081 7.547-5.417 12.12z" fill="#db9f6e"/><path d="m517.361 986.558c-7.616 10.143-14.853 20.564-21.335 31.475-3.347 3.475-9.118 19.242-15.336 29.361-8.284 13.469-18.601 11.533-14.594-10.236 3.089-16.766 15.003-34.479 22.495-47.84 4.433-6.986 9.161-13.901 14.309-20.459 5.711-7.278 6.877-5.721 10.273-1.378 1.817 2.325 3.837 4.497 6.012 6.515 4.77 4.423 2.197 7.216-1.824 12.562z" fill="#db9f6e"/><path d="m547.439 977.121c-8.906-2.561-17.211-7.782-23.146-14.258-12.307-13.437-12.179-33.078-3.454-48.4.614-1.078 1.262-2.128 1.945-3.145 5.865-8.752 5.799-5.502 7.742 4.617 3.735 19.441 9.741 38.73 20.834 54.879 4.726 6.883 6.488 9.298-3.921 6.307z" fill="#db9f6e"/><path d="m581.477 970.211c-6.615 5.876-11.124 6.863-16.593.1-3.594-4.445-7.219-10.785-9.979-16.15-4.421-8.594-4.104-9.429 1.774-15.885 7.311-8.021 15.207-15.506 23.622-22.365 10.87-8.853 12.806-5.869 15.269-.609 8.328 17.801.663 41.795-14.093 54.909z" fill="#db9f6e"/><path d="m641.607 1035.146c2.424 6.952 5.151 14.782 2.518 22.076-1.45 4.023-5.068 8.132-9.728 6.354-6.069-2.316-8.785-11.678-11.243-17.039-9.408-19.41-16.339-40.565-27.787-59.022-2.131-3.434-4.043-10.517-1.934-12.869 1.932-2.159 3.72-4.479 5.352-6.923 6.658-9.971 6.687-4.65 10.331.933 13.48 20.652 23.655 43.578 32.491 66.49z" fill="#db9f6e"/><path d="m831.879 627.666c-7.405 62.616-23.645 124.796-53.363 180.564-33.244 62.94-87.181 120.709-157.472 139.527-11.738 3.135-12.439-1.859-11.704-5.561 1.048-5.271 1.439-10.596.931-15.837-.686-7.088-2.062-8.396 10.198-12.667 83.126-28.945 134.19-113.746 158.737-194.669 10.456-34.48 16.728-70.096 20.099-105.938 7.868-.906 15.738-1.645 23.62-2.225 11.504-.855 10.846.824 8.954 16.806z" fill="#db9f6e"/><path d="m963.979 590.768c-50.156 9.026-101.428 4.086-152.007 9.215-57.525 5.834-113.594 20.348-169.875 33.102 58.154-27.301 105.253-72.787 139.201-127.152 35.078-51.481 91.269-97.851 156.59-96.158 30.026 1.201 58.325 15.979 71.406 43.874 15.604 33.275 6.862 72.877-6.995 105.847-7.017 16.696-16.18 27.298-38.32 31.272z" fill="#aa8053"/><path d="m1046.918 537.078c-7.863 21.207-10.662 27.362-30.674 37.274-5.41 2.678-11.027 4.983-16.57 7.095 71.27-129.426-22.348-229.098-151.193-151.79-20.354 12.885-38.435 29.251-54.001 47.593-48.008 65.755-72.151 102.26-129.986 136.312-24.574 14.47-69.578 29.709-96.15 33.921-32.781 5.196-65.787 8.851-98.922 11.309 43.732-11.671 85.773-29.094 123.468-54.726 43.387-29.504 78.399-68.202 111.798-108.242 38.007-45.924 75.931-94.902 131.648-120.087 71.244-36.59 187.464-32.788 217.193 55.258 11.332 34.913 5.98 72.111-6.611 106.083z" fill="#a2603f"/><path d="m1076.535 500.061c-4.416 11.74-9.914 23.472-16.781 34.25 16.892-51.344 18.207-110.369-21.884-151.15-70.608-68.393-187.076-42.504-257.115 13.726-63.958 53.57-105.43 129.296-171.525 180.885-45.101 36.25-98.356 59.238-154.093 72.888-42.241 10.337-61.989 13.962-113.295 6.377-13.26-1.96-26.424-4.618-39.403-7.933-52.877-13.946-102.275-42.482-139.331-82.953-61.159-64.825-72.29-182.67.753-242.93 68.485-52.522 161.742-19.554 233.571 8.97-1.909 7.079-3.816 14.16-5.726 21.239-48.83-22.966-102.653-44.247-157.55-37.575-47.454 4.79-78.991 47.867-89.184 91.6-25.552 99.132 52.115 176.106 140.622 204.245 117.985 38.607 250.105-7.452 333.629-95.547 40.354-42.172 65.998-96.301 108.286-136.793 20.616-19.723 44.338-36.219 69.871-48.927 44.206-21.999 94.745-32.302 143.971-26.685 99.587 9.642 174.389 96.603 135.184 196.313z" fill="#aa8053"/><path d="m341.457 470.079c-5.224 13.324-1.632 17.124 16.024 25.999 4.961 2.494 9.986 4.837 14.647 7.16 58.018 26.255 123.508 35.587 187.15 35.338 15.468-.065 23.467-3.807 32.715-12.125 8.86-7.969 17.272-16.431 25.232-25.293-16.168 5.716-32.821 10.065-49.643 13.314-38.92 7.513-80.079 8.068-119.028.497-23.026-4.478-45.936-10.392-67.746-19.094-12.576-5.015-30.61-13.437-39.351-25.796z" fill="#ff9750"/><path d="m376.399 451.546c18.36 3.011 36.631 7.093 54.921 10.542 32.348 6.098 64.758 11.837 97.507 15.324 29.829 3.178 60.489 4.5 90.229-.211 2.504-.396 5.308-.902 8.232-1.521-.903-.088-1.879-.162-2.97-.216-54.249-2.698-108.311-9.247-161.908-17.939-28.547-4.711-57.353-9.939-85.354-17.657-13.85-3.816-18.563-7.71-24.594 5.401-1.005 2.188-1.947 4.388-2.939 6.573 8.478-2.293 17.934-1.762 26.876-.296z" fill="#ffc9a1"/><g fill="#c98450"><path d="m513.174 967.481c-.453-.583-.865-1.103-1.256-1.569-.281 5.039.487 10.24-.673 15.322-2.312 10.119-10.076 19.309-15.491 27.92-8.963 14.254-13.44 34.089-25.021 46.68 2.933-.11 6.604-2.988 9.957-8.439 6.218-10.119 11.989-25.887 15.336-29.361 6.482-10.91 13.719-21.332 21.335-31.475 4.021-5.347 6.594-8.14 1.824-12.563-2.175-2.018-4.194-4.19-6.011-6.515z"/><path d="m528.103 961.26c-6.557-4.269-10.942-11.154-13.137-18.678.951 7.359 3.951 14.412 9.327 20.281 5.935 6.476 14.239 11.697 23.146 14.258 10.409 2.991 8.646.576 3.922-6.307-3.258-4.745-6.033-9.782-8.486-14.994-1.692 6.712-5.881 11.23-14.772 5.44z"/><path d="m562.742 957.722c-6.123-5.258-6.479-12.988-5.227-20.299-.27.292-.568.558-.836.852-5.879 6.456-6.195 7.291-1.774 15.885 2.761 5.365 6.386 11.705 9.979 16.15 5.469 6.764 9.978 5.776 16.593-.1 11.637-10.344 18.826-27.444 17.274-42.947-1.745 9.625-5.457 18.5-12.658 25.932-6.007 6.205-15.816 10.996-23.351 4.527z"/><path d="m547.089 912.666c-3.596-1.529-5.757-5.389-7.142-9.337.166 1.315.382 2.748.67 4.46.805 4.827 1.75 9.678 2.874 14.494 2.384 10.247 3.253 9.611 10.919 1.801 5.375-5.475 11.023-10.679 16.919-15.585 1.635-1.358 3.418-2.642 4.937-3.877-2.998 1.034-5.941 2.303-8.937 3.843-5.988 3.081-13.14 7.222-20.24 4.201z"/><path d="m494.865 942.566c9.099 3.285 8.593.313 9.022-7.545.193-3.551.497-6.451.832-8.932-18.718 5.836-49.415-11.209-62.419-19.248-27.346-16.903-49.713-41.378-68.498-67.166-21.518-29.54-39.174-62.973-51.191-98.126 1.066 4.171 2.182 8.333 3.407 12.468 24.983 84.241 85.436 158.453 168.847 188.549z"/><path d="m599.703 966.397c-.295.416-.592.837-.918 1.325-1.632 2.443-3.42 4.764-5.352 6.923-2.109 2.353-.197 9.436 1.934 12.869 11.448 18.457 18.378 39.612 27.787 59.022 2.458 5.361 5.174 14.723 11.243 17.039 3.609 1.378 6.577-.785 8.415-3.695-15.479 2.42-26.705-40.997-30.485-50.352-2.753-6.813-5.815-13.422-9.235-19.926-4.11-7.814-5.337-14.171-3.456-22.873.024-.114.041-.219.067-.332z"/><path d="m621.044 947.758c70.291-18.818 124.228-76.587 157.472-139.527 16.681-31.303 29.113-64.628 38.122-98.913-12.496 36.635-28.478 72.022-49.027 104.929-19.107 30.598-42.748 58.295-70.503 81.359-13.225 10.988-27.972 21.791-43.567 29.191-10.938 5.188-30.67 11.957-43.063 5.876.025 3.837-.375 7.692-1.138 11.524-.735 3.701-.034 8.695 11.704 5.561z"/><path d="m326.196 533.085c17.976 18.358 46.1 29.333 69.619 38.227 30.474 11.52 62.477 15.014 94.826 14.292 4.068-.09 8.232-.268 12.431-.558 6.759-3.099 13.447-6.351 19.988-9.888-36.745.646-73.97-4.229-109.163-14.016-29.002-9.253-84.656-26.136-92.989-58.72-2.139-11.454 4.05-22.74 8.352-32.972 4.713-11.214 9.674-22.32 14.933-33.287 3.576-7.385 7.045-15.896 12.582-22.309-19.901 9.528-29.826 31.465-37.81 51.495-9.592 24.064-11.822 48.278 7.231 67.736z"/></g><path d="m584.795 920.657c-4.595 3.526-9.739 7.934-11.439 13.466-1.961 6.379 2.874 13.269 8.273 12.552 4.427-.589 9.554-14.302 9.756-22.784.177-7.502-2.915-6.055-6.59-3.234z" fill="#f9c6a0"/><path d="m520.237 928.646c-1.528 5.617-1.844 11.698.38 16.83 1.168 2.691 4.635 10.764 9.056 8.174 3.537-2.074-.054-10.559-.832-13.065-1.188-3.843-2.056-7.735-2.933-11.63-1.904-8.43-3.31-8.944-5.671-.309z" fill="#f9c6a0"/><path d="m563.306 897.798c-2.276-1.003-4.977-1.495-6.963-1.84-3.539-.614-8.038-.722-9.862 2.964-1.407 2.842.911 5.883 3.618 6.566 2.27.573 5.165-.924 7.185-1.731 1.823-.727 3.591-1.395 5.405-1.935 2.558-.76 4.496-2.318.617-4.024z" fill="#f9c6a0"/><path d="m601.708 963.847c7.951 13.787 16.098 27.438 23.503 41.555 8.466 16.142 14.202 32.291 19.604 49.269 1.3-6.544-1.065-13.375-3.208-19.524-8.836-22.912-19.011-45.838-32.491-66.491-3.009-4.611-3.562-9.016-7.408-4.809z" fill="#f9c6a0"/><path d="m658.35 895.466c1.825-.702 3.6-1.419 5.282-2.136 35.131-14.985 60.835-47.072 80.398-78.711 23.795-38.488 40.143-81.59 52.272-125.034 7.027-25.16 12.885-51.373 15.761-77.7-4.252.394-8.509.711-12.759 1.201-3.371 35.843-9.643 71.458-20.099 105.938-20.569 67.816-59.777 138.333-120.855 176.442z" fill="#f9c6a0"/><path d="m231.669 395.289c.188 1.99.535 3.928.629 5.03 1.354 15.736 4.149 31.324 6.953 46.866 1.608 8.889 2.379 12.429-5.925 19.777-6.047 5.35-14.916 9.177-21.614 14.272-7.569 5.757-7.378 6.73.812 11.261 18.388 10.412 37.607 18.896 57.018 27.166 17.397 8.851 2.116 29.662 3.901 43.636 1.317 4.354 8.897 3.018 12.244 3.148 6.521.351 13.033.351 19.543.193-12.222-2.476-25.682-3.998-23.071-21.142.982-6.458 4.49-13.613 1.605-20.13-5.494-12.415-20.099-17.461-31.686-22.435-7.803-3.349-15.037-7.715-22.333-12.035-10.313-6.105 8.533-14.659 13.141-18.605 12.43-10.647 2.867-33.993-.484-46.433-1.666-6.184-8.45-29.374 4.338-23.512 9.152 4.196 16.899 10.186 25.682 14.987 11.969 6.543 26.071 14.394 39.745 8.558 12.77-5.451 17.503-25.428 19.934-39.9-2.262 3.634-3.978 8.209-5.518 11.461-5.784 12.218-14.623 30.578-30.998 22.323-18.945-9.411-35.691-23.759-56.012-30.298-5.033-1.44-8.586-1.352-7.904 5.812z" fill="#f9c6a0"/><path d="m502.9 968.859c-5.147 6.558-9.876 13.473-14.309 20.459-7.492 13.361-19.406 31.074-22.495 47.84-.716 3.886-.958 7.11-.853 9.758 2.964-11.348 7.119-22.413 11.985-33.227 7.751-17.223 19.056-32.484 28.974-48.495-.918.812-1.98 1.98-3.302 3.665z" fill="#f9c6a0"/><path d="m339.323 668.198c-3.674-.538-7.313-1.23-10.962-1.878 2.282 52.288 21.951 105.289 49.768 148.573 22.046 34.304 54.489 68.495 93.913 82.958-4.915-2.712-10.49-5.979-16.815-9.943-73.264-48.587-111.667-133.67-115.904-219.71z" fill="#f9c6a0"/><path d="m613.399 228.861c6.865 20.305 15.909 38.621 29.419 55.418 26.042 34.843 56.436 26.003 71.389-7.754-12.781 9.845-29.279 13.686-46.172 6.238-25.048-11.043-32.619-39.745-32.752-66.228-4.891-1.154-9.188-2.48-12.766-3.808-16.593-6.154-19.491-11.753-12.947 5.862 1.043 2.807 2.325 6.199 3.829 10.272z" fill="#81391c"/><path d="m973.819 398.399c-40.491-16.887-90.268-3.418-126.543 17.52-48.099 27.763-78.154 79.783-113.946 120.537-27.605 31.432-58.805 58.85-96.668 77.143-31.148 15.048-65.105 21.984-99.195 21.197-21.942 9.858-44.739 17.776-68.045 23.996 33.135-2.458 66.141-6.112 98.922-11.309 26.572-4.212 71.576-19.451 96.15-33.921 57.835-34.051 81.979-70.556 129.986-136.312 15.566-18.342 33.646-34.708 54.001-47.593 128.846-77.309 222.463 22.363 151.193 151.79 3.229-1.23 6.472-2.559 9.696-3.956 9.815-16.182 17.065-33.964 20.86-53.253 9.325-47.358-9.225-106.159-56.411-125.839z" fill="#81391c"/><path d="m233.991 522.422c6.757 2.433 13.462 4.976 19.676 8.607 7.648 4.471 8.349 9.566 5.898 17.385-1.864 5.945-8.012 18.292-2.691 24.168 10.913 12.06 39.754 5.289 53.766 4.403 12.648-.801 25.43-1.644 38.097-.787 13.865.938 10.319 22.127 17.812 30.728 4.401 5.053 12.726 2.576 18.296 2.588 12.435.022 24.843-.083 37.265-.737 3.741-.198 7.495-.452 11.255-.744 3.6-.745 7.18-1.538 10.721-2.425-19.244.014-38.492-.686-57.732.063-5.811.225-12.003 1.358-16.57-3.117-3.225-3.157-4.502-7.791-5.275-12.099-1.897-5.926.695-17.18-7.159-18.675-10.076-1.665-21.261.384-31.36.976-16.849.539-34.202 2.23-50.921-.115-8.913-1.749-9.37-10.487-8.065-17.872.492-4.048 1.902-8.21 2.93-12.379 2.472-10.02 2.465-14.374-5.723-17.8-3.24-1.358-30.369-12.058-58.416-27.629-11.355-6.306-8.158-13.58.315-19.939 1.527-1.142 16.735-9.813 21.805-14.05 5.431-4.533 5.885-7.454 4.682-14.263-2.021-11.435-4.241-23.04-5.644-34.587-.111-5.671-2.04-12.336-2.236-18.524-.402-12.781 5.583-15.794 17.043-12.84 13.778 3.553 30.987 16.501 40.062 21.063 4.72 2.246 9.231 6.013 14.05 8.552 2.892 1.522 5.896 2.604 9.123 2.651 3.267-.69 5.871-3.298 7.987-6.393 2.116-3.096 3.744-6.678 5.062-9.313 18.522-47.515 29.624-15.638 53.761 5.687 1.99-.29 4.01-.375 6.071-.247.309-1.14.614-2.282.923-3.423-6.767-8.761-14.143-17.083-21.916-24.931-10.461-10.555-22.88-20.661-34.031-5.937-6.351 8.385-10.229 32.03-24.576 28.417-10.283-2.588-20.177-10.917-29.667-15.671-12.971-6.494-35.226-17.805-48.954-7.701-14.207 10.454-2.917 40.5.128 53.405 1.381 5.86 2.386 11.774 2.154 17.81-.326 8.484-7.652 13.686-13.62 18.585-6.652 5.462-18.729 13.521-19.348 23.391-1.246 19.788 30.845 28.617 45.022 33.719z" fill="#81391c"/><path d="m700.249 227.348c-7.362 1.362-14.688.697-22.277 1.833-5.46.818-9.332 2.341-11.916 7.396-5.759 11.266 4.758 28.236 15.365 32.533 14.418 5.838 23.439-4.402 29.015-16.761 1.96-4.349 3.858-11.158 3.314-16.82-.69-7.217-8.722-9.056-13.501-8.181z" fill="#f5995a"/><path d="m1053.53 430.995c-29.729-88.046-145.949-91.849-217.193-55.258-55.718 25.185-93.642 74.163-131.648 120.087-14.321 17.171-28.994 34.038-44.442 50.096 21.735-16.233 40.73-35.596 58.573-55.951 19.973-22.783 38.908-46.498 61.071-67.251 24.247-22.7 54.045-41.187 85.121-52.868 28.607-10.753 59.297-13.128 89.318-7.924 28.622 4.963 58.093 15.855 77.396 38.333 13.505 15.727 21.666 34.852 27.061 55.175-.958-8.221-2.646-16.393-5.257-24.439z" fill="#f5995a"/><path d="m165.56 505.745c42.338 74.227 129.435 109.114 213.494 108.088-22.639-1.313-45.191-4.511-67.201-9.973-37.067-9.199-72.531-26.077-100.711-52.137-19.456-17.991-34.798-40.631-43.547-65.681-14.977-42.873-6.967-100.859 28.409-131.598 31.742-27.584 79.423-22.977 117.005-12.772 17.371 4.715 34.254 11.326 50.399 19.257 7.611 3.737 15.69 7.836 22.788 12.941.82-3.051 1.644-6.105 2.467-9.156-49.341-23.033-104.676-46.334-160.101-36.235-72.786 17.744-93.347 116.589-63.002 177.266z" fill="#f5995a"/><path d="m1071.292 422.181c-12.624-49.266-55.565-79.481-103.304-89.268-57.147-11.713-114.849 4.162-163.442 34.695-55.094 34.618-93.354 87.547-134.442 136.683-20.715 24.773-42.457 48.268-68.782 67.161-25.335 18.183-53.287 32.808-81.714 45.486-63.319 28.243-131.378 41.052-200.07 27.513-62.023-12.227-118.979-44.546-160.618-91.975-10.879-12.39-22.291-27.696-32.271-44.485 8.524 21.612 20.85 41.616 36.458 58.16 37.056 40.471 86.454 69.007 139.331 82.953 12.979 3.314 26.144 5.973 39.403 7.933 51.306 7.585 71.054 3.96 113.295-6.377 55.737-13.649 108.992-36.638 154.093-72.888 66.096-51.589 107.567-127.315 171.525-180.885 70.039-56.23 186.507-82.119 257.115-13.726 28.191 28.677 35.856 66.372 32.081 104.075 6.371-21.256 6.876-43.459 1.342-65.055z" fill="#865725"/><path d="m389.273 406.672c83.891 19.446 170.761 27.696 256.929 27.741 18.688.012 22.793-2.262 32.063-14.924 10.594-14.459 21.709-28.52 34.198-41.405 20.978-21.598 45.521-39.751 72.128-53.909-11.72 4.041-23.083 10.054-32.977 15.554-21.896 12.172-41.742 27.686-61.589 42.844-21.412 16.357-40.02 29.943-66.776 36.289-24.06 5.705-49.232 5.023-73.726 3.438-21.669-1.403-43.308-3.793-64.71-7.463-17.69-3.036-36.377-6.896-51.753-16.563-25.188-15.833-26.575-41.735-23.227-68.535-6.843 25.645-13.656 51.3-20.56 76.933z" fill="#865725"/><path d="m234.156 315.853c54.897-6.672 108.721 14.609 157.55 37.575.769-2.852 1.538-5.703 2.305-8.554-20.519-9.006-40.676-18.59-62.38-24.58-18.246-5.035-37.114-7.929-56.014-8.761-15.406-.68-32.75.604-48.567 5.41 2.336-.438 4.686-.845 7.106-1.09z" fill="#865725"/><path d="m781.298 505.932c-29.46 47.177-68.834 87.646-116.729 115.369 39.747-13.215 73.511-40.34 101.554-71.61 18.062-20.141 32.522-43.084 50.438-63.293 20.379-22.984 44.741-43.064 73.713-53.92 21.834-8.183 46.745-10.899 69.178-3.666 29.821 9.615 41.718 42.059 44.765 70.696 3.37 31.666-13.038 63.362-35.253 84.925-2.514 2.44-5.156 4.678-7.863 6.805.958-.164 1.92-.297 2.878-.47 22.141-3.974 31.304-14.576 38.32-31.272 13.857-32.97 22.599-72.571 6.995-105.847-13.081-27.895-41.38-42.673-71.406-43.874-65.321-1.693-121.512 44.676-156.59 96.157z" fill="#865725"/><path d="m567.787 332.345c-8.85-12.229-19.552-22.6-28.063-35.147-8.604-12.683-16.287-26.055-22.388-40.424-6.922-16.308-13.116-32.846-16.568-50.503-5.008-25.599-10.805-32.158-23.898-9.813-19.544 33.352-32.196 71.971-36.685 111.232-2.168 18.965-.621 39.822 10.877 55.124 14.475 19.262 36.277 26.534 58.008 29.429 22.127 2.945 46.479 6.847 63.053-13.594 11.275-13.904 4.904-33.546-4.336-46.304z" fill="#c6956a"/><path d="m952.342 490.378c-17.753-17.888-54.009 1.246-70.79 11.178-27.872 16.499-47.521 43.417-71.969 64.048-18.893 15.95-16.766 15.793 11.113 13.425 16.426-1.394 33.006-1.457 49.597-1.423 21.784.042 46.415 2.276 66.029-9.01 14.229-8.186 21.041-23.969 23.638-39.457 2.161-12.899 2.218-28.849-7.618-38.761z" fill="#c6956a"/><path d="m727.509 379.36c-42.288 40.492-67.932 94.621-108.286 136.793-80.758 85.179-206.944 131.044-321.862 99.093 5.417 1.869 10.852 3.647 16.292 5.263 57.953 17.187 122.107 10.721 178.762-8.393 55.265-18.648 106.251-53.021 144.86-96.656 37.42-42.291 62.857-93.751 102.47-134.274 50.777-51.947 122.294-74.769 195.132-78.045-47.168-4.047-95.226 6.256-137.496 27.292-25.534 12.707-49.256 29.203-69.872 48.927z" fill="#c6956a"/><path d="m649.8 457.964c-10.674.002-21.351.033-32.025-.048-22.135-.171-44.262-.845-66.371-1.956-47.19-2.372-93.859-7.677-140.313-15.336 69.982 15.797 141.848 23.847 213.42 27.758 15.94.87 19.296-.354 25.894-9.584.202-.283.4-.571.604-.856-.401.004-.809.022-1.209.022z" fill="#ef6200"/><path d="m454.432 551.403c-41.042-6.802-89.15-18.208-120.632-47.535 8.529 18.194 32.486 26.633 49.572 34.69 45.805 18.426 95.838 26.415 145.205 24.931 10.438-.315 17.175-2.473 24.263-6.683-32.879 1.86-66-.031-98.408-5.403z" fill="#ef6200"/><path d="m534.795 544.96c-7.271-.283-14.542-.664-21.801-1.241-62.456-5.37-126.446-19.327-179.601-53.941-.313.92-.578 1.851-.81 2.784 11.729 9.743 27.486 16.147 40.66 22.035 18.453 8.246 37.394 14.672 57.101 19.125 25.688 5.804 52.081 9.316 78.316 11.415 8.223.655 17.217.769 26.135-.177z" fill="#facb1a"/><path d="m522.713 439.635c-43.557-4.329-86.982-10.771-129.711-20.314-10.922-3.33-19.8-5.602-26.746 1.023 10.751-1.118 22.075 1.92 32.787 4.137 17.131 3.548 34.41 6.364 51.715 8.9 28.186 4.131 56.553 7.196 84.962 9.249 10.513.76 45.718 4.475 77.213 2.649-30.129-.85-60.232-2.663-90.22-5.644z" fill="#facb1a"/></g></g></svg>